<?xml version="1.0" encoding="utf-8"?>
<!-- Generator: Adobe Illustrator 28.2.0, SVG Export Plug-In . SVG Version: 6.00 Build 0)  -->
<svg version="1.0" id="Layer_1" xmlns="http://www.w3.org/2000/svg" xmlns:xlink="http://www.w3.org/1999/xlink" x="0px" y="0px"
	 viewBox="0 0 400 400" style="enable-background:new 0 0 400 400;" xml:space="preserve">
<style type="text/css">
	.st0{display:none;}
	.st1{display:inline;fill:#E7E8D3;}
	.st2{display:inline;fill:#D2DDBE;}
	.st3{display:inline;fill:#75996D;}
	.st4{display:inline;fill:#9EB998;}
	.st5{display:inline;fill:#5A745E;}
	.st6{display:inline;fill:#7D9480;}
	.st7{fill:#E7E8D3;}
	.st8{fill:#9EB998;}
	.st9{fill:#5A745E;}
	.st10{fill:#4D5F49;}
	.st11{fill:#5EB038;}
	.st12{fill:#D6DFD6;}
	.st13{fill:#114825;}
	.st14{fill:#252527;}
	.st15{fill:#3B7649;}
	.st16{fill:url(#SVGID_1_);}
	.st17{fill:#3CA2A3;}
	.st18{fill:#173B11;}
	.st19{fill:#4B8A79;}
	.st20{fill:#2D653F;}
	.st21{fill:#080807;}
	.st22{fill:#0C140D;}
	.st23{fill:#FCFCF7;}
	.st24{fill:#DEF9A1;}
	.st25{fill:#102617;}
	.st26{fill:#ADD64B;}
	.st27{fill:#75996D;}
	.st28{fill:#B7D2B1;}
	.st29{fill:#4E8D2F;}
	.st30{fill:#547948;}
	.st31{fill:#D0E9D0;}
	.st32{fill:#D2DDBE;}
	.st33{fill:#84A982;}
	.st34{fill:#EEED9A;}
	.st35{fill:#D8CB86;}
	.st36{fill:#F4DD91;}
	.st37{fill:#F1F2BB;}
	.st38{fill:#DBBF6B;}
	.st39{fill:#816B18;}
	.st40{fill:#837A2B;}
	.st41{fill:#CBBF57;}
	.st42{fill:#D9CA34;}
	.st43{fill:#242B12;}
	.st44{fill:#DCAB31;}
	.st45{fill:#635727;}
	.st46{fill:#A39746;}
	.st47{fill:#926E21;}
	.st48{fill:#B7CA8E;}
	.st49{fill:#C19E33;}
	.st50{fill:#8E8E47;}
	.st51{fill:#D9EA48;}
	.st52{fill:#F0F9D4;}
	.st53{fill:#D7DC9F;}
</style>
<g>
	<g id="Background_00000018227329645621241810000002843427364176391318_" class="st0">
		<path class="st1" d="M267.2,0c-2.3,2.1-2.3,2.1-4.7,4.1c2.7,10.6-1.9,8-2.3,8.6c-0.1,0.2-0.4,4.5-0.4,4.7c0.3,1.2,2.3,1.2,2.7,2.7
			c0.1,0.3,0.1,5.9,0,6.2c-1.1,3.7-3.3-1.6-5.3-1c-3.6,1.1,3.2,2.3,1.8,5.7c-0.2,0.4-2.5,0.3-3.7,1c-0.2,0.1-1.1,2-1.2,2
			c-0.3,0-3-5.2-2.5,0.8C240,30.6,229.2,28.3,217,27c-7,2.1-17,0.3-26.2,0.8c-1.4,0.1-6,0.3-5.7,1.2c-22.7,1.8-44.6,9-64.8,19.1
			c18.9-10.8,40.1-16.7,61.3-19.7c-12.2-1.8-38.4,7-50.2,12.3c-4,1.8-21.6,10.6-17,10.9c-23.1,14.5-43.1,34-57.8,57
			c-3,2.9-3.4,2-3.5,2.1c-4.4,4.6-13.2,23.5-15.6,30.1c-9.4,25.9-11.4,53.6-9.4,80.9c0.9,5.4,1.9,10.8,3.1,16.2
			c-3.1-0.5-5.5-1.1-8-3.1c-5.1,4.3-5.5,1.2-5.9,1.2c-3.6-0.2-7.3,0.4-10.9-0.4c2,7.9-2.4,3.9-3.3,4.5c-2.1,1.4,0.5,10.2-3.1,8.4
			C0,165.6,0,82.8,0,0C89.1,0.1,178.1,0,267.2,0z"/>
		<path class="st2" d="M31.3,237.9c11,50.5,45.6,92.3,90.6,116.8c2.6,1.4,5.2,2.6,7.8,3.9c1.2,2,10.5,10.3,12.7,12.1
			c12.1,10,29.8,18.2,26.8,29.3c-56.4,0-112.8,0-169.1,0c0-50.5,0-101,0-151.6c3.6,1.8,1-7,3.1-8.4c0.9-0.6,5.4,3.4,3.3-4.5
			c3.6,0.8,7.3,0.1,10.9,0.4c0.4,0,0.8,3.1,5.9-1.2C25.8,236.8,28.1,237.4,31.3,237.9z"/>
		<path class="st2" d="M267.2,0c44.3,0,88.5,0,132.8,0c0,61.7,0,123.4,0,185.1c-0.5,0.1-0.9-0.2-1.2-0.6
			c-1.5-2.1-8.4-18.5-10.5-22.7c-1.2-2.3-3.1-4.3-4.3-6.6c-0.5-0.9-1-3.8-2-5.5c-10.9-20.3-25.2-42.9-43.2-57.6
			c-0.5-0.4-1.7-0.3-1.8-0.4c-4-3.2-4.2-6.3-7-5.1c-10.5-11.5-24.8-22.8-37.9-31.2c-12.6-8.1-26.5-15.5-40.6-20.7
			c-0.5-6,2.2-0.8,2.5-0.8c0.1,0,1-1.8,1.2-2c1.2-0.7,3.5-0.6,3.7-1c1.5-3.4-5.4-4.6-1.8-5.7c2-0.6,4.2,4.7,5.3,1
			c0.1-0.3,0.1-5.9,0-6.2c-0.4-1.5-2.4-1.5-2.7-2.7c-0.1-0.2,0.3-4.5,0.4-4.7c0.5-0.6,5,2,2.3-8.6C264.8,2.1,264.8,2.1,267.2,0z"/>
		<path class="st3" d="M400,270.3c0,43.2,0,86.5,0,129.7c-50.5,0-101,0-151.6,0c-2.2-5.3-9.7-5.4-14.6-10.9
			c-7.4-3.1-19.3-3.7-23-5.1c-0.4-0.1-0.1-0.8-0.2-0.8c-1.1-0.5-2-0.7-3.1-1c8.3,0.3,16.8,1.3,25.2,1.4c-3.2-0.6-3.2-0.6-6.4-1.2
			c0.1,0-0.2-0.4,2.3-0.6c-0.7-0.3-0.7-0.3-1.4-0.6c14.4-0.1,28.5-2.4,42.6-5.5c1.2-0.3,2.6-1.3,3.5-1.6c0.9-0.2,2.6,0.2,3.5,0
			c5.3-1.3,10.6-3.6,16-3.9c2-3.1,3.9-1.7,7-3.1c24-15.2,41.6-31.2,58.8-54.1c3.4-4.9,4.8-8.9,5.1-9.4c0.1-0.1,1.4-0.6,2-1.6
			c1.5-2.5,6.8-12.2,7.4-14.1c0.3-0.9-0.6-1.7-0.4-2.3c3.3-10.8,5.2-21.4,7.8-32.4c1.2-9.7,1.9-19.3,2.3-29.1c0.3-6.5,0.6,5,1.2,8.8
			c0-6.1,0-6.1,0-12.1c0.8,3.7,0.8,3.7,1.6,7.4c0-5.9,0-5.9,0-11.7c0.4,0.2,0.4,0.2,0.8,0.4c0-1,0-2,0-2.9c3.8,9.7,1.8,24.4,7,31.1
			C393.7,251.6,396.2,266.2,400,270.3z"/>
		<path class="st4" d="M400,185.2c0,28.4,0,56.8,0,85.2c-3.8-4.1-6.3-18.7-6.6-25.2c-5.2-6.7-3.2-21.4-7-31.1c0.1-4-0.8-6.4,0.6-1.2
			c0.9,0-3.4-21.6,0.2-6.8c-0.9-10.3-6.4-29.2-9.8-39.5c-3.9-11.7-11.2-31.1-19.1-40c-1.8-3.6-4.2-7.8-6.2-11.3
			c-4.8-8.5-5.2-7.2-5.5-7.6c-0.1-0.2-0.2-2-0.4-2.3c-2.9-4.5-6.5-8.7-9-13.5c0.1,0.1,1.3,0,1.8,0.4c17.9,14.8,32.2,37.3,43.2,57.6
			c0.9,1.7,1.5,4.6,2,5.5c1.2,2.3,3.1,4.3,4.3,6.6c2.1,4.2,9.1,20.5,10.5,22.7C399.1,185,399.5,185.3,400,185.2z"/>
		<path class="st4" d="M173.1,372.6c-0.2,1.1,0.7,0.7,0.8,0.8c0.1,0.2-0.2,0.9,0.2,1.2c1,0.6,17.4,4.5,20.7,6.2
			c7.9,1.2,7.9,1.2,15.8,2.3c0,0-0.2,0.6,0.2,0.8c3.7,1.4,15.6,2,23,5.1c5,5.5,12.5,5.7,14.6,10.9c-26.4,0-52.9,0-79.3,0
			c3-11.1-14.6-19.3-26.8-29.3c-2.2-1.8-11.5-10.1-12.7-12.1C144.1,365.5,157.2,369.9,173.1,372.6z"/>
		<path class="st5" d="M382.8,224.2c-0.4,9.8-1.1,19.4-2.3,29.1c-2.6,11-4.5,21.6-7.8,32.4c-0.2,0.7,0.7,1.4,0.4,2.3
			c-0.6,1.9-5.9,11.5-7.4,14.1c-0.6,0.9-1.9,1.5-2,1.6c-0.3,0.5-1.7,4.5-5.1,9.4c-17.2,22.9-34.8,38.9-58.8,54.1
			c-3.1,1.4-5.1,0.1-7,3.1c-5.4,0.3-10.7,2.6-16,3.9c-0.9,0.2-2.6-0.2-3.5,0c-1,0.2-2.3,1.3-3.5,1.6c-14,3.1-28.2,5.4-42.6,5.5
			c0.7,0.3,0.7,0.3,1.4,0.6c-2.5,0.2-2.2,0.6-2.3,0.6c-4,0.4-12.4-1.6-17-1.6c7.4,0,7.4,0,14.8,0c-5.9-0.5-21-1-22.9-4.3
			c24.6,0.4,47.7-4.7,70.1-14.8c50.2-22.8,89-68.5,101.8-122.3c4.4-18.7,5.5-35.6,3.1-54.7c2.1-0.3,3.5,7.8,3.9,10.4
			C381.7,204.7,380.7,214.7,382.8,224.2z"/>
		<path class="st6" d="M386.3,214.1c0,1,0,2,0,2.9c-0.4-0.2-0.4-0.2-0.8-0.4c0,5.9,0,5.9,0,11.7c-0.8-3.7-0.8-3.7-1.6-7.4
			c0,6.1,0,6.1,0,12.1c-0.5-3.7-0.9-15.3-1.2-8.8c-2.1-9.6-1.1-19.5-2.7-29.1c-0.4-2.5-1.8-10.7-3.9-10.4
			c-0.8-6.5-2.3-14.2-3.9-20.5c-1-3.9-5.5-19.1-7.8-21.3c0-3.2-4.3-12.4-6.2-16.4c7.9,9,15.2,28.3,19.1,40
			c3.4,10.2,8.8,29.2,9.8,39.5c-3.6-14.8,0.7,6.8-0.2,6.8C385.5,207.6,386.4,210.1,386.3,214.1z"/>
		<path class="st6" d="M193.8,376.2c2.5,0.2,4.9,0.4,7.4,0.4c1.9,3.3,17,3.8,22.9,4.3c-7.4,0-7.4,0-14.8,0c4.6-0.1,13,1.9,17,1.6
			c3.2,0.6,3.2,0.6,6.4,1.2c-8.4-0.1-16.8-1.1-25.2-1.4c1.1,0.2,2.1,0.5,3.1,1c-7.9-1.2-7.9-1.2-15.8-2.3
			c-3.3-1.8-19.7-5.6-20.7-6.2c-0.4-0.3-0.1-1-0.2-1.2C180.5,374.4,187,375.7,193.8,376.2z"/>
	</g>
	<g>
		<path class="st7" d="M106.2,24.1c-2.2,1.2-4.6,2.7-6.7,4c-5.3-0.4,14.9-10.5,19.4-12.5c13.5-6.1,43.5-16.2,57.4-14.1
			C152,5,127.8,11.8,106.2,24.1z"/>
		<g>
			<path class="st8" d="M354,74.2c2.9,5.5,7,10.2,10.3,15.4c0.2,0.4,0.3,2.5,0.4,2.7c0.3,0.5,0.7-1,6.3,8.7c-0.7,0-2.2-1.6-2.7-2.2
				c-4.5-5.4-11.1-18.1-22.3-30.4C349.2,67,349.3,70.5,354,74.2z"/>
			<path class="st9" d="M370.9,101c2.3,4.1,5.1,8.8,7.1,13c2.2,4.5,7.1,15.1,7.1,18.8c-0.1,0-0.5,0-0.9,0c-4.3-11.8-9.9-23-16.1-34
				C368.7,99.4,370.2,101,370.9,101z"/>
			<path class="st10" d="M190.1,398.2c0,0.7,0,0.7,0,1.3c-7.7-0.5-15.2-2-22.8-3.1c0-0.1-1.1,0.4-0.9-0.9
				C174.4,396.9,182,397.8,190.1,398.2z"/>
		</g>
		<g>
			<path class="st11" d="M262.9,14.7c-0.6,0.3-0.8,0.6-1.6,0.4c-1.6-0.3-15.4-5.5-25-7.6c-27.1-6-51.1-5.9-78.1,0
				C78.9,25,18.8,90.9,6.6,170.9c-8,52.6,6.5,103.5,38.8,145.2c4.1,5.3,13.6,15.1,13.8,16.1c0.2,0.7-1.3,0.2-1.3,0.7
				c-64-65.7-74-162-24.6-239.5C50.2,67.1,73,44.8,99.5,28.2c2.1-1.3,4.5-2.8,6.7-4c23.2-11.6,48.2-19.9,74.1-21.9
				C211.5-0.2,234,3.2,262.9,14.7z"/>
			<path class="st7" d="M33.4,93.4C-16.1,170.9-6.1,267.2,58,332.9c15.9,16.3,34.7,30.7,54.9,41.1c1.2,3.6-3-1.8-4.9,0.9
				C56.5,346.9,17,299.1,4.4,241.3C3,235.2,1.9,229,0.8,222.8c-2.3-31.2,0-62.9,10.7-92.5c2.7-7.5,12.9-29.1,17.9-34.4
				C29.6,95.7,30,96.7,33.4,93.4z"/>
			<path class="st7" d="M256.2,8.9c16.1,5.9,32.1,14.4,46.4,23.7c-2.5,0.5-0.2,0.6-0.4,2.2c-13.4-8.7-24.5-14.2-39.3-20.1
				C234,3.2,211.5-0.2,180.3,2.2c-0.4-1,4.9-1.3,6.5-1.3c10.5-0.6,21.9,1.5,29.9-0.9C230.6,1.5,243,4.1,256.2,8.9z"/>
			<path class="st12" d="M326.3,348.1c-37.9,32.8-85.7,52.3-136.2,50.1c-8.1-0.4-15.7-1.3-23.7-2.7c-18.1-3.1-33-8.2-49.6-16.1
				c-3-1.5-6-2.9-8.9-4.5c1.9-2.7,6.1,2.7,4.9-0.9c72.2,37.3,154.5,22.9,214.3-30.4C330.9,345.3,325,346.2,326.3,348.1z"/>
			<path class="st12" d="M302.6,32.6c15,9.7,31.3,22.6,43.3,35.8c11.2,12.3,17.8,25,22.3,30.4c6.1,11,11.8,22.1,16.1,34
				c12.6,35,15,64.4,8,101c-3.3,17.3-8.5,33.3-16.1,49.2c-0.3,0-0.8,0.1-0.9-0.2c-0.1-0.8,7.7-13.1,4.9-15
				c14.3-37.4,17-77.3,6.7-116c-12.9-48.2-43.2-89.6-84.8-116.9C302.4,33.2,300.1,33.1,302.6,32.6z"/>
			<path class="st13" d="M262.9,14.7c14.8,5.9,25.9,11.4,39.3,20.1c41.7,27.2,72,68.7,84.8,116.9c10.3,38.7,7.6,78.6-6.7,116
				c-4.3,11.2-10.2,22.1-16.5,32.2c-3.9-2,1.7-5.7,2.2-9.8c2.1-2.6,3.4-2.7,3.6-2.9c0.6-0.9,8.1-18.4,8.9-20.6
				c0.4-1-0.6-1.9-0.4-2.2c0.5-1.4,2.2-3.8,2.7-5.4c4.3-13.4,7.9-27.5,9.4-41.6c2.9-28-0.1-46.6-8.3-73.1c-0.8,0.2-0.8,0.2-1.6,0.4
				c-14.2-45.5-44-83.3-84.6-108.2c-23.6-14.4-55.3-25.7-82.8-28.2c-42.4-3.7-91.4,12.3-125.2,38C41,81.9,11.2,138.8,10.2,197.5
				C9.5,241,23.3,279.3,49.9,313.3c16.8,21.4,35.9,38.9,59.4,52.7c79.2,46.7,177,22.8,234.8-46c0.7,2.3-3.5,3.4-1.3,4.7
				c-3.3,1.5-0.9,3.4-2.2,5.6c-4.4,4.8-8.6,9.1-13.4,13.4c-59.8,53.3-142.1,67.7-214.3,30.4c-20.2-10.4-39.1-24.8-54.9-41.1
				c0-0.5,1.5,0,1.3-0.7c-0.3-1-9.7-10.8-13.8-16.1C13.1,274.4-1.4,223.5,6.6,170.9C18.8,90.9,78.9,25,158.2,7.6
				c27.1-5.9,51.1-6,78.1,0c9.6,2.1,23.4,7.3,25,7.6C262.1,15.3,262.3,15,262.9,14.7z"/>
			<path class="st14" d="M395,243.1c-14.6,61.5-58.9,113.8-116.3,139.9c-25.6,11.6-52,17.4-80.1,17c-2.9,0-5.6-0.2-8.5-0.4
				c0-0.7,0-0.7,0-1.3c50.5,2.2,98.3-17.2,136.2-50.1c20.9-18.1,38.1-40.3,50-65.2c7.5-15.9,12.8-31.9,16.1-49.2
				C398.5,232.2,389.8,242.5,395,243.1z"/>
			<path class="st7" d="M376.3,282.9c-11.9,25-29.1,47.2-50,65.2c-1.2-1.9,4.7-2.9,0.9-4.5c4.8-4.3,9-8.7,13.4-13.4
				c9-9.8,16.2-19.1,23.2-30.4c6.3-10.1,12.2-21,16.5-32.2c2.8,1.8-5,14.2-4.9,15C375.4,283,376,282.9,376.3,282.9z"/>
			<path class="st14" d="M385.2,132.7c2.6,2.5,7.8,19.9,8.9,24.4c1.9,7.2,3.5,16,4.5,23.5c2.7,21.8,1.5,41.2-3.6,62.6
				c-5.2-0.6,3.4-10.9-2.7-9.4c7-36.6,4.6-66-8-101C384.7,132.8,385.2,132.7,385.2,132.7z"/>
			<path class="st15" d="M212.4,9.4c0.4,1.3,7.6,1.5,11.4,2.2c33.1,6,64.7,19.6,91.1,40.7c43,34.4,70.8,88.2,71.7,143.5
				c-9.4,8-26.1,23-36.4,28.6c-13.6,7.4-29.2,6.6-43.8,10.7c-10.6,5.4-14,9.2-21.9,17c-0.1,0.1-0.7-0.7-2.9,1.6
				c-0.3,0.4-0.4,1.7-0.4,1.8c-8.3,9.3-0.2-0.5,0,8c5.7-0.7,3.3,2.4,4.7,2.9c0.4,0.1,5.7-4.2,4.7-0.2c-0.1,0.3-3.7,1.9-3.6,3.6
				c0.5,5.1,7-3.6,3.6,3.6c5.7,3.4,7.2,8.6,0.9,11.6c2.5,3.5-3.1-0.1,0,4c-0.8-1.2-2.9,2.5-3.1,3.1c-0.2,0.8,2.7,1.7-5.6,10.5
				c-2.7,1.4-4.7-1-5.8,0.9c-6.8-6.5-5.4-13.1-8.3-6.5c4.7,2.8,2.2,1.9,2.2,2.7c0.5,7.2-5.8,2.9,1.6,9.2c3-4.7,5.5,2.9-3.3,2.9
				c-0.9,1.1,8.8,4.7-2,3.4c-5.5-7.4,1.6-4.8-0.2-7.8c-0.2-0.3-1.6-0.6-1.8-0.9c-2.4-5.3,2.2-4.3,1.8-5.8c-0.1-0.5-3.1-1.3-3.3-1.1
				c-0.3,0.2,1.2,5.3-2.7,4.5c-4.7-1,3.7-7.2,5.4-6.3c1.9-0.5-1-5.7,1.3-5.8c0.9-0.1,0.9,3.6,4.2,0.7c-2.8-6.6,4.8,0.6,3.1-7.6
				c-0.9-2.2-5.1,7.3-4-3.6c-3.7-0.5-1.7-2.9-1.8-3.1c-0.7-1.5-3.2-2.6-2-3.4c3.2,0.5,1.6-1.6,2-2.5c2-3.7,2.4-7.1,4.5-10.3
				c-1.2-1.8-5.1,3.2-5.6,4.2c-0.6-1.9-2.7,0.2-4.2,0c12.2-45.9-7-101.5,38.8-106.6c-20.6-1.6-31.9,11.4-39.3,28.8
				c-2.3-4.7-1.9-11.9-2.2-17.2c-0.6-3.3-1.3-2.3-1.3-2.5c-5.8-37.2-12.9-65.2-31.3-98.5c-2.6-4.7-6.4-9.7-8.5-13.2
				c-6.1-10.5-14-20.2-16.5-32.4c-0.7-0.6-0.3,1-0.4,1.1c-1.7,1.6-1.9,2.1-3.1,4c-1.1,1.7-4.5,7.7-4.9,8.9c-1.6,2.3-3.1,4.7-4.5,7.2
				c-15.8,27.5-28.2,58.3-30.4,90.3c-1.6,22.8,1.7,26.4,4.5,44.2c-0.7,0.9-0.7,0.9-1.3,1.8c-1.2-8.7-3.6-16.9-4.9-25.5
				c-1.1-7-1.1-13.9-2.7-20.8c0.8,8.5-0.3,17-1.3,25.5c-0.5,12.2,1.1,24.5,0.9,36.6c-0.5,24.8-8.2,49.5,0.9,73.7
				c4,10.8,12.8,21.5,24.6,23.9c1.7,0.4,1.3,0.4,1.3,0.4c5.8,8.5,5.8,8.5,11.6,17c0.7,0.8,0.7,0.8,1.3,1.6c1.4,5.3-0.4,30.6,0,32.2
				c0.6,2.2,3.7,3.8,5.8,3.8c0.1,0,0.3,0,0.4,0c2.8,2.5,2.8,2.5,5.6,4.9c9.5-13.8,20.5-26.6,30.1-40.2c1.2,4.3,6.7-7.8,6.5-4
				c3.2-3.2,0.1,1.1,0.2,1.6c0.1,0.5,2,1.2,2.2,2.2c0.3,1.2,0.7,21.1,0.4,22.3c-12,15.1-21,32.1-29.5,49.4
				c-37.8,3.3-74.4-3.7-107.1-22.8c-18.2-10.6-31.9-22.6-46.4-37.8c-4.6-4.8-11.6-14.8-13.4-13.2c-26.6-34-40.5-72.2-39.7-115.7
				C62.2,149.2,123.5,82.7,176,38C183.5,31.7,205.7,13.4,212.4,9.4z"/>
			<linearGradient id="SVGID_1_" gradientUnits="userSpaceOnUse" x1="86.2294" y1="46.3156" x2="125.953" y2="135.3193">
				<stop  offset="0" style="stop-color:#6AA467"/>
				<stop  offset="1" style="stop-color:#4F8C52"/>
			</linearGradient>
			<path class="st16" d="M212.9,8.5c0.1,1-0.3,0.8-0.4,0.9c-6.7,4-29,22.3-36.4,28.6C123.5,82.7,62.2,149.2,10.2,197.5
				c1-58.8,30.9-115.7,77.5-151.1C121.5,20.8,170.5,4.7,212.9,8.5z"/>
			<path class="st17" d="M380.3,144.8c15.1,48.4,9.6,99.5-14.7,143.9c-6.1,11.1-13.3,21.6-21.4,31.3c-57.9,68.8-155.6,92.7-234.8,46
				c-1-1.5-0.1-1,0.4-1.8c32.8,19.1,69.3,26.1,107.1,22.8c3.2-0.3,6.6-0.8,9.8-1.3c79.2-12.3,146.1-80.3,157.6-159.5
				c1.5-10.1,2.4-20.2,2.2-30.4c-0.8-55.3-28.7-109.1-71.7-143.5c-26.4-21.1-57.9-34.7-91.1-40.7c-3.8-0.7-11-0.9-11.4-2.2
				c0.1-0.1,0.6,0.1,0.4-0.9c27.5,2.4,59.2,13.7,82.8,28.2C336.3,61.5,366.1,99.3,380.3,144.8z"/>
			<path class="st13" d="M366,290c-0.2-0.7-0.2-0.7-0.4-1.3c24.4-44.4,29.8-95.5,14.7-143.9c0.8-0.2,0.8-0.2,1.6-0.4
				c8.2,26.5,11.1,45,8.3,73.1c-1.4,14-5,28.2-9.4,41.6c-0.5,1.6-2.2,3.9-2.7,5.4c-0.1,0.4,0.8,1.2,0.4,2.2
				c-0.8,2.2-8.3,19.6-8.9,20.6C369.4,287.4,368.1,287.4,366,290z"/>
			<path class="st18" d="M366,290c-0.5,4.2-6.1,7.9-2.2,9.8c-7.1,11.3-14.2,20.6-23.2,30.4c1.4-2.2-1-4.1,2.2-5.6
				c-2.2-1.3,2-2.4,1.3-4.7c8.2-9.7,15.3-20.2,21.4-31.3C365.8,289.4,365.8,289.4,366,290z"/>
			<path class="st19" d="M109.7,364.2c-0.6,0.8-1.4,0.3-0.4,1.8c-23.5-13.8-42.6-31.3-59.4-52.7c1.8-1.6,8.8,8.4,13.4,13.2
				C77.9,341.7,91.5,353.6,109.7,364.2z"/>
			<path class="st15" d="M386.5,195.7c0.1,10.2-0.8,20.3-2.2,30.4c-16.8,18.7-27.9,12.6-34.2,32.6c-20.7,2.2-4.9,22.2-4.7,28.4
				c0.3,11-21.2,18.5-25.7,22.6c-4,3.6-7.5,11.6-11.4,16.3c-10.6,12.6-20.5,12.7-32.4,21.7c-16.4,4.4-14.1,6.5-22.3,12.5
				c-10.4,7.6-17.7,12.1-26.1,22.6c-1.3,1.6-2.2,2.3-0.9,2.9c-3.2,0.5-6.6,1.1-9.8,1.3c8.5-17.3,17.5-34.3,29.5-49.4
				c0.3-1.2-0.1-21.1-0.4-22.3c-0.3-1-2.1-1.7-2.2-2.2c-0.1-0.4,3-4.7-0.2-1.6c0.2-3.8-5.3,8.3-6.5,4c11-15.5,21.8-30.5,26.8-49.2
				c1.5,0.2,3.6-1.9,4.2,0c0.5-1,4.4-6,5.6-4.2c-2.1,3.2-2.5,6.6-4.5,10.3c-0.5,0.8,1.2,3-2,2.5c-1.2,0.7,1.3,1.9,2,3.4
				c0.1,0.2-1.9,2.6,1.8,3.1c-1.1,10.9,3.1,1.3,4,3.6c1.7,8.2-5.9,1-3.1,7.6c-3.3,2.9-3.3-0.7-4.2-0.7c-2.3,0.2,0.6,5.4-1.3,5.8
				c-1.7-0.9-10,5.3-5.4,6.3c3.9,0.8,2.4-4.3,2.7-4.5c0.2-0.1,3.2,0.6,3.3,1.1c0.4,1.5-4.2,0.5-1.8,5.8c0.1,0.3,1.6,0.6,1.8,0.9
				c1.8,3-5.2,0.4,0.2,7.8c10.8,1.4,1.1-2.3,2-3.4c8.9,0,6.4-7.7,3.3-2.9c-7.4-6.3-1.1-2-1.6-9.2c-0.1-0.8,2.5,0.2-2.2-2.7
				c2.9-6.6,1.5,0,8.3,6.5c1.1-1.9,3.1,0.5,5.8-0.9c8.3-8.8,5.4-9.7,5.6-10.5c0.2-0.6,2.3-4.3,3.1-3.1c-3.1-4.2,2.5-0.5,0-4
				c6.3-3,4.8-8.2-0.9-11.6c3.4-7.2-3.1,1.5-3.6-3.6c-0.2-1.7,3.5-3.3,3.6-3.6c1-4-4.3,0.4-4.7,0.2c-1.4-0.5,1-3.6-4.7-2.9
				c-0.2-8.6-8.3,1.2,0-8c0.1-0.1,0.1-1.4,0.4-1.8c2.2-2.3,2.8-1.4,2.9-1.6c7.9-7.8,11.3-11.6,21.9-17c14.6-4.1,30.2-3.3,43.8-10.7
				C360.4,218.8,377.2,203.7,386.5,195.7z"/>
			<path class="st20" d="M263.3,188.6c-4.5,10.7-6.8,22.3-11.2,33.1c-0.3-7.9-1.6-15.8-1.8-23.7c4.7-14.5,4.7-14.5,9.4-29
				c0,0.2,0.7-0.9,1.3,2.5C261.5,176.7,261.1,183.9,263.3,188.6z"/>
			<g>
				<path class="st21" d="M263.8,266.4c-5,18.7-15.8,33.6-26.8,49.2c-9.7,13.6-20.6,26.5-30.1,40.2c-2.8-2.5-2.8-2.5-5.6-4.9
					c0.9-0.1,5.4-2.3,5.8-3.8c0-18.4,0-18.4,0-36.9c0.6-2.5,5.3-3.9,4.9-6.9c4.8-0.4,3-6.2,0.9-8.7c0.6-0.3,1.2-0.5,1.8-0.9
					c-1,2.9,7.8,1.4,12.7-0.4c20.9-8.1,25-36.3,25.2-55.9c0.1-5-0.2-10.6-0.4-15.6c4.3-10.8,6.6-22.4,11.2-33.1
					c7.4-17.5,18.7-30.5,39.3-28.8C256.8,164.9,276,220.5,263.8,266.4z"/>
				<path class="st21" d="M220,57.2c2,3.5,5.9,8.5,8.5,13.2c18.4,33.4,25.4,61.4,31.3,98.5c-4.7,14.5-4.7,14.5-9.4,29
					c-7.9-58-2-88.4-32.6-140.8C218.9,57.2,218.9,57.2,220,57.2z"/>
				<path class="st22" d="M192.3,298.5c-3.3,4.2,0.2,6.1,2.7,9.8c-0.8,1.6-1.6,3-1.3,4.9c-5.8-8.5-5.8-8.5-11.6-17
					c3.1,0.3,5.8-1.1,8.7-2.2C191,295.8,191.6,297,192.3,298.5z"/>
			</g>
			<path class="st20" d="M226.7,385.7c-1.3-0.6-0.4-1.3,0.9-2.9c8.5-10.5,15.8-15,26.1-22.6c8.2-6,6-8.1,22.3-12.5
				c11.9-8.9,21.8-9,32.4-21.7c3.9-4.7,7.3-12.7,11.4-16.3c4.5-4.1,26-11.6,25.7-22.6c-0.2-6.2-16-26.1,4.7-28.4
				c6.3-20,17.3-13.9,34.2-32.6C372.8,305.3,305.9,373.3,226.7,385.7z"/>
			<g>
				<path class="st23" d="M203.1,25.9c-1.2,12.1,9.1,21.7,14.7,31.3c30.6,52.3,24.7,82.8,32.6,140.8c0.2,7.9,1.5,15.8,1.8,23.7
					c0.2,5,0.5,10.7,0.4,15.6c-1.5-0.7-1.1-8.9-1.8-13.2c-0.9-5.4-3.6-13.1-4.9-21.7c-1.7-10.9-3.1-33.5-4.5-40
					c-0.5-2.5-0.7-0.9-2.2-0.7c-0.9-9.3-1.3-18.5-2.7-27.7c0.5,0.1,1.3-0.3,1.3-0.7c1.9-7.8-11.3-50-16.5-59.7
					c-3.7-7.7-8.9-14.4-11.2-18.8c-1.2-2.4-5.6-11.4-6.3-13.2c-2.2-6.1-1.7-12-3.6-10.5c0.1-0.6,0.1-1.4-0.4-1.3
					C201.1,28,201.3,27.5,203.1,25.9z"/>
				<path class="st24" d="M187.4,55c-2.8,5.6-8.5,14.8-10.7,19.9c-5.9,13.4-10.7,30.7-13.4,45.1c-1,5.2-1.4,15.4-1.8,16.1
					c-0.2,0.4-0.9,0.2-1.3,0.2c2.2-31.9,14.6-62.8,30.4-90.3C189,50.5,189,50.5,187.4,55z"/>
				<path class="st25" d="M220,57.2c-1.1,0-1.1,0-2.2,0c-5.6-9.6-16-19.2-14.7-31.3c0.1-0.1-0.3-1.7,0.4-1.1
					C206,37,213.9,46.7,220,57.2z"/>
				<path class="st26" d="M193.7,50.5c-3.1,2.2-3.1,2.2-6.3,4.5c1.6-4.5,1.6-4.5,3.1-8.9c1.4-2.4,2.8-4.9,4.5-7.2
					C194.1,41.8,193.6,47.3,193.7,50.5z"/>
				<path class="st8" d="M245.9,202.4c1.3,8.6,4,16.3,4.9,21.7c0.7,4.3,0.3,12.5,1.8,13.2c-0.3,19.5-4.3,47.7-25.2,55.9
					c-4.9,1.9-13.7,3.4-12.7,0.4c13.1-8.6,22-20.6,25.9-36c1.4-5.3,4.7-25.4,0.9-24.4c1.8-3.6,1.1-25.7,0.9-31.3
					C244.1,202.2,244.1,202.2,245.9,202.4z"/>
				<path class="st7" d="M214.7,293.6c-0.5,0.4-1.2,0.6-1.8,0.9c-0.2-0.2-0.2,1.1-4-2.7c0.1-0.4,0.1-0.4,0.2-0.9
					c1.7,0.9,1.9,0.1,2,0c4.9-2,5.2-2.9,8.5-6.7c0.3-0.3,0.6-0.5,0.9-0.9c0.1-0.1,1-0.5,1.8-1.8c2.3-0.7,4.6-5.9,5.8-8.5
					c4.9-10.6,6.1-19.8,8.5-30.8c0.4-1.8,0.4-5.5,0.9-6.5c0.9-1.8,3.1-1.1,4-2c0.1-0.1-0.1-0.3,0-0.4c3.8-1,0.5,19-0.9,24.4
					C236.6,273,227.8,285,214.7,293.6z"/>
				<path class="st8" d="M210.2,55c-2.5,2.4,1.2,5.8-2.7,5.4c-0.5-2.4-0.4-4.4-0.7-6.7c-1,3.4,0.8,7.8-1.6,7.6
					c-0.2-0.2-1.6-4-1.6-5.8c-13.1,8.6-4-18-3.3-24.1c1.9-1.5,1.4,4.4,3.6,10.5C204.6,43.5,209,52.6,210.2,55z"/>
				<path class="st12" d="M236.5,134.1c-1.4-9.6-3.3-19.2-6.3-28.4c-1.3-4.1-10.2-25.7-12.1-29.3c1.6-1.3,1.6-1.3,3.1-2.7
					c5.3,9.6,18.4,51.8,16.5,59.7C237.8,133.8,237,134.2,236.5,134.1z"/>
				<path class="st27" d="M218.2,76.4c1.8,3.5,10.7,25.1,12.1,29.3c3,9.2,4.8,18.8,6.3,28.4c1.4,9.2,1.8,18.4,2.7,27.7
					c0.6,6,0.9,11.9,1.3,17.9c-0.9,0-0.9,0-1.8,0c-0.1-2-0.3-3.9-0.4-5.8c-1.9-26.1-1.4-52.2-12.5-77.1c-0.6-1.3-2.6-4.9-3.1-3.8
					c0.2-1.5-0.4-1.3-0.4-1.3c-0.7-2.6-2.6-5.1-2.7-5.4c0-0.1,0-0.3,0-0.4c-0.1-0.3,0.4-1.5-1.3-6c-1.9-3.6-3.5-7.1-5.8-10.5
					c-0.6-0.9-1-1.8-1.8-2.7c-0.3-0.3-0.2-0.9-1.3-1.8c0-0.4,0-0.4,0-0.9c0.1,0.1,1-0.2,1.3,0.2C213.1,68.2,216.1,72.2,218.2,76.4z"
					/>
				<path class="st28" d="M245.9,202.4c-1.8-0.2-1.8-0.2-3.6-0.4c-0.3-7.5-1.3-14.9-1.8-22.3c-0.4-6-0.8-11.9-1.3-17.9
					c1.6-0.3,1.7-1.8,2.2,0.7C242.8,168.9,244.2,191.6,245.9,202.4z"/>
				<path class="st8" d="M221.4,73.7c-1.6,1.3-1.6,1.3-3.1,2.7c-2.2-4.2-5.2-8.2-7.6-12.3c-0.3-0.5-1.2-0.1-1.3-0.2
					c-0.1-0.1-0.3-0.3-0.4-0.4c0.7-0.6-0.8-0.8-1.3-3.1c3.9,0.4,0.2-2.9,2.7-5.4C212.5,59.3,217.6,66,221.4,73.7z"/>
				<path class="st29" d="M186.1,68.8c-0.6,1-1.7,1.2-1.8,1.3c-0.1-5.2,6.9-10.7,8.9-18.8c0.4,4.1,0.4,4.1,0.9,8.3
					c-3.3,2.7-3.3,2.7-6.7,5.4C186.2,66.8,186.2,68.7,186.1,68.8z"/>
				<path class="st30" d="M240.6,179.7c0.5,7.5,1.5,14.8,1.8,22.3c0.2,5.6,0.9,27.7-0.9,31.3c-0.1,0.1,0.1,0.4,0,0.4
					c-1.7-0.5-0.1-4.1,0-5.6c0.9-16.3-1.6-32.3-2.7-48.5C239.7,179.7,239.7,179.7,240.6,179.7z"/>
				<path class="st28" d="M238.3,173.8c0.1,1.9,0.3,3.9,0.4,5.8c1,16.2,3.6,32.1,2.7,48.5c-0.1,1.4-1.7,5,0,5.6
					c-0.9,0.9-3.1,0.3-4,2c-0.5,1-0.5,4.7-0.9,6.5c-1.5,0.5-1.8,7.4-2.7,10.9c-1.6,6.7-4.5,13.1-5.8,19.9c-1.2,2.6-3.5,7.8-5.8,8.5
					c1.2-2.1,2.3-5.2,2.7-7.6c0.2-1.8,1.2-3.2-0.9-4.5c2-1.8,2.4-2.9,3.1-5.4c1.7-6,0.2-7.5,0.4-9.6c0.1-0.5,3.2-3.2,0.4-8.9
					c3.3-3.5-0.3-6.9,3.1-12.1c-1.3-6.5,3-10.8-0.4-17c2-3,1.5-6.8,0-9.8c1.7-2.6,2-7.5,0-9.8c2.1-2.9,1.8-7.3,0-10.3
					c1.9-2.6,2.5-7.7,0-10.1c5.2-8.5-2.2-10.9,1.8-16.5c0,0.1,0.8,0.3,0.9,0.7C234.8,166,235.7,177.7,238.3,173.8z"/>
				<path class="st8" d="M236.5,242.2c-2.4,11-3.6,20.3-8.5,30.8c1.4-6.7,4.2-13.2,5.8-19.9C234.7,249.6,235,242.7,236.5,242.2z"/>
				<path class="st28" d="M238.3,173.8c-2.7,3.9-3.5-7.8-4.9-13.2c-0.1-0.4-0.9-0.6-0.9-0.7c-0.6-2,0.5-6.7-2.7-7.6
					c0.5-3.3,1.3-7.1-1.3-9.6c1.2-3,1.3-6.5-0.9-9.2c0.1-2.1,3.1-8.5-1.8-10.9c3.1-1,2.1-9.5-0.4-10.5c1.7-4.9-1.9-8.7-0.9-14.1
					c-0.9-2.6-0.9-2.6-1.8-5.1c0.6-1.1,2.5,2.5,3.1,3.8C237,121.7,236.4,147.7,238.3,173.8z"/>
				<g>
					<path class="st7" d="M158.4,156.9c-3.9,5.6,1.8,19.7,2.7,27.3c-0.2,10.3,3.2,19.2,2.7,30.8c0.6,4.2-1.3,7-2.2,10.9
						c1.2,22-1.5,39.1,11.2,58.3c2,3,5.5,8,8.5,9.8c-0.1,0.1,0.2,0.9-0.4,1.8c-11.8-2.4-20.5-13.1-24.6-23.9
						c-9.1-24.3-1.4-48.9-0.9-73.7c0.2-12.2-1.4-24.4-0.9-36.6c1.1-8.5,2.1-16.9,1.3-25.5C157.3,142.9,157.3,149.9,158.4,156.9z"/>
					<g>
						<path class="st28" d="M188.3,286.5c1.3,2.4,4.8,6.4,5.8,8.3c1.2,2.1,6.8,16,7.6,16.5c1.5,0.9,3.8-1.9,5.4-1.1
							c0,18.4,0,18.4,0,36.9c-0.4,1.5-4.9,3.7-5.8,3.8c-0.1,0-0.3,0-0.4,0c0-19.6,0-19.6,0-39.1c-1.2-1.2-3.7-3.8-4.5-5.1
							c-1.5-2.7-2.7-5.3-4-8c-0.7-1.5-1.4-2.8-1.6-4.5c-2.9,1.1-5.6,2.5-8.7,2.2c-0.1,0,0.4-0.1-1.3-0.4c0.7-0.9,0.4-1.7,0.4-1.8
							c0.7-0.7,3-0.7,3.1-1.6c0.1-0.3-3.2-4.8-3.6-5.6c-0.7-1.4-0.9-1.3-0.9-1.3c-1-2-2.2-5-3.1-7.2c-0.5-1.1-1.2-0.8-1.3-1.1
							c1-1-0.6-3.8-1.3-5.6c0.5,0,1-0.2,1.3,0.2C177.6,274.4,183.5,295.8,188.3,286.5z"/>
						<path class="st7" d="M196.4,306.6c0.8,1.3,3.2,3.9,4.5,5.1c0,19.6,0,19.6,0,39.1c-2.1,0-5.2-1.6-5.8-3.8
							c-0.4-1.6,1.4-26.9,0-32.2c-0.7-0.8-0.7-0.8-1.3-1.6c-0.3-1.9,0.6-3.3,1.3-4.9C195.6,307,195.3,306.3,196.4,306.6z"/>
					</g>
					<path class="st28" d="M158.4,156.9c1.3,8.6,3.7,16.8,4.9,25.5c0.2,1.5,1.2,4.9,0.4,6.3c-1.3-2.2-1.3-2.2-2.7-4.5
						C160.2,176.5,154.5,162.4,158.4,156.9z"/>
					<path class="st8" d="M188.8,283.8c1.9,3.6,3.8,7.2,5.8,10.7c1,1.8,6.5,13.7,7.4,13.9c1.4,0.3,3.3-2.5,3.3-3.4
						c0-1.5-1.9-1.7-1.3-3.4c2.8,1.1,5.8-0.2,7.1-2.9c0.3-2.1-0.9-1.5-0.9-1.6c-0.3-1.9-0.1-2.8-1.3-5.4c3.8,3.8,3.8,2.5,4,2.7
						c2.1,2.6,3.9,8.4-0.9,8.7c0.4,3-4.4,4.5-4.9,6.9c-1.6-0.8-3.9,2-5.4,1.1c-0.8-0.5-6.4-14.4-7.6-16.5c-1-1.9-4.5-5.8-5.8-8.3
						c-0.9-1.6-3.9-8.1-3.1-8.9C186.3,279.7,187.7,281.7,188.8,283.8z"/>
					<path class="st7" d="M164.7,215c-0.2,5.1,0.6,13.4,1.8,18.3c-0.8-0.3-1.7,1.2-1.8,1.6c-1.2,5.8,6.8,30.1,9.4,36.9
						c0.7,1.8,2.4,4.6,1.3,5.6c0.1,0.3,0.9,0.1,1.3,1.1c-2.4-0.8,1.4,6.9,3.1,7.2c0,0.1,0.2,0,0.9,1.3c-1,0.8,0.9,4.3-0.7,4.5
						c-1.1,0.2-6.1-8.2-7.4-7.2c-12.7-19.2-9.9-36.3-11.2-58.3c0.9-4,2.8-6.8,2.2-10.9C164.2,215,164.2,215,164.7,215z"/>
					<path class="st31" d="M163.8,188.6c3,9.8,4.4,20.1,7.1,29.9c-0.7-1.7-0.7-1.7-1.3-3.4c-5.2-2-4.6-9.2-4.9-0.2
						c-0.4,0-0.4,0-0.9,0c0.5-11.6-2.8-20.6-2.7-30.8C162.4,186.4,162.4,186.4,163.8,188.6z"/>
					<path class="st7" d="M180.7,286.9c0.4,0.8,3.6,5.3,3.6,5.6c-0.2,0.9-2.5,0.9-3.1,1.6c-3-1.8-6.5-6.8-8.5-9.8
						c1.3-1,6.3,7.3,7.4,7.2C181.6,291.2,179.7,287.7,180.7,286.9z"/>
					<path class="st32" d="M166.4,233.3c1.9,7.8,14.4,35.5,18.8,44.2c-0.8,0.8,2.2,7.3,3.1,8.9c-4.8,9.4-10.8-12.1-12.9-14.5
						c-0.4-0.4-0.9-0.2-1.3-0.2c-2.6-6.7-10.6-31.1-9.4-36.9C164.7,234.4,165.6,233,166.4,233.3z"/>
					<path class="st31" d="M196.4,306.6c-1-0.3-0.7,0.5-1.3,1.8c-2.5-3.8-6-5.7-2.7-9.8C193.6,301.3,194.8,303.9,196.4,306.6z"/>
					<path class="st7" d="M176.7,278.4c1,2.2,2.1,5.2,3.1,7.2C178.1,285.3,174.3,277.6,176.7,278.4z"/>
					<path class="st7" d="M170.9,218.5c0.6,2.2,1.2,4.5,1.8,6.7c0.1,0.4,0.3,0.5,0.4,0.9c1.9,7.1,5,13.6,5.4,20.8
						c5.3,6.1-0.3,6.6,4.5,12.7c2.7,4.4,4.1,9.8,4.5,10.7c1.3,3,5.7,11.5,7.6,15.2c-1.7,4.6-4.2-2.7-6.3-1.8
						c-1.1-2.1-2.5-4.1-3.6-6.3c-4.3-8.7-16.8-36.4-18.8-44.2c-1.2-5-2-13.2-1.8-18.3c0.3-8.9-0.3-1.8,4.9,0.2
						C170.2,216.9,170.2,216.9,170.9,218.5z"/>
					<path class="st28" d="M211.1,290.9c-0.1,0.1-0.4,0.9-2,0c-0.1,0.4-0.1,0.4-0.2,0.9c1.3,2.5,1.1,3.5,1.3,5.4
						c-0.1,2.5-1.9,3.2-4,3.6c-3.2-1.4-2.6-2.9-2.7-3.1c3.3-3.8,5.7-8.3,7.6-13C214.2,286.6,213.4,288.6,211.1,290.9z"/>
					<path class="st32" d="M197.3,289.6c0,0,0.1-0.2,0.4,0.4c1.7,3.2,1.3,4.1,4,7.6c0.5,0.7,0.3,2.2,2.2,3.1c0,0.3,0.1,0.7,0,0.9
						c-0.5,1.6,1.4,1.9,1.3,3.4c0,0.8-2,3.7-3.3,3.4c-0.8-0.2-6.4-12-7.4-13.9C201,295.7,194.3,290.9,197.3,289.6z"/>
					<path class="st32" d="M195,285.6c0.7,1.3,1.5,2.7,2.2,4c-3,1.3,3.8,6.1-2.7,4.9c-2-3.6-3.9-7.1-5.8-10.7
						C190.8,282.9,193.3,290.1,195,285.6z"/>
					<path class="st33" d="M203.9,301.7c0.1-0.2,0-0.6,0-0.9c0.7,0.3,1.5,0.1,2.2,0c2.1-0.4,3.9-1.1,4-3.6c0,0.1,1.2-0.6,0.9,1.6
						C209.8,301.4,206.7,302.8,203.9,301.7z"/>
					<path class="st30" d="M203.5,297.6c0.1,0.2-0.6,1.8,2.7,3.1c-0.7,0.1-1.6,0.3-2.2,0c-1.9-0.9-1.7-2.4-2.2-3.1
						c0-0.4,0-0.4,0-0.9C202.4,296.7,203.1,297.1,203.5,297.6z"/>
					<path class="st27" d="M204.8,285.6c-1.8,2.6-3.2,8.1-3.1,11.2c0,0.4,0,0.4,0,0.9c-2.7-3.5-2.3-4.4-4-7.6c0.2,0,0.2,0,0.4,0
						c4.2,8.5,1,4.7,5.8-6.5c0.8-5.7-0.9-7.8-0.9-8.3c0-0.4,0-1,0-1.3C206.2,276.7,204.2,282.1,204.8,285.6z"/>
					<path class="st28" d="M203.1,275.3c0,0.4,1.7,2.5,0.9,8.3c-4.8,11.2-1.6,14.9-5.8,6.5c-0.1-0.2-0.4-1.2-0.9-2.2
						c1.5,0.3,0.6-1.3,0.9-1.8c0.1-0.2,1.5-0.2,2.2-3.8c0.3-1.7,0.6-4.6-0.9-5.6c0.5-1.5-0.4-1.5-0.4-2.2c0-0.4,0.7-0.6,0.4-1.3
						C201,273.3,201.9,274.5,203.1,275.3z"/>
				</g>
				<g>
					<path class="st26" d="M193.7,50.5c-0.2,0.4-0.2,0.4-0.4,0.9c-2,8-9,13.6-8.9,18.8c-3,5.1-2.9,4.6,0,5.4c0,0.4-0.1,0.4-0.4,0.4
						c-3.6,0.5-5.6,5.1-3.6,8c-2.3,0.8-1.3,2.5-1.3,2.7c-1.7,6-1-3-1.8,1.6c-0.7,3.7,1.2,4.5,1.3,4.7c0.1,0.1,0,0.5,0,0.9
						c-2.1,0.3-3.2,3.5-3.1,5.4c0,2.6,1.5,3.7,1.3,4.2c-3.5,1.3-4.8,7.4-1.8,9.2c0,1.2-1.8,0.9-2.7,4c-1.2,4.6,1.1,3.5,1.8,5.8
						c-3.6,0.2-5.6,6.9-0.9,10.1c-4.4,1.4-5,7.9-0.9,9.8c-4.2,1.8-4.3,7.7,0,9.8c-5.5,2.1-5.2,11.5,1.8,10.9c0,0.2,0,0.2,0,0.4
						c-6.8-0.3-8.7,9.3-2.2,11.8c-2.8,0.9-4.2,4-4,6.9c-0.4,0.2-0.4,0.2-0.9,0.4c-0.5-1.9,0.6-3.7-2.2-1.3c0-0.3,0-0.6,0-0.9
						c-2.7-17.9-6-21.4-4.5-44.2c0.4,0,1.2,0.2,1.3-0.2c0.3-0.7,0.8-10.8,1.8-16.1c2.7-14.4,7.5-31.7,13.4-45.1
						c2.2-5.1,7.9-14.2,10.7-19.9C190.6,52.7,190.6,52.7,193.7,50.5z"/>
					<path class="st34" d="M186.1,84.5c0.5,4,3,4.7-2.2,9.6c6.7,9.2-8,9.2-0.9,11.2c2.2,7.4-3.4,7.6-3.6,8c-0.2,0.5,5.9,2.4-0.9,9.6
						c-0.2-0.2-2.5,0.8-1.8-3.6c0.1-0.4,4.9-6.3-1.6-4.9c-0.8,0.2-1.5,1.2-2,1.8c0,0-0.7,0.4-0.9,0.4c0.8-3.2,2.7-2.8,2.7-4
						c2,1.2,5.5-0.6,6.7-2.5c-1.1-4.4-1.1-4.4-2.2-8.7c4.7-0.2,7.2-8.7-0.9-7.6c0-0.4,0.1-0.8,0-0.9c3.4,1.5,7.4-11.6,0.4-6.3
						c0-0.2-1-1.9,1.3-2.7c0.4-0.1,3.9,2.2,5.8-4c0,0.4,1.5,2-0.9,4.2C185.2,84.6,186.1,84.4,186.1,84.5z"/>
					<path class="st23" d="M178.5,93.8c8.1-1.1,5.6,7.4,0.9,7.6c-2.7,0.1-2.1-2.1-4-2.2C175.3,97.3,176.4,94.1,178.5,93.8z"/>
					<path class="st23" d="M183.9,76c1.2,0.3,2.1,2.7,2.2,4c-1.9,6.2-5.4,3.9-5.8,4C178.3,81.1,180.2,76.4,183.9,76z"/>
					<path class="st23" d="M184.3,75.5c-2.9-0.7-3-0.2,0-5.4c0.1-0.1,1.2-0.3,1.8-1.3c6.4,1.8,2,2.9-0.2,7.2
						C184.2,74.4,184.4,75.5,184.3,75.5z"/>
					<path class="st23" d="M178.5,93c-0.1-0.2-2-1-1.3-4.7c0.8-4.6,0.1,4.4,1.8-1.6C185.9,81.4,181.9,94.4,178.5,93z"/>
					<path class="st26" d="M166.9,182.8c1.4,5,2.7,3.9,1.8,6.3c-3.6,9.7-3.6-4.4-4-7.6C167.5,179,166.4,180.8,166.9,182.8z"/>
					<path class="st35" d="M212.4,69.3c2.3,3.4,3.9,6.9,5.8,10.5c1.7,4.5,1.2,5.7,1.3,6c-6.3,0.2-4.2-2.1-5.4-5.4
						c-0.2-0.6,0.4-1.8-0.4-1.8c0.1-1.3-1.1-2-1.3-2.2C212.4,73.6,206.9,68.3,212.4,69.3z"/>
					<path class="st34" d="M196.8,74.2c1.4,4,0.8,6.4-3.6,5.8c-3.9-4.2,0.2-2.1,1.6-3.1C196.5,75.6,194,74.9,196.8,74.2z"/>
					<path class="st27" d="M207.5,60.3c0.5,2.3,2,2.5,1.3,3.1c-2.1-2.2-3.1-1.7-3.6-2.2c2.3,0.2,0.5-4.2,1.6-7.6
						C207.2,56,207,58,207.5,60.3z"/>
					<g>
						<path class="st36" d="M200.4,31.3c-0.7,6.2-9.8,32.7,3.3,24.1c0,1.8,1.4,5.6,1.6,5.8c0.5,0.6,1.4,0.1,3.6,2.2
							c0.1,0.2,0.3,0.3,0.4,0.4c0,0.4,0,0.4,0,0.9c-5.9-4.7-1.5,5.2-2,5.4c-1.5-1.2-3.3-2.5-4.7-0.7c2.2-0.3,4.1,1.3,6,2.5
							c1-2.7,1-2.7,2-5.4c0.8,0.8,1.2,1.8,1.8,2.7c-5.6-1,0,4.3,0,7.2c-0.2-0.2-2,0.1-3.3-4c-1.2-0.1-0.8,3.3-1.1,3.8
							c-1.8,3.2-11.3,0.9-10.3-2.7c-1.1-0.8-0.8,0.7-0.9,0.7c-2.8,0.7-0.3,1.5-2,2.7c-1.4,1-5.5-1.1-1.6,3.1c-7.7-1-1.8-3.3-7.1,4.5
							c0,0-0.9,0.1-0.9-0.2c2.4-2.3,0.9-3.8,0.9-4.2c-0.1-1.3-1.1-3.7-2.2-4c0.3,0,0.5-0.1,0.4-0.4c0.1,0-0.1-1.1,1.6,0.4
							c2.2-4.3,6.6-5.4,0.2-7.2c0.1-0.2,0.1-2,1.3-3.8c3.3-2.7,3.3-2.7,6.7-5.4c-0.4-4.1-0.4-4.1-0.9-8.3c0.2-0.4,0.2-0.4,0.4-0.9
							c-0.1-3.2,0.4-8.7,1.3-11.6c0.4-1.2,3.8-7.2,4.9-8.9C200.5,29.9,200.4,30.7,200.4,31.3z"/>
						<path class="st37" d="M193.9,65.2c2,0.1,0.6,1.3,1.3,1.8c0.1,0.1,0.7-1.3,2,0.2c0.1,0.2,0.1,3.5-0.4,4.5
							c-1.1,1.8-3.9,0.2-6,1.1C189.5,68.7,191.4,65.1,193.9,65.2z"/>
						<path class="st38" d="M209.3,64.8c1.1,0.9,1.1,1.5,1.3,1.8c-1,2.7-1,2.7-2,5.4c-1.9-1.2-3.8-2.8-6-2.5
							c1.4-1.8,3.2-0.5,4.7,0.7C207.8,70,203.4,60.1,209.3,64.8z"/>
						<path class="st39" d="M201.9,62.1c0.1,0,1.6,1,1.6,1.1C202.7,64.5,200.2,62.1,201.9,62.1z"/>
					</g>
					<path class="st34" d="M182.5,229.7c2.3-0.3,4.5,0.7,4.9,3.1c0.6,4.1-2.1,4-1.8,6.3c-0.3,0.1-1,0.8-2.2,0.4
						C177.6,238.1,177.6,230.2,182.5,229.7z"/>
					<path class="st38" d="M183.4,251.2c-1.7,3.2,2.1,4.9,3.8,4c0.5-0.2,0.1-1.3,0.2-1.3c0.1,0,0.4-1.1,1.1-0.9
						c3.1,1-0.6,4.8-0.7,5.1c0,0.1,0.6,0.4,0.4,0.7c-0.6,1.5-0.9,3-1.6,4.5c-0.8-1.2-3.2-2.8-3.8-3.6
						C183.4,257.8,179.2,250.6,183.4,251.2z"/>
					<path class="st37" d="M187,247.1c-3.1,1.1-7.6-4.5-4.5-6.7c0.1,0.1,0.3-0.1,0.4,0C185.4,241.5,187.8,238.6,187,247.1z"/>
					<g>
						<path class="st38" d="M176.3,204.7c4.2-1.8,2.1,6.3-4.5,4c-3-2.1-3.9-4.6-0.9-7.2C171,204.8,175,210.2,176.3,204.7z"/>
						<path class="st37" d="M176.3,204.7c-1.3,5.6-5.2,0.1-5.4-3.1c0,0-0.2-0.2,0.4-0.4C174.2,199.9,176.9,202,176.3,204.7z"/>
					</g>
					<path class="st36" d="M184.3,251.2c0.2,0.1,0.5,1.2,3.1,2.7c-0.1,0.1,0.2,1.1-0.2,1.3c-1.7,0.8-5.5-0.8-3.8-4
						C183.7,251.2,184.1,251.1,184.3,251.2z"/>
					<g>
						<path class="st40" d="M164.7,181.4c0.5,3.2,0.4,17.3,4,7.6c0.2,0.2,0.2,0.2,0.4,0.4c-2.5,2.6-1.6,6.9,1.3,8.9
							c0.1,0,0.1,0.5,1.3,0.9c-0.2,0.9-0.2,0.9-0.4,1.8c-0.6,0.3-0.4,0.4-0.4,0.4c-3,2.6-2.2,5,0.9,7.2c0,0.9,0,0.9,0,1.8
							c-0.5-0.2-0.8-0.5-1.1-0.9c-0.4,0.3-0.2,0.8-0.2,1.3c-0.3,4.5,2.4,9.4,7.4,8.9c0.4,0-0.4-0.7,2-0.9c-3.7,3.7-1,9.5,2.7,10.3
							c0,0.2,0,0.2,0,0.4c-4.9,0.5-4.9,8.4,0.9,9.8c-0.2,0.4-0.2,0.4-0.4,0.9c-0.1-0.1-0.3,0.1-0.4,0c-2.8-1.1-3-2.1-4.7-4.5
							c-0.4,5.6,2.7,4.4,2.9,4.7c0.3,0.5-4.1,8.7,3.6,9.2c0,0.7,0,0.7,0,1.3c-0.2-0.1-0.6,0-0.9,0c-4.2-0.6,0,6.7-0.4,8.5
							c-4.8-6.2,0.8-6.6-4.5-12.7c-0.4-7.2-3.5-13.7-5.4-20.8c7,2.2,4.2-5.4-0.7-6.3c0.4,3.5,3.2,2.6,0.2,5.4
							c-0.6-2.2-1.2-4.5-1.8-6.7c-2.7-9.8-4.2-20.1-7.1-29.9c0.8-1.4-0.2-4.7-0.4-6.3c0.7-0.9,0.7-0.9,1.3-1.8
							C164.7,180.8,164.6,181.2,164.7,181.4z"/>
						<path class="st38" d="M182.5,240.4c-3.2,2.2,1.4,7.8,4.5,6.7c0,0.3,2.2,3-2.7,2.7c-7.6-0.4-3.3-8.6-3.6-9.2
							c-0.2-0.3-3.3,0.9-2.9-4.7C179.5,238.3,179.7,239.3,182.5,240.4z"/>
						<path class="st41" d="M173.1,226.1c-0.1-0.4-0.3-0.5-0.4-0.9c3-2.7,0.2-1.8-0.2-5.4C177.3,220.7,180.1,228.4,173.1,226.1z"/>
						<path class="st26" d="M177.8,227.5c2.9,0.6,0.8,5.3-0.4,5.4C175.8,232.9,172.1,226.2,177.8,227.5z"/>
						<path class="st42" d="M167.1,196.6c0.2-0.1,2.9,3.1,2.9,3.4C170.3,202.6,167.3,201.9,167.1,196.6z"/>
					</g>
					<path class="st43" d="M219.6,284.2c-3.3,3.8-3.6,4.7-8.5,6.7c2.3-2.4,3.1-4.4,0-6.3c0-0.2,0-0.2,0-0.4c0.2,0.1,0.6,0,0.9,0
						C214.2,287.2,217,285.6,219.6,284.2z"/>
					<path class="st35" d="M219.6,86.3c0.1,0.3,1.9,2.7,2.7,5.4c0.3,1.6-0.6,2.6-0.4,3.1c-1.3,0.3-3.4-0.2-4.5-0.9
						c1.9-1.3-1.7-2.9,0-7.2C218.2,86.2,218.6,86.1,219.6,86.3z"/>
					<path class="st40" d="M222.3,142.1c0.9,0.6,1.7,0.9,2.7,1.3c-8.3,0.9-3.2,7-3.1,7.6c0,0.3-2.7,3,0,4c-1.8,3.3-1.1,3.8,0.9,6.3
						c0.4,0.4,0.3,0.5,0.9,0.9c7.3,4.8,9.9-5.4,5.8-8.5c-0.4-0.3-0.8-0.7-1.3-0.9c0-0.2,0-0.2,0-0.4c0.6,0.1,1.3-0.1,1.8,0
						c3.2,0.9,2.1,5.6,2.7,7.6c-4,5.7,3.4,8-1.8,16.5c-1,1.4,0,1.9,0,2.2c-1.1,0.3-0.9-0.9-1.3-1.3c-0.1,0-0.1-0.4-0.9-0.9
						c3.2-2.1,4.6-8.5,0.9-11.2c-5.8-4.3-11.5,4.4-4.5,9.8c0.1,0.1,0.9,0.6,1.3,0.9c-4.3,1.3-5.1,5.4-2.7,8.9c0.7,1,1.6,1.3,2.2,2.2
						c-4.4,0.8-5,6.2-1.8,8.9c0.6,0.5,1.3,0.8,1.8,1.3c-4.8,0.7-3.5,5-3.6,5.4c-0.3-0.1-0.6,0.5-0.7,0.4c-4.2-4.2,0.3-1.7,1.1-5.6
						c1-4.5-1.8,1.4-2.2-0.4c0.6-2.8,1.4-5.7-0.4-8c3.3,2,1.3-0.3,1.3-0.4c0.3-0.6,2-1.7,1.8-2.7c-0.5-2.6-1.8,0.7-2,0.7
						c-1.6-0.1,1.8-6.2-1.6-8.7c4.9,2.1,4.3-8.2,0.7-1.1c-2.4-0.3-3.8,0.9-4.2,0.9c2.6-3.8,3.5-6.8,1.6-9.8c-0.4,0.6-1.5,0.6-2,0.4
						c-1.1-0.3-2.1-0.8-3.1-1.1c0.3-1.8,1.2-0.6,1.3-0.7c0.9,2.8,4.8-1.7,4.9-2c0.3-0.7,0.3-7.9-3.6-6.5c0,0,0.1-0.1-0.4-0.4
						c0.5-3,4.1-0.7,4.9-3.4c0.7-2.2-0.8-3.2-0.9-3.6c0-0.2,2.5-0.9-1.3-3.4c2.1-1.2,2.9-4.5,3.1-6.7
						C221.2,141.1,221.6,141.7,222.3,142.1z"/>
					<path class="st40" d="M227.2,264.1c-1.3,0.6-1.3,0.6-2.7,1.1c0.9-1.6,1.5-1.4,2.2-3.4c2.2-6.3-1-5.1-0.9-6.9
						c2.2-2.3,4.1-8.1,0.4-8.7c0.6-1.6,4.5-7.3,0.9-8c0.2-0.3,1.3-2.1,1.3-2.2c0.9-2.3,2.9-5.3-0.4-6.7c0-0.2,0-0.2,0-0.4
						c2.3-0.4,4.6-7.6,1.3-10.3c-0.8-0.6-0.8-0.9-0.9-0.9c2.1-2.7,3.7-6.7,0.9-9.4c0,0-0.1-0.6-0.9-0.9c1.4-2.9,4.2-6.9,0.9-9.4
						c0,0,0.2-0.2-0.4-0.4c1.6-2.8,3.3-6.1,0.9-8.9c-0.4-0.5-0.6-1.1-1.3-1.3c3.8-2.3,2.2-8,2.2-8.5c0-0.3-1-0.8,0-2.2
						c2.5,2.4,1.9,7.5,0,10.1c1.8,3,2.1,7.4,0,10.3c2,2.4,1.7,7.3,0,9.8c1.5,3,2,6.8,0,9.8c3.4,6.2-0.8,10.5,0.4,17
						c-3.4,5.2,0.1,8.6-3.1,12.1c2.7,5.8-0.4,8.5-0.4,8.9C227.4,256.6,228.9,258.1,227.2,264.1z"/>
					<path class="st38" d="M228.1,228.8c-0.2,0-1.4-0.9-3.6-0.4c-0.7-2.6-3.2-0.5-4-3.6c6.9-0.8,5.1-1.3,8.9-6.3
						C232.7,221.2,230.4,228.4,228.1,228.8z"/>
					<path class="st44" d="M220.5,238.6c0.3,4.8-4.4,4.7-5.4,6.7c-0.3-0.1-1,0.1-1.3,0c-5.8-2.4,3.8-2.1,0.4-9.8
						C217,234.7,220.3,235.4,220.5,238.6z"/>
					<path class="st37" d="M225.4,207.4c0.3,0,3-0.1,3.1,0c0.8,0.3,0.8,0.9,0.9,0.9c-1.7,4-3.3,4.9-6.7,7.2
						c-1.8-2.2-2.5-3.6-0.9-6.3c0.3-0.6,0.6-1.6,1.1-1.8C223.3,207.2,224.5,207.4,225.4,207.4z"/>
					<path class="st37" d="M224.5,217.6c0.4-0.1,3.7-0.1,4,0c0.1,0,0.1,0.3,0.9,0.9c-3.8,4.9-2.1,5.4-8.9,6.3
						C219.8,222.2,221.9,218.2,224.5,217.6z"/>
					<path class="st37" d="M211.5,255.6c1.1,1.4,1.5,3.6,1.3,5.4c-1.4-0.3-0.6-2-1.1-2.2c-0.2-0.1-0.1,1.5-2.5,3.1
						c-1.6-3.6,1.5-2.9,1.3-4.2c-0.1-1.1-3.4-2.7-5.4-0.4c-3,3.6,1.4,3.4,2.2,5.1c-3.2,2-0.8,2,2.2,3.1c-1.3,0.4-2.9,0.2-4-0.4
						c-0.3-0.1-0.9-0.4-0.9-0.4c-2.9-2.8-2-10.2,2.9-10.3C208.4,254.3,210.2,255.6,211.5,255.6z"/>
					<path class="st38" d="M223.6,104.6c2.3,2.2,0.9,4.9,1.3,7.6c-1.1-0.2-0.8,0.5-0.9,0.4c-0.3,0-0.4,0.4-2.2,0
						c-2.1-0.4-5.1-1.9-5.4-4.5c8.4-0.2,5.2,1.5,4.9-2.5c0-0.1,0.9-1.2,0.9-1.6C222.6,104.2,223.5,104.5,223.6,104.6z"/>
					<path class="st45" d="M190.6,272.2c2,1,3.7,1.3,5.8,1.8c-5.2,3.4-1,9.7,0.9,13.9c0.5,1.1,0.8,2.1,0.9,2.2c-0.2,0-0.2,0-0.4,0
						c-0.3-0.6-0.4-0.4-0.4-0.4c-0.7-1.3-1.5-2.7-2.2-4c-1.9-3.7-6.3-12.2-7.6-15.2C188.7,270.7,189.2,271.5,190.6,272.2z"/>
					<path class="st38" d="M228.5,217.6c-0.3-0.1-3.6-0.1-4,0c0.2-1.1-0.8-1-1.8-2.2c3.3-2.3,5-3.1,6.7-7.2
						C232.2,210.9,230.6,215,228.5,217.6z"/>
					<path class="st36" d="M224.5,228.4c2.2-0.4,3.4,0.5,3.6,0.4c0,0.2,0,0.2,0,0.4c-1.9,6.6-4.5,2.4-6.7,7.2
						C218.6,233.4,220.9,229,224.5,228.4z"/>
					<path class="st37" d="M225.8,197.5c0.9,0.8,2.6-0.2,3.1,0c0.6,0.2,0.4,0.4,0.4,0.4c-2.1,9.6-5.7,1.8-5.4,8
						c-0.8-0.7-1.5-1.1-1.8-2.2c0-0.3-0.1-0.7,0-0.9C222.4,202.5,221,198.2,225.8,197.5z"/>
					<path class="st38" d="M228.5,236c-2.3,1.6-4.9,2.9-7.1,0.4c2.2-4.8,4.8-0.5,6.7-7.2C231.4,230.7,229.4,233.6,228.5,236z"/>
					<path class="st37" d="M224.9,143.5c0.7-0.1,1.5,0.1,2.2,0c0,0.4,0.4,0.4,0.4,0.9c-2.4,9.1-4.7-0.9-5.4,6.7c-0.2,0-0.2,0-0.4,0
						C221.7,150.5,216.6,144.4,224.9,143.5z"/>
					<path class="st23" d="M177.2,133.2c0.1,6.4-4.5,7.8-6.3,5.1c-2.7-4.2,3.8-4.7,5.8-5.6C177.3,132.7,177.1,133.2,177.2,133.2z"/>
					<path class="st46" d="M229.8,152.4c-0.5-0.1-1.2,0.1-1.8,0c1.8-4.5-0.4-7.6-0.4-8c0-0.4-0.5-0.5-0.4-0.9c0.4-3.5,0.2-6,0.4-9.8
						c2.2,2.6,2.1,6.1,0.9,9.2C231.1,145.3,230.4,149.1,229.8,152.4z"/>
					<path class="st38" d="M217.3,147.5c3.8,2.5,1.3,3.1,1.3,3.4c0.1,0.4,1.6,1.4,0.9,3.6c-0.9,2.7-4.4,0.4-4.9,3.4
						c-0.1-0.1-0.3,0.1-0.4,0c-2.1-2.3,4.4-4,1.3-9.8C215.6,147.9,217.3,147.5,217.3,147.5z"/>
					<path class="st38" d="M216,177.9c-1.3,0.1-2.6-0.1-3.1-1.8c3-1.2,2.8-5,2.7-7.6c0.5,0.2,1.6,0.1,2-0.4
						C219.5,171,218.6,174.1,216,177.9z"/>
					<path class="st23" d="M213.8,136.8c2.5,6.1-1.9,6.5-2.2,6.7c-4.8-4.6-4.5-4.7,1.1-5.8c0.4-0.1,0.2-0.9,0.2-0.9
						C213.2,136.7,213.5,136.8,213.8,136.8z"/>
					<path class="st38" d="M213.3,234.6c-1.3-2.6,1.8-1.8,2.2-5.6c0.2-1.9-0.5-2.6-0.9-4.2c0.4,0.2,1.4-0.1,2,0
						C219.3,227.3,217.3,234.2,213.3,234.6z"/>
					<path class="st36" d="M199.5,273.1c0.2,0.8-0.5,1-0.4,1.3c-5.1,0.8-3.7,4.3-2.7,7.6c0.5,1.7,0.6,2.4,1.8,4
						c-0.3,0.5,0.6,2.1-0.9,1.8c-1.9-4.2-6.1-10.5-0.9-13.9c0.3-0.2,2.1-0.9,2.2-0.9C198.9,273,199.2,273,199.5,273.1z"/>
					<path class="st40" d="M189.2,258.8c-1.5,1.8-1.3,3.7-1.3,5.8c-0.1,3.5,0.1,4.9,2.7,7.6c-1.3-0.7-1.9-1.4-3.1-1.8
						c-0.4-0.9-1.7-6.3-4.5-10.7c0.6,0.8,2.9,2.4,3.8,3.6c0.7-1.4,1-3,1.6-4.5C188.8,258.8,188.8,258.8,189.2,258.8z"/>
					<path class="st39" d="M205.7,265c-0.2,2.2-0.2,2.2-0.4,4.5c-1.6,0.8-2.1,3-2.2,4.5c0,0.3,0,1,0,1.3c-1.1-0.8-2.1-2-3.6-2.2
						c-0.3,0-0.6,0-0.9,0c-2.6-1.1,1.2-0.7,1.6-0.9c3.5-1.5,3.8-4.2,4.7-7.6C204.9,264.6,205.5,264.9,205.7,265z"/>
					<path class="st36" d="M222.3,104.1c0,0.4-0.9,1.5-0.9,1.6c0.3,3.9,3.5,2.2-4.9,2.5C216.1,104.7,219.6,103.9,222.3,104.1z"/>
					<path class="st37" d="M227.2,238.2c-0.2,0.3-0.9,4.3-6.3,4.5c0.1-1.5,0.8-2.7,1.3-4C225.3,239.1,226.8,238.1,227.2,238.2z"/>
					<path class="st47" d="M224,206c0.5,0.4,1.2,0.7,1.3,1.3c-0.9,0.1-2.1-0.1-2.5,0c-0.5,0.2-0.8,1.2-1.1,1.8
						c-0.9-0.1-0.9-0.1-1.8-0.2c1.1-2.6,1.1-2.6,2.2-5.1C222.5,205,223.2,205.3,224,206z"/>
					<path class="st37" d="M208.4,173c-2.2-1.2-2.7,0-2.2-2.7C208.5,169.6,210.8,172.1,208.4,173z"/>
					<path class="st23" d="M176.7,119.3c-2.8-0.2-3.9,1-3.6-3.1c0.6-0.5,1.2-1.6,2-1.8C181.7,113,176.8,118.9,176.7,119.3z"/>
					<g>
						<path class="st37" d="M176.7,119.3c-0.7,4.3,1.6,3.4,1.8,3.6c0.5,0.4,2.4,0.8,2.7,1.6c0.2,0.5,0.7,5.9-4.5,8.3
							c-2,0.9-8.5,1.4-5.8,5.6c1.7,2.7,6.3,1.2,6.3-5.1c4.7,2.2,2.2,2.2,2.2,2.5c0.7,6.2-3.1,6.1-3.1,7.2c0,0.5,4.1,2.2,2.7,6.5
							c-1.1-6.9-0.6-1.2-3.6-0.4c1-11.7-9.9-1.2-1.3,0c-3.7,8.3,1.6,0.2,3.1,2.2c-0.9,0.8-2.6,0.8-2.2,1.6c5.9,1.1,4.9,10-0.9,10.5
							c-7,0.6-7.3-8.8-1.8-10.9c-4.3-2.1-4.2-8,0-9.8c-4.2-1.9-3.5-8.5,0.9-9.8c-4.7-3.2-2.7-9.9,0.9-10.1c0.5,1.7-2.6,1.3-2.2,4.7
							c1,8.5,10.8-5.2,2.2-4.7c-0.7-2.3-3-1.2-1.8-5.8c0.2-0.1,0.9-0.4,0.9-0.4C172.8,120.3,173.9,119.1,176.7,119.3z"/>
						<path class="st37" d="M178.9,149.3c-0.3,0.9-1.2,1.3-1.8,1.8c-1.6-2.1-6.8,6-3.1-2.2c0.3,0,1.1,0.1,1.3,0
							C178.4,148,177.8,142.3,178.9,149.3z"/>
						<path class="st23" d="M174,122.5c8.5-0.5-1.3,13.2-2.2,4.7C171.4,123.8,174.6,124.2,174,122.5z"/>
						<path class="st23" d="M171.6,153.7c4.4-1.8,3.4,2.1,2.9,4.7C170.8,163.4,168.2,155.2,171.6,153.7z"/>
						<path class="st23" d="M175.4,148.8c-0.3,0.1-1,0-1.3,0C165.5,147.7,176.4,137.1,175.4,148.8z"/>
					</g>
					<g>
						<path class="st37" d="M167.8,182.3c-0.2-2.9,1.2-6,4-6.9c-6.4-2.5-4.6-12.1,2.2-11.8c7.6,0.3,6.1,9.9,0,11.4
							C188.8,180.9,168.6,194.6,167.8,182.3z"/>
						<path class="st23" d="M172.5,164.5c0.2,0,3.4,0.8,3.6,0.9c0.8,0.8-3.5,9.8-6.5,5.1C168.2,168.3,171.3,164.5,172.5,164.5z"/>
						<path class="st23" d="M171.6,177c6.3-1.4,2.3,6.5,1.8,6.7C169.2,185.6,167.2,178,171.6,177z"/>
					</g>
					<g>
						<path class="st7" d="M179.4,101.4c1.1,4.4,1.1,4.4,2.2,8.7c-1.2,1.8-4.7,3.6-6.7,2.5c-3.1-1.7-1.7-7.9,1.8-9.2
							c0.2-0.6-1.3-1.7-1.3-4.2C177.3,99.4,176.7,101.5,179.4,101.4z"/>
						<path class="st23" d="M176,105c2.4-0.9,6.4,2.6,0.4,5.8C173.8,111,174.6,105.6,176,105z"/>
					</g>
					<g>
						<path class="st37" d="M182.5,229.3c-3.7-0.7-6.3-6.6-2.7-10.3c0.8-0.1,2.1-1.2,5.1-0.4C191.4,220.1,187.9,230.3,182.5,229.3z"
							/>
						<path class="st23" d="M181.4,219.4c1.4-0.4,8.2,1.6,2.5,5.1c1.7,1.1,0,3.1-1.3,1.3c-0.6-0.7-0.4-2.1-0.4-2.2
							C181.9,223.5,177.9,220.5,181.4,219.4z"/>
					</g>
					<g>
						<path class="st37" d="M177.2,197.5c-3.6-1.5-4.1-0.1-6.7,0.9c-2.9-2-3.9-6.3-1.3-8.9c0.2-0.2,1.9-1.3,2-1.3
							c7.6-1.5,6.4,4.2,6.5,4.7C177.7,193.1,180.1,193.7,177.2,197.5z"/>
						<path class="st34" d="M177.2,197.5c-1.7,2.3-2.6,2.6-5.4,1.8c-1.2-0.4-1.3-0.8-1.3-0.9C173.1,197.4,173.6,196,177.2,197.5z"/>
						<path class="st23" d="M170.7,189.9c2.8-1,4.8,0.5,4.2,3.4C173.5,200.6,167.3,191.2,170.7,189.9z"/>
					</g>
					<path class="st48" d="M211.1,284.2c0,0.2,0,0.2,0,0.4c-1.9,4.6-4.3,9.2-7.6,13c-0.4-0.5-1.1-0.9-1.8-0.9
						c-0.1-3,1.4-8.6,3.1-11.2c1.4,7.8,3.7,0.9,4.9-2.2C210.9,283.1,210.4,283.9,211.1,284.2z"/>
					<g>
						<path class="st37" d="M212.9,136.8c0,0,0.2,0.8-0.2,0.9c-5.6,1.1-5.9,1.2-1.1,5.8c-3.1,2.1-3,0.5-3.1,1.8
							c-4.5-3.6-3.4-7.5,1.8-9.2c-6.4-1.2-6.7-9.2-0.4-9.8c-6.2-2-6.3-9.3,0.4-9.8c-6.2-1.2-6.7-8,0-8.9c-4-0.4-5.6-4.2-3.6-7.6
							c7.4-0.3,10-1.4,5.4,7.6c3.7,2.2,2.8,6.6,0,9.8c7.4,3.1,0.2,8.4,0.4,8.9c0.1,0.2,2.4,0.5,2.7,1.3
							C215.6,129,211.9,135.2,212.9,136.8z"/>
						<path class="st7" d="M209.1,127.4c4.3-1.2,3.1,2.5,1.8,5.4C210.2,133,205.9,128.2,209.1,127.4z"/>
						<path class="st7" d="M210.9,108.6c3.4,0.8-0.7,6.8-3.1,3.1C206.3,109.6,210.6,108.5,210.9,108.6z"/>
						<path class="st7" d="M208.6,100.6c0.3-0.1,0.2,0.9,0.4,0.9c0.2,0,0.8-1.3,1.8-0.4C215,104.6,202.7,103.5,208.6,100.6z"/>
					</g>
					<g>
						<path class="st37" d="M214.7,224.8c0.4,1.6,1.1,2.3,0.9,4.2c-0.5,3.8-3.6,3-2.2,5.6c0.4,0.9,0.9,0.8,0.9,0.9
							c3.3,7.8-6.2,7.5-0.4,9.8c2.5,2.3,0.4,7.8-2.5,8.5c-6,1.4-11.5-8-2.5-10.5c-4.1-2.9-4.9-8.5,0.4-9.8c-3-1.5-5.2-4.8-3.1-8
							C208.9,221.1,214.2,224.6,214.7,224.8z"/>
						<path class="st23" d="M208.2,235.1c7.6-0.7,4.5,6.6,0.9,4C208.4,238.6,206.6,235.8,208.2,235.1z"/>
					</g>
					<path class="st38" d="M228.5,176.5c-0.2-0.1-1.2,0.3-2.2-0.4c-0.5-0.3-1.3-0.8-1.3-0.9c-3.2-5.5,1.5-3.2,1.8-3.4
						c0.3-0.2,2.7-5.5,2.7-6.5C233.1,168.1,231.7,174.4,228.5,176.5z"/>
					<path class="st36" d="M225.4,152.8c0.6-0.1,2.3-0.1,2.7,0c0.6,0.1,0.9,0.6,1.3,0.9c-0.7,0.9-0.4,1.6-0.4,1.8
						c-0.1,0.2-2.5,3.3-2.9,3.6c-0.4,0.3-1.4-2.1-3.3,2.2c-2-2.4-2.6-2.9-0.9-6.3C222.6,153.6,223.8,153,225.4,152.8z"/>
					<path class="st38" d="M229.8,188.6c2.4,2.8,0.7,6.1-0.9,8.9c-0.6-0.2-2.2,0.8-3.1,0c-0.5-0.6-1.2-0.8-1.8-1.3
						c-1.8-3.7,2.8-2.3,3.8-3.6C228.6,191.6,228.1,188.6,229.8,188.6z"/>
					<path class="st38" d="M230.7,178.8c-0.1,0.5,1.5,6.2-2.2,8.5c-0.3-0.1-2.2-0.1-2.7,0c-0.7-0.9-1.6-1.2-2.2-2.2
						c3.6-3.4,4.1-1.5,5.8-7.6C229.9,177.8,229.6,179,230.7,178.8z"/>
					<path class="st38" d="M228.1,152.4c0,0.2,0,0.2,0,0.4c-0.4-0.1-2.1-0.1-2.7,0c-1.6-0.9-1.6-0.9-3.1-1.8
						c0.6-7.6,2.9,2.4,5.4-6.7C227.6,144.8,229.8,147.9,228.1,152.4z"/>
					<path class="st38" d="M223.6,162.2c1.2-3.4,8.4,1.6,5.4-6.7c0.1-0.2-0.2-0.9,0.4-1.8C233.5,156.9,230.8,167,223.6,162.2z"/>
					<g>
						<path class="st37" d="M211.1,156.9c1.9,1.2,3,0.8,3.1,0.9c0.1,0.1,0.3-0.1,0.4,0c0.6,0.3,0.4,0.4,0.4,0.4
							c2.6,2.3,1,6.5-1.3,8.5c-0.1,0.1-1.1-1.1-1.3,0.7c1.1,0.3,2.1,0.8,3.1,1.1c0.2,2.6,0.3,6.4-2.7,7.6c-3.3,1.3-6.9-2.6-6.7-2.9
							c0.4-0.5,1.7,0,2.2-0.2c2.4-0.8,0.1-3.3-2.2-2.7c0.4-2.3,2.2-3.8,4.5-3.4c-6-2.9-3.9-9.1-3.1-9.8
							C208.3,156.3,210.3,158.2,211.1,156.9z"/>
						<path class="st38" d="M213.8,166.7c2.3-2,3.9-6.2,1.3-8.5c3.9-1.4,3.9,5.8,3.6,6.5C218.5,165,214.7,169.5,213.8,166.7z"/>
					</g>
					<path class="st35" d="M228.9,155.5c3.1,8.4-4.2,3.3-5.4,6.7c-0.5-0.4-0.5-0.4-0.9-0.9c1.9-4.3,2.9-1.9,3.3-2.2
						C226.4,158.8,228.9,155.7,228.9,155.5z"/>
					<path class="st47" d="M222.3,151.1c1.6,0.9,1.6,0.9,3.1,1.8c-1.6,0.2-2.8,0.7-3.6,2.2c-2.7-1.1,0-3.8,0-4
						C222,151.1,222,151.1,222.3,151.1z"/>
					<path class="st38" d="M226.7,261.9c-2,1.7-5.5,4.2-6.7,0.4c5.7-2.2,7.2-6.3,3.6-6.7c2-1.4-1.3,0-2.7-3.6c7.6-2,4.7-4.1,5.4-5.8
						c3.7,0.6,1.7,6.5-0.4,8.7C225.7,256.8,229,255.6,226.7,261.9z"/>
					<g>
						<path class="st44" d="M219.6,282.4c0.4,0.4,0.4,0.4,0.9,0.9c-0.3,0.4-0.6,0.6-0.9,0.9c-2.6,1.4-5.4,3-7.6,0
							c-1.7-2.3-0.6-1.6,0-3.6C214,282,217.3,283.1,219.6,282.4z"/>
						<path class="st45" d="M222.3,281.5c-0.8,1.3-1.7,1.7-1.8,1.8c-0.4-0.4-0.4-0.4-0.9-0.9c1.7-0.5,3.4-2.9,2.2-4.7
							c1.6-1.9,1.6-1.9,3.1-3.8C224.6,276.4,223.5,279.5,222.3,281.5z"/>
						<path class="st38" d="M224,269.5c2.1,1.3,1.1,2.7,0.9,4.5c-1.6,1.9-1.6,1.9-3.1,3.8c1.1,1.8-0.5,4.2-2.2,4.7
							c-2.3,0.7-5.6-0.4-7.6-1.8c0.5-1.6,1.7-4.3,2.2-6.3c0.4,0.1,1.2-0.3,1.3-0.4c-3.5,12,7,5.7,6.3-4.9
							C222.3,269,223.7,269.3,224,269.5z"/>
						<path class="st40" d="M212.9,272.6c0.7,0.9,0.7,0.9,1.3,1.8c-0.6,2-1.8,4.7-2.2,6.3c-0.6,2-1.7,1.3,0,3.6
							c-0.3,0-0.7,0.1-0.9,0c-0.7-0.3-0.2-1.1-1.3-0.9c1.4-3.7-0.1-4.2,2.2-6c-0.2-1.3,0.2-3.2,0-4.2c0-0.6,0.4-0.4,0.4-0.4
							C212.7,272.6,212.7,272.6,212.9,272.6z"/>
						<path class="st36" d="M221.8,269c0.8,10.6-9.8,16.9-6.3,4.9C217.1,272,219.3,269.2,221.8,269z"/>
					</g>
					<path class="st38" d="M226.3,246.2c-0.4-0.1-1,0-1.3,0c-0.2-1.3-4.3-0.1-4-3.6c5.4-0.2,6-4.1,6.3-4.5
						C230.8,238.9,226.9,244.6,226.3,246.2z"/>
					<path class="st37" d="M224.9,246.2c0.4,0,1-0.1,1.3,0c-0.7,1.7,2.3,3.8-5.4,5.8C219.7,249.1,221.7,246.6,224.9,246.2z"/>
					<path class="st37" d="M223.6,255.6c3.7,0.4,2.1,4.5-3.6,6.7C219.4,260.5,220.8,255.3,223.6,255.6z"/>
					<path class="st36" d="M212.9,261c-0.2,2-1,3.8-3.1,4.5c-3-1.2-5.4-1.2-2.2-3.1c0.1-0.1,1,0.1,1.8-0.4c2.3-1.7,2.3-3.2,2.5-3.1
						C212.2,259,211.5,260.7,212.9,261z"/>
					<g>
						<path class="st49" d="M222.3,238.6c-0.5,1.4-1.2,2.5-1.3,4c-0.3,3.5,3.8,2.3,4,3.6c-3.2,0.4-5.2,2.8-4,5.8
							c1.4,3.6,4.7,2.1,2.7,3.6c-2.8-0.3-4.2,4.9-3.6,6.7c1.2,3.7,4.7,1.3,6.7-0.4c-0.7,1.9-1.3,1.7-2.2,3.4
							c1.3-0.6,1.3-0.6,2.7-1.1c-0.7,2.5-1.1,3.5-3.1,5.4c-0.3-0.2-1.7-0.5-2.2-0.4c-2.5,0.2-4.7,3-6.3,4.9
							c-0.1,0.2-0.9,0.6-1.3,0.4c-0.7-0.9-0.7-0.9-1.3-1.8c5.2,0.1,6.8-6.7,3.8-6.7c-1.9,0-1.6,3.7-2.2,4c-1.1,0.6-1.3-1.2-1.8-1.3
							c-4.4-0.9,0.4,1.6-0.2,4c0,0-0.5-0.1-0.4,0.4c-0.6-2.6-4.1-4.9-6.7-3.6c0.2-2.2,0.2-2.2,0.4-4.5c1.1,0.6,2.7,0.8,4,0.4
							c2.1-0.6,2.9-2.4,3.1-4.5c0.2-1.8-0.2-3.9-1.3-5.4c0.7,0,0.3-0.8,0.7-0.9c0.7-0.1,1.5,1,3.1,0c0.2-0.1,2.4-2.7,2.5-2.9
							c0.1-0.2,0.1-5.1,0-5.4c-0.8-1.2-2.5-1-2.7-1.1c0.9-2,5.7-1.9,5.4-6.7C221.1,238.7,221.7,238.6,222.3,238.6z"/>
						<path class="st38" d="M214.2,258.8c1.4,0.1,1.2-0.9,1.3-1.3c1.7-5.2,2.8,3.9,2.7,4.7c-0.6,3.1-6.7,4.7-4.5-0.9
							c0.2-0.5,0.7,0.7,1.3,0C213,259.1,214.3,259.2,214.2,258.8z"/>
						<path class="st38" d="M212.9,272.6c-0.2,0-0.2,0-0.4,0c0.6-2.5-4.2-4.9,0.2-4c0.5,0.1,0.7,1.9,1.8,1.3c0.6-0.3,0.3-4.1,2.2-4
							C219.7,266,218.1,272.7,212.9,272.6z"/>
						<path class="st37" d="M215.6,257.4c-0.1,0.5,0.1,1.4-1.3,1.3C214.2,258.5,211.6,255.1,215.6,257.4z"/>
					</g>
					<path class="st38" d="M228.5,207.4c-0.1-0.1-2.9,0-3.1,0c-0.2-0.7-0.8-0.9-1.3-1.3c-0.4-6.3,3.3,1.5,5.4-8
						C232.8,200.4,229.9,204.5,228.5,207.4z"/>
					<g>
						<path class="st36" d="M215.6,147.9c3,5.8-3.5,7.5-1.3,9.8c-0.1-0.1-1.2,0.3-3.1-0.9c-1.6-1.1-5.1-2.9-5.4-5.1
							c-0.3-3.1,2.4-5.5,5.4-4.9c-1.6-0.2-2-1-2.7-1.6c0.1-1.3,0,0.4,3.1-1.8c0.4-0.2,4.7-0.6,2.2-6.7c1.1,0,3,1.7,3.1,2.5
							C218.1,144.8,210.2,147.4,215.6,147.9z"/>
						<path class="st23" d="M210,147.9c0.2,0,0.6,0.5,3.8,0.7C211.4,157.3,206.3,148.6,210,147.9z"/>
					</g>
					<g>
						<path class="st37" d="M187.9,264.6c0.1-2.1-0.1-4,1.3-5.8c2.8-3.4,6.8-1.2,7.6,0.7C198.5,263.3,193.4,274.2,187.9,264.6z"/>
						<path class="st23" d="M192.1,258.3c4.5-0.6,4.6,9.5,0,7.6C191.4,265.6,188.4,258.8,192.1,258.3z"/>
					</g>
					<g>
						<path class="st44" d="M212.4,76.4c0.2,0.3,1.5,1,1.3,2.2c-0.8-0.6-2-1.6-2.7-0.4c-1.1-4.4-6.3,1.5-3.1,4.5
							c3.6,3.4,4.1-1.3,6.3-2.2c1.1,3.3-0.9,5.6,5.4,5.4c0,0.1,0,0.3,0,0.4c-1-0.2-1.4,0-2.2,0.4c-3.1,1.6-2.7,5.3,0,7.2
							c1.1,0.7,3.1,1.2,4.5,0.9c0.2,0.8,3.5,3.1,1.8,9.8c-0.1,0-1-0.4-1.3-0.4c-2.7-0.2-6.1,0.6-5.8,4c0.2,2.6,3.2,4,5.4,4.5
							c-11.8,2.6,3.3,14.3-2.2,6.5c0.6-2.1,6.3,1.6,4.5-6.5c0,0-0.2-0.6,0.9-0.4c0.1,0,0.3-0.1,0.4,0c2.6,1,3.5,9.5,0.4,10.5
							c4.9,2.5,1.9,8.8,1.8,10.9c-0.2,3.9,0,6.3-0.4,9.8c-0.7,0.1-1.5-0.1-2.2,0c-1-0.4-1.7-0.8-2.7-1.3c-2.2-6.9,3-0.9,4.5-5.1
							c1.6-4.5-6.7-4.5-7.1,0.4c-0.2,1.7,1,2.4,0.9,3.4c-0.2,2.3-1,5.5-3.1,6.7c-0.1,0-1.7,0.5-1.8,0.4c-5.3-0.5,2.5-3.1,1.3-8.7
							c-0.2-0.7-2-2.5-3.1-2.5c-0.3,0-0.6,0-0.9,0c-1-1.6,2.7-7.8,2.2-9.2c-0.3-0.9-2.6-1.1-2.7-1.3c-0.2-0.5,7-5.8-0.4-8.9
							c2.8-3.2,3.7-7.6,0-9.8c4.7-9,2-7.9-5.4-7.6c-2,3.4-0.4,7.2,3.6,7.6c-6.7,1-6.2,7.7,0,8.9c-6.8,0.5-6.7,7.8-0.4,9.8
							c-6.3,0.6-6,8.6,0.4,9.8c-5.2,1.7-6.3,5.5-1.8,9.2c0.7,0.6,1.1,1.4,2.7,1.6c-2.9-0.6-5.7,1.8-5.4,4.9c0.2,2.3,3.7,4.1,5.4,5.1
							c-0.8,1.3-2.8-0.5-3.6,0.2c-0.7,0.7-2.8,6.9,3.1,9.8c-2.3-0.5-4,1.1-4.5,3.4c-0.5,2.7,0,1.5,2.2,2.7c-0.6,0.2-1.8-0.3-2.2,0.2
							c-0.2,0.3,3.4,4.2,6.7,2.9c0.5,1.6,1.8,1.9,3.1,1.8c0.5,0,1.9-1.2,4.2-0.9c3.7-7.1,4.2,3.2-0.7,1.1c3.4,2.5,0,8.6,1.6,8.7
							c0.2,0,1.5-3.3,2-0.7c0.2,1-1.5,2.1-1.8,2.7c-0.1,0.2,2,2.5-1.3,0.4c1.8,2.4,1,5.2,0.4,8c0.4,1.9,3.2-4.1,2.2,0.4
							c-0.9,3.9-5.3,1.4-1.1,5.6c0,0,0.3-0.5,0.7-0.4c-0.1,0.2,0,0.6,0,0.9c-1.1,2.6-1.1,2.6-2.2,5.1c0.9,0.1,0.9,0.1,1.8,0.2
							c-1.6,2.6-0.9,4.1,0.9,6.3c1,1.2,2,1.1,1.8,2.2c-2.6,0.6-4.7,4.6-4,7.2c0.8,3,3.4,1,4,3.6c-3.5,0.7-5.9,5-3.1,8
							c2.2,2.4,4.8,1.1,7.1-0.4c0,0.1-1.1,1.9-1.3,2.2c-0.4-0.1-1.8,0.9-4.9,0.4c-0.6-0.1-1.2,0-1.8,0c-0.2-3.2-3.5-3.9-6.3-3.1
							c0-0.1-0.5,0-0.9-0.9c4-0.4,6-7.3,3.3-9.8c-0.6-0.1-1.6,0.2-2,0c-0.5-0.2-5.8-3.7-8.5,0.7c-2,3.3,0.1,6.5,3.1,8
							c-5.4,1.3-4.6,6.9-0.4,9.8c-9.1,2.5-3.6,11.9,2.5,10.5c2.8-0.7,4.9-6.2,2.5-8.5c0.3,0.1,1.1-0.1,1.3,0
							c0.2,0.1,1.9-0.1,2.7,1.1c0.1,0.2,0.1,5.1,0,5.4c-0.1,0.2-2.3,2.8-2.5,2.9c-1.6,1-2.5-0.1-3.1,0c-0.4,0,0,0.9-0.7,0.9
							c-1.3,0-3.1-1.3-3.8-1.3c-4.9,0-5.8,7.5-2.9,10.3c-0.9,3.4-1.2,6.1-4.7,7.6c-0.4,0.2-4.2-0.2-1.6,0.9c-0.1,0-2,0.7-2.2,0.9
							c-2.1-0.5-3.8-0.8-5.8-1.8c-2.5-2.7-2.8-4.1-2.7-7.6c5.5,9.7,10.6-1.3,8.9-5.1c-0.8-1.9-4.8-4.1-7.6-0.7c-0.4,0-0.4,0-0.9,0
							c0.1-0.3-0.5-0.6-0.4-0.7c0.1-0.3,3.7-4.2,0.7-5.1c-0.7-0.2-1.1,0.8-1.1,0.9c-2.6-1.5-2.9-2.6-3.1-2.7c0-0.7,0-0.7,0-1.3
							c4.8,0.3,2.7-2.4,2.7-2.7c0.9-8.6-1.6-5.6-4-6.7c0.2-0.4,0.2-0.4,0.4-0.9c1.2,0.3,1.9-0.4,2.2-0.4c4.2-0.8,4.1-6.1,1.8-6.3
							c-0.4-2.4-2.6-3.4-4.9-3.1c0-0.2,0-0.2,0-0.4c5.3,1.1,8.9-9.1,2.5-10.7c-3-0.7-4.3,0.4-5.1,0.4c-2.4,0.2-1.6,0.9-2,0.9
							c-5,0.5-7.7-4.5-7.4-8.9c5,8.5,7.5,2.8,1.3-0.4c0-0.9,0-0.9,0-1.8c6.6,2.2,8.6-5.8,4.5-4c0.6-2.7-2.1-4.8-4.9-3.6
							c0.2-0.9,0.2-0.9,0.4-1.8c2.8,0.8,3.6,0.5,5.4-1.8c2.9-3.9,0.5-4.4,0.4-4.7c-0.1-0.5,1.2-6.2-6.5-4.7c-0.1,0-1.8,1.1-2,1.3
							c-0.2-0.2-0.2-0.2-0.4-0.4c0.9-2.3-0.4-1.2-1.8-6.3c0.4-0.2,0.4-0.2,0.9-0.4c0.8,12.2,21-1.4,6.3-7.4c6.1-1.5,7.6-11.1,0-11.4
							c0-0.2,0-0.2,0-0.4c5.8-0.5,6.8-9.4,0.9-10.5c-0.3-0.8,1.3-0.8,2.2-1.6c0.6-0.5,1.5-0.9,1.8-1.8c1.4-4.3-2.7-6-2.7-6.5
							c0-1.1,3.9-0.9,3.1-7.2c0-0.2,2.5-0.2-2.2-2.5c0,0,0.1-0.5-0.4-0.4c5.2-2.4,4.6-7.8,4.5-8.3c-0.3-0.7-2.1-1.2-2.7-1.6
							c6.8-7.2,0.7-9.1,0.9-9.6c0.2-0.5,5.7-0.7,3.6-8c-7.1-2,7.6-2,0.9-11.2c5.2-4.9,2.7-5.6,2.2-9.6c5.4-7.8-0.6-5.5,7.1-4.5
							c4.4,0.6,5-1.8,3.6-5.8c0.1,0-0.2-1.5,0.9-0.7c-1,3.5,8.5,5.9,10.3,2.7c0.3-0.5-0.1-3.9,1.1-3.8
							C210.4,76.5,212.3,76.2,212.4,76.4z"/>
						<g>
							<path class="st36" d="M171.8,210.5c6.1,3.2,3.7,8.9-1.3,0.4c0-0.5-0.2-1.1,0.2-1.3C171,210,171.3,210.2,171.8,210.5z"/>
							<path class="st50" d="M222.7,93c0.9,2.6,0.9,2.6,1.8,5.1c-1,5.4,2.6,9.1,0.9,14.1c-0.1-0.1-0.3,0-0.4,0
								c-0.5-2.7,0.9-5.4-1.3-7.6c1.7-6.8-1.6-9.1-1.8-9.8c-0.1-0.5,0.7-1.5,0.4-3.1C222.3,91.7,222.9,91.4,222.7,93z"/>
							<path class="st37" d="M192.3,158.7c1.5-0.8,5.2,2.3,6.9,0.9c1.4-1.2,2.8-8.7-4.5-6.3c-1.3,0.4-1.3,3.4-2.5,2.2
								c0.6-2,2-3.5,4-3.8c0.3-0.6-2.4-1.4-3.1-3.8c2.4-0.1,7.4,2.5,8.5-1.1c1.4-4.6-3-4.5-4-5.1c-1.7-1-3.3-1.3-4-3.6
								c7.3,2.5,8.2-3.8,7.6-5.1c-0.5-1.1-2.7-1-3.6-1.6c-2.5-1.7-4.4-2.5-4-5.8c1.9,6.1,8.5,0,7.6-2.9c-0.2-0.6-1.5-0.1-3.1-1.1
								c-2-1.2-3.5-1.6-4-4c2.9-0.1,2.9-0.1,5.8-0.2c2.6-7.7,0.5-4-2.2-5.6c-0.1-0.1-1.6-1.6-1.8-1.8c-0.1-4.9,4.2-0.2,5.4-3.4
								c0.7-2-0.3-3.7-2.2-4.2c1-0.3-0.1-0.2-0.4-0.9c-1.7-3.8,3.7-2.9,3.1-6.3c0.1,0,1.7-1.7,2.2-0.7c-0.2,3.4-0.2,3.4-0.4,6.7
								c-4.3,2.2,3.2,0.7-1.3,9.4c0,1.1,3.8,4.5-0.9,10.7c5.7,1.8-0.8,9.8-0.4,10.3c0.3,0.3,2.3,0.4,2.7,1.3c1.1,2.9-2,7.8-1.8,8.5
								c0.2,0.7,7.1,4.6-1.8,10.7C213.5,157.1,196,169.1,192.3,158.7z"/>
							<path class="st36" d="M193.2,89.8c7.3,5.8-2,9.5-1.8,10.1c6-0.9,3.1,6.9-0.4,8.5c5.7,1.6,1.8,8.5-0.9,9.6
								c-1.4,0.6-2.2,0.6-3.6,0c-0.2-0.1-2.6-2.4-2.7-2.7c0.7-2,4.3-0.7,5.1-1.3c0.5-0.3,4.7-8.1-4.2-4c1.6-1.8,2.9-1.2,3.1-1.6
								c-0.1-1.1-1.8,0.1-2.7-3.4c1.1-2.2,4.6,0.1,4.9-3.8c0.2-2.2-1.8,0-3.1-1.1c2.2-3.5,0.2-0.9-0.4-4c2.7-1.1,8.3-2.3,4-5.4
								C192.4,90.7,192,90.5,193.2,89.8z"/>
							<path class="st37" d="M196.4,91.2c4.2-0.7,8.6-2.7,2.7-4.5c0.7-0.5,0.9,0.4,0.9-0.7c-6.2-3.5-1-11.2,4.9-6.7
								c-0.6,3.6,1.7,3.7-2.2,7.2C207.6,96.1,197.1,94.3,196.4,91.2z"/>
							<path class="st23" d="M185.2,205.1c0.5,1.9,3.7,3.2,1.3,7.8c-2.6,5.2-6.6,0.1-7.6,2C175.5,210,178.9,203.6,185.2,205.1z"/>
							<path class="st7" d="M208.2,211.4c5.3-1.4,6.9,3,6,7.4c-2.6-0.4-2.6,3.1-3.8,3.4C203.8,223.4,203.7,212.5,208.2,211.4z"/>
							<path class="st23" d="M199.5,175.2c2.6,2-0.3,5.3-2,7.2c-5.6-2-6.6-0.7-6-4.9C192.9,173.1,196.3,174.5,199.5,175.2z"/>
							<path class="st34" d="M191.4,215.9c2.8,0.4,2.8,0.4,5.6,0.9c-1.3-3.8,4-3.1,1.6-8c1.1,0.2,2.3-0.5,3.1,0.7
								C204.5,221.5,193.7,222.5,191.4,215.9z"/>
							<path class="st37" d="M188.3,128.3c-0.1,0.1,0.1,0.3,0,0.4c-0.9-0.7-1.7-0.4-1.8-0.4c-1.6-1-3.8-3-4-4.9
								c0,0.9,5.3,0.6,5.6,0.4c0.3-0.2,2.4-5.5,2-5.8C196.7,120.5,193.3,126.1,188.3,128.3z"/>
							<path class="st23" d="M197.7,141.7c1,0.6,5.4,0.5,4,5.1c-1.1,3.6-6.1,1.1-8.5,1.1C192.2,144.7,194,141.1,197.7,141.7z"/>
							<path class="st23" d="M198.6,208.7c2.4,4.9-2.9,4.2-1.6,8c-2.8-0.4-2.8-0.4-5.6-0.9C189.5,210.1,193.4,207.9,198.6,208.7z"/>
							<path class="st23" d="M183.4,193.1c5.7,0.2,1.3,7.7,0.7,8c-0.7,0.4-6.1-0.5-5.6-4C179.1,195.2,181.3,193,183.4,193.1z"/>
							<path class="st23" d="M197.7,131.4c0.9,0.6,3.1,0.4,3.6,1.6c0.6,1.4-0.3,7.6-7.6,5.1C192.8,135.2,194.1,131.6,197.7,131.4z"
								/>
							<path class="st23" d="M191.9,229.3c-2-2.5-2.2-3.4-0.4-6.3c1.4-0.9,5.8-2.2,6.7-0.2c0.6,1.4-2.2,4-2.7,5.4
								C195.2,229,198.7,229.4,191.9,229.3z"/>
							<path class="st23" d="M192.3,158.7c-0.7-1.9-0.4-1.9,0-3.1c1.2,1.2,1.2-1.8,2.5-2.2c7.3-2.4,5.9,5.1,4.5,6.3
								C197.6,160.9,193.8,157.9,192.3,158.7z"/>
							<path class="st36" d="M224,112.6c1.9,8-3.9,4.4-4.5,6.5c5.5,7.8-9.6-3.8,2.2-6.5C223.6,113,223.7,112.6,224,112.6z"/>
							<path class="st23" d="M197.3,204.2c-2,0.3-3.7-0.3-5.8-0.9c-0.6-2.4-0.3-3.1,1.3-4.9c2.2-0.6,2.2-0.6,4.5-1.1
								c-0.5,1.4,1.3,2.4,0.9,4.5C198,202.4,195.8,202.3,197.3,204.2z"/>
							<path class="st34" d="M178.9,215c1-1.9,5,3.2,7.6-2c2.3-4.6-0.9-5.9-1.3-7.8c8.1,1.9,1.5,12.2,0.2,12.5
								C183.2,218.2,180.3,217,178.9,215z"/>
							<path class="st23" d="M198.1,121.6c1.6,1,2.9,0.5,3.1,1.1c0.9,2.9-5.7,9-7.6,2.9C193.9,123.4,195.7,121.3,198.1,121.6z"/>
							<path class="st38" d="M213.8,221.2c3.4-4.3,1.4-4.9,3.6-8c0.1-0.1-1-1.2,0.2-0.9c3.6,0.8,0.7,6.4,0.7,7.8
								c0,0.4,4.5,2.8-5.1,2.9c-0.3-0.3-0.3-0.3-0.7-0.7C212.8,221.8,213.7,221.3,213.8,221.2z"/>
							<path class="st23" d="M186.5,118c1.3,0.6,2.2,0.6,3.6,0c0.4,0.3-1.7,5.7-2,5.8c-0.3,0.1-5.6,0.5-5.6-0.4
								C182.2,120.6,183.5,118.1,186.5,118z"/>
							<g>
								<path class="st36" d="M188.3,138.5c-0.3,0.2-1.1-1.3-0.9,0.9c-0.3-0.2-1.9-0.5-2.2-0.4c-0.1-1.5-3.8-1.5-4-5.4
									c4.4-0.7,4.2,4.4,7.1-2.5c0.5-1.2,0-2.3,0-2.5c0.1-0.1-0.1-0.4,0-0.4C196.1,129.1,191.5,136.8,188.3,138.5z"/>
								<path class="st23" d="M186.5,128.3c0.1,0.1,0.9-0.2,1.8,0.4c0,0.1,0.5,1.3,0,2.5c-2.9,6.8-2.7,1.8-7.1,2.5
									C181,130.4,183.3,128,186.5,128.3z"/>
							</g>
							<path class="st23" d="M197.7,111.7c2.7,1.6,4.9-2.1,2.2,5.6c-2.9,0.1-2.9,0.1-5.8,0.2C193.6,115,195,112.1,197.7,111.7z"/>
							<path class="st36" d="M222.3,142.1c-0.7-0.4-1.1-1-1.8-1.3c0.1-1-1.1-1.6-0.9-3.4c0.5-5,8.7-4.9,7.1-0.4
								C225.2,141.2,220,135.2,222.3,142.1z"/>
							<g>
								<path class="st37" d="M198.1,186.4c0,0,0,0.4-0.7,0.9c-9.6-0.5,2.1,14.1,2.5-0.9c6.6,0.2,2.2,8.3-1.8,10.9
									c7.6-0.3,3.2,10.2-0.9,10.5c4.6-2.3,6.6-14,1.8-3.8c-1,1.4-1.7,0.2-1.8,0.2c-1.4-2,0.8-1.8,0.9-2.5c0.4-2-1.4-3.1-0.9-4.5
									c-2.2,0.6-2.2,0.6-4.5,1.1c1.6-1.8,1.6-0.9,3.1-2c-4.5-2-5.7-6.2-2.5-10.1c10.1-0.9-4.9-0.2-2-8.9c-0.6,4.2,0.4,2.9,6,4.9
									c1.7-1.9,4.6-5.1,2-7.2c0.3,0.1,4.6-0.9,4,3.8c-0.3,2.6-4.1,5.2-5.8,6.7C197.7,185.7,198.4,186.2,198.1,186.4z"/>
								<path class="st23" d="M199.9,186.4c-0.4,15-12.1,0.4-2.5,0.9c0.7-0.5,0.6-0.9,0.7-0.9C198.7,186.4,199.3,186.3,199.9,186.4z
									"/>
							</g>
							<path class="st38" d="M217.6,178.3c0.1,0,2,1.4,2,1.6c0.7,1.9-2.3,9.3-3.3,8.7c-0.2-0.1-1.5-2.9-1.6-3.4
								c0-0.3,1.8-2.7,0.9-6.3C216.7,178.9,217.5,178.3,217.6,178.3z"/>
							<path class="st23" d="M199,102.3c1.9,0.5,3,2.3,2.2,4.2c-1.2,3.2-5.4-1.6-5.4,3.4C193.1,106.5,196.1,101.5,199,102.3z"/>
							<path class="st36" d="M213.3,84.9c-2.6,4.4-6.2,1.4-2.2,5.8c-1.9,0-4.4,0-4.9-2.5C205.1,83.2,212.5,84,213.3,84.9z"/>
							<path class="st23" d="M183.9,115.3c-0.8-1.7-0.4-4,0.9-5.4c8.9-4.1,4.7,3.7,4.2,4C188.1,114.6,184.5,113.3,183.9,115.3z"/>
							<g>
								<path class="st37" d="M188.3,138.5c0.1,1.3,2.9,1.8,3.1,2.9c0.1,0.5-1.9,9.1-4,8.5c6.9,3.6,1.9,14.6-4.9,10.1
									c0.9,0.2,2.4-0.6,2.7-1.8c3.5,0.3,3.5-4.2,2.2-6.5c-0.2-0.3-2.3-1.2-2.7-1.6c-1.8-1.8-9.4-7.4-0.9-10.7
									c1,0.6-2.2,2.5-2.2,3.4c0,0.3,2.5,4.7,4,3.1c0.7-5.6,4.1-5,1.8-6.5C187.3,137.2,188,138.7,188.3,138.5z"/>
								<path class="st23" d="M185.2,139c0.3,0,1.9,0.3,2.2,0.4c2.3,1.4-1,0.8-1.8,6.5c-1.6,1.5-4-2.8-4-3.1c0-0.8,3.2-2.7,2.2-3.4
									C183.9,139.4,183.4,139.1,185.2,139z"/>
							</g>
							<path class="st34" d="M197.3,207.8c-2.6,0.2-5.2-1.9-5.8-4.5c2.1,0.6,3.8,1.2,5.8,0.9c0.1,0,0.8,1.2,1.8-0.2
								C203.8,193.8,201.8,205.5,197.3,207.8z"/>
							<path class="st36" d="M219.8,95.2c0.3,0.1,3.1,5.6-0.7,5.1c1.7,6.1-3.7,0.6-3.1-2.7C216.4,95.4,219.6,95.1,219.8,95.2z"/>
							<g>
								<path class="st36" d="M224.9,123.3c2.7,8.9-6.4,3.6-2.7,8.9C214.7,130.2,219.5,120.6,224.9,123.3z"/>
								<path class="st38" d="M222.3,132.3c-3.8-5.3,5.3,0,2.7-8.9c2.7,1.3,2.5,8.8,0.7,9.4C224.5,133.1,223.3,132.6,222.3,132.3z"
									/>
							</g>
							<path class="st36" d="M210.6,98.8c0.3-2.3-0.9-0.4-1.6-0.9c-5.4-3.7,2.7-1.5,2.5-5.8c0.7,0,0.5,0.5,1.8-0.2
								c-0.1,2.3,0.1,7-1.6,7.4C210.5,99.5,210.7,98.8,210.6,98.8z"/>
							<path class="st7" d="M201.7,95.2c0.5,3.4-4.8,2.5-3.1,6.3c-4.2-0.3-2.4-6.2-0.7-7.2C198.1,94.2,200.5,95.2,201.7,95.2z"/>
							<g>
								<path class="st23" d="M185.2,158.2c-2.1-0.2-5.2-4.4-2.5-6.3c1.6-1.1,4.7,0.1,1.1-1.3c0.4-0.1,0.5-0.4,0.9-0.4
									c0.4,0.3,2.5,1.3,2.7,1.6C188.7,154,188.7,158.5,185.2,158.2z"/>
								<path class="st7" d="M183.9,150.6c3.6,1.5,0.5,0.3-1.1,1.3c-2.7,1.8,0.3,6.1,2.5,6.3c-0.3,1.2-1.8,2-2.7,1.8
									C178.5,157.3,179,152,183.9,150.6z"/>
							</g>
							<path class="st37" d="M211.5,92.1c0.2,4.3-7.8,2.1-2.5,5.8c0.7,0.5,1.9-1.4,1.6,0.9c-1.6-0.1-3.6-0.2-4.5-2
								C203.7,91.6,208.3,91.9,211.5,92.1z"/>
							<path class="st23" d="M188.8,90.7c0.6,0,1.2,0,1.8,0c4.2,3-1.3,4.2-4,5.4C185.9,92.8,186.8,92.5,188.8,90.7z"/>
							<path class="st38" d="M213.8,78.7c0.8,0,0.2,1.2,0.4,1.8c-2.2,0.9-2.7,5.6-6.3,2.2c0.4-1.6,3.6-2.6,3.1-4.5
								C211.8,77,213,78.1,213.8,78.7z"/>
							<g>
								<path class="st37" d="M194.6,82.2c0.7,5.7-4.1,6.8-4.5,7.2c-1-0.3-1.4-0.8-1.8-1.8c3.2-2.5,8.3-4.2,1.3-5.8
									C191.2,80.8,193,81.2,194.6,82.2z"/>
								<path class="st37" d="M193.2,89.8c-1.3,0.7-0.9,0.9-2.7,0.9c-0.6,0-1.2,0-1.8,0c0.5-0.4,0.9-0.9,1.3-1.3
									c0.4-0.3,5.2-1.4,4.5-7.2C198.4,84.7,196.8,87.8,193.2,89.8z"/>
								<path class="st7" d="M188.3,87.6c-0.8-2.2-0.8-4.4,1.3-5.8C196.7,83.4,191.5,85.1,188.3,87.6z"/>
							</g>
							<path class="st38" d="M211.1,90.7c-3.9-4.4-0.4-1.4,2.2-5.8C215,86.7,214.7,90.7,211.1,90.7z"/>
							<path class="st7" d="M199,86.7c5.9,1.8,1.5,3.8-2.7,4.5C195.5,87.4,198.8,86.9,199,86.7z"/>
							<path class="st36" d="M211.1,78.2c0.5,1.9-2.8,2.9-3.1,4.5C204.8,79.7,209.9,73.8,211.1,78.2z"/>
							<path class="st23" d="M185.2,105c-0.8-3.2,0.4-2.7,1.8-4.9c1.3,1.1,3.3-1.1,3.1,1.1C189.8,105.1,186.3,102.8,185.2,105z"/>
							<path class="st36" d="M181.4,161.3c0.3-0.1,5.6,1.1,5.1,2.5C185.5,166.6,176.8,163,181.4,161.3z"/>
							<g>
								<path class="st35" d="M196.8,268.6c2.7-2.8,5.4-4.7,1.3-6.3c0.2-0.8-0.8-2.8-0.2-3.1c3.7-1.9,7.4,11,0.4,10.7
									C198.3,269.9,196.9,268.7,196.8,268.6z"/>
								<path class="st37" d="M196.8,268.6c-1.8-2,0.2-1.7,1.3-6.3C202.2,263.8,199.5,265.7,196.8,268.6z"/>
							</g>
							<g>
								<path class="st7" d="M208.2,199.3c4.6-0.9,7,3.2,6,7.4c-2.9,0.3-2.1,5.4-6.9,2.5C202.6,206.3,206,199.8,208.2,199.3z"/>
								<g>
									<path class="st38" d="M215.1,209.6c0-2.1,2.2-6.8,2.2-7.2C223.3,199.6,215.9,215.5,215.1,209.6z"/>
									<path class="st36" d="M217.3,202.4c0,0.4-2.2,5-2.2,7.2c-2.4-0.1,1.6-4.8-0.4-8.3C214.8,200.6,217.6,200.3,217.3,202.4z"/>
								</g>
							</g>
							<path class="st36" d="M217.3,86.7c-1.7,4.3,1.9,5.9,0,7.2C214.6,92,214.2,88.3,217.3,86.7z"/>
							<path class="st38" d="M185.6,239.1c-0.4-2.3,2.4-2.2,1.8-6.3C189.8,233,189.8,238.3,185.6,239.1z"/>
							<path class="st36" d="M217.3,213.2c-2.1,3.2-0.1,3.7-3.6,8C217.6,214.5,212.1,211.9,217.3,213.2z"/>
							<path class="st51" d="M204.6,195.7c0.5,0,4,3.7,0.9,3.6C203.9,199.3,202.9,195.8,204.6,195.7z"/>
							<g>
								<path class="st37" d="M191.9,229.3c6.8,0.1,3.3-0.3,3.6-1.1c0.5-1.4,3.3-4,2.7-5.4c-0.9-2-5.3-0.7-6.7,0.2
									c3.8-6.2,19,0.1,6.3,10.1c6.1,1.8,1.2,9.8,0.7,10.1c-6.3,2.6-13.8-7.3-2.9-10.9C195.5,231.8,193.7,231.6,191.9,229.3z"/>
								<path class="st23" d="M194.8,233.7c5.6,0.2,1.8,7.1,1.3,7.2c-0.2,0-3.4-0.8-3.6-0.9C189.3,237.8,191.2,233.6,194.8,233.7z"
									/>
							</g>
							<g>
								<path class="st37" d="M186.1,180.5c3.3,1.8,1.1,2,0.9,2.7c-1.7-4.4-8.7,0.4-7.1,3.8c0.3,0.7,2.3,1.6,3.1,2.5
									c1,1.1,2.3-0.1,0,2.7C174.5,186.1,179.9,180.3,186.1,180.5z"/>
								<path class="st23" d="M187,183.2c-0.6,2.3-1.7,5.1-4,6.3c-0.9-0.9-2.8-1.8-3.1-2.5C178.3,183.6,185.3,178.8,187,183.2z"/>
								<g>
									<path class="st36" d="M178.5,197.1c-0.5,3.6,4.9,4.4,5.6,4c0.7-0.3,5-7.9-0.7-8c0.2-1-0.4-0.8-0.4-0.9c2.3-2.8,1-1.6,0-2.7
										c2.3-1.2,3.4-4,4-6.3c0.2-0.6,2.4-0.9-0.9-2.7c7.4,0.3,4.6,9.1,0.4,12.3C200.3,203,174.8,209.8,178.5,197.1z"/>
									<path class="st52" d="M187.2,186.8c2.1-0.4,0.4,4.1-1.3,3.6C184.4,190,187,186.8,187.2,186.8z"/>
								</g>
							</g>
							<g>
								<path class="st37" d="M194.3,163.1c0.7-0.1,11.1,0.4,8.3,7.4c-3.2,7.9-13.7,0.7-11.2-4.9
									C191.6,165.1,193.9,163.2,194.3,163.1z"/>
								<path class="st23" d="M195.7,164.5c0.7,0,4.5,1.7,4.7,2.5C197.8,176.5,189.7,164.7,195.7,164.5z"/>
							</g>
							<g>
								<path class="st34" d="M193.9,244c0.3,0,5.1,1.2,5.4,1.3c2.8,2,1.9,9.5-2.2,9.8c-1.1,0.1-2.9-1.2-4-1.3
									c-0.4-0.1-0.1,1.3-0.4,1.3C189.6,255.3,186.4,244.4,193.9,244z"/>
								<path class="st23" d="M192.3,250.7c-0.7-1.8-0.7-1.8-1.3-3.6c2.3-2.9,7.2-1.2,7.6-0.2c1.2,3.4-2.7,2.7-2.9,2.9
									C194.5,250.8,196.6,254.2,192.3,250.7z"/>
								<path class="st32" d="M192.3,250.7c-0.2-0.2-3.8-0.4-1.3-3.6C191.7,248.9,191.7,248.9,192.3,250.7z"/>
							</g>
							<g>
								<path class="st37" d="M179.8,171.2c-0.2,4.3,0,4,2.7,4.5c0.4,0.1,0.8,0.7,1.6,0.4c1-0.3,3.2-6,2.9-6.9
									c-0.8-2.4-4.7,0.4-6.3,0.7c-0.2,0-0.2,0-0.4,0c3.7-5.4,10.1-1.4,10.3,0.2c0,0.4-3,7-2.7,8.5
									C186.7,180.3,176.8,179.7,179.8,171.2z"/>
								<path class="st7" d="M182.5,175.6c-2.6-0.4-2.9-0.1-2.7-4.5c0.1-0.3,0-0.7,0.4-1.3c0.2,0,0.2,0,0.4,0
									C181.7,171.7,180.5,173.5,182.5,175.6z"/>
								<path class="st23" d="M182.5,175.6c-2.1-2.2-0.8-3.9-1.8-5.8c1.6-0.3,5.4-3,6.3-0.7c0.3,1-1.9,6.6-2.9,6.9
									C183.3,176.3,182.9,175.7,182.5,175.6z"/>
							</g>
							<g>
								<g>
									<path class="st38" d="M215.6,195.3c0-0.1,0.7,0.2,0.9-0.2c0.2-0.4,0.1-2.4,0.4-3.6c0.3-0.9,1.7-0.1,0.9-2
										c3.2-0.5,1.4,0.6,1.3,3.4c0,0.3,0.9,0.1,0.9,0.4c0,0.3-2.3,4-2.7,4.5C220.6,201.2,213.7,200.6,215.6,195.3z"/>
									<path class="st36" d="M217.8,189.5c0.8,1.9-0.6,1.1-0.9,2c-0.4,1.2-0.3,3.2-0.4,3.6c-0.2,0.4-0.9,0.2-0.9,0.2
										C216.9,190.4,214.1,190.1,217.8,189.5z"/>
								</g>
								<g>
									<path class="st37" d="M208.2,187.7c0.2-0.1,4.3,0.4,4.5,0.4c5.1,1.9,2,13-4.5,9.4C203.6,195,206.9,188.1,208.2,187.7z"/>
									<path class="st23" d="M211.3,188.6c3,0.4,1.5,6.2,0.4,6.7C208.8,196.6,205.6,187.7,211.3,188.6z"/>
								</g>
							</g>
							<g>
								<path class="st36" d="M207.7,177c1-0.5,6.8,0.6,7.4,3.4c0.5,2.3-1.7,8-6.5,6C203.9,184.4,206.6,177.5,207.7,177z"/>
								<path class="st23" d="M209.1,178.3c4.9,0.8,5.4,0,2.5,3.8c-0.2,0.3,1.2,4.7-4.5-0.9C209.5,181,206.7,180.1,209.1,178.3z"/>
							</g>
						</g>
					</g>
					<path class="st23" d="M209.3,261.9c-0.8,0.6-1.7,0.4-1.8,0.4c-0.8-1.7-5.3-1.6-2.2-5.1c1.9-2.3,5.3-0.6,5.4,0.4
						C210.8,259,207.8,258.3,209.3,261.9z"/>
					<path class="st32" d="M198.1,286c-1.2-1.6-1.3-2.3-1.8-4c0-2.4,2.5-3.3,3.1-5.4c1.5,1,1.2,3.9,0.9,5.6
						C199.7,285.8,198.2,285.8,198.1,286z"/>
					<path class="st23" d="M199,274.4c0.1,0.7,0.9,0.7,0.4,2.2c-0.6,2.1-3.1,3-3.1,5.4C195.4,278.7,193.9,275.2,199,274.4z"/>
					<g>
						<path class="st37" d="M229.4,165.4c0,1-2.4,6.3-2.7,6.5c-0.3,0.2-5-2.2-1.8,3.4C217.9,169.8,223.6,161.1,229.4,165.4z"/>
						<path class="st7" d="M226.9,165.4c1.2,0.2,0,4.3-1.8,3.6C222.8,168,225.9,165.2,226.9,165.4z"/>
					</g>
					<g>
						<path class="st37" d="M225.8,187.3c0.5-0.1,2.3-0.1,2.7,0c0.7,0.2,0.9,0.9,1.3,1.3c-1.7,0-1.2,3-2,4c-1,1.3-5.6-0.2-3.8,3.6
							C220.8,193.5,221.4,188,225.8,187.3z"/>
						<path class="st7" d="M226,188.1c1.1-0.1,0.4,3.2-0.9,3.1C223.4,191.1,223.5,188.3,226,188.1z"/>
					</g>
					<g>
						<path class="st37" d="M228.5,176.5c0.8,0.5,0.8,0.8,0.9,0.9c-1.7,6.1-2.2,4.2-5.8,7.6c-2.4-3.5-1.6-7.6,2.7-8.9
							C227.3,176.8,228.3,176.4,228.5,176.5z"/>
						<path class="st7" d="M226,177.4c2.1-0.3,0.1,4.2-1.3,3.6C223.5,180.5,224.1,177.7,226,177.4z"/>
					</g>
					<g>
						<path class="st53" d="M212,273.1c0.2,1-0.2,3,0,4.2c-2.3,1.8-0.8,2.3-2.2,6c-1.2,3.1-3.5,10-4.9,2.2
							c-0.7-3.5,1.3-8.9-1.8-11.6c0.1-1.4,0.7-3.7,2.2-4.5C207.9,268.2,211.4,270.5,212,273.1z"/>
						<path class="st23" d="M206.9,270.4c0.9-0.2,3.4,1.8,2.2,3.1C207.5,275.3,204,270.9,206.9,270.4z"/>
					</g>
				</g>
			</g>
		</g>
	</g>
</g>
</svg>
