<?xml version="1.0" encoding="utf-8"?>
<!-- Generator: Adobe Illustrator 28.2.0, SVG Export Plug-In . SVG Version: 6.00 Build 0)  -->
<svg version="1.0" id="Layer_1" xmlns="http://www.w3.org/2000/svg" xmlns:xlink="http://www.w3.org/1999/xlink" x="0px" y="0px"
	 viewBox="0 0 300 300" style="enable-background:new 0 0 300 300;" xml:space="preserve">
<style type="text/css">
	.st0{display:none;}
	.st1{display:inline;fill:#CDCDCE;}
	.st2{display:inline;fill:#FFFFFF;}
	.st3{fill:#804027;}
	.st4{fill:#A3633A;}
	.st5{fill:#DD985B;}
	.st6{fill:#CF8551;}
	.st7{fill:#925231;}
	.st8{fill:#F7BA71;}
	.st9{fill:#FBCD80;}
	.st10{fill:#CC663E;}
	.st11{fill:#97462D;}
	.st12{fill:#BD7340;}
	.st13{fill:#131C15;}
	.st14{fill:#495726;}
	.st15{fill:#333619;}
	.st16{fill:#2D2A15;}
	.st17{fill:#43461C;}
	.st18{fill:#1E2314;}
	.st19{fill:#28261C;}
	.st20{fill:#762819;}
	.st21{fill:url(#SVGID_1_);}
	.st22{fill:#7D7C32;}
	.st23{fill:#8F8933;}
	.st24{fill:#A49B34;}
	.st25{fill:#696A2D;}
	.st26{fill:#5C1E15;}
	.st27{fill:#27130E;}
</style>
<g>
	<g id="Background_00000145035336615192037880000008108852239849408655_" class="st0">
		<path class="st1" d="M358.2-38.1c0,184.7,0,184.7,0,369.5c-201,0-201,0-402,0c0-184.7,0-184.7,0-369.5
			C157.2-38.1,157.2-38.1,358.2-38.1z"/>
		<path class="st1" d="M167.6-18.6c3.6-0.2,3.7,0.1,5.9,2.5c3-1.9,4.1-0.6,7.5-0.7c0.9,1.2,8.1,3.1,9,3.2c6.1,0.9,5-2.7,16.5,1.1
			c2.2,2,2.2,2,4.3,4C218-8,224.2-3.8,231.2-2c1.6,4.6,12,4.8,14.9,8.7c3-0.1-0.4-4.2,3.5-2.9c2,0.6,3.5,5.9,4.7,6.5
			c1.1,0.6,3,0,3.9,0.4c2.4,0.8-1,4.8,3.5,4.7c1.4,0,1.3-2.4,9.4,1.8c2.7,6.2,4.1,4.8,4.3,5.1c1,1,5.4,5.8,5.9,6.1
			c1.3,0.8,2.5-0.5,2.9,0.5c1.1,2.7-1.6,2.1-1.6,2.5c0,0.1,1.5,2.4,1.6,2.5c2.2,2.3,4.7,1.5,7.3,3.4c1,0.7,5.5,7.5,10,9.9
			c1.4,5.2,5.8,9.1,8.6,13.7c3.7,6,9,14.3,9.8,20.9c1.6,2.7,1.6,2.7,3.1,5.4c-0.4,4.7,2.3,9.2,3.9,13.7c-0.5,5.7,3.1,11.4,2.4,17
			c3.2,7.3,1.5,8.2,1.6,8.7c0.1,1,1.5,3.6,1.6,4.7c0.2,3.1-1.2,4.1-1.2,4.3c0,4.5,1.2,5.1,1.2,5.4c0,1.8-1.2,2.7-1.2,2.9
			c-0.1,4.5,0,9.3,0.8,13.7c-2.5,3.7,0.9,9-2.4,10.1c0.6,1.3,0.7,2.9-0.4,4c0.6,1.8,0.6,1.8,1.2,3.6c-2.3,2.1-1.2,10.5-1.6,12.3
			c-2.1,3-4.2,4.9-3.5,8.7c-3.7,3.5-2.6,6.7-5.5,9.4c0.6,0.3,0.1,3,0,3.2c-1.7,4-5.5,12.9-7.9,14.8c0.5,4.2-2.5,3.5-1.6,5.4
			c-4,2.7-7.6,0.7-5.7,2.7c0.5,0.6,4.8,0.3,5.3,1.3c1.2,2.5-2,2.9-2.2,3.1c-6.6,7-3.7,0.4-4.1-1.3c-0.7-2.9-2.1,2.2-3.9,1.8
			c2.1,3.8-0.4,3.5,0,4c0.2,0.2,3.2,0.1,3.5,1.4c0.2,0.8-4.9,5.9-5.3,6c-2.3,0.3-0.5-2.5-2.4-2.2c-1.5,1.1,2.8,7.5-7.5,11.2
			c-1.1,0.9-0.7,4.5-4.7,4c-0.4,0.2-0.8,5.2-5.9,5.4c-6.2,9.1-6.6,3.3-7.1,3.6c0.7,3.4-6.2,9.1-9,10.5c-0.2,0.1-1.6-0.2-2.7,0.4
			c-0.4,0.2,0.3,2-3.9,1.4c-0.9,4.5-10.2,3.9-11.8,4.3c-0.3,0.1-0.9,1-1.2,1.1c-0.8,0.2-2.7-0.2-3.5,0c-0.5,0.1-0.6,1-0.8,1.1
			c-0.5,0.1-1.5-0.1-2,0c-0.2,0-1.4,1.3-2.7,1.8c-0.3,0.1-3.4-0.6-5.1,1.8c-1.4-2.8-10,0.9-12.2,2.5c-5.4-1.8-2.2,2.8-7.1,0
			c-1.6,2.5-6.8,1.6-10.6,2.2c-0.5,0.1-3.9,2.8-8.6,1.1c-2.4,2.7-7.9,0.2-11.4,2.5c-10.3-0.7-9.7,1.7-10.2,1.8
			c-0.5,0.1-2.4-1.6-8.6,0.4c-7.5-0.5-7.5-0.5-14.9-1.1c-3,0.4-7.8,1.1-10.2-0.4c-2.4,2.9-0.5-3.5-7.5,0c-2.1-1.8-8.8-1.3-12.6-1.8
			c-5.2-4.1-11.3-3.2-10.4-5.2c0.1-0.3,4.3-0.9,1.4-2.3c-2.2-1.1-2.9,1.3-3.1,1.4c-4.4,2-0.7-2-5.5-4.7c-1.6-0.9-9.4-2.1-11-4
			c-5.6-1.4-2.8,5.5-5.9,4.3c-0.3-0.1-2.5-3.9-2.7-4c-1-0.4-2.6,5.3-6.3-4c-4.1,2.9-5-1.3-3.7,3.1c-9.8,0.1,1.7-6.3-7.7-5.6
			c-6.7,4.4,0.6-3.4-4.7-2.2c-0.7,0.2-4.1,4.5-1-2.7c-10.6,0-1.6-3.5-5.7-5.2c-3.5-1.4,0.3,3.9-4.3,3.2c-0.5-0.1-6.6-5.3-6.9-5.6
			c-0.7-0.8-0.1-2.4-0.6-2.7c-1-0.6-4.4,1.5-2-3.2c-7.7,1.5-2.5-2.6-1.6-2.5c0.9,0,0,1.4,0.2,1.6c0.3,0.2,3,0.6,3.7,2.3
			c1-0.3-0.5-5.5-3.7-4.5c-0.2-3.6-6.9-9.6-9.8-13c-0.4-1.4-0.4-1.4-0.8-2.9c-5.1-4.3-6.9-11.1-10.2-16.6c-1.5-2.5-4.9-6.3-6.3-8.7
			c-1.5-2.6,0.3-4.4-4.7-7.6c0.7-7.5-5.2-4.6-3.1-10.8c-4.5,0-6.8-5.2-5.1-8.7c-2.7-2.3-1.9-5.6-2-8.7c-5.7-10.6-1.8-25.1-5.1-36.4
			c1.8-4.8,0.8-11.6-0.8-16.6c0.7-18,1.9-21.2,8.2-36.8c0.2-0.5-0.1-2.1,0-2.9c3.6-1.5,2.5-4.8,3.1-6.1c0.4-0.9,3.4-2.3,2.4-5.4
			c4.8-3.3,1.6-5.9,6.3-9c0.5-0.9,0.3-2.7,0.4-2.9c7.3-12.9,19.5-27.9,30.8-38.1C39.7,22.9,57.8,8,61.6,8.5c0.4,0,0,1,0.4,1.1
			c7.5-1.5,4.3-1.6,4.5-3.1c0.4-2.7,2.7,0.9,2.9,0.9c1.9,0.3,4.3-2.6,5.1-4c8.2-0.9,15.3-5.7,22.8-8.3c0.5-1.9,7-4.4,8.6-2.9
			c1.4-1.5,14.3-5.1,16.5-5.4c1.4-0.2,7.5,0.9,9-1.1c1.4-0.1,2.7,5.7,3.1,0c6-0.5,13.6-4.4,19.2-2.9c4.5-2.3,7.2-0.3,9.8-0.4
			C164.3-17.5,167.3-18.6,167.6-18.6z"/>
		<path class="st1" d="M154.7-5.3c8.9-0.3,17.5,0.9,26.3,1.8c1.8,0.9,1.8,0.9,3.5,1.8c11.6,0.9,22.4,4.9,33.4,8.3c1,0.9,1,0.9,2,1.8
			c5.9-0.2,8.9,5.2,14.5,4c0.7,3.6,7.4,5.3,11,7.6c2.6,1.6,6.7,5,9.4,6.9c0.1,0.1,1.6,0.3,2.7,1.1c4.1,2.9,7.3,7.2,12.2,9
			c1.7,4.3,7,6.4,9.2,10.3c5.2,2,8.6,11.7,13.7,15.9c13,22.7,18.8,38.4,23.6,63.9c0.2,9.1,0.6,18.3,0,27.4
			c-1.6,25.5-6.9,39.9-19.6,62.1c-0.5,0.8-0.8,3.8-1.2,4.3c-1,1.7-5.5,2.1-4.7,8.3c-3.2,0-6.3,7.8-9.8,12.3
			c-8.2,6.4-15.1,14.1-23.4,20.4c-0.3,0.3-2.8,1.2-3.1,1.4c-1.1,0.8-6.1,5.6-9.4,7.6c-1.2,0.7-3.2,0.8-4.3,1.4
			c-6.3,3.6-11.4,6.7-18.5,9.4c-7.2-0.2-7.4,2.6-8.2,2.9c-11.2,4-14.5,2.5-16.5,2.9c-2.9,0.5-1.6,3.6-13.3,2.2
			c-2.4,0.5-3,1.4-3.1,1.4c-7.3,0.6-35.3,0.8-41.6-1.4c-8.4-0.7-8.4-0.7-16.9-1.4c-3.4-1.1-7-2.4-10.6-1.8
			c-6.2-4.3-14.4-5.5-21.6-7.9c-4.4-2-13-7.6-13.7-7.9c-0.5-0.2-5.7,0-8.6-4.7c-9.2-1.4-11.1-5.5-17.5-10.6c-0.5-3.6-3.3-4-3.9-4.7
			c-2.6-2.8-9.2-9.7-11-11.9c-0.1-0.2-0.8-2.7-1.6-3.6c-0.7-0.9-3.9-4.1-5.1-5.8c-0.5-0.7-1.2-3.1-2.4-4.7c-0.5-0.8-4-2.6-4.7-7.2
			c-4.8-3.8-6.9-12.6-11.8-17.7c-0.2-3.2-2.1-6.2-3.1-9.4c-0.4-1.3-0.5-6.2-3.9-11.5c-0.2-1.4,0.2-3.5,0-4.7
			c-4.5-21.3-4.1-43.2,0-64.6c3.7-8.2,6.4-17.9,10.2-26c0.4-0.9,1.8-2.1,2-2.5c0.4-0.9,0.3-2.4,0.4-2.5c3-5.8,7.6-11.1,9.8-17
			c4.3-2.6,3.9-5.6,4.3-6.1c4.9-7,15-20.7,23.8-22.2c1.3-2.1,1.3-2.1,2.6-4.1C72.7,17.1,91.8,7.9,111.9,2c5-0.2,11.2-2.5,14.9-3.2
			C136-3.2,145.3-5,154.7-5.3z"/>
		<path class="st2" d="M213.8,219.2c-7.3-1.6-14.9-2.2-22.2-4c-7.5-3.4-13-9.4-20.2-13.3c-0.1-2.1-0.7-4.4-0.4-6.7
			c0.1-0.2,0.8-0.4,1.6-1.3c11.6,19.9,42.6,17,55.7,0c1-0.7,1-0.7,2-1.4c2.2-1.1,4.6-1.9,6.7-3.2c6.8-4.4,12.7-10.4,15.7-17.7
			c3.5-8.5,3.3-18.2-1.6-26.3c8.7-14.5,4.9-31.1-11.4-38.8c2.6-10.1-2.4-20.2-13.3-23.5c1-15.8-14-28.3-30.8-27.6
			c-2.7-7.3-10.9-12.8-18.8-8.3c-7.6-7.8-17.2-10.9-28.3-7.2c-2.4,0.8-4.7,2.8-4.9,2.9c-1.3,0.7-2.7,1.2-3.5,2.5
			c-0.8-0.2-1,0.6-1.6,0.7c-4.1,0.8-7-1.4-11.8,1.4c-2.2,1.3-4.3,4.6-5.5,6.9c-9.7,0.5-16,2.6-23.2,8.7c-7.3,6.2-10.7,13.6-11,22.7
			c-5.4,0.5-9.3,5.4-10.6,9.7c-1.1,3.6-1.7,6.9-0.4,10.6c-14.5,7.6-18.7,24.8-9.8,37.7c0.2,0.5,0.2,0.5,0.4,0.9
			c-13.6,19-0.4,41.9,22.2,47.4c1.6,1.8,2.8,3.7,4.5,5.4c7.4,7.2,15.5,11.4,26.9,10.1c8.2-1,16.5-10.6,17.1-12.6
			c4.1,2.5,3.3,4.9,3.1,8.3c-3.5,1.7-6.6,4-9.4,6.5c-2.3,2-3.8,4.5-6.1,6.5c-0.1,0.1-1.3,0.3-1.8,0.7c-10.8,0.9-10.8,0.9-21.6,1.8
			c-9.1-2.2-18.1-6.3-24.1-13c-13.1,12.4-28-8.5-12.8-16.8c-29.7-10-36.8-51.5-20.8-74c-6.5,1.3-5.4-6.1-1.4-4.5
			c0.8,0.3,1.3,3.5,2,3.6c0.5,0.1,3.8-5,6.5-7.8C54.7,102.5,59,99,63,95.2c-0.1-0.5-9.2-2.2-8.6-5.1c0.1-0.4,5.4-4.7,6.1-5.6
			c3,3,3,3,6.1,6c8.1-23.3,25-44.9,48.9-56.5C147.5,18.6,185,20.8,210,46c21.6,1.2,34.3,27.5,39.3,44.4
			c-1.2-12.7,13.4-11.6,14.7-5.2c1.6,7.6-8,12.6-13.5,6.3c0.5,4.3,7.7,7.6,11,10.5c14.8,13.1,18.5,19.9,19.4,39.1
			c0.6,12,0.3,33.2-8.2,42.9c-7.6,8.6-12.8,1.2-13.5,1.3c-0.2,0-2.2,2.5-2.2,2.7c0,0.5,5.2,3.1,6.3,7.2c3.2,12.9-13,20.2-19.8,7.8
			C235.8,211.1,224.8,216.1,213.8,219.2z"/>
	</g>
	<g>
		<g>
			<path class="st3" d="M152.1,51.7C141.4,63.5,124.6,78.2,118,92c-6,12.4-8,26.7-2,39.5c-8.3-1.8-16.1-3.6-24.7-2.9
				c-8.9,0.7-16.7,5-22,11.5c-0.8,1-1.7,3.2-3.1,3.6c-8.9-12.9-4.7-30.1,9.8-37.7c-1.3-3.7-0.7-7,0.4-10.6c3,3.4,3,3.4,6.1,6.9
				c3.5-3.1,3.5-3.1,7.1-6.1c3.9,1.6,3.9,1.6,7.9,3.2c2.2,1.5-1,1.6,1.2,4c8.1-3.1,6.5-9,0.8-3.2c-1.2-0.2-1.7-10.4-4.3-12.3
				c-0.8-0.6-7-2.3-8-2.2c0.2-9.1,3.7-16.6,11-22.7c1.2,2.5,9,16.6,10.8,16.6c0.9-0.5,1.9-0.8,2.9-1.1c0.3,6.1,0.3,6.1,0.6,12.3
				c4.2-5.8,9-11.4,13.9-16.6C133.8,66.1,142.7,57.8,152.1,51.7z"/>
			<path class="st4" d="M143.5,42.7c4.7,0.8,9.1,2.5,13.7,3.6c0,0.2,0,0.2,0,0.4c-2.1,1.2-1.9,2.1-2,2.2c-0.8,0.9-2.3,1.9-3.1,2.9
				c-9.4,6.1-18.3,14.4-25.9,22.4c-4.9-0.5-9.9,2.9-14.5,4.3c-1,0.3-2,0.6-2.9,1.1c-1.8,0-9.6-14.1-10.8-16.6
				c7.2-6.1,13.5-8.2,23.2-8.7c0.1,0,0,1,2.2,0.7c5.6-8.5,5.5,2.1,21.4-8.1c-2.4-0.8-2.4-0.8-4.7-1.6
				C140.8,44,142.2,43.4,143.5,42.7z"/>
			<path class="st4" d="M76.4,95.4c1.3-4.3,5.2-9.3,10.6-9.7c1.1-0.1,7.2,1.6,8,2.2c2.7,1.9,3.1,12.1,4.3,12.3
				c5.8-5.7,7.3,0.1-0.8,3.2c-2.2-2.4,1-2.4-1.2-4c-3.9-1.6-3.9-1.6-7.9-3.2c-3.5,3.1-3.5,3.1-7.1,6.1
				C79.4,98.8,79.4,98.8,76.4,95.4z"/>
			<path class="st3" d="M140,45.3c2.4,0.8,2.4,0.8,4.7,1.6c-15.9,10.3-15.8-0.4-21.4,8.1c-2.2,0.3-2-0.7-2.2-0.7
				c1.2-2.2,3.3-5.5,5.5-6.9c5.1,0.9,12.3,5.1,11.8-1.4C139,45.9,139.2,45.1,140,45.3z"/>
			<path class="st4" d="M138.4,46c0.5,6.6-6.7,2.3-11.8,1.4C131.4,44.5,134.3,46.8,138.4,46z"/>
			<g>
				<path class="st5" d="M251.1,145.2c-3.4-5.6-12-11-18.5-13.3c-2-0.7-3.7-1.4-5.9-1.8c-0.3,0-0.6-0.2-2-0.4
					c-3.7-2.7-14.7-3-18.8-1.8c5.2-28.4-14.3-50.7-34.7-69.6c0,0-0.3,0.6-1,0c-4.2-3.8-9.4-7.3-11.8-12.3c-1-0.7-1.1,0.4-1.2,0.4
					c-4.6-1.1-9-2.9-13.7-3.6c0.3-0.1,2.5-2.1,4.9-2.9c11-3.6,20.7-0.6,28.3,7.2c7.9-4.5,16.2,1,18.8,8.3
					c16.8-0.7,31.8,11.8,30.8,27.6c10.9,3.2,16,13.4,13.3,23.5C256,114.1,259.8,130.7,251.1,145.2z"/>
				<path class="st6" d="M205.9,127.9c-1.3,0.4-4.2,1.6-3.5,3.2c-0.6,0.2-1.3,0.5-2,0.7c1.4-6.6,2.9-12.9,2.4-19.7
					c-0.9-11.1-6.9-23-13.7-32.1c-5.7-7.7-13.6-14-18.8-21.8c0.7,0.6,0.9,0,1,0C191.7,77.1,211.1,99.4,205.9,127.9z"/>
				<path class="st4" d="M224.8,129.7c-5.4-0.6-17.4-0.2-22.4,1.4c-0.6-1.6,2.2-2.9,3.5-3.2C210,126.6,221,127,224.8,129.7z"/>
			</g>
			<path class="st7" d="M126.2,74.1c-5,5.2-9.7,10.8-13.9,16.6c-0.3-6.1-0.3-6.1-0.6-12.3C116.3,77,121.3,73.7,126.2,74.1z"/>
		</g>
		<g>
			<path class="st8" d="M155.7,267.9c0-0.4,0-0.4,0-0.7c2,0,19.2-0.1,19.6-0.9c-3.5-4.4-8.7-6.7-13.7-9.2c7.4-3.6,15.8-3.9,1.2-4.3
				c-1.6,0.4-0.1-5,0.8-7.9c0.1-0.5,0.1-1.3,0.4-2.2c2-1.7,11.2,4.5,13.9,6.5c5.7,4.2,11.8,11,16.5,16.2
				c13.9-0.7,74.1-12.6,51.2-33.6c20.4,14.8-14.7,27.1-27.3,30.3c-13.6,3.5-32.5,5.3-46.7,5.8C166.3,268,160.9,267.9,155.7,267.9z"
				/>
			<g>
				<path class="st8" d="M88.1,221.7c3.1,0.3,7.8,8.4,8.8,9c1.2,0.8,3.2-0.2,2.9,1.1c-3.3,0.1-11.3-0.8-13.2-0.4
					c-1.4,0.4-0.6,2.4-4.9,2.9c-3.3,0.4-17.7-0.8-22-1.8C66,227.9,80.3,223.6,88.1,221.7z"/>
				<path class="st9" d="M123.1,217c-6.1,5-13,9.2-18.6,14.8c-0.7,0-0.7,0-1.4,0c-1,0-2.1,0-3.1,0c0.2-1.3-1.7-0.3-2.9-1.1
					c-1-0.6-5.8-8.8-8.8-9c4.4-1.1,8.9-1.7,13.3-2.9C112.3,217.9,112.3,217.9,123.1,217z"/>
			</g>
			<path class="st8" d="M140.4,203.3c-0.5,8.5-3,21.9-6.3,29.9c-0.6-7.9-0.3-15.8-3.1-23.5C133.8,207.3,136.8,205,140.4,203.3z"/>
			<g>
				<path class="st9" d="M213.8,219.2c10.4,2.2,24,5.5,31.8,12.6c22.9,21-37.3,32.9-51.2,33.6c-4.7-5.2-10.8-12-16.5-16.2
					c-2.8-2-12-8.2-13.9-6.5c0.2-0.5,0.2-1.6,1-1.4c11.4,2.8,20.9,9.4,31.4,14.1c1.8-0.4-2.5-3.6-4.5-5.8
					c-10.1-10.8-15.9-15.9-18.8-30.7c-0.3-1.3-0.6-2.7-0.8-4c-0.6-3.8-0.7-9.1-0.8-13c7.2,3.9,12.7,9.9,20.2,13.3
					C198.9,217,206.4,217.6,213.8,219.2z"/>
				<path class="st10" d="M216.7,238.3c9-0.4,11.8,2.7,18.3,7.8C225.7,250.2,223.4,243.7,216.7,238.3z"/>
				<path class="st10" d="M191.8,249.5c-1.5,0.2-8.6-5.6-9.8-6.9c-3-3.1-6-7.8-7.5-11.7c-1-2.7-3.6-11.3-1.6-12.1
					C175.9,233.5,181.7,238.7,191.8,249.5z"/>
				<path class="st8" d="M216.7,250.5c4.5-0.9,7.2,3.1,6.5,4.5c-0.5,0.9-8.1,0.1-8.4-0.2C213,253.4,214.9,250.9,216.7,250.5z"/>
			</g>
			<path class="st5" d="M139.6,246.2c-1.5,1.8,1.8,1.2,2,3.4c0,0.6-1.1,0.8-1.2,2.7c-0.3,4.6,14,8,14.5,14.4
				c-8.8,0-17.7-0.1-26.5-0.7c-0.8-0.6,6.7-11.3,5.3-17.3C135.6,247.9,137.6,247.1,139.6,246.2z"/>
			<path class="st8" d="M141.1,252.4c2.5,0.5,13.8,9,14.7,9c1.2,0.1,0.5-1.8,5.7-4.3c5,2.5,10.3,4.8,13.7,9.2
				c-0.4,0.8-17.6,0.9-19.6,0.9c-0.4,0-0.4-0.4-0.8-0.4c-0.6-6.4-14.8-9.8-14.5-14.4C140.6,252.3,141,252.4,141.1,252.4z"/>
			<g>
				<path class="st11" d="M99.9,231.8c1,0,2.1,0,3.1,0c-9.7,9-11.3,14.1-25.7,13.3c-16.1-0.9-1.6-5.3,4.5-10.8
					c4.3-0.5,3.5-2.5,4.9-2.9C88.6,230.9,96.6,231.9,99.9,231.8z"/>
				<g>
					<path class="st6" d="M134.1,233.2c-3.2,7.8-6.1,11-11.8,17.3c-1.2,1.3-2.6,2.6-3.9,3.8c0.4,0.7,13.8-4.9,15.3-5.6
						c1.4,6-6.1,16.8-5.3,17.3c8.8,0.7,17.7,0.7,26.5,0.7c0.4,0,0.4,0.4,0.8,0.4c0,0.4,0,0.4,0,0.7c-23.9-0.2-61.6-2.9-83.4-11.5
						c-10.4-4.1-25.9-13.6-12.4-23.8c4.3,1,18.7,2.2,22,1.8c-6.1,5.5-20.7,9.9-4.5,10.8c14.4,0.8,16-4.4,25.7-13.3
						c0.7,0,0.7,0,1.4,0c5.6-5.6,12.5-9.8,18.6-14.8c0.5-0.4,1.7-0.7,1.8-0.7c2.3-1.9,3.8-4.5,6.1-6.5
						C133.8,217.4,133.5,225.3,134.1,233.2z"/>
					<path class="st4" d="M91.1,255.6c1.3-0.3,8.7,2.5,10.4,3.4c-2.2,0.1-7.9,1.9-9.2,1.6C90.2,260.3,88.1,256.3,91.1,255.6z"/>
					<path class="st12" d="M122.5,227.5c3.3,0.3-5.7,5.2-6.1,4.5C116.2,229.9,120.9,227.3,122.5,227.5z"/>
					<path class="st12" d="M120.1,241.9c5.2-0.4-3.9,3.9-4.1,2.3C116.7,243.2,119.1,242,120.1,241.9z"/>
				</g>
			</g>
			<path class="st6" d="M149.8,245.1c1.1,1.5,2.3,4.9,3.1,5.8c-3.1,0.3-6,0.6-9,1.1c-1.2,0.2-1.9,0.1-2.7,0.4c-0.2,0.1-0.5,0-0.8,0
				c0.1-1.9,1.2-2.1,1.2-2.7c-0.2-2.3-3.4-1.6-2-3.4c1.7-0.7,5.2-3,7.7-4C148,242.3,149.3,244.5,149.8,245.1z"/>
		</g>
		<g>
			<path class="st13" d="M137.2,195c-0.6,2-8.9,11.7-17.1,12.6c-11.4,1.3-19.5-2.9-26.9-10.1c-1.1-2.2-1.1-2.2-2.2-4.3
				c13.5,1.1,27.7-0.3,39.8-6.1c0.1,0,0.3,0,0.4,0C132.3,189.8,137.9,192.5,137.2,195z"/>
			<path class="st14" d="M224.8,129.7c1.3,0.2,1.7,0.3,2,0.4c-8.6,0.3-12.6,2.2-18.8,7.2c-6.8,5.5-11.7,13-16.1,20.2
				c0,0-0.8,0.7-0.8,0.7c-1.8,0.1-2.2,1.6-3.7,2.5c-1.6,1-14.1,7.8-15.9,8.7c-4.3-1.8,1-2.8,2.9-4.3c2.1-1.6,11.1-9.9,12.8-11.7
				c1.8-2,7.1-8.5,5.9-10.3c2.1-2.8,4.7-7.5,6.3-10.6c0.6-0.3,0.6-0.3,1.2-0.5c0.6-0.2,1.3-0.5,2-0.7
				C207.4,129.5,219.4,129.1,224.8,129.7z"/>
			<path class="st15" d="M116,131.5c0.8,1.8,9.4,14.3,11,16.2c-0.3,0-1.1-0.1-1.2,0.2c-0.7,2.5,17.9,18.6,21.2,20.9
				c-0.4,3.7-0.4,3.7-0.8,7.4c-3.2-1.1-15.8-7.7-19.6-10.1c-3.8-8.8-20.6-34.6-31.2-36.1c-1.7-0.2-3.3,0.2-4.9,0.4
				c0.4-0.9,0.4-0.9,0.8-1.8C99.9,127.9,107.7,129.6,116,131.5z"/>
			<g>
				<path class="st15" d="M70.5,140.9c0.9,1.3,1.5,1.9,3.1,3.2c-1.3,0.9,2.5,4.4,4.3,6.1c-5.9-5,6.9,14.4,7.7,15.2
					c4.1,4.1,14.3,7.8,20.2,8.7c-1.1,0.5-1.1,0.5-2.2,1.1c1.4,0.7,6.7,0.3,7.1,0.4c1.2,0.3,14.2,9.7,20.2,11.5
					c-12.2,5.8-26.3,7.2-39.8,6.1c1.1,2.2,1.1,2.2,2.2,4.3c-1.7-1.7-2.9-3.7-4.5-5.4c-22.6-5.5-35.8-28.5-22.2-47.4
					c-0.2-0.5-0.2-0.5-0.4-0.9c1.5-0.4,2.4-2.6,3.1-3.6C69.5,140.7,70.4,140.8,70.5,140.9z"/>
				<path class="st16" d="M91.3,128.6c-0.4,0.9-0.4,0.9-0.8,1.8c-6.9,0.8-15.2,5.8-20,10.5c0-0.1-1-0.2-1.2-0.7
					C74.6,133.6,82.4,129.3,91.3,128.6z"/>
				<path class="st17" d="M126.6,166.1c2.4,5.4,3.3,11.3,5.5,16.8c-0.4,1.6-1.2,1.9-1.2,2c-6.3-4-13-7.5-18.8-12.1
					c1.2-7.8,2.2-15.8,0.6-23.6c-0.3,4.2,0.2,9.4-0.2,13.5c0,0.3-0.8,0.1-0.8,0.4c-0.2,1.6,0.5,2.3,0.4,2.9c0,0.3-0.7,0.1-0.8,0.4
					c-0.2,1.3,0.3,4.2-0.6,5.6c-11-9.5-26.4-19.1-37.1-27.8c-1.6-1.3-2.2-2-3.1-3.2c4.8-4.6,13.2-9.6,20-10.5
					c1.6-0.2,3.2-0.6,4.9-0.4C106,131.6,122.8,157.3,126.6,166.1z"/>
				<path class="st18" d="M130.9,184.9c0,0.1,0.4,2.1,0.4,2.2c-0.1,0-0.3,0-0.4,0c-6-1.9-19.1-11.3-20.2-11.5
					c-0.3-0.1-5.6,0.4-7.1-0.4c1.1-0.5,1.1-0.5,2.2-1.1c0.4,0.1,3.3,0.5,2.9,0c-9.9-8.1-21.6-15-30.8-23.8c-1.8-1.7-5.6-5.2-4.3-6.1
					c10.7,8.7,26.1,18.3,37.1,27.8c0.9-1.4,0.4-4.3,0.6-5.6c0-0.3,0.8-0.1,0.8-0.4c0.1-0.6-0.6-1.3-0.4-2.9c0-0.3,0.8-0.1,0.8-0.4
					c0.4-4.1-0.1-9.4,0.2-13.5c1.7,7.9,0.6,15.8-0.6,23.6C118,177.4,124.6,180.9,130.9,184.9z"/>
				<path class="st15" d="M77.9,150.2c9.2,8.8,20.9,15.7,30.8,23.8c0.3,0.5-2.5,0.1-2.9,0c-5.9-0.9-16.1-4.5-20.2-8.7
					C84.8,164.6,72,145.3,77.9,150.2z"/>
			</g>
			<path class="st13" d="M146.2,176.2c0.2,0.1,0.8-0.2,0.8,0.4c-0.1,1.2-0.2,2.4-0.4,3.6c-0.4,3.2-0.1,6.6-1.4,9.7
				c-0.8,0.3-11.6-4.4-13-5.8c-0.5,0.3,0.2,2.3-1,2.9c0-0.1-0.4-2.1-0.4-2.2c0-0.1,0.7-0.4,1.2-2c-2.2-5.5-3.1-11.4-5.5-16.8
				C130.4,168.6,143,175.1,146.2,176.2z"/>
			<g>
				<path class="st13" d="M205.5,195.7c-2.2,5.5-2.2,5.5-4.3,11c9.8,0,20.3-5.3,25.9-12.8c0.1,0,0.6-1,1.2,0
					c-13.1,17-44.1,19.9-55.7,0c2-2.3,6.1-3.3,8.6-5.1C183.1,190.8,201.5,195.4,205.5,195.7z"/>
				<path class="st19" d="M226.7,193.9c0.1,0,0.3,0,0.4,0c-5.6,7.5-16.1,12.8-25.9,12.8c2.2-5.5,2.2-5.5,4.3-11
					C211.8,196.2,220.6,195.2,226.7,193.9z"/>
			</g>
			<g>
				<path class="st19" d="M191,158.2c-3.1,5.2-5.5,10.7-7.9,16.2c-1.4,3.4-3.9,6.3-3.5,10.1c-0.2-0.5-0.4-1.7-0.6-1.8
					c-3.8,1.9-9.5,5.8-13.2,7.2c5.9-3.7,5.9-3.7,11.8-7.4c-6.7,0.1-6.7,0.1-13.3,0.2c-0.1-4.1,0.6-9.9-0.8-9.7
					c0.9-1.1,0.4-1.3,0.8-2.5c1-0.7,1.5-1.2,2.7-1.8c4.6-2.2,1.2,0.8,2.6,1.8c0.3,0.3,1.3-0.9,1.8-1.1c1.8-0.8,14.3-7.6,15.9-8.7
					C188.8,159.8,189.2,158.3,191,158.2z"/>
				<path class="st13" d="M165.9,189.9c-1.5,0.6-1.2,1.7-1.6-6.9c0-0.1,0-0.2,0-0.4c6.7-0.1,6.7-0.1,13.3-0.2
					C171.8,186.2,171.8,186.2,165.9,189.9z"/>
			</g>
			<g>
				<path class="st20" d="M143.9,252c4.9,1.4,12.9,0.6,18.8,0.7c14.7,0.4,6.3,0.7-1.2,4.3c-5.2,2.5-4.5,4.4-5.7,4.3
					c-0.9,0-12.2-8.5-14.7-9C142,252.1,142.7,252.2,143.9,252z"/>
				<path class="st11" d="M152.3,254.5c4.7-1.1,7.2,2.7,5.1,4C155.6,259.6,148.3,255.4,152.3,254.5z"/>
			</g>
			<path class="st18" d="M127,147.7c1.6,1.9,8.3,8.4,10.6,10.5c6.6,5.9,12.9,10,20.4,14.8c0.1,2.9,2.9,2,3.1,0c1-0.9,2-1.8,3.1-2.5
				c-0.4,1.2,0.1,1.5-0.8,2.5c-5.2,6.2-10.7-2.5-13.7-1.4c-0.3,0.1-0.9-0.3-0.8,0.7c-2.2-3.4-1.5-0.5-2,4.3c0-0.6-0.5-0.3-0.8-0.4
				c0.4-3.7,0.4-3.7,0.8-7.4c-3.3-2.3-21.9-18.5-21.2-20.9C125.9,147.6,126.7,147.7,127,147.7z"/>
			<path class="st15" d="M171.4,169.4c-0.4,0.2-1.4,1.3-1.8,1.1c-1.4-1.1,2.1-4-2.6-1.8c9.8-7.5,18.6-16,25.9-25.6
				c1.2,1.8-4.1,8.3-5.9,10.3c-1.6,1.9-10.7,10.1-12.8,11.7C172.3,166.6,167.1,167.6,171.4,169.4z"/>
			<g>
				
					<linearGradient id="SVGID_1_" gradientUnits="userSpaceOnUse" x1="765.5819" y1="262.8979" x2="670.9056" y2="411.9641" gradientTransform="matrix(0.5 0 0 0.5 -194.5 -56.5)">
					<stop  offset="0" style="stop-color:#A99E34"/>
					<stop  offset="1" style="stop-color:#8E8934"/>
				</linearGradient>
				<path class="st21" d="M170.2,58.2c5.3,7.8,13.1,14.2,18.8,21.8c6.8,9.1,12.9,21,13.7,32.1c0.5,6.7-1,13.1-2.4,19.7
					c-0.6,0.3-0.6,0.3-1.2,0.5c-1.6,3.2-4.2,7.9-6.3,10.6c-7.3,9.6-16.1,18.1-25.9,25.6c-1.3,0.6-1.7,1.1-2.7,1.8
					c-1.1,0.8-2.2,1.6-3.1,2.5c0.1-0.8-0.4-12.5-0.4-15.5c10.8-6.3,22.1-12.5,30.2-21.8c-9.6,6.8-19.2,14.2-30.2,18.9
					c0.1-8.8,0.1-17.6,0-26.3c7.6-5.3,15.9-10,22.8-16.1c-11.6,6.8-11.6,6.8-23.2,13.5c0-3.6,0.1-7.2,0-10.8
					c6.4-4.6,12.3-9.7,17.7-15.3c-8.6,6.2-8.6,6.2-17.3,12.4c-0.1-3.2-0.3-6.5-0.4-9.7c5.8-4.5,10.8-9.9,15.7-15.3
					c-7.9,6.6-7.9,6.6-15.7,13.2c-0.4-18-1.7-36.1-2-54.1C160.8,51,166,54.4,170.2,58.2z"/>
				<path class="st15" d="M158.4,46c0.3,18,1.5,36.1,2,54.1c0,0.7,0,1.4,0,2.2c0.1,3.2,0.3,6.5,0.4,9.7c0,0.1-0.4-0.2-0.4,2.9
					c0.1,3.6,0,7.2,0,10.8c0,3,0.4,2.4,0.4,2.5c0.1,8.8,0.1,17.6,0,26.3c0,1,0,1.9,0,2.9c0,3,0.5,14.7,0.4,15.5c-0.3,2-3,2.9-3.1,0
					c-0.2-4.7,0.3-9.9,0-14.6c-10.4-5.5-10.4-5.5-20.8-11c0-0.2,0-0.5,0-0.7c2.7,0.2,2.5,1.2,2.9,1.4c1.9,0.9,6.6,2.6,7.9,3.2
					c0.2,0.1,0.1,0.8,0.8,1.1c12.7,6.5,8.6,6.9,9.2-7c-6.7-4.4-14-7.9-20.8-12.1c-2.5-1.5-4.8-3.6-7.5-4.9c0.4-0.9,3.9,2.2,7.5,2.7
					c0.7,2.4,17.9,9.9,20.8,12.8c0-6.7,0-6.7,0-13.3c-6.4-3.3-13.3-6-19.6-9.6c-3.7-2.1-7-5-11-6.7c0.1-0.3,4.2,1.1,4.5,1.3
					c1.7,0.7,4.7,3.3,5.1,3.2c1.6-0.1,0.3-2.3,1.8-2.2c-0.1,5.2,1.3,2.8,2.6,3.6c3.9,2.6,12.5,7.2,16.7,8.1c0-6.5,0-6.5,0-13
					c-5.8-2.8-12-5-17.7-8.1c-3.3-1.8-6.3-4.4-9.8-6c-0.1-1.3,7.6,3.6,8.8,4.1c0,0,0.4-0.6,1-0.4c0.2,0.1,2,1.9,2.6,2.2
					c2.5,1.2,5.3,1.8,7.9,2.9c1.3,0.5,6.6,4.5,7.3,3.1c0-5.8,0-5.8,0-11.5c-4-2.4-12.3-6.2-15.3-8.5c-1-0.7-2.2-1.5-2.7-2.7
					c0.1-0.2,2.8,1.1,3.1,1.3c4.8,2.5,9.6,5.6,14.3,8.3c1.1-15.1-0.2-11.7-10.8-20.6c0.1-0.3-0.1-0.8,0-1.1
					c1.7,0.3,10.7,8.3,11.4,6.7c1.2-9.5-4.2-9.9-8.2-17.5c0,0,0.2,0.1,0.4-0.4c4.1,3.5,4.1,3.5,8.2,7c0.2-2.5,0.2-2.5,0.4-5.1
					C158,58,158,58,157.2,46.7c0-0.2,0-0.2,0-0.4C157.3,46.4,157.4,45.3,158.4,46z"/>
				<path class="st14" d="M150.2,67.3c-0.2,0.5-0.4,0.3-0.4,0.4c-1.1,3.6-2.1,7.2-3.1,10.8c-0.1,0.3,0.1,0.8,0,1.1
					c-1.2,4.1-3.1,8-3.5,12.3c-0.3-0.2-3-1.5-3.1-1.3c0.5,1.2,1.7,2,2.7,2.7c-1.2,6-1.2,6-2.4,11.9c-0.5-0.3-0.9,0.4-1,0.4
					c-1.2-0.6-8.9-5.4-8.8-4.1c3.6,1.5,6.5,4.1,9.8,6c-0.8,3-1.5,6.3-1.6,9.4c-1.5-0.1-0.2,2.1-1.8,2.2c-0.4,0-3.4-2.6-5.1-3.2
					c-0.3-0.1-4.4-1.6-4.5-1.3c4,1.7,7.3,4.6,11,6.7c-0.6,5.1-0.6,5.1-1.2,10.1c-3.6-0.5-7-3.7-7.5-2.7c2.7,1.3,5,3.3,7.5,4.9
					c-1,4.4-0.1,8.9,0,13.3c0,0.2,0,0.5,0,0.7c0.1,3.6,0,7.2,0.4,10.8c-2.3-2.1-9-8.5-10.6-10.5c-1.6-1.9-10.2-14.5-11-16.2
					c-6-12.8-4.1-27.1,2-39.5c6.7-13.7,23.4-28.5,34.2-40.2c0.9-1,2.3-2,3.1-2.9c0.5,0.1,0.8,0.5,0.8,0.9
					C155.9,50.7,151.1,64.3,150.2,67.3z"/>
				<path class="st15" d="M150.2,67.3c0.9-2.9,5.8-16.6,5.9-17.5c0.1-0.4-0.3-0.8-0.8-0.9c0.1-0.1-0.1-1,2-2.2
					C158,58,158,58,158.8,69.2c-0.2,2.5-0.2,2.5-0.4,5.1C154.3,70.8,154.3,70.8,150.2,67.3z"/>
				<path class="st22" d="M160.8,157.5c0-1,0-1.9,0-2.9c11-4.7,20.6-12.1,30.2-18.9C182.9,145,171.5,151.1,160.8,157.5z"/>
				<path class="st22" d="M160.8,128.2c0-0.1-0.4,0.5-0.4-2.5c11.6-6.8,11.6-6.8,23.2-13.5C176.6,118.3,168.4,122.9,160.8,128.2z"/>
				<path class="st22" d="M160.4,114.9c0-3.1,0.4-2.7,0.4-2.9c8.6-6.2,8.6-6.2,17.3-12.4C172.7,105.2,166.8,110.3,160.4,114.9z"/>
				<path class="st23" d="M160.4,102.3c0-0.7,0-1.4,0-2.2c7.9-6.6,7.9-6.6,15.7-13.2C171.2,92.3,166.2,97.7,160.4,102.3z"/>
				<path class="st17" d="M158,173c-7.5-4.7-13.9-8.9-20.4-14.8c-0.4-3.6-0.2-7.2-0.4-10.8c10.4,5.5,10.4,5.5,20.8,11
					C158.4,163.1,157.8,168.3,158,173z"/>
				<path class="st17" d="M137.2,146.6c-0.1-4.4-1-8.9,0-13.3c6.8,4.2,14.1,7.7,20.8,12.1c-0.6,13.9,3.5,13.5-9.2,7
					c-0.6-0.3-0.5-1-0.8-1.1c-1.2-0.6-5.9-2.3-7.9-3.2C139.7,147.9,139.9,146.9,137.2,146.6z"/>
				<path class="st17" d="M137.2,131.1c0.6-5.1,0.6-5.1,1.2-10.1c6.3,3.5,13.2,6.2,19.6,9.6c0,6.7,0,6.7,0,13.3
					C155.1,141,137.9,133.5,137.2,131.1z"/>
				<path class="st17" d="M138.8,116.7c0.1-3.1,0.8-6.4,1.6-9.4c5.6,3.1,11.8,5.3,17.7,8.1c0,6.5,0,6.5,0,13
					c-4.2-0.9-12.8-5.5-16.7-8.1C140.1,119.5,138.7,121.9,138.8,116.7z"/>
				<path class="st17" d="M140.4,105.1c1.2-6,1.2-6,2.4-11.9c3,2.2,11.3,6.1,15.3,8.5c0,5.8,0,5.8,0,11.5c-0.7,1.4-6-2.5-7.3-3.1
					c-2.5-1.1-5.3-1.7-7.9-2.9C142.4,107.1,140.5,105.2,140.4,105.1z"/>
				<path class="st17" d="M143.1,91.8c0.4-4.3,2.4-8.2,3.5-12.3c10.6,8.8,11.9,5.5,10.8,20.6C152.7,97.4,148,94.3,143.1,91.8z"/>
				<path class="st17" d="M146.6,78.4c1-3.6,2-7.3,3.1-10.8c4,7.6,9.5,8,8.2,17.5C157.4,86.8,148.3,78.7,146.6,78.4z"/>
			</g>
			<g>
				<path class="st24" d="M232.6,131.8c16.4,9.3,22.2,22.2,20,39.7c-3,7.3-8.9,13.3-15.7,17.7c1.3-14.4-1.3-18.8-10.6-29.6
					c23.8-17.6,13.9-12.3-5.1,0.4c-6.7-11.4-6.7-11.4-13.3-22.7c6.2-5.1,10.2-6.9,18.8-7.2C228.9,130.4,230.6,131.1,232.6,131.8z"/>
				<path class="st22" d="M236.9,189.2c-2.1,1.3-4.5,2.1-6.7,3.2c-5.8-9.7-15.8-12-25.5-17.3c3-1.9,5.7-4.5,8.6-6.5
					c4.4-3,8.7-5.9,13-9C235.7,170.4,238.2,174.8,236.9,189.2z"/>
				<path class="st22" d="M204.7,175.1c9.8,5.4,19.7,7.7,25.5,17.3c-1,0.7-1,0.7-2,1.4c-0.5-1-1.1,0-1.2,0c-0.1,0-0.3,0-0.4,0
					c0.3-0.5,0.3-0.5,0.6-1.1c-16.5-5.1-16.5-5.1-33-10.1c-0.5-0.5-0.5-0.5-1-1.1C197.1,179.5,201.1,177.4,204.7,175.1z"/>
				<path class="st19" d="M251.1,145.2c4.9,8.1,5.1,17.8,1.6,26.3c2.2-17.5-3.6-30.4-20-39.7C239,134.2,247.7,139.5,251.1,145.2z"/>
				<path class="st22" d="M221.2,160c-3.1,2.1-7.5,5.8-10.2,7.6c-3.5,2.2-7.1,4.3-10.6,6.5c-0.3-10.3-0.3-10.3-0.6-20.6
					c0,3.2-3.2,20.8-2.9,21.8c0.1,0.4,1.2-0.1,1.2,0.5c-1.9,1.2-3.9,2.2-5.9,3.2c-0.1-5.1,0.5-10.1,0.4-15.2c0-2.2,0.4-4.2-0.8-6.5
					c4.4-7.2,9.3-14.7,16.1-20.2C214.6,148.6,214.6,148.6,221.2,160z"/>
				<g>
					<path class="st15" d="M226.3,159.6c-4.2,3.1-8.6,6.1-13,9c-1.2-0.5-1.2-0.5-2.4-1.1c2.7-1.7,7.1-5.5,10.2-7.6
						C240.3,147.3,250.2,142,226.3,159.6z"/>
					<path class="st15" d="M211,167.6c1.2,0.5,1.2,0.5,2.4,1.1c-2.9,2-5.6,4.6-8.6,6.5c-3.6,2.3-7.6,4.4-11.4,6.5
						c-4,2.2-8.1,4.4-12.2,6.5c-0.6-0.8-0.8-1.6-1.2-2.5c1.6-0.8,3.1-1.7,4.7-2.5c2.5-1.3,5-2.6,7.5-4c1.9-1.1,4-2.1,5.9-3.2
						c2.1-1.2,2.2-1.7,2.4-1.8C203.9,171.9,207.6,169.8,211,167.6z"/>
				</g>
				<path class="st25" d="M226.7,193.9c-6.1,1.3-15,2.3-21.2,1.8c-4.1-0.3-22.4-4.9-24.3-6.9c-0.1-0.1,0.1-0.6,0-0.7
					c4.1-2.1,8.2-4.3,12.2-6.5c0.5,0.5,0.5,0.5,1,1.1c16.5,5.1,16.5,5.1,33,10.1C227,193.4,227,193.4,226.7,193.9z"/>
				<path class="st17" d="M185.1,179.5c-0.1,0.2-1,3.5-0.4,3.6c-1.6,0.8-3.1,1.7-4.7,2.5c-0.2-0.5-0.3-1-0.4-1.1
					c-0.3-3.8,2.1-6.7,3.5-10.1C184.1,176.9,184.1,176.9,185.1,179.5z"/>
				<path class="st25" d="M192.6,164c-2.6,4.7-4.1,9.8-6.3,14.6c-0.6,1.2-1.1,0.8-1.2,0.9c-1-2.5-1-2.5-2-5.1
					c2.4-5.5,4.7-11,7.9-16.2c0,0,0.8-0.7,0.8-0.7C193,159.8,192.5,161.7,192.6,164z"/>
				<path class="st25" d="M192.2,179.1c-2.5,1.4-5,2.6-7.5,4c-0.6-0.2,0.3-3.4,0.4-3.6c0-0.1,0.6,0.3,1.2-0.9
					c2.2-4.8,3.7-9.9,6.3-14.6C192.7,169,192.1,174,192.2,179.1z"/>
				<path class="st25" d="M200.4,174.1c-0.1,0.1-0.3,0.6-2.4,1.8c0-0.6-1.1-0.2-1.2-0.5c-0.3-1.1,2.9-18.6,2.9-21.8
					C200.1,163.8,200.1,163.8,200.4,174.1z"/>
			</g>
			<g>
				<path class="st20" d="M152.9,182.7c-1.5,23,0.6,45.9,2,68.9c-0.1,0-0.3,1.2-2-0.7c-0.8-0.9-2.1-4.3-3.1-5.8
					c0.4-2.2-3.9-5.4-5.3-9c-2,3.3-6.8,6.5-10.2,8.7c-1.8,1.2-10.7,6.3-12,5.8c5.7-6.3,8.5-9.5,11.8-17.3c3.3-8,5.8-21.4,6.3-29.9
					c0.2-3.4,1-5.8-3.1-8.3c0.7-2.5-5-5.2-5.9-7.9c1.2-0.6,0.5-2.6,1-2.9c1.3,1.4,12.1,6.1,13,5.8c1.3-3.1,1-6.5,1.4-9.7
					C148.8,179.3,148.4,181.4,152.9,182.7z"/>
				<path class="st20" d="M179.6,184.5c0.1,0.1,0.2,0.5,0.4,1.1c0.4,0.9,0.6,1.7,1.2,2.5c0.1,0.1-0.1,0.6,0,0.7
					c-2.5,1.8-6.6,2.7-8.6,5.1c-0.8,0.9-1.5,1-1.6,1.3c-0.3,2.2,0.3,4.6,0.4,6.7c0.1,3.9,0.2,9.2,0.8,13c-0.6-0.6-0.6-0.6-1.2-1.3
					c-2.9-10.7-7.8-20.6-12.6-30.1c0.3,0,3.2-0.7,5.9-0.4c0.4,8.6,0,7.4,1.6,6.9c3.6-1.4,9.3-5.3,13.2-7.2
					C179.3,182.8,179.4,184,179.6,184.5z"/>
				<path class="st11" d="M158.4,183.4c4.8,9.5,9.7,19.4,12.6,30.1c0.6,0.6,0.6,0.6,1.2,1.3c0.2,1.3,0.5,2.7,0.8,4
					c-2,0.8,0.6,9.4,1.6,12.1c1.5,3.9,4.5,8.6,7.5,11.7c-0.2,0.1-1.7,0.4-1.8,0.4c-1.7-0.7-14.6-8-15.3-7.6
					c-0.1,2.8-2.9,7.6-1.4,9.4c-0.9,2.9-2.4,8.3-0.8,7.9c-6-0.2-14,0.7-18.8-0.7c3-0.5,6-0.8,9-1.1c1.7,1.9,1.8,0.7,2,0.7
					c0.9,0,0.9,0.7,1.6-0.2c-0.9-2.1,2.2-13.1,2-13.7c-0.2-0.6-1.3,0.6-1.6,0c-0.3-0.5-0.7-10-0.8-11.5c-0.7-14.2,0.7-28.5,0.8-42.8
					C156.9,183.4,158,183.4,158.4,183.4z"/>
				<path class="st3" d="M182,242.6c1.2,1.3,8.3,7.1,9.8,6.9c2,2.2,6.3,5.4,4.5,5.8c-10.5-4.7-20-11.3-31.4-14.1
					c-0.8-0.1-0.8,1-1,1.4c-0.3,0.8-0.2,1.7-0.4,2.2c-1.5-1.7,1.3-6.6,1.4-9.4c0.7-0.5,13.6,6.9,15.3,7.6
					C180.3,243,181.8,242.7,182,242.6z"/>
				<path class="st20" d="M149.8,245.1c-0.5-0.6-1.7-2.8-2.6-2.9c-2.5,0.9-6,3.2-7.7,4c-1.9,0.9-3.9,1.7-5.9,2.5
					c-1.5,0.6-14.9,6.3-15.3,5.6c1.3-1.2,2.7-2.4,3.9-3.8c1.3,0.5,10.1-4.6,12-5.8c3.4-2.2,8.3-5.4,10.2-8.7
					C145.9,239.7,150.2,242.9,149.8,245.1z"/>
				<path class="st3" d="M156.8,183.4c-0.1,14.2-1.5,28.5-0.8,42.8c0.1,1.5,0.5,11,0.8,11.5c0.3,0.6,1.3-0.6,1.6,0
					c0.2,0.7-2.9,11.6-2,13.7c-0.7,0.9-0.7,0.1-1.6,0.2c-1.4-23-3.5-45.9-2-68.9C154,183,155.8,183.4,156.8,183.4z"/>
				<path class="st26" d="M149,172.3c1.8,2.7,2.7,9.3,7.7,6.1c1.9-1.2-4-3.7-6.9-6.9c3-1.1,8.6,7.6,13.7,1.4
					c1.4-0.1,0.6,5.6,0.8,9.7c0,0.1,0,0.2,0,0.4c-2.6-0.3-5.6,0.4-5.9,0.4c-0.4,0-1.5,0-1.6,0c-1-0.1-2.9-0.4-3.9-0.7
					c-4.5-1.3-4.1-3.4-6.3-2.5c0.2-1.2,0.3-2.4,0.4-3.6C147.5,171.8,146.7,168.8,149,172.3z"/>
				<path class="st27" d="M149.8,171.5c2.8,3.1,8.8,5.6,6.9,6.9c-5,3.2-5.9-3.5-7.7-6.1C148.8,171.3,149.5,171.6,149.8,171.5z"/>
			</g>
		</g>
	</g>
</g>
</svg>
