<?xml version="1.0" encoding="utf-8"?>
<!-- Generator: Adobe Illustrator 28.2.0, SVG Export Plug-In . SVG Version: 6.00 Build 0)  -->
<svg version="1.0" id="Layer_1" xmlns="http://www.w3.org/2000/svg" xmlns:xlink="http://www.w3.org/1999/xlink" x="0px" y="0px"
	 viewBox="0 0 300 300" style="enable-background:new 0 0 300 300;" xml:space="preserve">
<style type="text/css">
	.st0{display:none;}
	.st1{display:inline;fill:#B2B1AC;}
	.st2{display:inline;fill:#D1D2D2;}
	.st3{display:inline;fill:#F3F3F3;}
	.st4{fill:#EC6B2E;}
	.st5{fill:#F8C21E;}
	.st6{fill:#F3F3F3;}
	.st7{fill:#C52127;}
	.st8{fill:#AB7D6C;}
	.st9{fill:url(#SVGID_1_);}
	.st10{fill:#E55A26;}
	.st11{fill:#F89F1B;}
	.st12{fill:#14212B;}
	.st13{fill:#715554;}
	.st14{fill:#474144;}
	.st15{fill:#594A4A;}
	.st16{fill:#37383D;}
	.st17{fill:#AF7E3E;}
	.st18{fill:#8A6861;}
	.st19{fill:#AE9086;}
	.st20{fill:#DDCCC1;}
	.st21{fill:#C1A598;}
	.st22{fill:url(#SVGID_00000112593490559505978830000013941399755886194103_);}
	.st23{fill:#F9F3E8;}
</style>
<g>
	<g id="Background_00000147219966025984869960000006802568122300405893_" class="st0">
		<path class="st1" d="M313.9-34.2c0,182.4,0,182.4,0,364.8c-161.1,0-161.1,0-322.3,0c0-182.4,0-182.4,0-364.8
			C152.8-34.2,152.8-34.2,313.9-34.2z"/>
		<path class="st1" d="M194,261.9c2,0.1,3.9-0.4,5.8-0.4c-0.6,0.7-0.6,0.7-1.3,1.4c14.8,9.9,22.9,5.9,38.1,2.5
			c16.3-11.4,18.1-18.8,24.7-38.3c1.3-5.5,1-12.3,3.5-17.1c0.9-12.7,3.8-24.9,2.8-37.8c2.7-27.8-3.2-55.8-6-83.4
			c-3.4-19.6-11-44.9-27.2-55.4c-7.2-4.6-9.6-3.3-10.1-3.6c-0.8-0.3-0.7-1.9-1.6-2.5c-0.6-0.4-11.1-3.6-13.2-3.2
			c-4.2-4-10.4-1.2-14.8-4.3c-3.9,1.5-4.8-0.9-5.7-1.1c-3.2-0.5-22.6,1.2-27.7-2.5c-3.1,0.6-9.1-1-10.9,0.7c-0.8-1-1.9-1.8-2.7-2.9
			c-0.3,0.3-0.1,1.9-0.2,2.5c-5,0.2-11.9,3.1-15.9,1.4c-3,2-6.7,1.6-10.1,2.1c-11.2,1.9-21.8,4.9-33,6.8c-2.2,1.6-14.1,5.6-14.8,6.1
			c-0.9,0.7-1,2.2-1.9,2.9c-1.9,1.4-4.1,2.2-4.4,2.5c-2.5,2.1-3.2,5.8-7.1,8C60.5,47,60,48.9,59.9,49c-4.2,7.1-8,17.7-10.1,26
			c-3.8,15.3-6.2,38.6-7.6,54.9c-0.8,2.7-0.8,2.7-1.6,5.3c0.6,14.9-1,30-0.6,44.9c0.2,7.6,1.4,15.2,1.6,22.8
			c3.3,8.4,1.3,21.6,6.3,29.2c0.2,12.9,3.8,15.3,9.1,24.9c4.2,2.9,4.2,2.9,8.3,5.9c13,1.8,20.3,9.2,34,3.2c3.8-1.7,6.3-3.3,3.6-3.9
			c0.5,0.2,0.6-0.3,0.9-0.4c0.1,0,1.7,0.4,2,0.4c1.7-0.2,4.6-1.9,6-0.4c-6,0.1-11.6,7.2-13.5,8.2c-7,3.6-33.3,1.9-40-2.5
			c-6-4-13.3-18.4-15.6-25.8c-8.2-26.9-9.1-82.5-7.2-111.9c4.6-30.7,2.4-68.7,22.7-92.6c9.5-11.2,23-17.6,36.4-20.5
			c4.6-1,23.4-3.7,29-4.3c7-0.8,17.2,0.6,22.7-2.5c9.8,1.1,9.8,1.1,19.5,2.1c15.7-1.6,31.5,1.2,46.9,3.9c1.9,0.9,4.2,0.7,5.7,2.5
			c5.3-0.3,7.7,2.8,10.1,3.9c0.3,0.2,1.2-0.2,1.6,0c3.5,1.6,12.5,6.4,13.7,9.8c6.4,3.8,7.9,10.6,11,17.1c1.1,2.3,3.1,4.4,4.1,6.8
			c0.2,0.4-0.2,1.8,0,2.1c1,2.5,2.6,4.9,3.5,7.5c6.4,19.5,6.7,44.9,9.8,65.6c0.7,12.8,1.8,25.6,1.6,38.5
			c-0.3,20.2-3.6,60.7-11.6,78.4c-3.4,7.5-11.2,17.6-18.1,20.8c-6.7,3.2-27.9,5.4-34.9,3.6C202.8,270.9,199.8,263.6,194,261.9z"/>
		<path class="st2" d="M147.8,26.4c-0.4,2.3-2.4,5-2.5,5.3c-1.8,2.2-3.1,1.3-3.3,1.4c-0.3,0.1-1,1.4-1.9,1.8
			c-2.2,0.9-5.8,1.5-7.9,2.1c-0.7,0.2-1.7,1.2-2.5,1.4c-1.3,0.4-5.7-0.8-5.7,2.9c-2.7,0.4-4,2.3-6.3,3.6c-0.3,0.2-3.2,0.4-3.8,0.7
			c-0.9,0.5-1.6,2-3.1,2.9c-0.8,0.4-2.5-1.4-4.4,2.9c-5.2-1.4-7,3.5-12,3.9c-2,2.6-6.6,6.4-8.3,8.7c-2.4,3.1-6.5,10.7-6.6,14.6
			c-0.7,1.5-4,0.7-3.5,5.7c-3.9,3,0.9,7-4.4,7.8c0.7,4.5-1.2,5.2-2.2,9.3c1.6,4-0.4,11.1-2.8,14.6c1.6,4-2.3,6.1-1.3,12.5
			c-5.1,10.5,7.4,7.3-1.6,12.8c2.9,4,0.3,7.4,0.3,7.8c-0.3,6.7-0.3,14.3,0,21c0,0.3,1.7,2.7,0.9,6.1c-0.4,1.8-2.3-0.9-0.9,10.7
			c0.6,0.7,0.6,0.7,1.3,1.4c-0.8,7.1,1.9,13.6,1.6,20.7c6.1,5.9-3.4,9.5,6.3,15c-0.9,4.3,1.9,5.4,1.6,8.6c3.4,1.2,2,5.8,3.5,7.8
			c1.3,1.8,7.6,2.3,7.9,3.6c0.1,0.7-1.5,1.5-1.3,2.1c0.2,0.7,2.1,0.7,2.4,0.9c2.3,1.8,2.2,5.4-0.8,3.6c-1-0.6-1.3-2.1-1.7-2.1
			c-0.4-0.1-2,1.8-2,2c0,0.2,1.5,2.3,1.7,2.7c0,0,0.3-0.5,0.5-0.4c0.5,0.6,1.2,1.5,0.9,2.5c-4.1,1.8-3.5,3.8-3.9,3.9
			c-0.5,0.1-5.5-9.4-1.6,1.8c8,0,16.1-0.1,24.1,0c-0.2,0.5-0.2,0.5-0.3,1.1c-0.3,0-0.5,0.5-0.9,0.4c-1.3-0.3-2-0.3-3.3,0
			c-0.4,0.1,0.4,0.6,0,0.7c-6.1,1.3-17.8,2.8-22.3-2.1c-4.2-0.2-4.2-0.2-8.5-0.4c-1.2-1.4,8.7-0.4,9.6-3c-4.3-2.8-4.3-2.8-8.7-5.5
			c-2.6-6.5-6.2-7.6-6.5-8c-1.8-2.8,0.4-5.5,0.3-6.1c-0.3-2.7-3.1,2-2.8-4.6c-2.4,0-1.4-2.5-1.9-3.9c-1.1-3.3-2.7-5.1-2.8-12.1
			c-0.9-2.1-0.9-2.1-1.9-4.3c-1-8.2-2.5-16.3-3.8-24.6c-1-17.6-1-35.1,0-52.7c3-3.9-1-7.3,2.5-11.8c-0.2-7.2,2-13.5,2.8-20.7
			c0.8-1.1,0.8-1.1,1.6-2.1c-0.5-3.5,1.8-8.1,2.5-11c0.4-1.8,0.7-8.2,0.9-8.9c0.2-0.6,3.9-3.9,4.7-12.1c2.5-2.5,3.8-7,5-10.7
			C76,53.8,76,47,78,49.2c0.9-1.3,3-2.3,2-4.1c3.7-1.9,2.7-5.2,7.7-4.8c2.1-2.2,9.7-4.2,13.2-5c0.3-0.1,2,0.7,5.4,0
			c0.2-0.1,1.6-1.6,4.1-1.1c3.1-2.9,12.1-3.4,17.6-4.6c2.4-0.6,18.3-5.1,19.2-4.6C147.7,25.2,147.1,26.4,147.8,26.4z"/>
		<path class="st2" d="M194,261.9c-3.3-0.1-6.7-0.7-10.1-1.1c13.1-0.2,26.4-0.6,39.5-0.4c0.4,0,2.5,1.3,7.2,1.1
			c8.4-0.4,5.1-0.8-1.7-3.6c-3.4-4.7-1.6-2.8,5.8-6.8c2.3-2.6,2.3-2.6,4.6-5.2c4.6-8.2,6-19.3,10.4-25.3c0.9-4.3,0.9-4.3,1.9-8.6
			c2.8-4.8,5.2-16.7,5.7-22.8c0.8-1.2,0.8-1.2,1.6-2.5c1.8-22.5,0.3-49.3-4.4-71.3c-0.2-6.4-1.8-22-5-26c-0.5-8.2-2.4-9.5-2.5-10
			c-0.4-1.2-0.2-2.7-0.6-3.9c-0.7-2-4.2-10.8-5-12.5c-0.2-0.3-3.5-5.7-3.8-6.1c-2.8-3.9-6.5-6.7-9.3-10.5c-9.3-8.4-18.4-10-29-14.6
			c-5,0-6.9-1.7-7.2-1.8c-5.3-1.1-13.8-0.3-20.5-3.6c-6.3,1.1-14-1.4-11.8,1.4c-3-3.6-6-7.5-9.1-11c1.8-1.7,7.8-0.1,10.9-0.7
			c5.1,3.7,24.5,2,27.7,2.5c0.9,0.1,1.8,2.5,5.7,1.1c4.4,3.1,10.6,0.2,14.8,4.3c2.1-0.4,12.6,2.8,13.2,3.2c0.9,0.6,0.8,2.2,1.6,2.5
			c0.5,0.2,2.9-1.1,10.1,3.6c16.2,10.5,23.8,35.8,27.2,55.4c2.8,27.6,8.7,55.6,6,83.4c1,12.9-2,25.1-2.8,37.8
			c-2.4,4.8-2.1,11.6-3.5,17.1c-6.6,19.5-8.4,26.8-24.7,38.3c-15.2,3.4-23.3,7.4-38.1-2.5c0.6-0.7,0.6-0.7,1.3-1.4
			C197.9,261.5,196,262,194,261.9z"/>
		<path class="st3" d="M214.2,254.1c3.8,2.4,5.7,0.8,6.1,5c1.1-5.6,1.6-3.9,8.7-1.1c6.8,2.8,10.1,3.1,1.7,3.6
			c-4.7,0.2-6.9-1.1-7.2-1.1c-13.1-0.2-26.4,0.2-39.5,0.4c-6.3,0.1-13.6,0.7-17.9,0.7c-5.7,0,2.2-0.8,7.4-2.9
			c7-2.8,13.4-7.7,19-13.2c0.8-0.8,1.4-1.7,2.2-2.5c1.2-1.3,2-2.2,3.1-3.6c1.3-1.7,2.9-3.2,4.1-5C204,242.9,207.2,249.7,214.2,254.1
			z"/>
		<path class="st3" d="M135.5,261.2c-10.4-0.5-20.8-0.3-31.2-0.4c-8-0.1-16.1,0-24.1,0c-3.9-11.2,1-1.7,1.6-1.8
			c0.4-0.1-0.1-2.1,3.9-3.9c6.9-3.1,9.4,0.2,4.9-7.1c5.2-3.1,3.9,4.3,6.1,2.3c1.6-1.4,7.1-12.6,7.2-15.9
			c7.5,11.7,17.8,20.5,30.1,24.6c0.8,0.3,11,2.3,9.8,2.9C141.1,261.5,138.2,261.3,135.5,261.2z"/>
		<path class="st2" d="M147.8,16.8c-0.2,3.2,0.5,6.7,0,9.6c-0.6,0-0.1-1.2-0.5-1.4c-0.9-0.5-16.8,4.1-19.2,4.6
			c-5.5,1.3-14.6,1.7-17.6,4.6c-2.5-0.5-3.9,1-4.1,1.1c-3.4,0.7-5.1-0.1-5.4,0c-3.5,0.8-11.1,2.7-13.2,5c-5-0.4-4.1,2.9-7.7,4.8
			c1,1.8-1.2,2.7-2,4.1c-2-2.2-2.1,4.6-7.4,9.1c-1.3,3.7-2.5,8.2-5,10.7c-0.8,8.2-4.5,11.5-4.7,12.1c-0.2,0.7-0.5,7.2-0.9,8.9
			c-0.7,2.9-3,7.5-2.5,11c-0.8,1.1-0.8,1.1-1.6,2.1c-0.9,7.1-3,13.4-2.8,20.7c-3.5,4.5,0.4,7.9-2.5,11.8c-1,17.6-1,35.1,0,52.7
			c1.2,8.3,2.8,16.3,3.8,24.6c0.9,2.1,0.9,2.1,1.9,4.3c0.1,7,1.7,8.8,2.8,12.1c0.5,1.4-0.5,3.9,1.9,3.9c-0.3,6.6,2.5,2,2.8,4.6
			c0.1,0.5-2.1,3.3-0.3,6.1c0.3,0.5,3.9,1.5,6.5,8c4.3,2.8,4.3,2.8,8.7,5.5c-0.9,2.7-10.8,1.7-9.6,3c4.2,0.2,4.2,0.2,8.5,0.4
			c4.6,4.9,16.2,3.5,22.3,2.1c0.4-0.1-0.4-0.6,0-0.7c1.3-0.3,2-0.3,3.3,0c2.7,0.7,0.2,2.3-3.6,3.9c-13.7,6-21-1.4-34-3.2
			c-4.2-2.9-4.2-2.9-8.3-5.9c-5.3-9.6-8.9-12-9.1-24.9c-5-7.6-3-20.8-6.3-29.2c-0.2-7.6-1.4-15.2-1.6-22.8
			c-0.4-14.9,1.2-30,0.6-44.9c0.8-2.7,0.8-2.7,1.6-5.3c1.4-16.3,3.7-39.5,7.6-54.9c2.1-8.3,5.8-18.9,10.1-26
			c0.1-0.1,0.6-2.1,0.6-2.5c3.9-2.2,4.6-5.9,7.1-8c0.3-0.3,2.5-1,4.4-2.5c0.9-0.7,1-2.2,1.9-2.9c0.7-0.5,12.6-4.4,14.8-6.1
			c11.2-1.8,21.8-4.9,33-6.8c3.4-0.6,7.1-0.1,10.1-2.1C135.8,19.9,142.8,17,147.8,16.8z"/>
		<path class="st2" d="M137,45.3c-0.8,0.2-0.6,1-0.6,1.1c-1.5,1.4-2.8,4.3-3.8,6.2c-5.1,10.7-7,22.3-6.6,34.4c-3.1,1-5.5-1.3-5.8-5
			c-0.1,0-0.4,1.8-0.5,2.1c-4.3,13.6-3.9,16.7-4.1,30.6c-1-0.1-0.8,0.8-1.3,1.8c-4.3,9.1-6.8,19-8.8,29c-13,28.7-19.8,56.8-3.1,85.7
			c0.1,0.2,0.4,1.4,1.6,3.2c-0.2,3.2-5.6,14.4-7.2,15.9c-2.2,1.9-0.9-5.4-6.1-2.3c4.5,7.3,2,4-4.9,7.1c0.2-1-0.4-1.9-0.9-2.5
			c0.8-1.1,0.8-1.1,1.6-2.1c2.9,1.8,3.1-1.8,0.8-3.6c-0.3-0.2-2.1-0.2-2.4-0.9c-0.2-0.6,1.4-1.4,1.3-2.1c-0.3-1.3-6.6-1.8-7.9-3.6
			c-1.5-2.1-0.1-6.6-3.5-7.8c0.4-3.1-2.4-4.3-1.6-8.6c-9.7-5.5-0.2-9.1-6.3-15c0.3-7-2.3-13.6-1.6-20.7c-0.6-0.7-0.6-0.7-1.3-1.4
			c-1.3-11.6,0.5-8.9,0.9-10.7c0.8-3.3-0.9-5.7-0.9-6.1c-0.3-6.7-0.3-14.3,0-21c0-0.4,2.6-3.9-0.3-7.8c9-5.5-3.5-2.3,1.6-12.8
			c-1-6.4,2.9-8.5,1.3-12.5c2.4-3.5,4.4-10.6,2.8-14.6c1-4.1,2.9-4.7,2.2-9.3c5.3-0.8,0.5-4.9,4.4-7.8c-0.6-5,2.8-4.2,3.5-5.7
			c0.1-3.9,4.2-11.5,6.6-14.6c1.7-2.3,6.4-6.1,8.3-8.7c4.9-0.4,6.8-5.3,12-3.9c1.9-4.2,3.6-2.4,4.4-2.9c1.6-0.8,2.2-2.4,3.1-2.9
			c0.6-0.3,3.5-0.6,3.8-0.7c2.3-1.2,3.6-3.2,6.3-3.6c0-3.6,4.4-2.4,5.7-2.9c0.8-0.3,1.8-1.2,2.5-1.4c2-0.7,5.7-1.3,7.9-2.1
			c0.9-0.4,1.6-1.6,1.9-1.8c0.2-0.1,1.5,0.7,3.3-1.4C143,36.6,140.3,41.3,137,45.3z"/>
		<path class="st3" d="M86.4,250.5c-0.8,1.1-0.8,1.1-1.6,2.1c-0.1-0.2-0.5,0.4-0.5,0.4c-0.3-0.3-1.7-2.5-1.7-2.7c0-0.2,1.7-2,2-2
			C85.1,248.4,85.4,249.9,86.4,250.5z"/>
		<path class="st2" d="M228.9,258c-7.1-2.9-7.6-4.5-8.7,1.1c-0.5-4.2-2.3-2.6-6.1-5c0.8-3.2-0.5-5.2-1.3-8.2
			c2.3-0.1,2.2-3.2,2.2-5.3c1,0.7,0.2,1.2,1.7,1.8c3.9-1.7,4.5-4.2,5-4.3c1.1-0.2,1.2,1.8,3-0.2c0.5-0.5,2.1-6.3,3.1-8.2
			c3.7-2,6.1-5.9,9.4-8.6c0.1-5.1,2.1-6.4,2.2-6.8c0.7-2.3,1.8-7.6,0.9-8.6c7.7-1.5-0.2-8.9,4.4-10.7c-1.3-8.9,0.4-4.8,0.9-5.3
			c0.7-0.7,1.4-7.2-0.3-8.6c0.2-7.8-1-13.9,1.9-21.4c-1.2-2.4-2.4-11.2-2.5-14.3c-0.4-9.7,1.3-9.5,1.3-11.4c-3.3-8-2-16.4-6-21
			c0.6-8.4-3.7-10.3-3.1-15.7c-2.6-2.9-0.9-5-5.4-6.8c0.4-3.6-1.9-6.5-3.1-9.6c3.2-7.5-1.5-2-2.8-4.6c-1.6-3.2,5.3-3.3-2.5-5.3
			c-1.1-4.5,3.1-1.6-1.4-7.3c-1.8,12.9-4.3-2.7-8.3-3.4c0.3-2-3.5-6.1-5-6.4c0.7-3.2-1.6-1.2-1.7-1.2c-0.4-0.2-1.7-3.1-1.9-3.2
			c-1.1-0.5-0.6,1.8-2.5-2.1c-2-0.2-2-0.2-4.1-0.4c0.4-1.2-5.9-5.2-6.3-5.3c-3.6-1.6-13.6-2.7-18.9-6.4c-3.1,0.4-5.5-0.5-8.3-1.1
			c-1.6-2-3.4-4.1-5-6.1c-2.2-2.8,5.5-0.4,11.8-1.4c6.6,3.2,15.1,2.5,20.5,3.6c0.4,0.1,2.2,1.8,7.2,1.8c10.6,4.6,19.7,6.2,29,14.6
			c2.8,3.9,6.5,6.6,9.3,10.5c0.3,0.4,3.6,5.7,3.8,6.1c0.9,1.7,4.4,10.4,5,12.5c0.4,1.2,0.2,2.7,0.6,3.9c0.2,0.5,2.1,1.8,2.5,10
			c3.2,4,4.8,19.6,5,26c4.7,21.9,6.2,48.7,4.4,71.3c-0.8,1.2-0.8,1.2-1.6,2.5c-0.4,6.1-2.8,18-5.7,22.8c-0.9,4.3-0.9,4.3-1.9,8.6
			c-4.4,6-5.8,17.1-10.4,25.3c-2.3,2.6-2.3,2.6-4.6,5.2C227.4,255.2,225.5,253.3,228.9,258z"/>
		<path class="st2" d="M215.1,240.5c-6-4.5-6.5,5.5-2.2,5.3c0.8,3,2.1,5,1.3,8.2c-6.9-4.3-10.2-11.2-12.3-19.6
			c18.4-27.9,13-63.7-2.8-91.4c-3.6-12.5-3.6-12.5-7.2-24.9c-0.3,0-0.3,0-0.6,0c0.2,8.6-1.2,18-4.1,26c-0.5-20.1,4.1-46.5-6.5-63.2
			c1.2,6,2.8,17.9-2.4,21.6c0.4-4,0.1-21.9-0.9-24.2c-0.3-0.5-2.2-1.4-2.8-2.5c2-7.2,2.5-14.6,1.3-22.1c-0.7-4.3-5.3-17.6-7.2-14.8
			c-1.1-1.5-2.6-3.1-3.8-4.6c2.8,0.5,5.3,1.5,8.3,1.1c5.3,3.7,15.3,4.8,18.9,6.4c0.4,0.2,6.7,4.1,6.3,5.3c2,0.2,2,0.2,4.1,0.4
			c1.9,3.9,1.4,1.6,2.5,2.1c0.2,0.1,1.5,3,1.9,3.2c0.2,0.1,2.4-1.9,1.7,1.2c1.6,0.4,5.4,4.4,5,6.4c4,0.7,6.5,16.3,8.3,3.4
			c4.5,5.7,0.3,2.8,1.4,7.3c7.9,2,0.9,2.1,2.5,5.3c1.4,2.7,6-2.9,2.8,4.6c1.3,3.2,3.5,6,3.1,9.6c4.4,1.8,2.7,3.9,5.4,6.8
			c-0.6,5.3,3.7,7.3,3.1,15.7c4,4.6,2.7,13.1,6,21c0,1.9-1.7,1.7-1.3,11.4c0.1,3,1.4,11.8,2.5,14.3c-2.9,7.5-1.7,13.5-1.9,21.4
			c1.7,1.3,1,7.8,0.3,8.6c-0.5,0.5-2.3-3.6-0.9,5.3c-4.6,1.8,3.3,9.2-4.4,10.7c0.9,0.9-0.3,6.2-0.9,8.6c-0.1,0.4-2.1,1.7-2.2,6.8
			c-3.3,2.7-5.8,6.6-9.4,8.6c-1.1,1.9-2.7,7.7-3.1,8.2c-1.8,2-1.8,0-3,0.2c-0.5,0.1-1.1,2.6-5,4.3
			C215.3,241.7,216.1,241.3,215.1,240.5z"/>
		<path class="st3" d="M215.1,240.5c0,2.2,0.1,5.2-2.2,5.3C208.6,246,209.1,236,215.1,240.5z"/>
		<path class="st3" d="M219,249.4c2.1-1.2,2.3,4.3,1.3,4.6C219.5,254.3,217.8,250.1,219,249.4z"/>
	</g>
	<g>
		<g>
			<path class="st4" d="M157.2,45.3c0,11.5-6.8,20.8-9.8,31.4c-2.3,8.1-3.1,16.7-3.8,25.1c-3.1,5-8.7,14.3-9.8,20
				c-1.2,6.1,0.1,12.4-1.3,18.5c0.4,1.7,0.8,3.6,0.6,5.2c-0.3,1.7-1.4,3.1-1.9,4.6c0-0.6,0.3-3.8-0.9-2c-0.4,0.6-2.3,10.2-3.8,12.5
				c1.2,4.4,1.1-0.3,3.8-1.4c-1-5.7,0.2-6.7,0.9-9.1c-0.1,1.3-0.5,9-0.6,9.4c-0.2,0.6-2.9,0.8-4.1,11.6c-8.6,2.2-8.1,6.1-11,11.2
				c-1.8,3.1-7.7,7.1-4.1,17.5c-7.6,7-4,6.2-4.7,9.6c-0.2,0.8-7.3,7.9-2.5,15c-0.9,3.5-0.9,3.5-1.9,6.9c-16.7-28.9-9.8-57,3.1-85.7
				c2-10,4.5-20,8.8-29c-2.2,10.7-2.7,23.3,2.5,33c-1.1-11.6-1.4-23.1-1.3-34.7c0.2-14-0.2-17.1,4.1-30.6c-0.1,7.8,0.5,16.6,5,23
				c5,7,8.4,3,8.2,1.8c-0.2-1.2-6.4-3.8-6.9-21.9c-0.3-12,1.5-23.7,6.6-34.4c0.9-2,2.3-4.8,3.8-6.2c-6,12.6-0.3,31.6,3.9,32.8
				c5.7,1.6,1.9-4.9,1.1-7.1c1.2-3.6,0.9-7.6,2.2-11.2c1.4-3.7,9.9-11.7,12.3-21.7C156.9,41,156.8,43.2,157.2,45.3z"/>
			<path class="st5" d="M201.9,234.5c-1.2,1.8-2.7,3.3-4.1,5c-1.3-0.1,1-2.5,2.8-5.7c2.1-3.7,4-7.4,5.7-11.4
				c1.8-4.2,3.4-7.9,4.1-12.5c1.9-11.8-1.8-11.4-2.5-13.7c-0.6-1.9,4.2-23.3-18.9-29.6c0.8-14.3-9.9-16.7-10.4-17.8
				c0-6.6-3.3-10.8-7.6-14.8c1,0.3,1.1,0.9,1.3,0.5c-0.3-2.8-0.4-12.9-0.6-13.5c-1-3.3-3,6.3-4.1,7.1c-2.3-11.7-2.3-11.7-4.6-23.3
				c-3.9,8-3.9,8-7.7,16c-0.1-3.9,0.7-6.3,0.6-6.6c-0.2-0.6-0.9,0.4-1.1,0.2c-0.4-0.3-0.5-4-0.8-4.8c-0.4-1.2-2.1-4.7-2.8-8.2
				c-1.8-8.1-2-16.6-3.8-24.8c3-10.5,9.7-19.9,9.8-31.4c1.9,9.6,3.7,15.1,9,23.2c0.7-0.9,1.1-2,1.4-3.2c4-7.3,6-19.2,0.9-26.4
				c2-2.8,6.5,10.4,7.2,14.8c1.2,7.4,0.7,14.9-1.3,22.1c0.6,1.1,2.6,2,2.8,2.5c1.1,2.3,1.3,20.2,0.9,24.2c5.2-3.7,3.6-15.5,2.4-21.6
				c10.6,16.7,5.9,43.1,6.5,63.2c2.9-8,4.3-17.4,4.1-26c0.3,0,0.3,0,0.6,0c3.6,12.5,3.6,12.5,7.2,24.9
				C214.8,170.8,220.3,206.5,201.9,234.5z"/>
			<g>
				<path class="st6" d="M150.6,17.1c3.1,3.5,6.1,7.4,9.1,11c1.6,2,3.5,4,5,6.1c1.2,1.5,2.7,3.1,3.8,4.6c5,7.2,3,19-0.9,26.4
					c1.4-5.5,0.5-15.1-1.3-20.5c-2.5-7.4-13.1-19.3-16.8-27.3c4.9,24.6-14.8,28.6-10.5,48.3c0.5,2.1,1.8,4.2,2.5,6.2
					c0.8,2.3,4.6,8.7-1.1,7.1c-4.2-1.2-9.9-20.2-3.9-32.8c0.3-0.3,0.8-0.3,0.6-1.1c3.3-4,5.9-8.7,8.2-13.5c0.1-0.3,2.1-3,2.5-5.3
					c0.5-3-0.2-6.4,0-9.6c0-0.6-0.2-2.2,0.2-2.5C148.7,15.4,149.7,16.2,150.6,17.1z"/>
				<path class="st7" d="M167.6,65.2c-0.3,1.2-0.7,2.3-1.4,3.2c-5.3-8-7-13.6-9-23.2c-0.4-2-0.3-4.3-1.3-6.2
					c-2.4,10-10.9,18-12.3,21.7c-1.3,3.6-1,7.6-2.2,11.2c-0.8-2-2-4.1-2.5-6.2c-4.3-19.7,15.4-23.7,10.5-48.3
					c3.8,8,14.4,19.8,16.8,27.3C168.1,50.1,168.9,59.8,167.6,65.2z"/>
				<path class="st8" d="M136.4,46.4c0-0.1-0.2-0.8,0.6-1.1C137.2,46,136.8,46,136.4,46.4z"/>
			</g>
			<g>
				<path class="st6" d="M126,87c0.5,18.2,6.7,20.7,6.9,21.9c0.2,1.2-3.1,5.3-8.2-1.8c-4.5-6.4-5.2-15.2-5-23
					c0.1-0.4,0.4-2.1,0.5-2.1C120.5,85.7,122.9,87.9,126,87z"/>
				<path class="st6" d="M115.6,114.8c-0.2,11.6,0.1,23.2,1.3,34.7c-5.2-9.6-4.7-22.3-2.5-33C114.8,115.6,114.6,114.6,115.6,114.8z"
					/>
			</g>
			<linearGradient id="SVGID_1_" gradientUnits="userSpaceOnUse" x1="153.4412" y1="98.4859" x2="142.9932" y2="137.0745">
				<stop  offset="0" style="stop-color:#F9A61A"/>
				<stop  offset="1" style="stop-color:#F37C20"/>
			</linearGradient>
			<path class="st9" d="M155.3,120.8c0.1,4.2,1.7,7.7,2.2,11.8c-4.5-0.5-9.1-0.2-13.2,2.1c-0.6,0.4-3.3,2.8-4.1,3.6
				c-0.4,0.4-1.1,0.6-0.9,1.4c-3.1,1.3-3.6,3.2-6,5.7c0.2-1.5-0.2-3.5-0.6-5.2c1.3-6.1,0.1-12.4,1.3-18.5c1.1-5.7,6.6-14.9,9.8-20
				c0.7-8.5,1.5-17,3.8-25.1c1.8,8.1,2,16.6,3.8,24.8c0.8,3.5,2.5,7,2.8,8.2c0.3,0.9,0.4,4.5,0.8,4.8c0.2,0.2,0.9-0.8,1.1-0.2
				C156,114.5,155.2,116.9,155.3,120.8z"/>
			<path class="st10" d="M131.4,150c-0.7,2.4-1.9,3.4-0.9,9.1c-2.7,1.1-2.6,5.8-3.8,1.4c1.5-2.3,3.4-11.9,3.8-12.5
				C131.7,146.3,131.4,149.4,131.4,150z"/>
			<path class="st11" d="M171,134c-3.4-1.1-8.3-4.6-13.5-1.4c-0.5-4.1-2.1-7.6-2.2-11.8c3.9-8,3.9-8,7.7-16
				c2.3,11.7,2.3,11.7,4.6,23.3c1.1-0.8,3.1-10.4,4.1-7.1c0.2,0.6,0.3,10.7,0.6,13.5C172.2,134.9,172,134.3,171,134z"/>
		</g>
		<g>
			<path class="st12" d="M117.5,191.7c-0.3,0.4-5.6,8.5-5.7,9.1c-0.1,0.8,2.4,6.4,3,6.2c3.2-7.8,3.2-7.8,6.5-15.7
				c0.1,0,0.3-1.2,1.4-0.7c0.6,0.3,1.4,4.3,2.4,5c0,0.8,0,0.8,0,1.6c-2.5,4.5-2.5,4.5-5,8.9c0.7,5.2-1.9,10.8,0.6,15.7
				c2.6,4.9,10.6,3.7,11.8,18c2.3,1,4.7,2,6.9,3.2c2.5,1.4,1.8,4.9,12.6,2.5c2,4.4,2,4.4,3.9,8.7c13.8,5.2,16.5-2.5,17.5-2.7
				c0.6-0.1,0.7,1.4,1.3,1.8c1.6,0.9,8.8-4.1,10.5-5c2.2-1.1,5-1.7,7.2-2.9c-5.6,5.5-12,10.4-19,13.2c-5.2,2.1-13.1,2.8-7.4,2.9
				c0.6,0.8,10.4,0.5,6.1,2.5c-1.4,0.6-2.8-1.8-3.8,1.1c-1.2-1.2-0.6-0.1-0.9,0c-1.4,0.3-26.3,0.2-28.3,0c-1.8-0.2-5-2-7.2-1.8
				c-0.4-2.5,4.7,0.3,3.6-2.1c2.7,0.1,5.6,0.3,8.3,0.7c1.2-0.6-8.9-2.6-9.8-2.9c-12.3-4.1-22.6-12.9-30.1-24.6
				c-1.2-1.9-1.5-3.1-1.6-3.2c0.9-3.5,0.9-3.5,1.9-6.9c-4.8-7,2.3-14.1,2.5-15c0.8-3.4-2.9-2.6,4.7-9.6c-3.6-10.4,2.3-14.3,4.1-17.5
				c2.9-5.1,2.4-9.1,11-11.2c8.3-2.1-1.6,1.5-4.7,6.2c-0.4,0.6-5.8,12.8-5.7,13.5C116.4,191.7,116.7,191.1,117.5,191.7z"/>
			<path class="st13" d="M144.3,138.6c-2.8,3.8-8.2,9.4-5,15c-3,3.6-7.4,11.3-6.3,16.2c0.6,2.7,9,4.1,10.7,6.9
				c-2.9,1.3-6.6,4.7-5.4,8.6c-5.1-0.8-6.1-5.3-15.6,1.4c-1,0.7-4,3.6-4.9,4.6c-0.1,0.1-0.2,0.3-0.3,0.4c-0.8-0.6-1.1,0-1.3-0.9
				c-0.1-0.7,5.3-12.9,5.7-13.5c3.1-4.8,13.1-8.3,4.7-6.2c1.2-10.8,3.9-11,4.1-11.6c0.1-0.4,0.6-8.1,0.6-9.4
				c0.5-1.6,1.6-2.9,1.9-4.6c2.4-2.5,2.9-4.4,6-5.7C140.3,139.3,143.1,138.7,144.3,138.6z"/>
			<path class="st14" d="M138.3,185.3c2.7,0.4,5.1-0.2,7.7,0c7.4,6.3,6.6,5.9,6.5,16c-10.9-0.8-12.5,3.6-13.7,2.9
				c-3.8-10.7-3.9-8.4-13.7-8.6c-0.9-0.7-1.7-4.7-2.4-5c-1.1-0.5-1.3,0.7-1.4,0.7c-1.1,0-2.3-0.1-3.5,0c0.9-1.1,3.9-3.9,4.9-4.6
				C132.2,180,133.2,184.5,138.3,185.3z"/>
			<path class="st15" d="M182.4,235.5c4.8,5.2,3.9,4.1,10.1,6.4c0.8,0.3,1.3,0.1,2.2,1.1c-0.8,0.8-1.4,1.7-2.2,2.5
				c-2.3,1.1-5,1.7-7.2,2.9c-4.4-3.4-5.1-9.7-5-15.3C180.9,233.9,181.6,234.7,182.4,235.5z"/>
			<path class="st16" d="M121.3,191.4c-3.2,7.8-3.2,7.8-6.5,15.7c-0.6,0.2-3.1-5.4-3-6.2c0.1-0.5,5.3-8.7,5.7-9.1
				c0.1-0.1,0.2-0.2,0.3-0.4C119,191.2,120.2,191.4,121.3,191.4z"/>
			<path class="st17" d="M197.8,239.4c-1.1,1.4-2,2.3-3.1,3.6c-0.9-0.9-1.4-0.8-2.2-1.1c0-0.3,0.1-0.3,0.3-0.4
				c3.5-0.5,5.3-5.7,7.2-7.5c0.1-0.1,0.5-0.3,0.6-0.4C198.8,236.9,196.5,239.3,197.8,239.4z"/>
			<path class="st15" d="M173.6,199.2c0.3,1.1,1.3,12-0.3,10.7c-0.4-0.7-5.4-3.9-5.8-3.9c-0.8,0-3.1,2.5-3.9,3.2
				c-0.2-0.4-5.3-6.1-6.1-7.5c-1.6-0.3-3.3-0.2-4.9-0.4c0.2-10.2,0.9-9.8-6.5-16c-2.7-0.2-5,0.4-7.7,0c-1.3-3.9,2.5-7.3,5.4-8.6
				c12.1-5.4,16.3,10.8,17.8,12.1C166.1,190.5,172.2,193.1,173.6,199.2z"/>
			<path class="st13" d="M183.6,205.6c3.1,3.7,4.1,9.7,3.1,14.6c-0.4,1.8-1.7,3.6-2.2,5.3c-1,3.3-2.2,6.2-2.2,10
				c-0.8-0.8-1.5-1.6-2.2-2.5c-0.7-0.8-1.3-1.7-1.9-2.5c-1.7-2.2-3.2-4.7-5.4-6.4c2.2-3.7,2.7-10.6,0.3-14.3
				c1.6,1.3,0.6-9.5,0.3-10.7C176.4,200.9,181.6,203.2,183.6,205.6z"/>
			<g>
				<path class="st16" d="M152.5,201.3c1.6,0.1,3.3,0.1,4.9,0.4c0.8,1.4,5.9,7,6.1,7.5c1.3,2.6-0.6,2.3-1.6,5.2
					c3.7,1.9,6.1,10.8,8.5,13c1.3,1.2,6,3.1,7.9,3.2c0.6,0.8,1.2,1.7,1.9,2.5c0,5.6,0.6,11.9,5,15.3c-1.8,0.9-9,5.9-10.5,5
					c-0.6-0.3-0.6-1.9-1.3-1.8c-0.9,0.2-3.6,7.9-17.5,2.7c-2-4.4-2-4.4-3.9-8.7c-10.8,2.4-10.1-1.1-12.6-2.5
					c-2.2-1.2-4.6-2.2-6.9-3.2c-1.2-14.3-9.2-13-11.8-18c-2.5-4.8,0-10.5-0.6-15.7c2.5-4.5,2.5-4.5,5-8.9c0-0.8,0-0.8,0-1.6
					c9.8,0.1,9.9-2.2,13.7,8.6C140,204.9,141.6,200.6,152.5,201.3z"/>
				<path class="st16" d="M173.2,209.9c2.4,3.7,1.9,10.5-0.3,14.3c-0.3,0.6-2.1,2-2.5,3.2c-2.4-2.2-4.8-11.1-8.5-13
					c1-2.9,2.9-2.6,1.6-5.2c0.9-0.7,3.1-3.2,3.9-3.2C167.8,206,172.8,209.2,173.2,209.9z"/>
			</g>
			<path class="st14" d="M178.3,230.5c-1.8-0.1-6.6-2-7.9-3.2c0.4-1.2,2.2-2.6,2.5-3.2C175.1,225.9,176.5,228.3,178.3,230.5z"/>
			<path class="st18" d="M171.7,172.1c-0.5,4.5-0.5,4.5-0.9,9.1c0.2,0.6,6.8,2.3,8.5,3.7c1.6,1.3,5.3,8.3,5.7,10.3
				c0.4,2.7-0.4,7.6-1.3,10.3c-2.1-2.5-7.2-4.7-10.1-6.4c-1.4-6.1-7.4-8.7-12.1-10.3c-1.5-1.4-5.6-17.6-17.8-12.1
				c-1.7-2.8-10.1-4.3-10.7-6.9c-1.1-4.9,3.3-12.6,6.3-16.2c1.8,3.2,5.8-2.2,13.4,1.1c3,1.3,5.1,4.9,6,8.2
				C169.5,163,168.4,171,171.7,172.1z"/>
			<path class="st19" d="M145.2,139c6.3,0.1,8.7,0.5,13.1,6.1c8-2.6,12.8,4.6,13.8,12.8c0.8,0.7,12.2-1.1,12.1,15.9
				c0.6,1.4,14.4-2.1,13.5,17.3c-2.5,2.7-2.5,2.7-5,5.3c-3.9-0.5-3.9-0.5-7.9-1.1c-0.3-2.1-4.1-9-5.7-10.3c3.8-1.5,0.8-3.6,0.6-4.5
				c0,0,0.4-0.3,0.3-0.7c-0.7-2.4-2.3-4.5-2.5-7.1c-3-0.3-3-0.3-6-0.5c-3.3-1.2-2.2-9.1-13.1-9.3c-0.9-3.3-3-6.9-6-8.2
				c-7.6-3.3-11.6,2.2-13.4-1.1c-3.1-5.6,2.2-11.1,5-15C144.5,138.6,144.6,139,145.2,139z"/>
			<path class="st19" d="M146.8,136.5c-0.5,0.4-2.1,2.3-1.6,2.5c-0.7,0-0.7-0.4-0.9-0.4c-1.2,0-3.9,0.6-5,1.1
				c-0.1-0.8,0.5-1,0.9-1.4C141.7,139.1,144.5,136.6,146.8,136.5z"/>
			<path class="st18" d="M192.8,241.6c-0.2,0-0.3,0-0.3,0.4c-6.2-2.3-5.3-1.2-10.1-6.4c0-3.7,1.2-6.7,2.2-10
				C190.5,229.6,191.9,234.2,192.8,241.6z"/>
			<path class="st20" d="M207.9,199.2c0.7,2.6,2.3,5.1,2.5,10.7c-0.7,4.6-2.3,8.3-4.1,12.5c-1.2-3.6-4.1-5.7-6.9-7.5
				c1.4-8.8-1.2-12.7-6.6-18.5c2.5-2.7,2.5-2.7,5-5.3C201.3,193.5,204.9,195.9,207.9,199.2z"/>
			<path class="st6" d="M171,134c4.2,4,7.6,8.2,7.6,14.8c0.5,1.1,11.2,3.5,10.4,17.8c23.1,6.2,18.3,27.6,18.9,29.6
				c0.7,2.3,4.4,1.9,2.5,13.7c-0.2-5.6-1.8-8.1-2.5-10.7c-0.4-1.3-0.7-2.9-1.3-3c1.7-2.9,0.4-5.8,0.9-8.9c-1.1,0.3-1.2-3.1-1.9-5
				c-3.1-7.8-10-14-17.6-14.1c1.6-13.6-9.6-17-10.1-18c-0.6-10.4-10.1-18.7-19-14.4c-2.7-1.4-6-2.3-9-2.1c-1.7,0.1-4.2,1.9-5.7,1.1
				c4.2-2.3,8.7-2.6,13.2-2.1C162.7,129.4,167.7,132.9,171,134z"/>
			<path class="st21" d="M206.3,222.3c-1.7,4-3.6,7.7-5.7,11.4c-0.2,0-0.5,0.3-0.6,0.4c-0.2-3.6-1.5-7.9-4.4-10
				c1.4-3,3.2-5.8,3.8-9.3C202.2,216.7,205,218.7,206.3,222.3z"/>
			<path class="st19" d="M195.6,224.1c3,2,4.2,6.4,4.4,10c-1.9,1.8-3.7,7-7.2,7.5c-0.9-7.3-2.3-12-8.2-16c0.5-1.7,1.8-3.6,2.2-5.3
				C188.7,221.6,194.9,223.6,195.6,224.1z"/>
			<path class="st8" d="M150,133.6c0,1.3-2.1,1.9-3.1,2.9c-2.3,0.1-5.2,2.6-6.6,1.8c0.8-0.8,3.4-3.2,4.1-3.6
				C145.8,135.5,148.3,133.7,150,133.6z"/>
			<path class="st19" d="M192.8,196.3c5.4,5.8,8,9.7,6.6,18.5c-0.5,3.4-2.4,6.2-3.8,9.3c-0.7-0.5-6.9-2.5-8.8-3.9
				c1-4.9,0-10.9-3.1-14.6c0.8-2.7,1.7-7.7,1.3-10.3C188.8,195.8,188.8,195.8,192.8,196.3z"/>
			<path class="st19" d="M179.2,184.9c-1.7-1.4-8.3-3.2-8.5-3.7c0.5-4.5,0.5-4.5,0.9-9.1c3,0.3,3,0.3,6,0.5c0.3,2.6,1.8,4.7,2.5,7.1
				c0.1,0.4-0.3,0.7-0.3,0.7C180.1,181.3,183,183.4,179.2,184.9z"/>
			
				<linearGradient id="SVGID_00000081638674545399071800000001647834080341497743_" gradientUnits="userSpaceOnUse" x1="152.3011" y1="155.3323" x2="209.1214" y2="174.3953">
				<stop  offset="0" style="stop-color:#D4C0B2"/>
				<stop  offset="1" style="stop-color:#EBDFD3"/>
			</linearGradient>
			<path style="fill:url(#SVGID_00000081638674545399071800000001647834080341497743_);" d="M188,168.2c0,0.1-0.7,0-0.2,1.4
				C188,168.9,188,168.9,188,168.2c7.7,0.1,14.6,6.3,17.6,14.1c0.7,1.9,0.7,5.3,1.9,5c-0.5,3.1,0.7,6-0.9,8.9c0.6,0.1,0.9,1.7,1.3,3
				c-3-3.3-6.6-5.6-10.1-8.2c0.9-19.4-13-15.8-13.5-17.3c0.1-17-11.3-15.1-12.1-15.9c-1.1-8.2-5.9-15.5-13.8-12.8
				c-4.3-5.6-6.8-5.9-13.1-6.1c-0.5-0.2,1.1-2.1,1.6-2.5c1.1-1,3.1-1.6,3.1-2.9c3-0.2,6.3,0.8,9,2.1c9-4.3,18.5,4,19,14.4
				C178.4,151.2,189.6,154.6,188,168.2z"/>
			<path class="st23" d="M188,168.2c-0.1,0.7-0.1,0.7-0.2,1.4C187.4,168.2,188,168.3,188,168.2z"/>
		</g>
	</g>
</g>
</svg>
