<?xml version="1.0" encoding="utf-8"?>
<!-- Generator: Adobe Illustrator 28.2.0, SVG Export Plug-In . SVG Version: 6.00 Build 0)  -->
<svg version="1.0" id="Layer_1" xmlns="http://www.w3.org/2000/svg" xmlns:xlink="http://www.w3.org/1999/xlink" x="0px" y="0px"
	 viewBox="0 0 400 400" style="enable-background:new 0 0 400 400;" xml:space="preserve">
<style type="text/css">
	.st0{display:none;}
	.st1{display:inline;fill:url(#SVGID_1_);}
	.st2{display:inline;fill:#738674;}
	.st3{fill:#F3F5F1;}
	.st4{fill:#416333;}
	.st5{fill:#061B0A;}
	.st6{fill:#487335;}
	.st7{fill:#D6D8D2;}
	.st8{fill:#709A47;}
	.st9{fill:#648943;}
	.st10{fill:#173312;}
	.st11{fill:#33502B;}
	.st12{fill:#BAC3B0;}
	.st13{fill:#20571F;}
	.st14{fill:#C9EEBD;}
	.st15{fill:#749671;}
	.st16{fill:#ECF7E1;}
	.st17{fill:#1A2D1D;}
	.st18{fill:#D8E4C5;}
	.st19{fill:#959788;}
	.st20{fill:#95BD7D;}
	.st21{fill:#192305;}
	.st22{fill:#ABBE9F;}
</style>
<g>
	<g id="Background_00000149369825984324576120000007346555257238381195_" class="st0">
		<linearGradient id="SVGID_1_" gradientUnits="userSpaceOnUse" x1="9.6359" y1="-3.1411" x2="390.2595" y2="403.0294">
			<stop  offset="0" style="stop-color:#E8E9E1"/>
			<stop  offset="0.7165" style="stop-color:#B0BEAF"/>
			<stop  offset="0.9411" style="stop-color:#96A995"/>
		</linearGradient>
		<path class="st1" d="M400,0c0,200,0,200,0,400c-200,0-200,0-400,0C0,200,0,200,0,0C200,0,200,0,400,0z"/>
		<path class="st2" d="M103.5,317.2c71.3,55.9,163.3,42.6,218.8-27.9c40-50.9,35.8-124.5,1.2-177.1c15.4,18,25.3,27.8,35.2,50.2
			c14.7,33.4,18.5,57.5,7,93c-22.9,70.9-98,130.5-174.8,113.5c-17.5-3.9-45.3-14.5-59.8-25C121,336.5,112.1,326,103.5,317.2z"/>
	</g>
	<g>
		<path class="st3" d="M323.4,112.1c34.6,52.6,38.9,126.2-1.2,177.1c-55.4,70.5-147.5,83.8-218.8,27.9c-9-9.3-18.1-17.8-25.8-28.3
			c-58.1-80.2-26.1-190,63.9-229.1c58.6-25.4,129.1-8.7,171.3,38.9C316.6,102.9,319.7,107.8,323.4,112.1z"/>
		<g>
			<path class="st4" d="M385.3,127.9c11.8,34.3,2.9,16.1-20.8,9c-4.5-1.4-35.5-7.4-38-6.8c-0.4,0.1,0,1.1-0.8,1.1
				c-2.2-1.9-4.3-4-6.6-5.8c-1-0.2-0.5,0.7-1.3,1.1c-2.2,1-2.9,2.1-4.2,3.9c-1.3,1.8-19.5,34.7-21.1,38.2
				c-5.7-11.3-19.6-64.4-22.2-68.5c-0.1-0.2,0.4-1.4-0.8-2.1c-3.2-0.7-3.8,0-4,0c-1.3-0.1-1.4-0.1-2.6,0c-1.4,0.1-8.6-0.3-9,0.3
				c-0.2,8-1,16-1.6,24c-8.6-19.4-20.7-37.4-38-50c-2.5-0.6-11.7,0.1-14.8,0.5c-0.8,0.1-1.8,0.2-2.4-0.5c-0.9,0.7-0.9,0.7-1.8,1.3
				c-3.4,26.7-5.5,53.9-5.3,80.8c-3.2,1.8-9.3,4-13.2,5.8c4.1-35.4,13.4-101.2,23.2-133.5c3.4-11.2,6.8-20.8,18.5-25.5
				C293.5,8.1,360.5,56,385.3,127.9z"/>
			<path class="st4" d="M335.6,345.9c-42.5,39.1-91.7,56.8-149.6,53.7c-28-1.5-48.9-8.3-73.6-20.5c0.6-0.9-3-4.7-5.3-8.2
				c-3.5-5.3-6.5-11-9.5-16.6c5.4,1,11.4,1.4,16.9,2.1c-1,1.2,0.7,2,1.8,2.6c16.4,9,60.4,27.1,78.1,27.9c25.9,1.1,68.7-17.8,92.1-30
				c8.7-1.9,17.5-3.6,26.1-5.8c3.5-0.9,22-7.4,23.2-7.4C337.9,343.9,334.3,345.5,335.6,345.9z"/>
			<path class="st5" d="M240.6,224.8c-1.1,7.3-2.5,14.6-3.7,21.9c4,4.2,8.5,8.1,13.7,10.8c2.6,3,6.4,4.2,9.5,6.3
				c5.1,3.5,11.7,6.9,13.2,9.5c1.5,6.3-1.6,34.3,0.5,42.7c0.3,1-1.1,1.2,0.3,2.1c2.5,0.1,5.1-0.1,7.7,0c1.2,0,2.5,0,3.7,0
				c21.6,0.4,43.3,0.1,64.9,0c3.7,0,7.5,0.3,11.1-0.5c-2.1,2.7-4.1,5.3-6.3,7.9c-49.5-0.3-49.5-0.3-99-0.5c-0.5-0.4-0.2-2.9-0.3-3.7
				c-0.1-1.4,0.3-8.5-0.3-9c-5.9,0.5-11.8-0.5-17.7-0.5c0.4-7.1,0.4-7.1,0.8-14.2c12.1,0,12.1,0,24.3,0c0.9,0.7-0.3,16.4,0.3,17.6
				c0.5,1.1,3.3,1,3.7,0.5c1.1-1.6-1.5-33.6-0.5-38.4c-9.3,0.2-18.8-0.9-28-0.8c-0.3-6.8,0.4-13.7,0-20.5c-0.2-3.2,0.6-6.4-0.8-7.4
				c-5.4-0.1-5.4-0.1-10.8-0.3c-1.6-17-3.6-33.9-5.3-50.8c8.8-3.6,21.5-49.2,24.8-51.3c0.6-0.4,2.8-0.5,3.2,0
				c-2.1,26.1-4.6,52.3-10,77.9C240.1,224.4,240.1,224.4,240.6,224.8z"/>
			<path class="st6" d="M97.6,354.4c3,5.6,6,11.3,9.5,16.6c2.2,3.4,5.9,7.2,5.3,8.2c-21.8-10.8-29.5-16.1-47.5-32.7
				C75.9,348.5,86.6,352.4,97.6,354.4z"/>
			<path class="st5" d="M197.3,107.9c-2.5,46-7.8,91.8-13.7,137.5c-4.2-2-8.3-4.1-12.4-6.3c-3-1.6-2.7-2.5-2.9-2.6
				c-2.5-23.5-3.1-47.1-4.2-70.6c4.3-1.8,8.4-3.9,12.7-5.8c3.9-1.8,10-4,13.2-5.8c0.1-0.1,1.6,0,2.4-0.5c0.7-1.4,0.7-1.4,1.3-2.9
				c0.5-7,2-41.1,2.6-43.2C196.5,107,196.9,107.9,197.3,107.9z"/>
			<path class="st7" d="M164.1,165.8c1.2,23.5,1.8,47.1,4.2,70.6c-0.3-0.2-0.7,0.6-0.8,0.5c-1.5-0.8-9.7-6.2-10.3-6.3
				c0.2-25.5,3.3-70.2,1.6-93.2c2.1,0.4,2.1,0.4,4.2,0.8C162.3,147.4,163.6,156.6,164.1,165.8z"/>
			<g>
				<path class="st8" d="M218.5,1c-11.7,4.7-15.1,14.4-18.5,25.5c-9.8,32.3-19.1,98.1-23.2,133.5c-4.2,1.9-8.4,4-12.7,5.8
					c-0.5-9.2-1.8-18.4-1.1-27.6c-2.1-0.4-2.1-0.4-4.2-0.8c0-0.2-0.9-3.3-1.1-4.7c0.8,0.3,2-1.2,2.1-1.6c0.4-1,1.3-20.3,1.1-21.3
					c-0.3-1.2-5.2-6.6-5.3-7.9c-0.1-0.7,3.6-11.2,3.2-14.2c-6.2-6.5-6.2-6.5-12.4-12.9c-1.8-0.6-5.4,0.5-7.9,1.1
					c-18.2,4-4.6,3.3,0.3,14c-1.8,6.1-1.8,6.1-3.7,12.1c5.3,3.2,5.3,3.2,10.6,6.3c2.1,15,6.2,17.6,9,23.2c7.6,15-11-8.4-12.1-21.1
					c-4.5-4.4-12.8-2.5-10.8-10.8c-3.4,3.7-7.3,13.8-13.7,10.5c-2.8-1.4-2.7-11.5-4-14c-3.4-6.6-15.8,0.2-13.2-14.2
					c0.8-4.2,15.5-16.2,16.6-16.6c1.2-0.4,11.7,1.6,5-8.7c-4.3-6.6-12.1-5-12.7-6.3c-2-28.2,54.6-25.4,42.2-3.7
					c0.3,1.7,15.4,7.3,5,22.9c4-22.3-16.9-24.1-33-16.6c6.8,5.4,0.8,12,1.1,12.6c0.2,0.7,4.3,1.5,5,1.3c1-0.2,4.4-5.2,4.8-5.3
					c0.5-0.1,7,4.4,7.4,4.2c0.6-0.2,2.1-8,9.5-1.6c6.8,5.9-3.5,8.3,9.2,20.8c-0.4,6.5,1,7.7,1.1,0.5c-3.4-4.5-3.4-4.5-6.9-9
					c-1.4-5.6,16.4-17.3-1.6-30c7.7-16.4-17.7-21-30.9-16.1c-5.4,2-31.4,22.2-33,32.9c-0.7,4.8,0.1,10.2,4.2,13.2
					c-2.8,4-3,10-0.5,14.2c4.4,7.4,11.6-0.5,17.7,5.5c4,3.9,1,11.6,5.8,15.3c11.6,2.4,11.6,2.4,23.2,4.7c2,2.7,14.2,18.6,14.5,19.7
					c0.9,2.9-1.6,1.3-2.1,2.1c-0.8,1.4-0.3,26.2-0.5,31.9c-18.7,8.4-18.7,8.4-37.5,16.9c-4.2-6-12-12.4-18.5-15.8
					c-5.6-3-10.6-4.2-16.1-6.8c-32.6,10.7-53.1,39.7-45.7,74.5c1.4,6.5,4.6,12.7,7.4,18.7c0,0.1,0,0.5,0.5,1.6
					c3.2,20.3,17.1,34,33.3,45.3c0.1,3.1-0.1,6.3,0,9.5c-4-0.1-33.4,0-35.1,0.5c-0.5,0.2-0.1,1.5-0.3,1.6c-0.8,0.6-1.1-0.5-1.1,1.1
					c-12.9-17.7-21.4-31.3-28.5-52.4c-27.9-82.6,1.1-176.1,72.6-226.7C123.7,9,168.6-3.8,218.5,1z"/>
				<path class="st3" d="M113.2,79.4c5.9-0.9,20.4,7.1,20.8,8.7c-0.5,13.5-6.2,13.1-4.2,4.7c-10.3-5.2,3.4,10.5-10.6,13.2
					c-1.6-22.9-12.6-14.4-14.3-17.9C103.3,84.7,110.3,79.9,113.2,79.4z"/>
				<path class="st3" d="M117.4,68.4c11.1-3.8,8.1,11.2,4.8,10.5c-2.8-0.6,7.8-12-5.8-7.9C115.4,70.5,116.8,68.6,117.4,68.4z"/>
			</g>
			<path class="st5" d="M252.2,122.1c-3,40.7-5.5,62.4-11.6,102.7c-0.5-0.4-0.5-0.4-1.1-0.8c5.4-25.7,8-51.8,10-77.9
				c-0.4-0.5-2.6-0.4-3.2,0c-3.3,2.1-16,47.7-24.8,51.3c-3.9-40.1-6.7-80.3-7.4-120.6c0-2.4,0-2.4,0-4.7
				C231.5,84.7,243.7,102.7,252.2,122.1z"/>
			<path class="st5" d="M292.4,168.5c-6.2,13-11.4,25.5-12.1,40c-0.2,4.9,0.6,9.9-0.5,14.7c-0.8-9.8,0.8-9.7-6.3-17.1
				c-0.6-2.7,2.5-5.4,1.6-11.1c-2.4-47.5-2.4-47.5-4.8-95.1C272.8,104.1,286.7,157.2,292.4,168.5z"/>
			<path class="st9" d="M316.6,129c-8.6,20.3-21.1,50-26.4,70.6c-0.9,3.5-1.9,7-2.6,10.5c-3.7-0.8-3.7-0.8-7.4-1.6
				c0.7-14.5,5.9-27,12.1-40c1.7-3.4,19.8-36.4,21.1-38.2c1.3-1.8,2-3,4.2-3.9C317.7,127.3,317,128.1,316.6,129z"/>
			<path class="st10" d="M199.5,72.6c-2,11.2-1.5,23.6-2.1,35.3c-0.4,0.1-0.9-0.9-1.1-0.3c-0.6,2.1-2.1,36.2-2.6,43.2
				c-0.7,1.4-0.7,1.4-1.3,2.9c-0.8,0.5-2.3,0.5-2.4,0.5c-0.2-27,1.9-54.1,5.3-80.8c0.9-0.7,0.9-0.7,1.8-1.3
				C197.6,72.8,198.7,72.7,199.5,72.6z"/>
			<g>
				<path class="st11" d="M361.5,317.5c-3.6,0.8-7.4,0.5-11.1,0.5c-1-1.9-4.8-2.7-4-5.3c-11.5,4.9-24.9,3.2-37.2,2.6
					c0.5-1.9,4.8-3.1,6.9-3.4c-3.9-24.1-5.5,1-9.8,2.9c-1.4-0.4-2.7,0.3-4,0.5c-5.4,1-10.9,0.3-16.4,0.5c0.6-4.9-3.6-1-4.8-4
					c-1-2.7,0.2-49.3,0-57.4c-0.2-8-1-16.4-1.6-24.5c2.4,0.3,2.4,0.3,4.8,0.5c-0.1,1.1-1.3,2.8,0,6.6c3,4.2,23,35.4,25.1,36.1
					c0.2,0.1,3.9-0.1,4-0.3c0.6-1.1,0.2-23,0-24.2c-0.6-3.3-20.2-40.3-22.7-49.2c0.6,0,0.6-0.8,1.1-0.3c1.6,2,18.1,39.9,23.2,46.3
					c3.5-27.6-7.2-37.8-15-61.4c0.3,1.8,2.2,3,2.4,3.2c3.7,5.8,12.6,26.3,15.6,34.2c2.9,0.7,1.3-54.5,2.4-58.2
					c0.3,13.7,0.3,13.7,0.5,27.4c0.6,2.1,7.1-6.8,11.6-11.8c-3.9,5.3-7.7,10.8-11.6,16.1c-0.5,9.7-0.5,9.7-1.1,19.5
					c0.3,0.4,0.8,0.4,1.1,0c3.9-6.8,3.8-12.8,15.8-29.2c-1.8,4.3-6.6,11.2-9.5,18.2c-4.8,11.6-8.1,24.3-8.4,36.9
					c11.9-12.5,21.7-26.9,33.8-39.2c-10.9,14.5-22.2,28.6-33.3,42.9c-2.2,37.5-5.6,23.8,14.8,1.6c6.8-7.4,14.6-13.4,22.7-19.2
					c-12.9,11.6-25.4,22.6-33.8,38.2c-0.9,1.6-9.3,17.6-5.5,18.2c10.9-10.2,22.9-18.9,35.1-27.4c-7.4,6.7-15.5,12.8-22.7,19.7
					c0.3,6.1,0.3,6.1,0.5,12.1c57.3-40.4,43.7-114.5-4.8-156.2c0.8,0.1,0.4-1,0.8-1.1c2.5-0.6,33.5,5.5,38,6.8
					c23.7,7.2,32.7,25.4,20.8-9c23.1,53.7,19.2,125.9-12.7,175.6C369.3,308.6,365.2,312.8,361.5,317.5z"/>
				<path class="st5" d="M343.8,280.6c1.1-0.2,0.5,0.8,0.3,1.3c-3.9,8-18.5,22.1-26.7,27.1c-0.4-0.1-1.9-5.8-1.8-6.1
					C316.1,301.3,341.9,285.6,343.8,280.6z"/>
				<path class="st5" d="M286.3,243.8c8.2,13.7,8.2,13.7,16.4,27.4C294.6,271.9,288.6,251.5,286.3,243.8z"/>
				<path class="st5" d="M309.2,315.4c-2.3-0.1-4.6,0.1-6.9,0c1.3-0.3,2.5-0.9,4-0.5c4.3-1.9,5.9-27,9.8-2.9
					C314,312.3,309.7,313.5,309.2,315.4z"/>
				<path class="st10" d="M311.1,285.9c2.3,4.1,4.4,5.4,2.1,10C312.1,290.9,312.1,290.9,311.1,285.9z"/>
			</g>
			<path class="st12" d="M238,311.7c5.8,0.1,11.8,1.1,17.7,0.5c0.6,0.4,0.1,7.5,0.3,9c-8,0.2-27.9,1.4-34.3,0.5
				c-2.1-0.3-3.5-0.8-4.8-2.6c1.8,1.2,2.1-5,2.1-6.8c5.4,0.6,11-0.5,16.4-0.5C236.2,311.7,237.1,311.7,238,311.7z"/>
			<path class="st6" d="M286.5,357c-23.4,12.3-66.2,31.1-92.1,30c-17.8-0.8-61.8-18.9-78.1-27.9c-1.1-0.6-2.9-1.5-1.8-2.6
				C167.7,363,232.8,361,286.5,357z"/>
			<g>
				<path class="st3" d="M214.2,72.1c0,2.4,0,2.4,0,4.7c-2.1-2.6-5.9-3-9-1.3c1,17.5,0.2,35.2,1.1,52.7c0.3,5.6,2.4,9.6,2.6,14.7
					c0.6,11.1-0.2,24.6,0.5,35.3c1.6,24.4,5.5,48.5,10.6,72.4c-8.4-0.2-16.9,0.1-25.3,0c-1.8-0.5-1.8-0.5-3.7-1.1
					c-3.3-1.2-7-4-7.4-4.2c5.9-45.7,11.2-91.5,13.7-137.5c0.6-11.7,0.2-24.1,2.1-35.3C202.5,72.2,211.8,71.5,214.2,72.1z"/>
				<path class="st7" d="M214.2,76.8c0.7,40.3,3.5,80.5,7.4,120.6c1.7,17,3.7,33.9,5.3,50.8c5.4,0.1,5.4,0.1,10.8,0.3
					c1.4,1,0.6,4.2,0.8,7.4c-0.8,0.1-1,1-1.1,1.1c-0.1,0-0.5-0.1-1.6,0.5c0.1-0.4-0.1-0.5-0.5-0.5c3.9-8.6-1.5-6.1-15.3-6.3
					c-5.1-23.9-9-48-10.6-72.4c-0.7-10.7,0.1-24.2-0.5-35.3c-0.3-5.1-2.4-9.2-2.6-14.7c-0.9-17.5,0-35.1-1.1-52.7
					C208.3,73.9,212.1,74.2,214.2,76.8z"/>
			</g>
			<path class="st13" d="M238.5,276.4c-7.5,0.1-15.2,0.8-22.7,0.8c0.7,9.3-0.9,34.8,0,39.8c-2.6,0.5-6.2-2.4-7.4-2.6
				c0.3-19.6,0.3-19.6,0.5-39.2c0.4-0.7,1.5-1.2,1.6-1.3c9.1,2.1,17.5,3.4,27.2,2.1c-0.1-9.5-0.1-9.5-0.3-19c0.1,0,0.2-1,1.1-1.1
				C238.9,262.7,238.3,269.6,238.5,276.4z"/>
			<g>
				<path class="st7" d="M270.2,100c2.4,47.5,2.4,47.5,4.8,95.1c0.9,5.7-2.2,8.3-1.6,11.1c7.1,7.4,5.5,7.3,6.3,17.1
					c0.2,2.3-0.2,4.6,0,6.8c0.5,8.1,1.3,16.5,1.6,24.5c0.2,8.1-1,54.7,0,57.4c1.1,2.9,5.4-0.9,4.8,4c0,0.1-0.8-0.3-0.5,2.1
					c-1.2,0-2.5,0-3.7,0c-0.9-4.1-1.5-5.1-5.3-3.2c0-20.7,0-20.7,0-41.3c-1.6-0.1-1.6-0.1-3.2-0.3c-1.5-2.6-8.1-6-13.2-9.5
					c2.1-0.4,11.2-2.9,11.6-4.5c-8.3-53.3-8.4-107.6-6.3-161.4c0.2,0,0.8-0.7,4,0C270.6,98.6,270.1,99.8,270.2,100z"/>
				<path class="st3" d="M265.4,97.9c-2.1,53.8-2,108.1,6.3,161.4c-0.4,1.6-9.5,4.1-11.6,4.5c-3.1-2.2-6.9-3.3-9.5-6.3
					c-0.2-0.2-0.6-1.4-2.6-2.9c5-44.3,7.6-88.9,11.6-133.2c4.9,0.5,1.6-13.6,3.2-23.4C264.1,97.8,264.1,97.8,265.4,97.9z"/>
				<path class="st3" d="M262.8,97.9c-1.6,9.9,1.7,23.9-3.2,23.4c-4,44.4-6.6,89-11.6,133.2c2.1,1.5,2.4,2.7,2.6,2.9
					c-5.2-2.7-9.7-6.6-13.7-10.8c1.2-7.3,2.6-14.6,3.7-21.9c6.2-40.3,8.6-62,11.6-102.7c0.6-8,1.4-15.9,1.6-24
					C254.2,97.6,261.4,98,262.8,97.9z"/>
				<path class="st3" d="M276.5,314.9c-0.9,0.5-1.4,1.4-2.6,1.1c-2.2-8.4,1-36.3-0.5-42.7c1.6,0.1,1.6,0.1,3.2,0.3
					C276.5,294.2,276.5,294.2,276.5,314.9z"/>
			</g>
			<path class="st4" d="M281.8,318c-2.5-0.1-5.1,0.1-7.7,0c-1.4-0.9,0-1.1-0.3-2.1c1.3,0.4,1.7-0.6,2.6-1.1
				C280.3,312.9,280.9,313.9,281.8,318z"/>
			<g>
				<path class="st11" d="M355.2,325.4c-4.7,5.4-9.1,10.2-14.3,15.3c-94.5,0.7-189,1.2-283.4-0.5c-4.8-5-8.4-10.4-12.7-15.8
					c88,0,88,0,176,0c0.4-1.3,0.4-1.3,0.8-2.6c6.4,0.9,26.3-0.3,34.3-0.5c0.1,0.8-0.3,3.3,0.3,3.7
					C305.7,325.1,305.7,325.1,355.2,325.4z"/>
				<path class="st5" d="M340.9,340.7c-1.8,1.8-3.4,3.5-5.3,5.3c-1.3-0.4,2.3-2,0.3-2.1c-1.2-0.1-19.7,6.5-23.2,7.4
					c-8.6,2.2-17.4,3.9-26.1,5.8c-53.8,4-118.8,6-172.1-0.5c-5.5-0.7-11.5-1.1-16.9-2.1c-11-2-21.7-5.9-32.7-7.9
					c-2.4-2.2-5-3.9-7.4-6.3C151.9,341.9,246.4,341.4,340.9,340.7z"/>
				<path class="st8" d="M192.1,314.9c1.7-0.1,3.7,0.2,5.3,0c2.8,2.9,1.3-2,8.2,1.1c0.5-0.1,0.2-1,0.3-1.1c3,3.2,3,3.2,6.1,6.3
					c-84.8,0-84.8,0-169.7,0c-1.1-1.4-2.1-2.7-3.2-4.2c-0.1-1.6,0.3-0.4,1.1-1.1c6.4,0.5,40,1.3,42.8,0c0.5-0.2,1-0.4,1.1-1.1
					c0.9,0.4,1.6,1.5,1.8,1.6c3.2,0.7,15.2-0.5,19.8-0.5c28.1-0.4,56.3-0.8,84.5-1.6C190.1,314.3,190,315,192.1,314.9z"/>
				<path class="st10" d="M207.9,314.3c0.2,0,0.4,0,0.5,0c1.2,0.2,4.8,3.1,7.4,2.6c0.2,1.2,0.5,1.2,1.1,2.1c1.2,1.8,2.7,2.3,4.8,2.6
					c-0.4,1.3-0.4,1.3-0.8,2.6c-88,0-88,0-176,0c-0.9-1.1-1.7-2-2.6-3.2c84.8,0,84.8,0,169.7,0c-3-3.2-3-3.2-6.1-6.3
					C205.9,314.8,205.2,314.4,207.9,314.3z"/>
				<path class="st14" d="M77,313.8c2.1,0.2,4.3,0.6,5.8,2.1c-2.8,1.3-36.4,0.5-42.8,0c0.1-0.1-0.3-1.4,0.3-1.6
					c1.7-0.5,31.1-0.6,35.1-0.5C75.9,313.8,76.9,313.8,77,313.8z"/>
				<path class="st15" d="M350.4,318c-21.6,0.1-43.3,0.4-64.9,0c-0.3-2.4,0.5-2,0.5-2.1c5.5-0.2,10.9,0.5,16.4-0.5
					c2.3,0.1,4.6-0.1,6.9,0c12.3,0.6,25.8,2.3,37.2-2.6C345.6,315.3,349.4,316.1,350.4,318z"/>
				<path class="st16" d="M90.2,313.3c2.8,0,5.6-0.1,8.4,0c2.2,0.1,4.6,0.5,6.9,0.5c0,0.9,1.9-0.1,0,2.1c-4.6,0.1-16.6,1.3-19.8,0.5
					c-0.2-0.1-1-1.2-1.8-1.6c-1.2-0.5-1.8-1.1-2.6-2.1C84.2,313.6,87.2,313.2,90.2,313.3z"/>
			</g>
			<g>
				<path class="st3" d="M159.9,131.1c-1.6-6.2-1.1-18.7-1.6-21.3c-0.1-0.6-4.9-9.7-5.8-11.6c-0.4-0.9,0.8-1.6,0.5-2.1
					c-0.1-0.2-3.6-2.1-4-1.8c-1.2,0.7,4.7,15.7,6.6,17.1c-0.8,7.3,1.4,14.1,2.1,21.3c0.1,1.4,1,4.5,1.1,4.7
					c1.7,23.1-1.4,67.7-1.6,93.2c-4.8-0.1-9.9,5.3-14.3,5.3c-0.8,0-1.6,0.2-1.6-0.5c1.3-0.8,8.2-4.2,8.4-5
					c0.2-20.1,1.3-40.2,2.1-60.3c0.2-5.7-0.3-30.5,0.5-31.9c0.5-0.8,3,0.8,2.1-2.1c-0.4-1.2-12.5-17.1-14.5-19.7
					c-11.6-2.4-11.6-2.4-23.2-4.7c-4.8-3.7-1.8-11.3-5.8-15.3c-6.1-6.1-13.3,1.9-17.7-5.5c-2.5-4.2-2.3-10.2,0.5-14.2
					c-4.1-2.9-4.9-8.4-4.2-13.2c1.6-10.7,27.6-30.9,33-32.9c13.1-4.9,38.6-0.3,30.9,16.1c17.9,12.7,0.2,24.4,1.6,30
					c3.4,4.5,3.4,4.5,6.9,9c-0.1,7.2-1.5,6-1.1-0.5c-12.7-12.5-2.4-14.9-9.2-20.8c-7.4-6.4-8.9,1.4-9.5,1.6
					c-0.4,0.2-6.9-4.3-7.4-4.2c-0.4,0.1-3.8,5-4.8,5.3c-0.7,0.2-4.8-0.6-5-1.3c-0.2-0.7,5.8-7.2-1.1-12.6c16.1-7.5,36.9-5.7,33,16.6
					c10.4-15.6-4.8-21.2-5-22.9c12.3-21.7-44.2-24.6-42.2,3.7c0.6,1.3,8.3-0.3,12.7,6.3c6.7,10.3-3.8,8.3-5,8.7
					c-1.1,0.4-15.9,12.4-16.6,16.6c-2.6,14.4,9.8,7.6,13.2,14.2c1.3,2.5,1.2,12.5,4,14c6.4,3.3,10.3-6.8,13.7-10.5
					c-1.9,8.3,6.4,6.4,10.8,10.8c1.2,12.7,19.7,36,12.1,21.1c-2.8-5.5-6.8-8.2-9-23.2c-5.3-3.2-5.3-3.2-10.6-6.3
					c1.8-6.1,1.8-6.1,3.7-12.1c-4.9-10.6-18.4-10-0.3-14c2.6-0.6,6.1-1.6,7.9-1.1c6.2,6.5,6.2,6.5,12.4,12.9
					c0.5,3-3.2,13.5-3.2,14.2c0.1,1.3,5,6.7,5.3,7.9C161.2,110.8,160.2,130.1,159.9,131.1z"/>
				<path class="st9" d="M159.9,131.1c-0.2,0.4-1.3,1.9-2.1,1.6c-0.7-7.2-2.9-14-2.1-21.3c-1.9-1.5-7.8-16.4-6.6-17.1
					c0.4-0.2,3.9,1.7,4,1.8c0.2,0.5-0.9,1.2-0.5,2.1c0.9,1.9,5.7,11,5.8,11.6C158.8,112.3,158.3,124.9,159.9,131.1z"/>
				<path class="st8" d="M109.5,55.2c4.6-1.1,9.1,1.7,10.8,6.1c-32.4,23.2-18.1,26.8-19.5,30.5c-2.7,7-17.9-15.3,5.3-21.1
					C107,69.7,101.3,57.2,109.5,55.2z"/>
				<path class="st8" d="M108.4,42.6c0.1,3.8,0.1,3.8,0.3,7.6c-0.4,1.2-14.6,4.3-9.5,20.5c-2.5,2.2-2.5,2.2-5,4.5
					C84.8,62.1,98.4,50.3,108.4,42.6z"/>
			</g>
			<g>
				<path class="st5" d="M302.4,187.4c-0.1-0.2-2.1-1.4-2.4-3.2c7.9,23.6,18.6,33.8,15,61.4c-5.1-6.4-21.6-44.3-23.2-46.3
					c-0.4-0.6-0.4,0.2-1.1,0.3c-0.3,0-0.3,0-0.5,0c5.3-20.6,17.8-50.3,26.4-70.6c2.1,9.4,1.6,20.3,2.1,30.3
					C313.6,166.6,307.7,184.5,302.4,187.4z"/>
				<path class="st5" d="M284.4,230.6c0.3-3.9,2.3-16.3,3.2-20.5c0.7-3.5,1.8-7.1,2.6-10.5c0.3,0,0.3,0,0.5,0
					c2.5,9,22.1,46,22.7,49.2c0.2,1.2,0.6,23.2,0,24.2c-0.1,0.2-3.8,0.3-4,0.3c-2.1-0.7-22-31.9-25.1-36.1
					C283.2,233.4,284.4,231.7,284.4,230.6z"/>
				<path class="st4" d="M287.6,210.1c-0.9,4.2-2.9,16.7-3.2,20.5c-2.4-0.3-2.4-0.3-4.8-0.5c-0.2-2.3,0.2-4.6,0-6.8
					c1.1-4.8,0.3-9.9,0.5-14.7C283.9,209.3,283.9,209.3,287.6,210.1z"/>
				<g>
					<path class="st5" d="M325.6,131.1c48.4,41.7,62.1,115.8,4.8,156.2c-0.3-6.1-0.3-6.1-0.5-12.1c7.2-6.9,15.3-13,22.7-19.7
						c1.6-1.1,3.8-2.1,4.8-3.9c-1.7-0.6-4,3.3-4.8,3.9c-12.2,8.5-24.2,17.2-35.1,27.4c-3.8-0.5,4.7-16.6,5.5-18.2
						c8.3-15.5,20.8-26.6,33.8-38.2c2.2-1.6,8.8-7,3.4-3.7c-2.4,1.5-3.2,3.5-3.4,3.7c-8.1,5.9-15.9,11.8-22.7,19.2
						c-20.4,22.2-17,35.9-14.8-1.6c11-14.4,22.4-28.5,33.3-42.9c0.6-0.6,2.4-0.5,2.1-2.1c0.4-0.8,0.4-0.8,0.8-1.6
						c-1.1,0.7-0.7,1.5-0.8,1.6c-1.1,0.9-1.2,0.8-2.1,2.1c-12.1,12.4-21.9,26.7-33.8,39.2c0.4-12.6,3.7-25.2,8.4-36.9
						c2.9-7,7.7-13.9,9.5-18.2c0-0.1,1.3-1.1,0.8-1.6c-1.3-0.2-0.6,1.3-0.8,1.6c-12.1,16.4-11.9,22.4-15.8,29.2
						c-0.3,0.4-0.8,0.4-1.1,0c0.5-9.7,0.5-9.7,1.1-19.5c3.9-5.3,7.7-10.8,11.6-16.1c0.7-0.8,10-9.5,7.1-9.5c-2.6,3-4.8,6.3-7.1,9.5
						c-4.5,5.1-11,13.9-11.6,11.8c-0.3-13.7-0.3-13.7-0.5-27.4c-1,3.7,0.5,58.8-2.4,58.2c-3-7.9-11.9-28.4-15.6-34.2
						c5.4-2.9,11.2-20.8,16.4-28.2c-0.5-10,0-20.9-2.1-30.3c0.4-0.9,1.1-1.6,1.1-2.6c0.9-0.4,0.3-1.2,1.3-1.1
						C321.3,127.1,323.4,129.1,325.6,131.1z"/>
					<g>
						<path class="st11" d="M332.5,179c2.4-3.2,4.5-6.5,7.1-9.5C342.5,169.5,333.2,178.2,332.5,179z"/>
						<path class="st11" d="M344.3,174.2c0.6,0.2-0.1,1.5-0.3,1.8C340.5,183.7,334.1,185.8,344.3,174.2z"/>
						<path class="st17" d="M356.7,226.4c0.2-0.2,1.1-2.2,3.4-3.7C365.6,219.4,359,224.8,356.7,226.4z"/>
						<path class="st11" d="M352.5,255.4c0.7-0.7,3.1-4.5,4.8-3.9C356.3,253.3,354.1,254.2,352.5,255.4z"/>
						<path class="st11" d="M352.5,201.1c1-1.3,1-1.2,2.1-2.1C354.9,200.6,353.1,200.5,352.5,201.1z"/>
						<path class="st11" d="M354.6,199c0.1-0.1-0.3-0.9,0.8-1.6C355,198.2,355,198.2,354.6,199z"/>
						<path class="st11" d="M336.7,185.3c0.2-0.3-0.5-1.8,0.8-1.6C338,184.2,336.7,185.2,336.7,185.3z"/>
					</g>
				</g>
			</g>
			<path class="st4" d="M237.5,256.9c0.1,9.5,0.1,9.5,0.3,19c-9.7,1.3-18,0-27.2-2.1c2.1-2.5,20.8-13.7,25.3-16.3
				C237,256.8,237.4,257,237.5,256.9z"/>
			<g>
				<path class="st10" d="M235.4,311.7c-5.4,0-10.9,1.1-16.4,0.5c0-2.1-1.7-13.9,0.3-14.7c7.7,0,7.7,0,15.3,0
					C235,304.6,235,304.6,235.4,311.7z"/>
				<g>
					<path class="st3" d="M238,311.7c-0.9,0-1.8,0-2.6,0c-0.4-7.1-0.4-7.1-0.8-14.2c-7.7,0-7.7,0-15.3,0c-2,0.9-0.2,12.7-0.3,14.7
						c0,1.8-0.4,8.1-2.1,6.8c-0.6-0.9-0.8-0.9-1.1-2.1c-0.9-5,0.7-30.5,0-39.8c7.5,0,15.2-0.7,22.7-0.8c9.2-0.1,18.7,0.9,28,0.8
						c-1,4.8,1.6,36.9,0.5,38.4c-0.3,0.5-3.2,0.6-3.7-0.5c-0.6-1.3,0.7-17-0.3-17.6c-12.1,0-12.1,0-24.3,0
						C238.4,304.6,238.4,304.6,238,311.7z"/>
					<path class="st5" d="M238.8,280.1c12.1,0,12.1,0,24.3,0c0.1,7.2,0.1,7.2,0.3,14.5c-12.3,0.1-12.3,0.1-24.5,0.3
						C238.8,287.5,238.8,287.5,238.8,280.1z"/>
					<path class="st10" d="M219.3,280.1c7.7,0,7.7,0,15.3,0c0.4,7,0.4,7,0.8,14c-8,0.4-8,0.4-16.1,0.8
						C219.3,287.5,219.3,287.5,219.3,280.1z"/>
				</g>
			</g>
			<g>
				<path class="st7" d="M201,310.1c-3.3,1.5,2.5,4-3.7,4.7c-1.6,0.2-3.6-0.1-5.3,0c-0.9-2.6-0.5-6.1-0.5-9
					C194.7,305.9,198.4,308.3,201,310.1z"/>
				<path class="st12" d="M201,310.1c2.3,1.1,7.3,1.9,6.9,4.2c-2.7,0-2,0.5-2.1,0.5c-0.1,0,0.2,0.9-0.3,1.1c-6.9-3-5.4,1.9-8.2-1.1
					C203.5,314.1,197.8,311.6,201,310.1z"/>
				<path class="st6" d="M157.2,230.6c0.6,0.1,8.8,5.5,10.3,6.3c0.1,0,0.5-0.7,0.8-0.5c0.2,0.1-0.1,1,2.9,2.6
					c4.1,2.2,8.2,4.3,12.4,6.3c0.4,0.2,4.1,3,7.4,4.2c-0.3,3.7-0.3,3.7-0.5,7.4c-1.3-0.2-2.5,0.3-4-0.5c-15.6-9.5-15.6-9.5-31.1-19
					c-2.1-0.2-24.3,11.9-28.2,13.7c-6.5,2.9-13.7,4.9-20.3,7.4c-1.4,0.9-0.6,2.9-0.8,4.7c-1,10.5-0.2,36.7-0.5,50.6
					c-2.2,0-4.7-0.4-6.9-0.5c1.3-8.8-1.8-7.3-6.9-12.6c1.1-2,4.8-2.8,6.3-5c0.2-9.9-0.5-19.9,0.5-29.8c0.1-1.2-0.2-2.6,0-3.7
					c0.4-2.2,1.7-6.3,3.2-7.9c5.4-0.7,10.7-3.1,15.6-5.3c8.6-3.8,18-8.8,25.6-13.2C147.3,235.9,152.5,230.5,157.2,230.6z"/>
				<path class="st18" d="M141.4,235.3c0,0.7,0.8,0.5,1.6,0.5c-7.6,4.4-17,9.4-25.6,13.2c-4.9,2.1-10.2,4.5-15.6,5.3
					c1.9-2.1,6.8-3.4,9.5-4.7c1.1-0.5,2.1-1.1,3.2-1.6C123.4,243.7,132.7,240.2,141.4,235.3z"/>
				<path class="st6" d="M220,250.6c13.8,0.3,19.2-2.3,15.3,6.3c-11.5-0.9-28.3,0.7-40.6,0c0-3.2,0-3.2,0-6.3
					C203.1,250.7,211.6,250.4,220,250.6z"/>
				<path class="st10" d="M194.7,250.6c0,3.2,0,3.2,0,6.3c-1.4-0.1-2.9,0.2-4.2,0c0.3-3.7,0.3-3.7,0.5-7.4
					C192.9,250.1,192.9,250.1,194.7,250.6z"/>
				<path class="st3" d="M127.1,251.1c-0.8,6-15.2,8.7-21.1,12.1c0.2-1.9-0.6-3.8,0.8-4.7C113.5,256,120.7,254.1,127.1,251.1z"/>
				<g>
					<path class="st3" d="M190.5,256.9c1.3,0.2,2.8-0.1,4.2,0c12.3,0.7,29.1-0.9,40.6,0c0.4,0,0.6,0.1,0.5,0.5
						c-4.5,2.7-23.3,13.8-25.3,16.3c-0.1,0.1-1.2,0.7-1.6,1.3c-0.3,19.6-0.3,19.6-0.5,39.2c-0.2,0-0.4,0-0.5,0
						c0.5-2.3-4.6-3.1-6.9-4.2c-2.6-1.8-6.4-4.2-9.5-4.2c0-1.5,0.8-24.2-1.6-20.3c-0.7,1.2,0.6,24.9,0,28.7
						c-28.1,0.8-56.3,1.2-84.5,1.6c1.9-2.2,0-1.2,0-2.1c0.3-13.9-0.4-40.1,0.5-50.6c6-3.4,20.3-6.1,21.1-12.1
						c3.9-1.8,26.1-13.9,28.2-13.7c15.6,9.5,15.6,9.5,31.1,19C187.9,257.2,189.1,256.8,190.5,256.9z"/>
					<g>
						<path class="st19" d="M191.5,305.9c0,2.9-0.4,6.3,0.5,9c-2,0.1-2-0.5-2.1-0.5c0.6-3.8-0.7-27.5,0-28.7
							C192.3,281.7,191.5,304.4,191.5,305.9z"/>
						<path class="st7" d="M117.4,306.4c7.3,1.3,57.7-1.7,60.2,0c1.8,1.3-1.3,16.6-2.6,2.6c-6.2,1.2-27.1-0.1-29,0.5
							c-0.7,0.2-3,5.6-6.3,4.7c-0.8-0.8-2.2-2.4-3.2-2.6c-1.6-0.4-21.3-0.2-22.7,2.6C115.5,310.4,115.5,310.4,117.4,306.4z"/>
						<path class="st11" d="M157.5,287.5c7.9,0,7.9,0,15.8,0c0.1,5.4,0.1,5.4,0.3,10.8c-12.7,2.2-4.4-3.7-8.7-8.2
							c-0.8,0.6,0.1,7.6-0.3,8.2c-0.2,0.3-6.8,0.5-7.1,0.3C157,298.2,157,287.8,157.5,287.5z"/>
						<path class="st4" d="M119.5,287.5c7.4,0,7.4,0,14.8,0c0.2,1.5,0.6,10.4,0.3,10.8c-0.3,0.4-6,0.4-6.3,0
							c-0.6-0.8,1.1-8.8-1.3-8.2c-1.6,0.4-0.3,7.5-0.8,8.2c-0.2,0.3-6.3,0.5-6.6,0.3C119,298.2,119,287.8,119.5,287.5z"/>
						<path class="st10" d="M154.1,256.4c0-3.9,0-3.9,0-7.9c3.2,0.1,6.5-0.1,9.8,0C165.1,258.8,163,256.1,154.1,256.4z"/>
						<g>
							<path class="st4" d="M163,271.7c5.1,1.5,1.4,3.4,1.6,3.9c3.5-1,1.7,4.2,2.1,6.6c-1.5,0.1-9.3,1.3-10,0.3c0-5.3,0-5.3,0-10.5
								C157.1,271.4,162,271.7,163,271.7z"/>
							<path class="st11" d="M166.7,282.2c-0.4-2.4,1.3-7.6-2.1-6.6c-0.2-0.6,3.5-2.5-1.6-3.9c1.4-0.1,10.2-0.2,10.6,0.3
								c0,5,0,5,0,10C171.7,283.9,167.1,282.2,166.7,282.2z"/>
						</g>
						<path class="st5" d="M150.9,248.5c0.3,3.9,0.3,3.9,0.5,7.9c-1.2-0.1-7.5,0.3-7.9-0.3c-0.2-0.3-0.2-7.1,0-7.4
							C143.9,248.2,149.7,248.6,150.9,248.5z"/>
						<g>
							<path class="st6" d="M146.1,298.5c-7.2-0.1-3.2-4.4-4.2-11.1c1.4-0.1,11.3-0.2,11.6,0.3c0,5.3,0,5.3,0,10.5
								C153.2,298.8,147.3,298.5,146.1,298.5z"/>
							<path class="st4" d="M141.9,287.5c1,6.7-3,10.9,4.2,11.1c-1.2,0-8.1,0.2-8.4-0.3c0-5.3,0-5.3,0-10.5
								C138.1,287.2,141.1,287.5,141.9,287.5z"/>
						</g>
						<g>
							<path class="st6" d="M153.5,276.4c0.1,0.9,0.2,6-0.3,6.3c-7.7,0-7.7,0-15.3,0c-0.4-0.3-0.4-7.4-0.3-8.4
								C144.3,275.2,152.3,273.7,153.5,276.4z"/>
							<path class="st4" d="M153.5,276.4c-1.2-2.7-9.2-1.3-15.8-2.1c0.1-0.7-0.3-2.2,0.3-2.6c7.7,0,7.7,0,15.3,0
								C153.8,272.1,153.5,275.5,153.5,276.4z"/>
						</g>
						<g>
							<path class="st4" d="M129.3,282.7c-0.3-2.2,0.6-6.1-0.5-7.9c-0.7-1.1-8.5-0.5-10,0c0.1-0.8-0.3-2.8,0.3-3.2
								c7.7,0,7.7,0,15.3,0c0.1,5.4,0.1,5.4,0.3,10.8C134.1,283,130.3,282.7,129.3,282.7z"/>
							<path class="st4" d="M128.7,274.8c-4-0.7-2.3,3.5-2.6,7.9c-1.2-0.1-7,0.3-7.4-0.3c0.2-2.4-0.3-5.3,0-7.6
								C120.2,274.3,128,273.7,128.7,274.8z"/>
							<path class="st20" d="M128.7,274.8c1.1,1.8,0.3,5.7,0.5,7.9c-1.8,0.2-1.7,0.1-3.2,0C126.4,278.3,124.7,274.1,128.7,274.8z"/>
						</g>
						<path class="st21" d="M186.5,278.5c0.5-0.3,6.9-1.2,5,3.9C190.2,286.1,183.4,280.7,186.5,278.5z"/>
						<path class="st22" d="M154.1,248.5c0,3.9,0,3.9,0,7.9c-1.1,0-1.5,0-2.6,0c-0.3-3.9-0.3-3.9-0.5-7.9
							C152.2,248.4,152.8,248.5,154.1,248.5z"/>
					</g>
				</g>
			</g>
			<path class="st4" d="M98.6,313.3c-2.8-0.1-5.6,0-8.4,0c-0.4-2.6,0.7-11,1.6-12.6C96.8,305.9,99.9,304.5,98.6,313.3z"/>
			<g>
				<path class="st5" d="M152,170c-0.8,20.1-1.9,40.2-2.1,60.3c-0.3,0.8-7.1,4.2-8.4,5c-8.6,4.9-18,8.4-26.9,12.6
					c19.4-33.1,15-31-3.2-0.3c-0.4,0.7-0.5,1.2,0,1.8c-2.7,1.3-7.6,2.6-9.5,4.7c-1.5,1.6-2.8,5.7-3.2,7.9
					c-10,11.8-10,11.8-20.1,23.7c0.9-15.6,1.7-31,1.6-46.6c4-3.9,7.3-8.3,11.1-12.4c8.8-9.6,19.2-17.9,27.7-27.9
					c9.7,15-19.5,24.6-29.8,43.4c2.9,1.5,6.4-6,12.4-11.8c16.6-16.2,29.9-15.7,13.5-41.6c-0.1-0.2-0.4-1.9-0.5-2.1
					C133.2,178.5,133.2,178.5,152,170z"/>
				<path class="st20" d="M80.7,217.4c-0.1,6.3-0.1,12.7,0.3,19c1.8-2.5,9.1-9,9.8-10.5c0.3,0.5,0.3,0.5,0.5,1.1
					c-3.7,4.1-7.1,8.5-11.1,12.4c0.2,15.6-0.7,31.1-1.6,46.6c0,0.2-0.4,0.7-0.5,3.7c-0.4,8.1-0.8,16.1-1.1,24.2c-0.1,0-1.1,0-1.6,0
					c-0.1-3.2,0.1-6.3,0-9.5c-0.1-2,0.1-4,0-6.1c-15.8-14-23.7-19.7-33.3-39.2c-0.5-1.1-0.5-1.5-0.5-1.6c0.3-0.3,0.3-0.3,0.5-0.5
					c7.2,15.7,20.3,27.3,33,38.4c2.5-4.5-4.3-8.6-7.7-12.6c0.3-0.5,0.3-0.5,0.5-1.1c2.1,2.7,4.9,4.4,7.1,6.8
					c0.4-0.4,0.4-0.4,0.8-0.8c0.5-10,0.5-10,1.1-20c-4.8-8.2-8-17.7-14.3-25c0.5-0.3,0.5-0.3,1.1-0.5c2.3,2.6,4.5,5.3,6.3,8.2
					c1,1.5,7.4,15.3,7.9,14.2c0-13.7,0-13.7,0-27.4c-1.7-2.3-3.1-4.8-4.8-7.1c0.3,0,0.3,0,0.5,0c1.3,1.6,3.6,3.2,4.5,5.3
					c0.4-0.4,0.4-0.4,0.8-0.8c0.3-8.6,0.3-8.6,0.5-17.1C80.2,217.4,80.2,217.4,80.7,217.4z"/>
				<path class="st10" d="M75.4,304.3c-16.2-11.3-30-25-33.3-45.3c9.5,19.5,17.4,25.2,33.3,39.2C75.5,300.3,75.3,302.3,75.4,304.3z"
					/>
				<path class="st4" d="M81.2,312.8c0.8,1,1.5,1.6,2.6,2.1c-0.1,0.6-0.6,0.8-1.1,1.1c-1.5-1.5-3.7-2-5.8-2.1
					c0.3-8.1,0.6-16.1,1.1-24.2c0.9,0,2.1-1,2.6-1.6c1.4,0.3,1.1,2.3,1.1,3.4c-0.3,6.8-1.3,13.8-2.1,20.5
					C80.4,313,81.2,312.7,81.2,312.8z"/>
				<path class="st4" d="M91.3,226.9c-0.3-0.5-0.3-0.5-0.5-1.1c1.1-2.4,1.4-6.6,1.6-9.2c1-16.1,0.3-10.7-11.1-1.3
					c0.1-2.4-0.2-4.9,0-7.4c4-3.2,8.5-6,12.7-9c3.8,1.9-6.1,4.6-0.5,6.3c0.9,3.1-2,17.7-0.3,17.9c12.8-12.8,12.8-12.8,25.6-25.5
					c-0.1-3.1-2.6-5.2-4.2-7.6c-0.1-0.1,0.1-0.4,0-0.5c0.3-0.3,0.3-0.3,0.5-0.5c16.4,25.9,3.2,25.4-13.5,41.6
					c-6,5.8-9.5,13.4-12.4,11.8C99.4,223.6,128.6,214,119,199C110.5,209,100.1,217.3,91.3,226.9z"/>
				<path class="st4" d="M98.6,265.9c-0.7,0-0.5-0.7-1.1-0.3c-1.3,1.1-12.9,18.2-16.9,22.4c-0.6,0.6-1.7,1.6-2.6,1.6
					c0.2-3,0.5-3.5,0.5-3.7c10-11.8,10-11.8,20.1-23.7C98.5,263.3,98.8,264.7,98.6,265.9z"/>
				<path class="st4" d="M114.5,248c-1,0.5-2.1,1.1-3.2,1.6c-0.5-0.7-0.4-1.2,0-1.8C129.5,217,133.9,214.8,114.5,248z"/>
				<path class="st5" d="M67.5,282.7c3.3,4,10.1,8.1,7.7,12.6c-12.7-11.2-25.8-22.7-33-38.4c-0.1-0.3,0.1-1.2,0-1.6
					c4-4.1,9.7-10.6,14.3-13.7c3.1,10,2.7,29.7,7.9,38.2C65,280.9,66.8,281.8,67.5,282.7z"/>
				<path class="st5" d="M62.8,242.7c6.2,7.3,9.5,16.8,14.3,25c-0.5,10-0.5,10-1.1,20c-0.4,0.4-0.4,0.4-0.8,0.8
					c-2.3-2.5-5.1-4.1-7.1-6.8c-6.7-8.8-6.6-30-8.4-41.6C60.4,240.9,62,241.8,62.8,242.7z"/>
				<path class="st10" d="M70.1,226.4c1.3,1.7,2.6,2.9,3.2,3.7c1.6,2.3,3.1,4.8,4.8,7.1c0,13.7,0,13.7,0,27.4
					c-0.5,1.1-7-12.7-7.9-14.2c-1.8-2.9-4.1-5.6-6.3-8.2c-0.9-1-1.7-2.2-2.6-3.2C63.3,235.2,67,228.6,70.1,226.4z"/>
				<path class="st10" d="M90.7,225.9c-0.7,1.5-8,8-9.8,10.5c-0.4-6.3-0.4-12.7-0.3-19c0-1.7,0.5-1.8,0.5-2.1
					c11.4-9.4,12.1-14.8,11.1,1.3C92.2,219.2,91.8,223.5,90.7,225.9z"/>
				<path class="st4" d="M59.6,240.1c1.8,11.6,1.7,32.8,8.4,41.6c-0.3,0.5-0.3,0.5-0.5,1.1c-0.7-0.9-2.5-1.8-3.2-2.9
					c-5.2-8.4-4.9-28.2-7.9-38.2C57.4,241,58.1,239.8,59.6,240.1z"/>
				<path class="st10" d="M79.6,217.4c-0.3,8.6-0.3,8.6-0.5,17.1c-0.4,0.4-0.4,0.4-0.8,0.8c-0.9-2.1-3.1-3.7-4.5-5.3
					c-1.3-1.5-2.4-3.7-3.7-5.3c4.2-4.5,4.2-4.5,8.4-9C78.6,215.9,79.9,216.1,79.6,217.4z"/>
				<g>
					<path class="st3" d="M96,171.1c-14.1-2.3-16-9.9-16.4,4.2c-0.1-2.4,0.1-4.7,0-7.1c-0.9-2.4-18.9,7.9-21.4,9.7
						c-3.8,2.8-5.3,5.2-8.2,8.4c0,0-0.2,0.1-0.5,0.5c-2.2,2.6-4.6,5-6.3,7.9c0,0.3,0,0.3,0,0.5c-2.8,3-8.5,16.8-7.9,19.7
						c6.9,11.1,19.3,17.5,25.9,24c0.9,0.9,1.8,2.2,2.6,3.2c-0.5,0.3-0.5,0.3-1.1,0.5c-0.8-0.9-2.3-1.8-3.2-2.6
						c-7.8-8-17.6-13.7-24.5-22.6c-2.5,13.4,1.9,25.8,7.1,37.9c0.1,0.3-0.1,1.3,0,1.6c-0.3,0.3-0.3,0.3-0.5,0.5
						c-2.8-6-6-12.2-7.4-18.7c-7.4-34.8,13-63.8,45.7-74.5C85.5,166.9,90.4,168.1,96,171.1z"/>
					<path class="st14" d="M70.1,224.8c1.3,1.5,2.4,3.8,3.7,5.3c-0.3,0-0.3,0-0.5,0c-0.5-0.8-1.9-2-3.2-3.7
						c-3.3-4.2-26.8-29-26.9-31.1c0-0.3,0-0.3,0-0.5C52.4,204.6,61.4,214.6,70.1,224.8z"/>
					<path class="st8" d="M79.6,175.3c0.3,7.5,0,15.1-0.3,22.6c-32.2-26-26.6-20.1,0.8,2.4c-0.4,7.2-0.4,7.2-0.8,14.5
						c-14.6-14.2-14.6-14.2-29.3-28.4c2.9-3.3,4.4-5.6,8.2-8.4c2.4-1.8,20.4-12.1,21.4-9.7C79.7,170.6,79.6,172.9,79.6,175.3z"/>
					<path class="st8" d="M70.1,226.4c-3.1,2.2-6.9,8.8-9,12.6c-6.5-6.5-19-12.8-25.9-24c-0.6-2.9,5.1-16.8,7.9-19.7
						C43.4,197.4,66.9,222.2,70.1,226.4z"/>
					<path class="st8" d="M78.6,215.9c-4.2,4.5-4.2,4.5-8.4,9c-8.8-10.2-17.8-20.2-26.9-30c1.8-2.9,4.2-5.3,6.3-7.9
						C54.2,191.7,77.2,213.2,78.6,215.9z"/>
					<path class="st8" d="M59.6,240.1c-1.5-0.3-2.2,0.9-3.2,1.6c-4.5,3.1-10.3,9.6-14.3,13.7c-5.3-12.1-9.6-24.6-7.1-37.9
						C41.9,226.4,51.8,232.1,59.6,240.1z"/>
					<g>
						<path class="st16" d="M96,171.1c6.5,3.4,14.2,9.8,18.5,15.8c0.1,0.2,0.4,1.9,0.5,2.1c-0.3,0.3-0.3,0.3-0.5,0.5
							c-0.6-0.9-1.4-1.8-2.1-2.6c-1.8-2-3.6-3.9-5.5-5.8c-8.2,6.6-17.3,12.1-25.6,18.7c-0.1,2.7,0.2,5.5,0,8.2
							c-0.2,2.4,0.1,4.9,0,7.4c0,0.3-0.5,0.4-0.5,2.1c-0.5,0-0.5,0-1.1,0c0.2-1.3-1-1.5-1.1-1.6c-1.4-2.7-24.4-24.2-29-29
							c0.3-0.4,0.5-0.5,0.5-0.5c14.6,14.2,14.6,14.2,29.3,28.4c0.4-7.2,0.4-7.2,0.8-14.5c-27.4-22.5-33-28.3-0.8-2.4
							c0.3-7.5,0.5-15.1,0.3-22.6C80,161.2,81.9,168.8,96,171.1z"/>
						<path class="st8" d="M81.5,167.9c9.1,1.8,18,5.6,24.5,12.4c-12,8.8-12,8.8-24,17.6C81.8,182.9,81.8,182.9,81.5,167.9z"/>
					</g>
					<path class="st8" d="M112.4,186.9c-6.8,3.2-12.4,7.8-18.5,12.1c-4.2,3-8.6,5.7-12.7,9c0.2-2.7-0.1-5.5,0-8.2
						c8.3-6.6,17.4-12.1,25.6-18.7C108.8,182.9,110.6,184.9,112.4,186.9z"/>
					<path class="st11" d="M114.5,189.5c0.1,0.1-0.1,0.4,0,0.5c-10.6,7.6-10.6,7.6-21.1,15.3c-5.6-1.7,4.4-4.4,0.5-6.3
						c6-4.3,11.7-8.9,18.5-12.1C113.1,187.7,113.9,188.6,114.5,189.5z"/>
				</g>
				<path class="st5" d="M98.6,265.9c-1,9.9-0.3,19.8-0.5,29.8c-1.5,2.2-5.2,3-6.3,5c-0.9,1.6-2,10.1-1.6,12.6c-3,0-6,0.4-9-0.5
					c-0.1-0.1-0.9,0.3-1.6-0.8c0.8-6.8,1.8-13.7,2.1-20.5c0.1-1.1,0.3-3.1-1.1-3.4c4-4.2,15.6-21.3,16.9-22.4
					C98.1,265.1,98,265.8,98.6,265.9z"/>
				<path class="st10" d="M93.4,205.3c10.6-7.6,10.6-7.6,21.1-15.3c1.6,2.4,4.1,4.5,4.2,7.6c-12.8,12.8-12.8,12.8-25.6,25.5
					C91.4,223,94.3,208.4,93.4,205.3z"/>
			</g>
		</g>
	</g>
</g>
</svg>
