<?xml version="1.0" encoding="utf-8"?>
<!-- Generator: Adobe Illustrator 28.2.0, SVG Export Plug-In . SVG Version: 6.00 Build 0)  -->
<svg version="1.1" id="Layer_1" xmlns="http://www.w3.org/2000/svg" xmlns:xlink="http://www.w3.org/1999/xlink" x="0px" y="0px"
	 viewBox="0 0 300 332.06" style="enable-background:new 0 0 301.27 332.06;" xml:space="preserve">
<style type="text/css">
	.st0{display:none;}
	.st1{display:inline;fill:#D0CCC9;}
	.st2{display:inline;fill:#D6C078;}
	.st3{display:inline;fill:#D3C898;}
	.st4{display:inline;fill:#BBBCB8;}
	.st5{display:inline;fill:#EEEFEE;}
	.st6{display:inline;fill:#A9B3AB;}
	.st7{display:inline;fill:#B0BBB5;}
	.st8{display:inline;fill:#788981;}
	.st9{fill:#F9F9F8;}
	.st10{fill:#B0BBB5;}
	.st11{fill:#103F2C;}
	.st12{fill:#A3C6A3;}
	.st13{fill:#8AB091;}
	.st14{fill:#16331B;}
	.st15{fill:#1D5C3D;}
	.st16{fill:#2F7652;}
	.st17{fill:#0C0E0C;}
	.st18{fill:#508E64;}
	.st19{fill:#DCEBDC;}
	.st20{fill:#D3D5D0;}
	.st21{fill:#616A65;}
	.st22{fill:#86A441;}
	.st23{fill:#72913C;}
	.st24{fill:#597836;}
	.st25{fill:#293D1B;}
	.st26{fill:#74906F;}
</style>
<g>
	<g id="Background_00000090265880404723214020000009739360656852002738_" class="st0">
		<path class="st1" d="M397.39-44.19c0,256,0,256,0,512c-256,0-256,0-512,0c0-256,0-256,0-512
			C141.39-44.19,141.39-44.19,397.39-44.19z"/>
		<path class="st2" d="M164.89,360.31c0.25,0.01,0.97,0.87,5,0.5c1.33,3.01-8,3.18-6.25,5c8.62,1,8.62,1,17.25,2
			c-0.06,0.01,0.03,0.43-0.75,1c-21.05,1.19-42.17,2.1-63.25,0.5c-5.82-3.25,2.35-0.86-1-8.5c1.03-0.14,1.6-0.29,1.5-1.5
			C123.67,362.08,155.79,359.9,164.89,360.31z"/>
		<path class="st3" d="M115.89,360.81c3.35,7.64-4.82,5.25,1,8.5c-9.66-0.74-22.6-1.55-31-5.25
			C86.8,362.85,112.49,361.26,115.89,360.81z"/>
		<path class="st2" d="M173.89,355.31c2.33-2.99,5.29-5.38,8-8c13.62,1.25,13.62,1.25,27.25,2.5c0,0.5,0,0.5,0,1
			C201.85,351.62,177.26,354.33,173.89,355.31z"/>
		<path class="st3" d="M180.89,367.81c-8.62-1-8.62-1-17.25-2c-1.75-1.82,7.58-1.99,6.25-5c4.24,1.45,25.46,2.68,26.75,3.5
			C199.01,365.8,188.12,366.75,180.89,367.81z"/>
		<path class="st2" d="M102.39,346.81c3.69,3.12,9.31,8.65,13,11c-11.02-3.77-21.48-7.35-33.25-8c0-0.5,0-0.5,0-1
			C92.26,347.81,92.26,347.81,102.39,346.81z"/>
	</g>
</g>
<g>
	<g id="Background_00000055686202929377940820000011930959382272348340_" class="st0">
		<path class="st4" d="M403.87-47.77c0,254.36,0,254.36,0,508.72c-169.32-0.41-338.65-1.52-507.97-0.25c0-254.23,0-254.23,0-508.47
			C149.89-47.77,149.89-47.77,403.87-47.77z"/>
		<path class="st5" d="M403.87-47.77c1.25,0,1.25,0,2.5,0c0,255.98,0,255.98,0,511.97c-255.98,0-255.98,0-511.97,0c0-1,0-1,0-2
			c0.75-0.75,0.75-0.75,1.5-1.5c169.31-1.27,338.65-0.16,507.97,0.25C403.87,206.59,403.87,206.59,403.87-47.77z"/>
		<path class="st5" d="M-104.1-47.77c0,254.23,0,254.23,0,508.47c-0.75,0.75-0.75,0.75-1.5,1.5c0-254.98,0-254.98,0-509.97
			C-105.11-47.83-104.56-47.67-104.1-47.77z"/>
	</g>
</g>
<g>
	<g id="Background_00000084490483704856620300000013401383166943941540_" class="st0">
		<path class="st4" d="M405.71-43.57c0,254.21,0,254.21,0,508.41c-169.22-0.41-338.45-1.52-507.66-0.25c0-254.08,0-254.08,0-508.16
			C151.88-43.57,151.88-43.57,405.71-43.57z"/>
		<path class="st5" d="M405.71-43.57c1.25,0,1.25,0,2.5,0c0,255.83,0,255.83,0,511.66c-255.83,0-255.83,0-511.66,0c0-1,0-1,0-2
			c0.75-0.75,0.75-0.75,1.5-1.5c169.21-1.27,338.44-0.16,507.66,0.25C405.71,210.64,405.71,210.64,405.71-43.57z"/>
		<path class="st5" d="M-101.95-43.57c0,254.08,0,254.08,0,508.16c-0.75,0.75-0.75,0.75-1.5,1.5c0-254.83,0-254.83,0-509.66
			C-102.96-43.62-102.41-43.47-101.95-43.57z"/>
	</g>
</g>
<g>
	<g id="Background_00000019679908922249165520000002294249807641185696_" class="st0">
		<path class="st6" d="M400.89-43.34c0,256,0,256,0,512c-256,0-256,0-512,0c0-256,0-256,0-512
			C144.89-43.34,144.89-43.34,400.89-43.34z"/>
	</g>
</g>
<g>
	<g id="Background_00000044885566088642491880000003827126034492864647_" class="st0">
		<path class="st7" d="M523.86,45.15c-0.65,237.55-0.65,237.55-1.3,475.1c-233.11-0.64-233.11-0.64-466.21-1.28
			C57,281.42,57,281.42,57.65,43.87C290.75,44.51,290.75,44.51,523.86,45.15z"/>
		<path class="st8" d="M267.8,445.31c4.68,0.77,9.34,1.8,14.11,1.89c0.62,0.81,0.49,2.46,1.58,3.25c6.15,0.02,6.15,0.02,12.29,0.03
			c1.09-1.33,1.82-2.89,2.97-4.17c6.24,0.14,12.52-0.95,18.67-1.8c34.31,2.75,68.73,2.69,103.11,3.99c0,0.46,0,0.46,0,0.93
			c-2.63,3.61-78.01,5.17-87.89,5.33c-23.1,0.37-129,0.32-144.32-2.71c-4.6-0.91-10.94-3.23-2.26-4.18
			c19.7-2.16,61.1-0.62,83.32-1.16C268.6,446.01,268.6,446.01,267.8,445.31z"/>
	</g>
	<g>
		<g>
			<path class="st9" d="M287.65,150.15c5.83,41.01-1.45,92.21-31.75,122.4c-2.05,2.04-5.74,5.91-7.53,7.4
				c-0.09,0.07-1.59-0.11-2.28,0.46c-15.11,12.42-25.94,21.61-45.15,27.25c-5.91,1.74-26.96,6.67-30.29,4.56
				c1.61-1.54,2.33-2.25,4.11-3.7c1.49,5.08,16.12-5.55,15.05-9.01c-0.14-0.44-1.34-0.16-1.37-0.24c-0.46-1.71,0.65-4.97-2.49-5.11
				c-1.15-0.05-15.4,8.27-21.65,7.6c6.86-2.64,35.38-9.43,20.54-19.43c8.41-5.18,0.59-9.11,0.48-9.74c-0.1-0.56,2.64-4.94,2.3-6.95
				c-0.19-1.08-2.36-2.32-2.27-3.25c0.03-0.29,2.77-2.04,3.2-4.86c0.46-3.08-0.07-5.25-2.71-6.97
				c26.39-12.6,16.14-25.83,25.16-44.24c9.98-20.36,39.27-41.72,41.67-85.72c1.55-28.44-6.12-37.51-11.21-62.9
				C265.34,83.92,282.56,114.37,287.65,150.15z"/>
			<path class="st9" d="M113.78,298.6c0.15,0.15,1.71,1.04,2.27,1.4c-0.15,4.02,2.47,7.45,5.21,10.22
				c-15.07-1.77-30.97-3.02-44.82-9.4C3.05,248.12-13.6,140.95,54.75,76.2c-8.37,26.15-8.14,49.58,1.61,75.4
				c8.19,21.67,22.65,36.04,29.46,48.33c10.28,18.56,4.01,28.48,13.09,40.4c2.42,3.18,12.47,11.24,12.71,12.1
				c2.26,8-6.39,11.37,0.85,23.66c-4.64,5.51-3.5,7.15-0.04,12.99C110.78,292.11,108.17,299.56,113.78,298.6z"/>
			<path class="st10" d="M54.75,76.2C-13.6,140.95,3.05,248.12,76.44,300.82C39.27,283.68,10.76,237.95,6.15,197.4
				c-5.03-44.36,8.56-85.01,40.61-115.65C55.44,73.46,55.76,73.02,54.75,76.2z"/>
			<path class="st10" d="M255.9,272.55c30.3-30.19,37.58-81.39,31.75-122.4c2.31,0.17,0.67-0.56,0.91-1.16
				c2.67-6.41,2,3.81,4.56-3.93c8.62,54.88-4,122.44-56.19,151.1c-1.38,0.76-11.21,5.66-11.85,5.54c-0.46-0.09-1.3-1.97-1.13-2.55
				C224.56,297.12,248.89,284.29,255.9,272.55z"/>
			<path class="st10" d="M293.13,145.06c-2.56,7.74-1.9-2.48-4.56,3.93c-0.25,0.6,1.39,1.33-0.91,1.16
				c-5.09-35.78-22.31-66.23-46.19-92.46c-8.62-11.74-8.62-11.74-17.24-23.48c10.7,4.4,24.3,17.84,31.8,27
				C274.65,83.94,288.55,115.91,293.13,145.06z"/>
		</g>
		<g>
			<path class="st9" d="M236.81,94.33c-6.61,3-6.61,3-13.22,6c6.61-4.61,4.84-3.96-7.51,0.44c-14.44,5.14-28.38,12.7-38.99,24.02
				c-0.6,0.21-3.49,2.16-3.65,2.31c-0.11-0.57,0.2-0.95,0.46-1.39c0.36-0.61,0.43-0.88,0.46-0.93c0.39-0.56,3.08-2.81,3.66-5.56
				c4.95-6.75,8.95-14.1,12.35-21.77c7.27-16.4,10.56-33.45,10.84-51.47c-17.67,11.68-34.73,27.67-40.2,49.07
				c-6.77-18.36-35.09-40.53-52.46-45.61c2.55-10.41,22.7-29.34,31.73-33.32c16.71-7.36,38.25-0.35,53.25,8.5
				c24.01,14.17,41.1,39.46,46.03,67.17C238.78,92.66,236.93,94.19,236.81,94.33z"/>
			<path class="st11" d="M106.27,48.97c11.38,17.6,22.89,34.83,32.63,53.45c-1.85,2.33,4.87,15.55,7.22,22.52
				c3.38,10,5.82,20.36,9.02,30.41c0.22,3.25,0.22,3.25,0.44,6.5c-0.62,2.6-0.72,5.67-0.93,8.35c-1.43,3.11-1.41,9.17-0.94,12.52
				c-0.89,0.06-0.13,1.48-0.69,1.85c-0.09,0.06-0.97-0.97-1.59-1.4c-2.03-1.4-2.41-2.97-3.86-4.19c-3.47-2.91-7.66-4.99-11.13-7.92
				c-20.07-16.92-16.71-21.22-27.21-37.89c-8.9-14.11-20.83-21.58-33.61-31.41c4.39,1.51,8.54,3.72,12.96,5.14
				c7.94,2.54,16.53,3.53,24.34,6.56c6.77,2.62,12.73,7.71,19.09,10.03c-15.26-23.64-22.15-47.31-27.57-74.77
				C104.81,48.13,105.22,48.87,106.27,48.97z"/>
			<path class="st11" d="M144.1,198.01c-1.22,0.63-0.02,1.32,0,1.39c2.33,8.46,2.66,17.07,3.57,25.76c0.71,2.14,2.64,4.48,3.17,6.27
				c1.73,5.81,1.41,7.77,1.33,13.92c-12.26-0.32-34.5,0.82-43.91-8.01c-12.04-11.3-0.28-27.15-18.76-49.23
				c4.57,3.88,3.01,0.5,4.33-0.45c0.57-0.41,1.74,0.97,2.05,0.24c0.17-0.4-3.76-6.62-3.16-8.13c0.4,0.11,0.59,0.57,0.91,0.93
				c2.68,7.56,23.05,43.04,26.51,46.01c7.03,6.03,29.57,7.08,29.81,5.42c-1.96-1.81-3.27-5.54-5.22-7.21
				c-3.54-3.04-23.73-9.79-32.47-28.85c-6.27-13.67-8.12-30.31-15.82-43.66c18.46,21.81,28.62,25.04,38.83,34.9
				C138.57,190.51,141.07,194.58,144.1,198.01z"/>
			<path class="st11" d="M157.18,245.37c-0.02-0.64-1.69-4.09-0.88-12.53c24.28-0.37,36.17-14.67,45.63-35.83
				c-0.34-0.35-0.34-0.35-0.68-0.7c-5.18,3.64-11.01,6.01-16.64,8.77c-6.68,3.27-13.29,4.82-18.7,10.62
				c-0.23-0.46-0.23-0.46-0.45-0.93c3.81-6.1,6.51-12.76,9.61-19.23c5.38-8.78,29.37-30.28,38.34-36.32
				c8.07-5.43,18.02-8.4,24.18-16.64c-10.51,29.46-20.96,34.48-32.48,56.28C190.23,227.04,202.39,246.61,157.18,245.37z"/>
			<path class="st12" d="M70.2,84.6c3.5,20.38,29.49,17.89,42.72,28.88c-7.81-3.03-16.4-4.02-24.34-6.56
				c-4.42-1.41-8.57-3.63-12.96-5.14c-8.7-6.7-9.68-11.32-6.84,2.53c3.47,16.9,16.65,35.11,27.64,48.1
				c7.69,13.35,9.55,29.99,15.82,43.66c-2.64-1.04-17.82-14.45-18.62-15.36c-0.32-0.36-0.51-0.82-0.91-0.93
				c-8.19-14.95-22.14-27.38-26.74-44.15c-2.6-9.47-6.99-42.86-5.32-51.28c0.05-0.27,1.09,1.05,2.06-4.4
				c2.15,1.49,7.83-3.44,4.78-0.68c1.98,0.13,2.15,3.75,1.35,5.57C69.52,84.71,69.52,84.71,70.2,84.6z"/>
			<path class="st12" d="M131.87,10.99c-3.42,1.52-7.29,2.14-10.71,3.68C96.35,25.87,64.97,54.12,70.2,84.6
				c-0.68,0.11-0.68,0.11-1.37,0.23c0.8-1.83,0.63-5.44-1.35-5.57c3.05-2.76-2.63,2.17-4.78,0.68c-0.97,5.45-2.01,4.13-2.06,4.4
				c-1.66,8.43,2.72,41.81,5.32,51.28c-0.04,5.64,2.6,19.26,4.49,24.14c-14.86-18.39-16.48-49.2-12.55-71.72
				c6.43-36.87,41.12-72.5,77.16-79.82C135.62,9.48,133.13,10.43,131.87,10.99z"/>
			<path class="st13" d="M215.73,146.24c-10.53,13.91-53.65,42.23-58.43,54.59c0.34-3.15-0.44-4.41-0.44-4.64
				c4.21-7.27,7.87-14.6,13.26-21.07c7.16-8.6,14.5-13.03,18.26-16.42C197.35,154.26,206.8,150.75,215.73,146.24z"/>
			<path class="st14" d="M236.81,94.33c-21.25,25.75-69.68,57.44-78.1,90.72c-0.23-0.23-0.23-0.23-0.45-0.47
				c2.6-5.95,2.45-19.7,16.03-36.38c3.84-4.71,12.14-12.24,16.89-16.42c11.04-9.71,23.45-17.64,34.22-27.74
				c0.72-0.5,1.64-0.63,2.28-1.62c-1.54-0.52-2.18,1.52-2.28,1.62c-1.56,1.08-3.51,2.08-5.02,3.23c-0.7-1.82-2.62-2.37-0.9-4.18
				c1.42-0.86,2.74-1.82,4.11-2.77C230.2,97.33,230.2,97.33,236.81,94.33z"/>
			<path class="st15" d="M92.71,179.77c-0.6,1.51,3.33,7.73,3.16,8.13c-0.31,0.73-1.48-0.65-2.05-0.24
				c-1.31,0.96,0.25,4.33-4.33,0.45c-3.1-2.63-17.42-24.16-19.04-28.35c-1.89-4.88-4.53-18.5-4.49-24.14
				C70.57,152.39,84.52,164.82,92.71,179.77z"/>
			<path class="st16" d="M244.06,108.73c0.03,1.69,0.04,3.42-0.01,5.1c-1.88-1.73-2.58,5.39-5.49,10.89
				c-2.19,4.13-5.57,7.67-7.77,11.81c-2.52,1.1-2.6,0.87-2.73,0.92c-1.18-3.58-4.45-4.65-7.27-6.52
				c9.52-9.06,17.01-22.07,21.95-34.27C243.54,100.57,243.99,104.75,244.06,108.73z"/>
			<path class="st15" d="M235.34,134.69c0,0.23,0,0.23,0,0.46c-4.56,3-14.57,8.53-19.61,11.08c-8.92,4.51-18.38,8.03-27.35,12.45
				c4.04-3.65,8.26-7.04,12.32-10.64c8.54-4.93,18.19-7.06,27.35-10.6c0.13-0.05,0.21,0.18,2.73-0.92
				C231,136.44,231.9,136.73,235.34,134.69z"/>
			<path class="st16" d="M240.8,132.85c-0.34,3.51-2.07,6.52-3.21,9.73c-6.15,8.23-16.11,11.21-24.18,16.64
				c6.13-7.21,13.95-12.94,20.09-20.13c5.52-6.46,5.12-6.1,1.83-3.94c0-0.23,0-0.23,0-0.46c0.15-0.09,1.87-2.48,2.51-2.31
				c0.8,0.22,0.6,2.71,1.81,2.32C240.35,134.48,240.44,130.36,240.8,132.85z"/>
			<path class="st12" d="M228.04,137.46c-9.15,3.53-18.8,5.67-27.35,10.6c0.13-0.11,0.45-1.37,2.06-2.78
				c5.21-4.59,13.92-10.43,18.02-14.33C223.59,132.81,226.86,133.87,228.04,137.46z"/>
			<g>
				<path class="st9" d="M177.91,323.37c-6.16,0.85-12.43,1.94-18.67,1.8c3.89-4.33,7.17-8.9,11.42-12.96
					c3.33,2.11,24.38-2.82,30.29-4.56c19.21-5.64,30.04-14.83,45.15-27.25c0.69-0.56,2.19-0.38,2.28-0.46
					c1.79-1.49,5.48-5.36,7.53-7.4c-7.02,11.74-31.34,24.57-31.94,26.59c-0.17,0.58,0.67,2.47,1.13,2.55
					c0.64,0.12,10.47-4.77,11.85-5.54c52.19-28.66,64.8-96.21,56.19-151.1c-4.57-29.14-18.48-61.11-37.1-83.85
					c-7.5-9.16-21.1-22.6-31.8-27c8.62,11.74,8.62,11.74,17.24,23.48c5.09,25.39,12.76,34.46,11.21,62.9
					c-2.39,43.99-31.68,65.36-41.67,85.72c-9.02,18.41,1.23,31.64-25.16,44.24c-7.69-0.02-17.09,1.74-24.59,1.32
					c-0.88-0.05-4.68,0.23-5.01-0.25c-0.46-7.86,0.94-5.91,0.93-6.26c45.21,1.25,33.05-18.32,47.93-46.5
					c11.52-21.8,21.97-26.82,32.48-56.28c1.15-3.22,2.88-6.23,3.21-9.73c2-6.02,3.02-12.64,3.24-19.01c0.06-1.69,0.04-3.41,0.01-5.1
					c0.56,2.79,0.56,2.79,1.12,5.57c4.03-8.22,2.76-18.29,0.53-26.91c-0.93,3.03-1.8,6.35-2.98,9.27
					c-4.94,12.2-12.43,25.21-21.95,34.27c-4.1,3.9-12.82,9.75-18.02,14.33c-1.6,1.41-1.93,2.66-2.06,2.78
					c-4.06,3.6-8.28,6.99-12.32,10.64c-3.75,3.39-11.1,7.82-18.26,16.42c-5.39,6.47-9.05,13.8-13.26,21.07
					c0.01-2.37,0.08-6.31,0.48-8.58c0.02-0.14,0.89-0.62,1.37-2.55c8.42-33.29,56.86-64.98,78.1-90.72
					c0.12-0.14,1.97-1.67,2.74-2.54c-4.92-27.7-22.01-53-46.03-67.17c-15-8.85-36.54-15.86-53.25-8.5
					c-9.04,3.98-29.18,22.91-31.73,33.32c-0.46-0.14-1.8-0.43-2.28-0.47c-1.05-0.1-1.46-0.84-1.82-0.24
					c5.42,27.46,12.31,51.14,27.57,74.77c-6.36-2.32-12.33-7.4-19.09-10.03c-13.22-11-39.22-8.51-42.72-28.88
					c-5.24-30.47,26.14-58.72,50.96-69.92c3.42-1.54,7.29-2.16,10.71-3.68c21.88-5.5,45.13-0.73,64.16,11.31
					c20.88,13.21,39.62,38.87,44.9,63.45c0.46,0,0.46,0,0.91,0c2.08-24.88-25.07-54.71-44.89-66.7
					c-19.49-11.8-39.58-15.37-61.89-10.84C99.02,15.54,64.33,51.18,57.9,88.04c-3.93,22.52-2.31,53.33,12.55,71.72
					c1.62,4.2,15.95,25.73,19.04,28.35c18.48,22.08,6.72,37.94,18.76,49.23c9.42,8.83,31.66,7.68,43.91,8.01
					c0,0.32,1.41,4.81-0.25,6.49c-6.17,0.45-35.06-0.71-36.88-0.1c-4.17,1.41,12.73,17.49,14.29,20.22
					c-1.5,0.45-8.37,5.72-8.89,5.78c-0.49,0.05-6.96-3.68-8.43,1.6c-3,10.79,12.92,10.1,13.86,10.48c0.87,0.35,4.99,5.7,13.85,12.56
					c-3.38,2.43-9.99-9.36-14.77-10.71c-7.38-2.09-17.53,0.58-11.17,6.93c-5.61,0.96-3-6.49-1.34-9.51
					c-3.47-5.84-4.6-7.48,0.04-12.99c-7.24-12.29,1.41-15.66-0.85-23.66c-0.24-0.86-10.29-8.92-12.71-12.1
					c-9.08-11.92-2.81-21.84-13.09-40.4c-6.81-12.3-21.27-26.66-29.46-48.33c-9.76-25.82-9.98-49.25-1.61-75.4
					c1.02-3.18,0.69-2.75-7.98,5.55C14.71,112.39,1.12,153.04,6.15,197.4c4.6,40.56,33.12,86.29,70.29,103.42
					c13.85,6.39,29.75,7.63,44.82,9.4c-2.73-2.77-5.36-6.2-5.21-10.22c4.08,2.62,19.47,5.42,25.02,6.1
					c10.06,1.24,19.91,1.34,30.05,0.31c-17.59,4.48-35.15-1.16-52.58-3.62c2.33,6.48,6.71,4.91,9.54,6.52
					c1.47,0.83,12.39,14.25,14.3,16.74c-4.77-0.1-9.43-1.13-14.11-1.89c-47.23-7.76-87.84-31.38-110.88-75.23
					C-15.99,185.39-0.78,107.68,58.41,66.7c29.2-62.79,99.53-89.95,156.05-42.95c50.31,17.78,81.25,84.32,85.91,135.02
					c4.43,48.13-7.5,100.63-46.12,131.87C230.36,309.97,207.97,319.21,177.91,323.37z"/>
				<path class="st9" d="M102.84,52.67c2.67,20.18,10.2,39.2,16.91,58.27c0,3.77-11.95-4.54-17.96-7.24
					c-3.39-1.53-18.06-5.23-18.42-8.63C86.72,79.59,96.21,66.74,102.84,52.67z"/>
				<path class="st11" d="M196.03,22.3c0.46-1.62,0.46-1.62,0.92-3.25c19.82,11.99,46.98,41.82,44.89,66.7c-0.46,0-0.46,0-0.91,0
					C235.65,61.18,216.92,35.51,196.03,22.3z"/>
				<path class="st15" d="M196.95,19.06c-0.46,1.62-0.46,1.62-0.92,3.25C177,10.27,153.75,5.5,131.87,10.99
					c1.27-0.56,3.75-1.52,3.19-2.78C157.38,3.68,177.46,7.26,196.95,19.06z"/>
				<path class="st17" d="M115.02,261.49c4.4-0.75,9.63,7.27,12.95,10.01C117.23,281.42,106.31,262.96,115.02,261.49z"/>
			</g>
			<path class="st18" d="M244.04,113.84c-0.22,6.38-1.24,12.99-3.24,19.01c-0.36-2.49-0.45,1.63-1.14,1.85
				c-1.21,0.39-1.01-2.11-1.81-2.32c-0.64-0.17-2.36,2.23-2.51,2.31c-3.44,2.04-4.33,1.75-4.56,1.84c2.2-4.14,5.59-7.68,7.77-11.81
				C241.46,119.22,242.16,112.1,244.04,113.84z"/>
			<path class="st17" d="M162.41,162.79c-4.91,9.38-5.39,11.28-5.07,22.95c0.26,0.4,0.87-1.06,0.91-1.16
				c0.23,0.23,0.23,0.23,0.45,0.47c-0.49,1.93-1.35,2.4-1.37,2.55c-0.4,2.27-0.47,6.21-0.48,8.58c0,0.23,0.78,1.49,0.44,4.64
				c-0.22,0.57-0.25,1.6-0.92,2.09c-0.03,11.48-0.03,11.48-0.06,22.97c-0.61-1.3-1.22-22.34,0.52-25.28
				c-0.73-5.37-2.19-5.26-2.26-5.57c-0.49-2.15,0.96-6.14-0.89-5.8c-0.2-1.89,0.43-2.55-2.26-5.57c0-0.23,0-0.23,0-0.46
				c0.61,0.42,1.5,1.45,1.59,1.4c0.56-0.38-0.2-1.8,0.69-1.85c0.99,7.17,0.88-7.47,0.93-8.81c1.97-0.28-0.14,3.88,1.81,3.02
				C156.54,173.14,159.96,163.5,162.41,162.79z"/>
			<path class="st18" d="M244.06,108.73c-0.07-3.98-0.52-8.16-1.33-12.07c1.18-2.93,2.05-6.24,2.98-9.27
				c2.23,8.61,3.51,18.69-0.53,26.91C244.62,111.52,244.62,111.52,244.06,108.73z"/>
			<path class="st9" d="M174.76,308.51c4.35-3.56,8.82-6.49,13.68-9.24c0.02,0.08,1.23-0.21,1.37,0.24
				C190.88,302.97,176.25,313.59,174.76,308.51z"/>
			<path class="st14" d="M177.13,109.01c1.21,0.73,3.13,0.45,2.73,2.33c-1.51,3.11-6.13,11.27-5.96,13.44
				c0.04,0.47-0.94,0.81,0,0.93c-0.26,0.44-0.56,0.83-0.46,1.39c-5.75,5.35-12.46,21.79-18.29,28.25
				c-3.2-10.06-5.64-20.41-9.02-30.41c-2.36-6.97-9.07-20.19-7.22-22.52c7.04,13.45,14.04,26.96,17.87,41.81
				c1.8,0.19,7.94-32.98,8.07-35.94c0.77,8.01,0.77,8.01,1.55,16.01C169.94,119.19,173.68,114.18,177.13,109.01z"/>
			<path class="st12" d="M223.59,100.33c-1.36,0.95-2.69,1.91-4.11,2.77c-18.31,11.14-36.54,21.42-51.1,37.91
				c-0.81-0.2-1.2,0.77-1.37,0.23c-1.17-3.82,7.4-13.6,10.06-16.44c10.62-11.32,24.55-18.88,38.99-24.02
				C228.43,96.37,230.2,95.71,223.59,100.33z"/>
			<path class="st19" d="M177.09,124.79c-2.66,2.84-11.23,12.63-10.06,16.44c0.17,0.54,0.55-0.43,1.37-0.23
				c-4.22,4.78-11.36,14.72-12.81,20.84c-0.22-3.25-0.22-3.25-0.44-6.5c5.83-6.46,12.54-22.9,18.29-28.25
				C173.6,126.95,176.49,124.99,177.09,124.79z"/>
			<path class="st9" d="M75.62,101.78c12.77,9.83,24.71,17.3,33.61,31.41c10.51,16.66,7.14,20.96,27.21,37.89
				c-0.57,0.93-1.42,1.48-0.69,2.78c0.46,0.82,13.66,9.49,15.68,9.79c2.69,3.03,2.06,3.68,2.26,5.57
				c0.62,5.83-0.32,12.64-0.28,18.56c-3.16-3.2-6.32-6.4-9.31-9.77c-3.04-3.43-5.53-7.49-8.85-10.7
				c-10.21-9.86-20.37-13.09-38.83-34.9c-10.99-12.99-24.17-31.19-27.64-48.1C65.94,90.45,66.92,95.08,75.62,101.78z"/>
			<path class="st9" d="M213.41,159.22c-8.97,6.04-32.96,27.53-38.34,36.32c-3.1,6.47-5.8,13.12-9.61,19.23
				c-2.61,4.18-6.15,7.98-8.91,12.04c-0.11-0.46-0.11-0.46-0.23-0.93c0.03-11.48,0.03-11.48,0.06-22.97
				c0.66-0.49,0.69-1.51,0.92-2.09c4.77-12.36,47.9-40.68,58.43-54.59c5.04-2.55,15.05-8.08,19.61-11.08
				c3.29-2.16,3.69-2.53-1.83,3.94C227.36,146.28,219.54,152.02,213.41,159.22z"/>
			<path class="st9" d="M150.84,231.43c-0.53-1.8-2.46-4.13-3.17-6.27c-0.91-8.69-1.25-17.3-3.57-25.76
				c4.54,5.7,4.54,5.7,9.07,11.39C152.5,219.65,154.9,236.74,150.84,231.43z"/>
			<g>
				<path class="st9" d="M156.3,232.84c0.5-5.17,0.93-3.24,1.84-5.1c1.23-1.11,2.23,0.66,2.96,0.47
					c1.11-0.28,8.64-10.93,15.98-16.66c3.36-2.62,9.39-3.34,7.53-6.47c5.63-2.76,11.46-5.13,16.64-8.77
					c0.34,0.35,0.34,0.35,0.68,0.7C192.47,218.16,180.58,232.46,156.3,232.84z"/>
				<path class="st9" d="M184.61,205.08c1.86,3.13-4.17,3.85-7.53,6.47c-7.34,5.73-14.87,16.38-15.98,16.66
					c-0.73,0.18-1.73-1.58-2.96-0.47c1.21-2.47,6.09-10.23,7.77-12.04C171.31,209.89,177.93,208.35,184.61,205.08z"/>
			</g>
			<g>
				<path class="st17" d="M139.72,302.39c2.42,1.88-0.7-0.57,1.36,3.72c-5.55-0.68-20.94-3.48-25.02-6.1
					c-0.56-0.36-2.13-1.25-2.27-1.4c-6.35-6.35,3.79-9.02,11.17-6.93C129.73,293.02,136.34,304.81,139.72,302.39z"/>
				<path class="st17" d="M185.85,250.55c2.64,1.72,3.18,3.89,2.71,6.97c-1.87,0.27-1.91,4.94-3.65,2.31
					c0.6-1.76,1.77-5.65-0.67-6.5c-1.18-0.41-22.38,1.29-24.82,1.79c-7.31-3.49-0.15-1.1,1.83-3.24
					C168.76,252.29,178.16,250.53,185.85,250.55z"/>
				<path class="st9" d="M184.91,259.82c-0.35,1.03-1.88,1.31-1.38,3.48c-0.74,1.27-25.5-4.59-26.62-5.41
					c-3.36-2.46,1.63-2.6,2.51-2.78c2.44-0.49,23.64-2.2,24.82-1.79C186.68,254.17,185.51,258.06,184.91,259.82z"/>
				<g>
					<path class="st17" d="M156.32,225.88c0.11,0.46,0.11,0.46,0.23,0.93c2.76-4.06,6.3-7.86,8.91-12.04
						c0.23,0.46,0.23,0.46,0.45,0.93c-1.68,1.81-6.56,9.57-7.77,12.04c-0.91,1.86-1.33-0.07-1.84,5.1
						c-0.82,8.44,0.86,11.89,0.88,12.53c0.01,0.35-1.38-1.6-0.93,6.26c0.33,0.47,4.13,0.2,5.01,0.25c-1.98,2.14-9.14-0.25-1.83,3.24
						c-0.88,0.18-5.87,0.32-2.51,2.78c1.12,0.82,25.88,6.68,26.62,5.41c-0.51-2.17,1.02-2.45,1.38-3.48
						c1.74,2.63,1.78-2.04,3.65-2.31c-0.43,2.82-3.17,4.57-3.2,4.86c-0.1,0.93,2.08,2.18,2.27,3.25c0.35,2.02-2.39,6.39-2.3,6.95
						c0.11,0.63,7.93,4.57-0.48,9.74c14.84,10-13.68,16.79-20.54,19.43c6.24,0.67,20.5-7.65,21.65-7.6c3.14,0.15,2.03,3.4,2.49,5.11
						c-4.86,2.75-9.34,5.68-13.68,9.24c-1.77,1.45-2.5,2.16-4.11,3.7c-4.25,4.06-7.53,8.63-11.42,12.96
						c-1.15,1.28-1.88,2.84-2.97,4.17c-6.15-0.02-6.15-0.02-12.29-0.03c-1.09-0.79-0.97-2.45-1.58-3.25
						c-1.91-2.49-12.83-15.91-14.3-16.74c-2.84-1.61-7.21-0.04-9.54-6.52c17.42,2.47,34.98,8.1,52.58,3.62
						c-10.13,1.03-19.99,0.93-30.05-0.31c-2.06-4.28,1.07-1.84-1.36-3.72c-8.86-6.87-12.99-12.22-13.85-12.56
						c-0.94-0.38-16.85,0.32-13.86-10.48c1.47-5.28,7.94-1.55,8.43-1.6c0.52-0.06,7.4-5.33,8.89-5.78
						c-1.56-2.74-18.46-18.81-14.29-20.22c1.81-0.61,30.71,0.55,36.88,0.1c1.65-1.69,0.24-6.17,0.25-6.49
						c0.08-6.15,0.4-8.11-1.33-13.92c4.06,5.32,1.65-11.77,2.33-20.64c-4.54-5.7-4.54-5.7-9.07-11.39c-0.02-0.07-1.22-0.76,0-1.39
						c2.99,3.37,6.15,6.57,9.31,9.77c-0.04-5.92,0.9-12.72,0.28-18.56c1.86-0.33,0.4,3.65,0.89,5.8c0.07,0.31,1.53,0.2,2.26,5.57
						C155.11,203.53,155.72,224.57,156.32,225.88z"/>
					<path class="st9" d="M180.57,267.24c6.23-0.06,4.12,5.47,2.26,6.04c-7.76-0.4-31.22,1.29-24.12-2.39
						C159.69,270.38,179.46,267.25,180.57,267.24z"/>
					<path class="st9" d="M179.17,278.37c19.8-0.39-21.53,10.24-22.1,8.52C155.46,282.05,175.81,280.01,179.17,278.37z"/>
					<path class="st20" d="M182.79,286.73c0.33-0.03,1.03-0.11,1.14,0.24c-8.84,3.75-17.22,9.36-26.44,12.45
						C161.48,297.11,180.52,286.96,182.79,286.73z"/>
					<path class="st21" d="M155.1,255.57c0.23,0.7,0.23,0.7,0.45,1.39C150.89,256.31,154.87,255.51,155.1,255.57z"/>
				</g>
			</g>
			<path class="st14" d="M219.49,103.1c-1.72,1.81,0.2,2.35,0.9,4.18c-10.06,7.74-20.49,15.29-30.11,23.58
				c-10.93,9.42-21.01,18.85-27.86,31.94c-2.45,0.7-5.87,10.35-5.96,14.13c-1.95,0.86,0.15-3.3-1.81-3.02
				c0.05-1.23-0.09-2.49,0.01-3.71c0.21-2.68,0.32-5.75,0.93-8.35c1.45-6.12,8.59-16.07,12.81-20.84
				C182.95,124.52,201.18,114.24,219.49,103.1z"/>
			<path class="st9" d="M151.43,183.18c0,0.23,0,0.23,0,0.46c-2.02-0.29-15.22-8.97-15.68-9.79c-0.73-1.3,0.12-1.85,0.69-2.78
				c3.47,2.92,7.67,5.01,11.13,7.92C149.02,180.2,149.4,181.78,151.43,183.18z"/>
			<path class="st9" d="M154.64,173.91c-0.05,1.34,0.06,15.98-0.93,8.81c-0.46-3.36-0.49-9.41,0.94-12.52
				C154.56,171.42,154.69,172.68,154.64,173.91z"/>
			<g>
				<path class="st22" d="M190.36,97.45c0.45-2.95,6.56-17.64,5.97-19.24c-0.14-0.37-0.6-0.23-0.91-0.23
					c4.2-11.64-4.16,7.99-8.69,15.98c-2.92,5.14-6.32,10.14-9.6,15.05c-3.45,5.17-7.19,10.18-10.74,15.28
					c-0.77-8.01-0.77-8.01-1.55-16.01c-0.12,2.96-6.26,36.12-8.07,35.94c-3.83-14.84-10.83-28.36-17.87-41.81
					c-9.75-18.61-21.25-35.84-32.63-53.45c0.48,0.04,1.81,0.33,2.28,0.47c17.37,5.09,45.69,27.25,52.46,45.61
					c5.47-21.4,22.53-37.39,40.2-49.07C200.93,64.01,197.63,81.05,190.36,97.45z"/>
				<path class="st23" d="M190.36,97.45c-3.4,7.67-7.4,15.02-12.35,21.77c-0.7,0.96-3.08,2.94-4.11,5.56
					c-0.17-2.17,4.45-10.33,5.96-13.44c4.75-9.82,12.06-23.61,15.57-33.36c0.31,0,0.77-0.13,0.91,0.23
					C196.93,79.81,190.81,94.5,190.36,97.45z"/>
				<path class="st14" d="M174.35,124.78c-0.23,0-0.23,0-0.46,0c1.03-2.62,3.41-4.6,4.11-5.56
					C177.44,121.98,174.75,124.23,174.35,124.78z"/>
				<path class="st24" d="M173.9,125.71c-0.94-0.12,0.04-0.46,0-0.93c0.23,0,0.23,0,0.46,0C174.32,124.82,174.26,125.1,173.9,125.71
					z"/>
				<path class="st25" d="M195.43,77.98c-3.51,9.75-10.82,23.54-15.57,33.36c0.4-1.88-1.51-1.6-2.73-2.33
					c3.28-4.92,6.68-9.91,9.6-15.05C191.27,85.97,199.62,66.34,195.43,77.98z"/>
			</g>
			<path class="st9" d="M112.24,196.06c8.74,19.07,28.93,25.82,32.47,28.85c1.94,1.66,3.26,5.4,5.22,7.21
				c-0.24,1.66-22.78,0.61-29.81-5.42c-3.45-2.96-23.83-38.44-26.51-46.01C94.42,181.61,109.6,195.02,112.24,196.06z"/>
			<path class="st9" d="M191.18,131.79c-4.76,4.18-13.06,11.72-16.89,16.42c-13.58,16.67-13.43,30.43-16.03,36.38
				c-0.04,0.1-0.66,1.56-0.91,1.16c-0.32-11.67,0.16-13.57,5.07-22.95c6.85-13.09,16.93-22.52,27.86-31.94
				C190.73,131.32,190.73,131.32,191.18,131.79z"/>
			<path class="st12" d="M225.4,104.04c-10.77,10.1-23.19,18.03-34.22,27.74c-0.45-0.47-0.45-0.47-0.91-0.93
				c9.62-8.29,20.06-15.84,30.11-23.58C221.89,106.12,223.84,105.12,225.4,104.04z"/>
			<path class="st26" d="M225.4,104.04c0.1-0.1,0.74-2.14,2.28-1.62C227.04,103.41,226.12,103.54,225.4,104.04z"/>
		</g>
	</g>
</g>
<g>
	<g id="Background_00000168803991754231905190000016237073474547879343_" class="st0">
		<path class="st6" d="M664.35,345.58c0,256,0,256,0,512c-256,0-256,0-512,0c0-256,0-256,0-512
			C408.35,345.58,408.35,345.58,664.35,345.58z"/>
	</g>
</g>
</svg>
