<?xml version="1.0" encoding="utf-8"?>
<!-- Generator: Adobe Illustrator 28.2.0, SVG Export Plug-In . SVG Version: 6.00 Build 0)  -->
<svg version="1.0" id="Layer_1" xmlns="http://www.w3.org/2000/svg" xmlns:xlink="http://www.w3.org/1999/xlink" x="0px" y="0px"
	 viewBox="0 0 400 400" style="enable-background:new 0 0 400 400;" xml:space="preserve">
<style type="text/css">
	.st0{display:none;}
	.st1{display:inline;fill:#DBDCDE;}
	.st2{fill:#D2E5E1;}
	.st3{fill:#0F8E62;}
	.st4{fill:#04637A;}
	.st5{fill:#07766F;}
	.st6{fill:#DBDCDE;}
	.st7{fill:#D6C0CD;}
	.st8{fill:#D4CAD2;}
	.st9{fill:#393E2D;}
	.st10{fill:#5C7E41;}
	.st11{fill:#093B3C;}
	.st12{fill:#111316;}
	.st13{fill:#14473E;}
	.st14{fill:#2E533A;}
	.st15{fill:#3F5F37;}
	.st16{fill:#141D1F;}
	.st17{fill:#0A2325;}
	.st18{fill:#15341E;}
	.st19{fill:#F6EB9E;}
	.st20{fill:url(#SVGID_1_);}
	.st21{fill:#DCCF8F;}
	.st22{fill:#F2E3BB;}
	.st23{fill:#FDFDFB;}
	.st24{fill:#AEB378;}
	.st25{fill:#DECEB7;}
	.st26{fill:#CACD88;}
	.st27{fill:#B1A382;}
	.st28{fill:#87786B;}
	.st29{fill:#CCBEBA;}
	.st30{fill:#EBD6DF;}
	.st31{fill:#C9A4B1;}
	.st32{fill:#CF94A8;}
	.st33{fill:#24151B;}
	.st34{fill:#2E0C11;}
	.st35{fill:#A57D85;}
	.st36{fill:#FEF7C9;}
	.st37{fill:#B59391;}
	.st38{fill:#BEA8A2;}
	.st39{fill:#142531;}
	.st40{fill:url(#SVGID_00000025438113114007928580000011225472179428831893_);}
	.st41{fill:#614D53;}
	.st42{fill:#B57D80;}
	.st43{fill:url(#SVGID_00000133490869314838962670000006179018942944556433_);}
	.st44{fill:#421D2A;}
	.st45{fill:#774156;}
	.st46{fill:#7C5765;}
	.st47{fill:#8E666B;}
</style>
<g>
	<g id="Background_00000135677507907610954800000014400233238291644856_" class="st0">
		<path class="st1" d="M405.6-6.4c0,206.4,0,206.4,0,412.8c-207.3,0-207.3,0-414.6,0C-9,200-9,200-9-6.4
			C198.3-6.4,198.3-6.4,405.6-6.4z"/>
	</g>
	<g>
		<path class="st2" d="M17.6,121.6c-21.9,51.7-23.5,106.3,0,157.7c-0.8,0.2-1.7-1.9-2.1-2.7C-4.4,232.6-4.5,180.3,11.5,135
			C12.6,131.8,15.8,123.3,17.6,121.6z"/>
		<g>
			<g>
				<path class="st3" d="M377.8,110.1c-5.3,0.9-0.7,4.7-3.7,4.5c-21.6-42.9-65-81.7-110.3-97.8c-42.1-14.9-82.1-16.1-124.4-1.6
					C77.7,36.3,31.3,85.6,13.1,148.1C-9,224.2,18.5,299.5,78,349.6c-3.8,0.7,1.4,5.9-1.6,5.8c-26.6-22.2-44.2-44.3-58.7-76
					c-23.5-51.4-21.9-106,0-157.7C41,66.4,89.3,24.3,146.8,7.4c63.5-18.6,130.5-1.3,180.7,40.7C345.8,63.4,366.7,89,377.8,110.1z"/>
				<path class="st4" d="M85.8,362.7c4.9-1.9-0.1-4.5,0.4-6.2c7.6,5.8,15.8,11.2,24.2,15.6c40.2,20.9,85.5,27.1,129.8,17.3
					c39.1-8.7,82.1-33.8,107.2-65.3c6.9-7.7,15.5-18.8,20.1-27.9c4.7-6.9,8.2-14.5,11.5-22.2c21.1-48.9,20.1-101.5-0.8-150.3
					c4.4-0.3,2.7-4.7,2.5-7.8c40.1,84.8,16.1,180.2-55.6,239.1c-56.8,46.7-133.2,57.9-201.2,30C107.6,378.3,99.4,373.1,85.8,362.7z"
					/>
				<path class="st5" d="M86.2,356.6c-0.5,1.6,4.5,4.3-0.4,6.2c-3.2-2.5-6.3-4.8-9.4-7.4c3.1,0.1-2.2-5,1.6-5.8
					C80.7,351.9,83.4,354.4,86.2,356.6z"/>
				<path class="st5" d="M380.7,115.9c0.2,3.1,1.9,7.5-2.5,7.8c-1.3-3-2.6-6.1-4.1-9c3,0.2-1.6-3.7,3.7-4.5
					C378.8,112,379.8,113.9,380.7,115.9z"/>
				<path class="st6" d="M374.1,114.6c1.5,2.9,2.8,6,4.1,9c21,48.8,21.9,101.4,0.8,150.3c-1.5,0.3,2.7-7.3,3.7-10.1
					c4.9-13.2,7.7-27.2,9.9-41.1c0.2-5-1.7-8.4,0.8-9c-0.7-1.7-0.7-1.7-1.4-3.5c0.5,5.4-4.2,5.4-4.7,6.4c-0.2,0.4-0.9,9.1-4.3-0.6
					c-3.7,3.8-0.7,6.9-4.3,6.2c7.1-64.6-19.3-124.1-70.2-163.9C261.2,21.5,199.3,8.9,142.3,29.2c-42.1,15-77.7,44.7-99.2,84
					c-46.6,85.3-20,181.5,58.7,235.6c5.9,4,11.4,7.7,17.7,11.1c0.4,2.9-3.6-1.4-6-0.8c-2.8,3.6-5.6,6.2-10.1,6.8
					c-0.2,1.1,7.7,5.2,7,6.4c-8.5-4.4-16.7-9.8-24.2-15.6c-2.8-2.1-5.5-4.7-8.2-7C18.5,299.5-9,224.2,13.1,148.1
					C31.3,85.6,77.7,36.3,139.4,15.2c42.4-14.5,82.4-13.3,124.4,1.6C309.1,33,352.5,71.7,374.1,114.6z"/>
				<path class="st7" d="M347.4,324.1c-25.1,31.5-68.1,56.6-107.2,65.3c-0.1-1.3-8.4,1.4-12.5,2.1c-14.9,2.2-43.1,2.3-57.9,0
					c-2.8-0.4-18.1-3.3-18.7-5.5c1.7-5.8,0.7-8.7,7-10.9c69.2,17.5,138.9-10.3,183.2-64.9c2-0.9,9.4-6.2,10.3-3.5
					c-2.3,9.3,3.4,4,2.9,8.2C354.3,315.5,348.3,323,347.4,324.1z"/>
				<path class="st6" d="M379,274c-3.3,7.7-6.8,15.3-11.5,22.2c1.2-2.3,1.7-5.3,3.7-7.2c-3-3.9,7.3-7.1-1.4-6.8
					c-6.5-10.4-6.1-1.9-7.2-5.8c8.3-17.2,13.9-35.2,16-54.2c3.6,0.8,0.6-2.4,4.3-6.2c3.4,9.7,4.1,1.1,4.3,0.6
					c0.5-0.9,5.2-0.9,4.7-6.4c0.7,1.7,0.7,1.7,1.4,3.5c-2.5,0.7-0.6,4.1-0.8,9c-2.1,13.9-5,27.8-9.9,41.1
					C381.7,266.7,377.5,274.3,379,274z"/>
				<path class="st6" d="M119.5,359.9c12.3,6.5,25.1,11.8,38.6,15.2c-6.3,2.2-5.2,5.1-7,10.9c0.6,2.2,15.9,5.1,18.7,5.5
					c14.8,2.3,43,2.2,57.9,0c4.2-0.6,12.4-3.3,12.5-2.1c-44.3,9.9-89.5,3.7-129.8-17.3c0.7-1.2-7.2-5.2-7-6.4
					c4.5-0.5,7.2-3.2,10.1-6.8C115.9,358.4,119.9,362.8,119.5,359.9z"/>
				<path class="st8" d="M367.5,296.2c-4.6,9.2-13.2,20.2-20.1,27.9c0.9-1.2,6.9-8.7,7-9.2c0.6-4.2-5.2,1-2.9-8.2
					c-0.9-2.7-8.2,2.6-10.3,3.5c7.7-9.6,16-22.6,21.4-33.7c1.1,3.8,0.7-4.7,7.2,5.8c8.7-0.4-1.5,2.9,1.4,6.8
					C369.2,290.9,368.7,293.9,367.5,296.2z"/>
				<path class="st9" d="M308.4,58.4c-4.6-0.7-11.8-6.5-16.6-9c-24.6-12.8-63.6-21.7-91.2-20.1C168.6,31,127,49.9,102,69.9
					c-44.1,35.2-74.8,89.4-71.3,146.8c2.1,33.5,20.6,78.5,42.7,103.9c8.1,9.3,17.8,16.8,26.5,25.3c1,1,1.7,1.4,1.8,2.9
					C23,294.7-3.5,198.5,43.1,113.2c21.5-39.3,57.1-69,99.2-84C199.3,8.9,261.2,21.5,308.4,58.4z"/>
			</g>
			<g>
				<path class="st10" d="M308.4,58.4c50.9,39.8,77.4,99.2,70.2,163.9c-2.1,19-7.7,37-16,54.2c-5.4,11.1-13.6,24.1-21.4,33.7
					c-44.3,54.6-114,82.4-183.2,64.9c-13.5-3.4-26.3-8.7-38.6-15.2c-6.3-3.3-11.8-7.1-17.7-11.1c-0.2-1.5-0.8-1.9-1.8-2.9
					c-8.7-8.5-18.4-16-26.5-25.3c-22.1-25.5-40.7-70.4-42.7-103.9C27.2,159.3,57.9,105.1,102,69.9c25-20,66.6-38.9,98.6-40.7
					c27.6-1.5,66.5,7.3,91.2,20.1C296.6,51.8,303.7,57.7,308.4,58.4z"/>
				<g>
					<g>
						<path class="st11" d="M306.7,267c-8.3,18.5-20.3,23.8-23.4,27.3c-0.9,1-3.5,6.5-4.3,6.8c-6.1,2.1-5.7-6.7-14.4,12.3
							c-2.1,0.5,0.2-9-18.5-4.5c-7,1.7-28.2,14.2-29.2,15.6c-1.3,1.9-0.2,3.8-0.8,5.8c-2.3-2.9-5-3.5-8.4-4.1
							c11-6.1,26.3-22.2,29.8-23.4c6-2.1,15.4,0.3,21.6,1.6c1.8,0.4,5.4,2.3,8,2.1c1.1-1.6,1.4-3.8,2.3-5.3
							c9.2-17,7.5-21.8,26.5-30.4C298.8,269.4,303.5,267.9,306.7,267z"/>
						<path class="st12" d="M128.9,281.8c-9-4.9-19-8.5-27.9-13.6c-0.6-0.4-3-2.6-4.1-3.3c9.8,3.6,28.3,2.1,38-2.5
							C135.8,262.9,129.9,269.8,128.9,281.8z"/>
						<path class="st13" d="M184.8,311.8c3.3,5,11.5,11.6,12.3,13.1c0.5,1,1.3,1.5-0.4,2.5c-0.4,0.2-3.5,0.3-5.1,1.6
							c-1.3-0.4-0.3-4.4-0.6-5.5c-0.4-1.3-19.6-13.4-22-14.2c-9.1-2.9-17.4-0.1-25.9,3.3c-0.1-4.7-2.2-4.1-6-6.6
							c14.5,1.9,20.8-3.8,35.5,1.2C177.1,308.8,184.3,314.2,184.8,311.8z"/>
						<path class="st11" d="M327.3,202.5c-0.6-0.5-2.1-1.6-2.5-2.1c-0.1-0.2,0.4-0.6,0.4-0.6c-2.7-3.6-6.1-6.4-9.4-9.2
							c-3.5-3-4-3.7-8.2-6.2c-1.1-0.7-2-1.5-4.1-2.5c-1.8-1.1-1.8-1.1-3.7-2.3c3.1-5.2,3.1-5.2,6.2-10.5c3,13.8,22.3,25.5,22.6,27.3
							c0,0.2-1.7,1.2-1.6,2.1c0,0.2,2.1,2.2,2.1,2.5C328.9,201.4,327.3,202.5,327.3,202.5z"/>
						<path class="st14" d="M128.9,281.8c-0.2,1.9-0.1,5,0,7c-8-1.3-22-12.9-27.5-18.9c0-0.1,0.3-0.5-0.8-1.2c0.3,0,0.5-0.1,0.4-0.4
							C109.9,273.3,119.9,277,128.9,281.8z"/>
						<path class="st14" d="M117,174.2c0.2,0.1,1.6-0.3,1,0.4c-5.6,1-13.6,2.7-18.7,4.9c-0.9-8-0.9-8-1.8-16
							C98.4,162.8,113.6,175.4,117,174.2z"/>
						<path class="st11" d="M273.1,106.4c8.5,7.9,13.5,11.6,15.2,23.8c-13.7,6.5-3.7-4.5-13.1-20.3
							C274.2,108.3,271.1,106.2,273.1,106.4z"/>
						<path class="st15" d="M130.1,120.8c0.6,5.9,2.2,11.5,5.3,16.6c-5.4-1.5-10.8-2.9-16.4-3.1
							C121.5,129.4,125.5,123.9,130.1,120.8z"/>
						<path class="st14" d="M241.4,106.4c-0.9,0.3-2.2,0.6-2.9,0.8c-4.8-8.8-12.4-15.7-20.1-21.8C226.3,88.7,242.8,96.7,241.4,106.4
							z"/>
						<path class="st16" d="M308.4,265.4c-0.2-1.2,0.8-2.4,0.8-2.9c0-1.9-4.1-10.7-5.3-12.7c2.3-0.9-1.2-3.8,2.9-6.2
							c0.7,0.5,4.5,2.8,4.5,3.1c-0.4,1.3-3.3,5.6-3.3,6.2c0,0.6,4.6,8.6,6,9.2C314.9,262.6,319.2,261,308.4,265.4z"/>
						<path class="st14" d="M110.4,230.9c-1.7,1.6-3.4,3.6-4.9,5.3c-2-3.2-2.1-8-4.1-11.1C105.9,228,105.9,228,110.4,230.9z"/>
						<path class="st17" d="M204.9,327.4c-4,2-4.8,4.5-8.2,0c1.7-0.9,0.9-1.5,0.4-2.5c0.2,0,0.2,0,0.4,0c1.9,2,2.5,0.9,6.6-2.1
							C204.8,324.5,205.6,325.7,204.9,327.4z"/>
						<path class="st18" d="M100.6,268.7c1.1,0.8,0.8,1.2,0.8,1.2c-3.7-0.5-3.7-0.5-7.4-1C94.6,267.9,97,268.9,100.6,268.7z"/>
						<g>
							<path class="st14" d="M178.2,101.1c-0.8,2.7-1.2,6.6-1.6,9.4c-1.2-0.3-0.6,1.1-1,1.2c-0.4,0.1,0-3.5-6,3.3
								c-1.7-1.5-3.5-2.9-5.3-4.1C164.4,103.7,172,93,178.2,101.1z"/>
							<path class="st18" d="M176.6,110.5c-0.5,3.6-0.9,7.1-1,10.7c-0.3,0.3-5.4-5.6-6-6.2c6-6.8,5.5-3.2,6-3.3
								C175.9,111.7,175.3,110.3,176.6,110.5z"/>
						</g>
						<path class="st16" d="M269.4,301.1c-0.9,1.6-1.1,3.8-2.3,5.3c-2.6,0.3-6.2-1.7-8-2.1c-0.7-1.6,2.3-2.2,3.3-3.3
							c1.1,0.2,3.7,1.3,3.9,1.2c0.5-0.7,0.6-1.5,0.6-1.6C268.1,300.9,268.1,300.9,269.4,301.1z"/>
					</g>
					<g>
						<path class="st12" d="M327.3,202.5c-7.5,13.3-8.7,22.5-24.2,37.6c0,1.2,2.8,2.8,3.7,3.5c-4,2.3-0.6,5.2-2.9,6.2
							c-3.1-5.4-12-16.8-17.2-20.5c-1.2-1.5-2.6-3.1-4.5-3.7c0.1-0.2-0.2-1,0.2-1.2c2.2-1.1,20.3,0.7,42.5-23.8
							C325.1,200.9,326.7,202.1,327.3,202.5z"/>
						<path class="st12" d="M305.9,169.3c-3.1,5.2-3.1,5.2-6.2,10.5c1.8,1.1,1.8,1.1,3.7,2.3c-8.1-3.9-15.9-5.2-24.6-6.8
							c15.4-9.1,23.5-25.8,23.8-43.3c4.5,4,4.5,4,9,8C311.3,149.6,310.5,160.5,305.9,169.3z"/>
						<path class="st12" d="M230.8,287.2c9.5,8.6,19.2,11.5,31.6,14c-1,1.1-4,1.7-3.3,3.3c-6.2-1.3-15.6-3.7-21.6-1.6
							c-3.5,1.2-18.8,17.3-29.8,23.4c-0.9,0.5-2,0.8-2.9,1.2c0.7-1.7-0.1-2.9-0.8-4.5c12.7-9.1,21.7-26.1,20.5-41.9
							C226.6,283.1,228.6,285.2,230.8,287.2z"/>
						<path class="st12" d="M184.8,311.8c-0.4,2.4-7.7-3-12.1-4.5c-14.7-5-21,0.7-35.5-1.2c-0.3-0.2-3.7-0.9-5.7-4.5
							c18.5-0.7,34.4-4.1,45-20.5C176.6,291.7,178.8,302.7,184.8,311.8z"/>
						<path class="st12" d="M309.2,262.5c0,0.4-1,1.7-0.8,2.9c-0.8,0.8-0.8,0.8-1.6,1.6c-3.2,0.8-7.9,2.3-10.9,3.7
							c-19,8.6-17.3,13.4-26.5,30.4c-1.2-0.2-1.2-0.2-2.5-0.4c1.2-2.5,1.5-6.3,1.6-9c0.3-5,0-12.2-1.2-17c-3.5-14.5-10.3-9.6,6.8-8
							C285.9,267.7,298,266.5,309.2,262.5z"/>
						<path class="st12" d="M273.1,106.4c-1.9-0.2,1.1,1.9,2.1,3.5c9.5,15.9-0.5,26.8,13.1,20.3c0.1,0.4,0,0.8,0,1.2
							c-10.6,1-20.8,4.5-30,9.7c7.9-13.7,10.8-25.4,8.2-41.3C268.5,100.9,271.3,104.8,273.1,106.4z"/>
						<path class="st16" d="M218.4,85.5c7.8,6.1,15.3,13,20.1,21.8c-5,1.7-10.4,5-14.2,8.6c-1.1-16.2-9.4-31.6-22.4-41.5
							C207.2,78.3,213.4,81.5,218.4,85.5z"/>
						<path class="st16" d="M110.4,230.9c-4.5-2.9-4.5-2.9-9-5.8c-0.5-0.8-7.7-7.3-9.9-9.4c8,4.4,16.5,8.5,25.7,9.9
							C115.7,227.5,112.2,229.3,110.4,230.9z"/>
						<path class="st19" d="M182.7,137.6c-4.3,1.1-7.9,2.6-11.9,4.5c-3.4-7.8-2.5-4.6-1.6,0.8c-11,5.8-19.7,14.3-25.9,25.1
							c-7-3.8-7-3.8-14-7.6c8.2-17.8,9.7-9,12.1-8.4c0.3,0.1,0.9,0.1,1-0.2c-1.2-2.8-1.2-2.8-2.5-5.5c0.1,0-0.2-0.9,0.6-1.2
							c0.3-0.1,1.3,0.1,1.4,0c2.6-2.1-0.2-4.9,6.8-3.7c6.7-10.5,8.5-11.5,12.3-2.5c0.8-1.9-2.8-6.7-2.3-8c0.1-0.3,5.4-3.1,6-1
							c0.3-2.3,8.3-5.4,9.7-4.7C178.6,131.4,178.6,131.4,182.7,137.6z"/>
						<path class="st19" d="M207.4,136c-8.4-1-14.8-0.6-23,1.2c-3.5-6.3-3.5-6.3-7-12.5c0.2-2.1,15.1-4.5,17.5-4.3
							c0.4,6.4,0.4,6.4,0.8,12.7c0.5-15.6-1.8-14.1,15.8-12.1C209.4,128.5,209.4,128.5,207.4,136z"/>
						<path class="st19" d="M137.9,180c-0.2,0.6-0.7,1.4-0.8,2.1c-1.7,6.3-2.5,12.8-2.5,19.3c-2.2-0.3-15.4,0.7-16-0.6
							c-2.4-5.3,6.7-2.7,6.6-4.5c-6.5-2.3-7.4-1.1-6.6-11.7C119.9,169.1,128.5,178.5,137.9,180z"/>
						<linearGradient id="SVGID_1_" gradientUnits="userSpaceOnUse" x1="268.3737" y1="192.0836" x2="271.6968" y2="211.1008">
							<stop  offset="0" style="stop-color:#989271"/>
							<stop  offset="1" style="stop-color:#6E5D56"/>
						</linearGradient>
						<path class="st20" d="M278.4,187.3c-0.1,0.8-1.1,2.9-1.2,4.1c0,0.1-0.8,1.3-0.8,1.4c-0.1,0.6,1.1,1.4-0.8,11.1
							c-0.2,0.9,0.5,1.2,0.4,1.4c0,0.1,0,0.3,0,0.4c0,0.1-0.2-0.5-0.8,1.6c0,0-0.7-0.2-0.8,0.2c-5.4,16.4-4,6.2-9.9,8.8
							c-0.1,0.1-0.5-0.1-0.4,0.4c-1.1-0.6-1.6-0.3-2.5-1.6c1.2-8.2,0.9-16.5-0.4-24.6C266.8,190.4,273.3,185.3,278.4,187.3z"/>
						<path class="st19" d="M134.7,203c0.1,3.5,0.6,9.3,1.2,12.7c-2.4,1-10.6,5.6-11.7,5.8c-5.6,0.8-28.8-5-31.4-12.1
							c0.5-0.8,4.2,2,6.4,2.7c4.4,1.3,11.8,1.7,17.5,2.9c9.4,1.9,7.2,2.8,7.6,2.9c1.8,0.3,2.5-2.6-6-4.3c1.7-3.7-0.9-5.2,4.1-4.9
							C111.8,200.8,124.7,202.3,134.7,203z"/>
						<path class="st19" d="M246,157.4c-1.6-1.8-6.3-6.2-8.2-7.8c8.7-8.4,6.4-21.6,13.1-32.2c3.4-5.4,15.1-14.8,12.3-8.2
							c-0.4,0.9-7.9,10-10.7,15.2c-4.5,8.6-5.4,10.9-2.9,20.5c4.5-0.5,3-5.2,7.4,0.4C251.5,151.3,251.5,151.3,246,157.4z"/>
						<path class="st19" d="M236.9,148.7c-1.8-1.4-3.9-2.5-5.7-3.7c-4.3-2.7-6.1-4-11.1-5.8c3.8-9.5,3.6-17.6,10.5-12.7
							c1.5,1,1.4,2.8,1.6,2.9c2.3,1.1,8.4-8.3-1.6,13.1c3.9-6.6,3.9-6.6,7.8-13.1C246.7,135.4,242.2,142.3,236.9,148.7z"/>
						<path class="st21" d="M180.7,265.4c-3,0-0.5,6.2-1.2,12.7c-7.8-3-7.8-3-15.6-6c0.8-1.8,0.8-1.8,1.6-3.7
							c-2.4-0.3,6.8-4.1,4.7-5.1c-3.2,3.3-7.6,4.5-11.5,7c-12.1-3.7-1.2-5.4,2.7-15.2C167.6,259.9,173.1,262.9,180.7,265.4z"/>
						<path class="st22" d="M117,184.5c-0.1,0.3,0.2,0.9-0.2,1.2c-0.7,0.4-10.8-0.3-13.1,0c-10.8,1.4,12.3,0.6,13.1,1.2
							c0.3,0.2,0.3,5.1,0,5.3c-0.3,0.3-3.2-0.8-8.8-1.2c-5.6-0.4-11.1-0.6-16.6-0.4c-4.7-3,24.7-14.2,26.9-12.9
							C117.6,179.5,117.3,183.6,117,184.5z"/>
						<path class="st22" d="M107.6,191.9c11.8,0.9,10.1,2.4,9.2,9.4c-2.7,0.1-5.3-0.1-8,0c-4.6,0.1-9.2-0.1-13.8,0
							c-1-0.5-1.5-8.8-0.8-9C98.6,192.2,103.1,191.5,107.6,191.9z"/>
						<path class="st19" d="M160.5,254.7c-10.3,14.3-9.4,15.6-19.7,6.4c-0.2-1.1,10.6-11.8,12.3-13.3
							C154,248.6,160,254.3,160.5,254.7z"/>
						<path class="st22" d="M108.8,203c1.3,0,7.7-0.2,8.2,0.2c0.3,2.5,1.1,4.8,0.8,7.4c-0.2,1.3-1.6,2.5-1.6,2.7
							c-10-1.2-17.1-0.1-21.6-10.3C99.3,203.1,104.1,202.8,108.8,203z"/>
						<path class="st21" d="M192.2,268.3c0.8,6.8,0.8,6.8,1.6,13.6c-0.2,0-1.9-0.6-3.3-0.8c-2.4-0.5-4.2-1.3-4.9-0.8
							c-0.3-0.7-0.5-1.3-0.6-2.1c-1.3,2.4-3.6,0-5.5,0c0.7-6.6-1.8-12.7,1.2-12.7C184.6,266.7,188,267.8,192.2,268.3z"/>
						<path class="st19" d="M142.5,169.3c-1.7,3.1-3,6.1-4.1,9.4c-6.9-2.7-6.9-2.7-13.8-5.3C128,157.9,129.1,162.7,142.5,169.3z"/>
						<path class="st19" d="M218.4,138.5c-3.2-1-6.6-1.6-9.9-2.1c2.1-7.1,2.1-7.1,4.1-14.2c0.9-1.2,8.6,1.4,10.3,2.1
							C220.7,131.4,220.7,131.4,218.4,138.5z"/>
						<g>
							<path class="st22" d="M124,234.2c0.6,0.6,1.2,1.4,2.1,1.6c-11.5,7.2-14.8,8-25.7,20.5c-3.5-7.7,19.9-30,21.8-30.4
								c6.9-1.3,0.6,7.1,0.6,7.6C122.8,234.6,123.8,234,124,234.2z"/>
							<path class="st19" d="M151.9,246.1c-10.4,7.7-13.7,16.6-14.8,2.7c6.4-2.7-3.5-2-3.7-3.7c5.7-3.6,5.7-3.6,11.5-7.2
								C146.8,240.7,149.6,243.5,151.9,246.1z"/>
							<path class="st19" d="M139.2,226.4c-3.5,3.9-8.6,6.6-13.1,9.4c-0.9-0.3-1.4-1-2.1-1.6c5.8-6.5,1.1-9.5,1.2-10.1
								c5.7-3,5.7-3,11.5-6C137.4,221.1,138.1,223.5,139.2,226.4z"/>
							<path class="st19" d="M144.1,236.6c-5.9,3.7-5.9,3.7-11.7,7.4c-10-8.9-2.9-6.8,7.2-16C140.1,229.1,143.4,235.6,144.1,236.6z"
								/>
						</g>
						<path class="st23" d="M118.6,184.5c-0.8,10.6,0.1,9.4,6.6,11.7c0.1,1.8-8.9-0.8-6.6,4.5c0.6,1.3,13.8,0.3,16,0.6
							c0,0.5,0,1.1,0,1.6c-10-0.7-22.9-2.1-12.3,5.5c-5-0.3-2.4,1.2-4.1,4.9c8.4,1.7,7.7,4.6,6,4.3c-0.4-0.1,1.9-0.9-7.6-2.9
							c0-1.5-0.9-0.2-0.4-1.6c0-0.1,1.5-1.3,1.6-2.7c0.3-2.5-0.5-4.9-0.8-7.4c-0.5-0.4-6.9-0.2-8.2-0.2c0-0.8,0-0.8,0-1.6
							c2.7-0.1,5.3,0.1,8,0c0.8-7,2.5-8.6-9.2-9.4c0.2-0.4,0.2-0.4,0.4-0.8c5.6,0.4,8.5,1.5,8.8,1.2c0.3-0.3,0.3-5.1,0-5.3
							c-0.9-0.6-24,0.2-13.1-1.2c2.4-0.3,12.4,0.4,13.1,0c0.4-0.3,0.1-0.9,0.2-1.2C117.8,184.5,117.8,184.5,118.6,184.5z"/>
						<path class="st24" d="M278.4,187.3c-5.1-2-11.6,3-17.2,3.3c-0.4-2.3-1.1-4.7-1.6-7c8.1-3.1,8.1-3.1,16.2-6.2
							C270,191.7,279.2,176.6,278.4,187.3z"/>
						<g>
							<path class="st21" d="M263.2,152.8c-0.7,0.8-2,4.5-2.5,5.1c-3.4,4.3-11.3,7,1.8,1c1.7,3.4,1.7,3.4,3.5,6.8
								c-5.1,3.4-5.1,3.4-10.3,6.8c-2.2-4.9-5.2-9.4-8.6-13.6c3.9-3.3,7.9-6.7,11.5-10.3C261,150.8,261,150.8,263.2,152.8z"/>
							<path class="st22" d="M263.2,152.8c-2.3-2.1-2.3-2.1-4.5-4.1c6.9-6.9,3.4-4,3.7-5.5c0.2-0.9,7.8-5,9.2-5.5
								c6.1-2.4,21.6-4.9,19.3-2.1C289.9,136.9,269.2,145.6,263.2,152.8z"/>
							<path class="st25" d="M269.8,170.1c-1.2-1.3-2.2-3.2-3.3-2.9c6.7-3.9,14.6-7.3,20.7-11.1c7.5-4.6,12.5-12,7.2-2.3
								C288,165.8,277.9,163.9,269.8,170.1z"/>
							<path class="st26" d="M266.5,167.2c1.1-0.3,2.1,1.6,3.3,2.9c-0.5,0.4-4.6,4.8-4.1,5.3c2.2,0.5,2.7,0.7,1.6,2.9
								c-2.7,1.5-5.5,2.8-8.2,4.1c-0.9-3.2-1.9-6.4-3.3-9.4C259.5,171.4,263,169.2,266.5,167.2z"/>
							<path class="st21" d="M267.3,178.3c1.1-2.1,0.5-2.4-1.6-2.9c6.4-5.8,14.3-10.3,22.6-12.5C282.5,169.6,275,174.1,267.3,178.3z
								"/>
						</g>
						<g>
							<path class="st23" d="M202,74.4c13,9.9,21.3,25.2,22.4,41.5c3.8-3.6,9.2-6.9,14.2-8.6c0.7-0.3,2-0.6,2.9-0.8
								c8.2-2.4,17.5-1.9,24.4-7.4c0.3,0.4,0,0.5,0.6,0.8c2.6,15.9-0.4,27.6-8.2,41.3c9.2-5.2,19.4-8.7,30-9.7
								c4-0.4,9.5,0.5,13.8-0.4c0.3,0.4,0.3,0.4,0.6,0.8c-0.3,17.5-8.4,34.3-23.8,43.3c8.8,1.6,16.5,2.9,24.6,6.8
								c2.1,1,3,1.8,4.1,2.5c-0.8,0.6-0.8,0.6-1.6,1.2c-7.4-3.7-24.1-8.3-27.3-7c-3.8,1.5,3,3.8,0.2,10.3c-0.2,0.5-1.3,3.5-1.6,2.5
								c0.1-1.2,1.2-3.3,1.2-4.1c0.8-10.7-8.4,4.3-2.7-9.9c-8.1,3.1-8.1,3.1-16.2,6.2c-0.1-0.3-0.3-0.7-0.4-1.2
								c2.8-1.3,5.5-2.6,8.2-4.1c7.6-4.2,15.2-8.7,20.9-15.4c-8.3,2.3-16.1,6.7-22.6,12.5c-0.5-0.5,3.6-5,4.1-5.3
								c8.1-6.1,18.2-4.3,24.6-16.2c5.3-9.8,0.3-2.3-7.2,2.3c-6.1,3.7-14,7.2-20.7,11.1c-3.5,2-7,4.2-10.7,5.8
								c-0.1-0.1,0.1-0.3,0-0.4c5.1-3.4,5.1-3.4,10.3-6.8c-1.7-3.4-1.7-3.4-3.5-6.8c-13.1,6-5.3,3.2-1.8-1c0.5-0.6,1.8-4.3,2.5-5.1
								c5.9-7.2,26.7-16,27.7-17.3c2.3-2.8-13.2-0.3-19.3,2.1c-1.4,0.5-9.1,4.6-9.2,5.5c-0.3,1.6,3.2-1.3-3.7,5.5
								c-3.6,3.6-7.6,7-11.5,10.3c-0.6-0.8-1.1-1.4-1.2-1.6c5.5-6.1,5.5-6.1,11.1-12.1c-4.4-5.6-2.9-0.9-7.4-0.4
								c-2.5-9.7-1.6-11.9,2.9-20.5c2.7-5.2,10.3-14.3,10.7-15.2c2.7-6.6-8.9,2.8-12.3,8.2c-6.7,10.7-4.5,23.8-13.1,32.2
								c-0.3-0.3-0.6-0.6-0.8-0.8c5.2-6.4,9.8-13.3,1.4-19.3c-3.9,6.6-3.9,6.6-7.8,13.1c10.1-21.5,3.9-12,1.6-13.1
								c-0.2-0.1-0.2-1.8-1.6-2.9c-6.8-4.9-6.7,3.2-10.5,12.7c-1.7-0.6-1.6-0.8-1.6-0.8c2.3-7.1,2.3-7.1,4.5-14.2
								c-1.7-0.7-9.3-3.2-10.3-2.1c-2.1,7.1-2.1,7.1-4.1,14.2c-0.3,0-0.4-0.3-1.2-0.4c2.1-7.5,2.1-7.5,4.1-15
								c-17.6-2-15.3-3.5-15.8,12.1c-0.4-6.4-0.4-6.4-0.8-12.7c-2.3-0.2-17.2,2.3-17.5,4.3c3.5,6.3,3.5,6.3,7,12.5
								c-0.6,0.1-1.1,0.3-1.6,0.4c-4.1-6.3-4.1-6.3-8.2-12.5c-1.3-0.7-9.4,2.4-9.7,4.7c-0.6-2.1-5.8,0.7-6,1c-0.6,1.3,3,6.1,2.3,8
								c-3.8-9-5.6-8-12.3,2.5c-7-1.2-4.1,1.6-6.8,3.7c-4.7-4.2-7.2-9.2-13.6-5.5c15.2,11.1-4.7-2.1-11.3-1c-1.6,1,9.1,5.7,12.3,8.6
								c7.7,7-8.2-3.9-10.3-4.9c-6-2.9-11.1-4.1-8.6-1.6c0.8,0.8,13.1,6.4,18.3,13.3c-0.8,1.3-8.6-6.6-11.7-8.4
								c-1.4-0.8-10.3-5.2-9.7-2.3c0.2,1.2,18,12.6,19.7,15.2c-0.3,0.2-0.5,0.6-0.6,0.6c-0.9,0.1-9.5-7.4-15.2-10.3
								c-16.7-8.4,3.5,8.7,13.8,13.8c-0.5,0-1.4,0.6-1.4,0.6c-2-0.1-19.9-10.3-11.5-2.5c4,1.7,4,1.7,8,3.5
								c-0.3,1.6-8.9-2.7-12.3-2.5c1.3,2.8,12.2,12.1,14.4,9.9c2-5.1,9.8-23.5,14.2-25.3c1.7-0.7,3.3,0.1,3.5,0
								c1.2,2.8,1.2,2.8,2.5,5.5c-0.2,0.3-0.7,0.3-1,0.2c-2.4-0.6-3.9-9.4-12.1,8.4c7,3.8,7,3.8,14,7.6c-0.4,0.6-0.8,1.2-0.8,1.2
								c-13.3-6.5-14.5-11.3-17.9,4.1c6.9,2.7,6.9,2.7,13.8,5.3c-0.1,0.4-0.3,0.8-0.4,1.2c-9.5-1.5-18.1-10.8-19.3,4.5
								c-0.8,0-0.8,0-1.6,0c0.3-0.9,0.6-5,1.2-6.8c-2.2-1.3-31.6,9.9-26.9,12.9c5.6-0.1,11.1,0,16.6,0.4c-0.2,0.4-0.2,0.4-0.4,0.8
								c-4.4-0.3-8.9,0.3-13.3,0.4c-0.7,0.3-0.2,8.5,0.8,9c4.6-0.1,9.2,0.1,13.8,0c0,0.8,0,0.8,0,1.6c-4.7-0.1-9.5,0.1-14.2,0
								c4.5,10.2,11.5,9.1,21.6,10.3c-0.5,1.5,0.4,0.2,0.4,1.6c-5.6-1.1-13-1.6-17.5-2.9c-2.2-0.7-5.9-3.5-6.4-2.7
								c2.7,7.1,25.9,12.9,31.4,12.1c1.1-0.2,9.3-4.8,11.7-5.8c0,0.1,0.7,1.8,0.8,2.5c-5.7,3-5.7,3-11.5,6
								c-0.1,0.6,4.6,3.6-1.2,10.1c-0.2-0.2-1.2,0.5-1.2-0.6c0-0.5,6.3-8.9-0.6-7.6c-1.9,0.3-25.2,22.7-21.8,30.4
								c10.9-12.6,14.1-13.3,25.7-20.5c4.5-2.8,9.7-5.6,13.1-9.4c0.1,0.4,0.3,1.3,0.4,1.6c-10.1,9.2-17.2,7.1-7.2,16
								c5.9-3.7,5.9-3.7,11.7-7.4c0.2,0.4,0.6,0.8,0.8,1.2c-5.7,3.6-5.7,3.6-11.5,7.2c0.2,1.7,10.1,1,3.7,3.7
								c1.1,13.9,4.4,5,14.8-2.7c0.4,0.5,0.8,1.2,1.2,1.6c-1.7,1.6-12.5,12.3-12.3,13.3c10.3,9.2,9.4,7.9,19.7-6.4
								c0,0,0.2-0.1,0.8,0.4c-3.8,9.8-14.7,11.5-2.7,15.2c3.9-2.4,8.3-3.7,11.5-7c2.1,1.1-7.1,4.8-4.7,5.1c-0.8,1.8-0.8,1.8-1.6,3.7
								c7.8,3,7.8,3,15.6,6c2,0,4.3,2.4,5.5,0c0.2,0.7,0.4,1.3,0.6,2.1c0.3,0.8,1.1,4,1.2,4.7c0.3,2.3,0.5,15-0.4,11.1
								c-1.3-5.7,2.2-17.4-7-16.4c0.4,25.2,6.4,21.1,7,22.2c-1.6,6.5,4.1,9.9,7.4,14.2c4.9,6.5,2.3,6.8,2.5,7.2
								c1.2,0.3,1.2,1.8,1.2,1.8c-0.2,0-0.2,0-0.4,0c-0.8-1.6-9-8.1-12.3-13.1c-6-9.1-8.1-20.1-8.4-30.8
								c-10.6,16.4-26.5,19.9-45,20.5c-2-3.6-2.3-8.7-2.5-12.7c-0.1-2-0.2-5.1,0-7c1-12,6.9-18.9,6-19.3c-9.7,4.6-28.2,6.1-38,2.5
								c-0.9-0.3-4.4-1.9-4.5-3.1c3.1-9.2,6.9-18.2,13.1-25.7c1.5-1.8,3.2-3.8,4.9-5.3c1.7-1.6,5.2-3.4,6.8-5.3
								c-9.2-1.3-17.6-5.4-25.7-9.9c-2.2-2.2-15.4-13.6-15.2-15.8c6-8.4,13.3-16.2,23-20.3c5.1-2.2,13.1-3.9,18.7-4.9
								c0.6-0.7-0.9-0.3-1-0.4c-2.4-1.9-5.3-3-7.6-4.9c-7.7-6.3-14.2-19.4-17-29c8.3-4.7,17.2-6.3,26.7-6c5.6,0.2,11,1.6,16.4,3.1
								c-3.1-5.1-4.8-10.7-5.3-16.6c-0.7-7.6-0.2-15.1,2.7-22.2c10.3,5,21.7,6,31.4,12.3c1.9,1.2,3.7,2.7,5.3,4.1
								c0.6,0.5,5.6,6.4,6,6.2c0.1-3.6,0.5-7.1,1-10.7c0.4-2.8,0.8-6.8,1.6-9.4c3.5-11.8,12.7-20.4,21.6-28.3
								C200.5,72.9,201.1,73.7,202,74.4z"/>
							<g>
								<path class="st22" d="M140.2,262.9c1-0.3,8.1,6.1,8.6,6.2c2,0.3,1.4-3.4,7.2,2.3c-6.6,5.9,0.9,0.8,1.4,1
									c1.4,0.6,3.8,14.5,3.9,8.8c0-0.4-1.2-4.5-0.8-5.8c1.1-3.4,12.8-1,8.8,7.6c2.9-0.9,1.2-6.7,1.6-7c7.5,2.2,3.1,4.8-3.7,11.5
									c-0.4-3.3-0.4-3.3-0.8-6.6c-0.1,5.5-4.8,9.5-9.4,11.9c0.9-3.3,0.7-12.5-0.6-15c-2.3-4.5,1.9,11.3-0.4,15.6
									c-17,7.8-4.3,0.5-3.3-9c1-9.8-1.9,6.3-6.2,10.7c-3.5,3.6-6,3-10.9,3.1c4.8-4.8,4.8-4.8,9.7-9.7c2.7-5.9,7.7-17.1,3.7-11.5
									c-1.5,2.1-3.4,11.6-9.7,16.2c-7.3,5.5-0.2-1.1,3.1-7.6c0.7-1.4,5.7-12.8,5.7-13.6c0.1-1-0.2-1.4-0.8-0.8
									c-3.1,6.2-5.8,14.8-10.3,20.1c-3.8,4.5-4.9,4.3-3.7-2.9c1-6,11.5-19.8,10.5-20.3c-5.2,5.4-8.6,12.2-12.1,18.7
									C133,278.6,135.6,270.1,140.2,262.9z"/>
								<path class="st22" d="M142.1,145c-0.2,0.1-1.1-0.1-1.4,0c-0.8,0.4-0.6,1.2-0.6,1.2c-0.2,0.1-1.8-0.7-3.5,0
									c-4.3,1.8-12.2,20.2-14.2,25.3c-2.1,2.3-13.1-7.1-14.4-9.9c3.4-0.2,12.1,4.1,12.3,2.5c-4-1.7-4-1.7-8-3.5
									c-8.4-7.8,9.5,2.4,11.5,2.5c0.1,0,0.9-0.6,1.4-0.6c-10.3-5-30.4-22.2-13.8-13.8c5.7,2.9,14.3,10.4,15.2,10.3
									c0.1,0,0.4-0.4,0.6-0.6c-1.7-2.6-19.5-14-19.7-15.2c-0.6-3,8.3,1.5,9.7,2.3c3.1,1.8,10.9,9.7,11.7,8.4
									c-5.2-6.9-17.5-12.6-18.3-13.3c-2.5-2.5,2.7-1.3,8.6,1.6c2.1,1,18,11.9,10.3,4.9c-3.3-2.9-13.9-7.6-12.3-8.6
									c6.6-1.1,26.5,12.1,11.3,1C134.8,135.9,137.4,140.8,142.1,145z"/>
								<path class="st22" d="M263.4,111.4c2.3,10.1-4.3,24.7-12.3,31.2C245.9,133,257.4,119.1,263.4,111.4z"/>
								<path class="st19" d="M256,106.8c3.3,0.2-3.2,2.7-7.2,10.5c-2.2,4.2-4.7,15.5-5.5,15.4c-0.8-1.6-3.9-3.7-3.9-4.7
									c0-0.8,8.4-17.1,3.7-11.5c-1.9,2.3-3.9,12.4-6.4,10.5c-2-1.5,7.7-16.6,9.4-17.7C246.9,108.8,255.5,106.8,256,106.8z"/>
								<path class="st19" d="M242.5,109.7c0.3,0.3,0.6,0.5,0.6,1c-0.1,0.9-8.4,13.2-9.2,15.4c-3.4-1.7-3.4-1.7-6.8-3.5
									C231.4,116,234.3,111.5,242.5,109.7z"/>
								<g>
									<path class="st22" d="M201.4,82.6c6.9,7.1,6.9,7.1,13.8,14.2c-0.5,7.5-0.9,15.1-3.1,22.4c-4.2-0.7-4.2-0.7-8.4-1.4
										C204.9,113.9,199.7,83.2,201.4,82.6z"/>
									<path class="st22" d="M195.7,92.9c1.5,0-1.5,23-1,24.9c-3.2,0.5-3.2,0.5-6.4,1C187,108.1,189.8,101.4,195.7,92.9z"/>
									<path class="st22" d="M199.8,88.4c1.8,0.4,2.1,26.2,2.7,29.4c-8.2,1.5-7.1,0.2-5.7-14.4C196.8,101.8,198.5,88.1,199.8,88.4
										z"/>
									<path class="st22" d="M187,95.3c1.6,0.1-0.9,21.5-0.6,23.2c-3.2,0.9-3.2,0.9-6.4,1.8C180.6,111.7,182.5,102.9,187,95.3z"/>
									<path class="st19" d="M216.2,97.8c4.9,4.4,5.1,22.3,3.7,23c-3.2-0.7-3.2-0.7-6.4-1.4C215.3,112.3,215.6,105.1,216.2,97.8z"
										/>
								</g>
								<g>
									<path class="st22" d="M125,237.9c1.4,0.1,1.8,2.8,3.5,3.9c-0.1,0.5-0.1,0.5-0.2,1c-8.4,4.2-16.4,9.1-24,14.6
										c0.6,1.6,23.8-14.2,25.3-14.2c0.1,0,1.8,1.7,1.8,1.8c0,1.7-28.4,16.2-29.6,14.4C102.2,253.8,121.5,237.6,125,237.9z"/>
									<path class="st22" d="M132.4,246.1c0.1,0,1.4,0.9,1.4,1c0.1,1.1-13.5,12.9-16.2,14.2c-6.5,3-15,1.5-15,0.6
										C111.9,259.5,130.7,246.1,132.4,246.1z"/>
									<path class="st19" d="M134.5,248.1c0.9-0.1,1.7,1.6,1.8,2.3c2.2,10.3-6.4,9.1-15,11.3C122.8,260,133.5,248.2,134.5,248.1z"
										/>
								</g>
								<g>
									<path class="st22" d="M280.9,149.6c0.6,0.8,0.6,0.8,1.2,1.6c-4.8,4.2-1.5,2.7,2.3,0c5.4-3.9,9.7-9.3,15-13.3
										c-1.6,16.4-20,20.3-31.8,27.3c-1.7-3.4-1.7-3.4-3.5-6.8C269,155.6,276.2,152.6,280.9,149.6z"/>
									<path class="st25" d="M282.1,151.2c-0.6-0.8-0.6-0.8-1.2-1.6c11.6-7.5,12.1-10.4-1.2-0.4c2-4.4,2.5-3.6-2.5-4.5
										c1.3-0.8,26.5-16.1,22.2-8.4C298.1,138.5,284.9,148.8,282.1,151.2z"/>
									<path class="st22" d="M277.2,144.6c5,0.9,4.4,0.1,2.5,4.5c-10.3,6.3-24.2,12.6-12.9,2.1
										C269.3,148.7,274.1,146.5,277.2,144.6z"/>
								</g>
								<g>
									<path class="st22" d="M144.7,108.1c6.1,0.9,10.9,15.1,6.2,0.8c5.1,2.2,10.3,7.3,11.3,12.9c1.3,7.2-1.8,3.6-9.2,10.1
										c-0.9,0.2-1-0.2-1.4-0.6c-5.2-4.3-16.6-38.8,1.6-5.3c0.7,0.6,1-0.1,0.8-0.8c-0.5-1.8-8.2-13.1-9.9-16.4
										C144.4,108.4,144.4,108.4,144.7,108.1z"/>
									<path class="st22" d="M138.2,113c1.4,2.8,13.2,18.3,13.3,19.5c0.1,0.6-4.5,9.4-8.8,2.3c-0.4,11.1-6.9-4.4-5.3-5.8
										c1.3,1.3,1.3,1.3,2.7,2.7C136.7,125.9,137.4,119.4,138.2,113z"/>
									<path class="st19" d="M161.2,113.8c5.2,4.4,5.2,4.4,10.5,8.8c-3.4,1.5-3.4,1.5-6.8,3.1C163,119.8,163,119.8,161.2,113.8z"
										/>
								</g>
								<path class="st22" d="M162.4,269.1c0.8,0.2,0.8,2.5,0.4,2.9c-0.3,0.2-3.5-0.8-3.5-1C159.3,270.8,162.2,269,162.4,269.1z"/>
								<path class="st22" d="M159.5,272.4c3.3-0.7,1.3,2.6,0.4,2.5C159.4,274.7,158.6,272.6,159.5,272.4z"/>
							</g>
						</g>
						<path class="st27" d="M203.7,268.7c2.5,6.2,2.5,6.2,4.9,12.3c-2.5,0.6-4.9,1.6-7.6,1.2c-1-3.3-1-3.3-2.1-6.6
							c0.3,3.2,0.3,3.2,0.6,6.4c-0.2,0.2-5.1-0.1-5.7-0.2c-0.8-6.8-0.8-6.8-1.6-13.6C196,268.7,199.8,268.8,203.7,268.7z"/>
						<path class="st28" d="M220.1,275.7c-1,2.2-6.5,2.7-6.6,4.9c-0.2,0-0.2,0-0.4,0c-0.1-1.2-1.9-0.2-4.5,0.4
							c-2.5-6.2-2.5-6.2-4.9-12.3c5.7-0.2,11.8-1.9,12.5-1.6C217.6,269.1,221.2,273.1,220.1,275.7z"/>
						<g>
							<path class="st29" d="M305.9,185.7c1.4,0.7,2.8,2.1,4.1,2.9c-0.9,3.9-5.7-0.5-15.4-0.8c-5.3-0.2-10.6,2.1-15.8,1.2
								c2.8-6.5-4-8.8-0.2-10.3C281.8,177.4,298.6,182,305.9,185.7z"/>
							<path class="st30" d="M315.8,190.6c-2.4,0.9-2.9-0.4-5.7-2.1c-1.3-0.8-2.7-2.2-4.1-2.9c0.8-0.6,0.8-0.6,1.6-1.2
								C311.8,187,312.3,187.7,315.8,190.6z"/>
							<g>
								<path class="st31" d="M310,188.6c2.8,1.7,3.3,2.9,5.7,2.1c3.4,2.9,6.8,5.7,9.4,9.2c0,0-0.6,0.4-0.4,0.6
									c-22.2,24.5-40.3,22.7-42.5,23.8c-0.4,0.2-0.1,1-0.2,1.2c-0.1,0.1,1,1.1-0.8,1.2c-0.1-0.1-0.2,0.5-2.9-1.6
									c-2-1.7-5.3-6.7-8.6-4.9c-0.7-0.9-2.7-1.5-3.7-2.1c-0.8-0.5-1.2-0.8-2.1-1.2c0-0.5,0.3-0.4,0.4-0.4c10,4.2,8-3.8,9.7-4.5
									c6.8,0.2,13.4-0.2,20.1-1.2c-3-0.7-18.3,1.3-19.7,0.4c-0.6-0.4,0.4-3.1,0.6-3.7c0.6-2.1,0.8-1.6,0.8-1.6
									c6.4,1,13.1,0.2,19.3-1.4c-9.7,0.5-9.7,0.5-19.3,1c0.1-0.3-0.6-0.5-0.4-1.4c1.9-9.7,0.8-10.5,0.8-11.1
									c0-0.2,0.8-1.4,0.8-1.4c0.4,1,1.4-1.9,1.6-2.5c5.2,0.9,10.5-1.4,15.8-1.2C304.3,188.1,309.1,192.4,310,188.6z"/>
								<g>
									<path class="st32" d="M278.4,225.1c-2.1,0-2.1,0-4.1,0c-0.4-1.1-0.8-1.7-2.1-1.2c-0.1,0-1.2,0.8-1.2,0.8
										c-0.1-1.4-0.3-3.3-1.2-4.5C273.1,218.4,276.4,223.5,278.4,225.1z"/>
									<g>
										<path class="st33" d="M275.1,207.5c-0.2,0.6-1.2,3.3-0.6,3.7c1.5,0.9,16.7-1.1,19.7-0.4c-6.7,1.1-13.4,1.4-20.1,1.2
											c-1.7,0.7,0.3,8.7-9.7,4.5c5.8-2.7,4.5,7.5,9.9-8.8C274.4,207.3,275.1,207.5,275.1,207.5z"/>
										<path class="st34" d="M275.9,205.8c0-0.1,0-0.3,0-0.4c9.7-0.5,9.7-0.5,19.3-1C289,206.1,282.4,206.9,275.9,205.8z"/>
										<path class="st33" d="M291.8,216.1c7.4-0.4-10.7,3.4-17.9,1.8C279.7,218.2,287.3,216.4,291.8,216.1z"/>
										<path class="st35" d="M302.4,194.7c0.1,0,1.6,0.2,0.8,0.8c-9.8,0.5-9.8,0.5-19.5,1C289.5,196.3,296.8,194.6,302.4,194.7z"
											/>
									</g>
								</g>
							</g>
						</g>
						<path class="st36" d="M170.8,142.2c-0.5,0.3-1.1,0.5-1.6,0.8C168.3,137.6,167.4,134.3,170.8,142.2z"/>
						<g>
							<path class="st25" d="M185.6,280.2c0.7-0.4,2.5,0.4,4.9,0.8c-0.9,1.3,0.5,0.2,1.2,1.8c-0.4,11.1,0.7,20.2,3.3,30.4
								c0.4,2.1-0.6,1.5-1.2,2.7c-3.2-4.3-9-7.6-7.4-14.2c-0.6-1.1-6.6,3-7-22.2c9.2-0.9,5.7,10.7,7,16.4c0.9,3.9,0.7-8.7,0.4-11.1
								C186.7,284.2,185.9,281,185.6,280.2z"/>
							<path class="st29" d="M209,282.2c0.4,1.9,2.6,9.4,3.3,10.1c2.5,2.5,1.2-3.1,1.2-3.9c0-1,0.1-2.8,1.2-2.5
								c0.1,6.7-0.2,16.2-2.9,22.4c-3.9,9.1-1-8.5-3.1-8.4c-1.8,6.2-1.8,6.2-3.7,12.3c-1.7-14.5-1.7-14.5-3.5-29
								C201.8,283,205.9,282.9,209,282.2z"/>
							<g>
								<path class="st8" d="M218.9,266.2c0.2,1.7,1.4,2.6,2.5,3.7c0.1,0.8,0.5,1.2,0.8,2.1c0.4,1.2,0.9,2.5,1.2,3.7
									c0.5,1.7,1.1,3.6,1.2,5.3c1.2,15.8-7.8,32.8-20.5,41.9c-4.1,2.9-4.6,4.1-6.6,2.1c-0.1-0.1,0-1.6-1.2-1.8
									c-0.1-0.4,2.4-0.7-2.5-7.2c0.7-1.1,1.6-0.6,1.2-2.7c-2.6-10.2-3.7-19.3-3.3-30.4c-0.7-1.7-2.1-0.6-1.2-1.8
									c1.3,0.3,3,0.8,3.3,0.8c0.7,0.1,5.6,0.4,5.7,0.2c-0.3-3.2-0.3-3.2-0.6-6.4c1,3.3,1,3.3,2.1,6.6c2.7,0.4,5.1-0.7,7.6-1.2
									c2.6-0.6,4.4-1.6,4.5-0.4c-0.5,0.2-0.7,0.6-1.2,0.8c-0.8,0.3-2,0.6-2.9,0.8c-3.1,0.7-7.2,0.7-7.4,1
									c1.7,14.5,1.7,14.5,3.5,29c1.8-6.2,1.8-6.2,3.7-12.3c2.1-0.1-0.9,17.5,3.1,8.4c2.7-6.1,3-15.7,2.9-22.4
									c0-1.2-0.5-4.4-1.2-5.3c0.1-2.3,5.6-2.7,6.6-4.9c0.2,0,0.2,0,0.4,0c0.2,4-2.3,2.8-2.9,4.3c-0.4,1,1,16.2-0.6,22.4
									c3.2-7.4,5.2-15.2,5.1-23.2c-0.5-4.4-1.2-3.3-1.2-3.5c-0.1-0.4,0.9-0.9,0.8-1c-0.5-1.8-3.6-5.9-4.9-7.8
									C217.3,266.2,218.6,266.3,218.9,266.2z"/>
								<path class="st37" d="M220.5,275.7c0.2,0,0.2,0,0.4,0c0,0.2,0.7-0.9,1.2,3.5c0,8-1.9,15.8-5.1,23.2
									c1.6-6.2,0.2-21.3,0.6-22.4C218.2,278.5,220.7,279.7,220.5,275.7z"/>
								<path class="st25" d="M192.4,282.6c4.1,0.2,4.1,0.2,8.2,0.4c2.4,9.9,1.9,20.7-1.2,30.4C191.8,306,192.8,292.6,192.4,282.6z"
									/>
							</g>
							<path class="st38" d="M211.9,281.4c0.8,1.9-1.2,5.4,1.6,7c0,0.8,1.3,6.4-1.2,3.9c-0.7-0.7-2.8-8.2-3.3-10.1
								C209.8,282,211.1,281.7,211.9,281.4z"/>
							<path class="st37" d="M213.5,280.6c0.8,1,1.2,4.1,1.2,5.3c-1.1-0.3-1.2,1.5-1.2,2.5c-2.9-1.6-0.8-5.1-1.6-7
								c0.5-0.2,0.7-0.7,1.2-0.8C213.3,280.6,213.3,280.6,213.5,280.6z"/>
						</g>
						<g>
							<path class="st12" d="M236.9,148.7c0.2,0.2,0.5,0.6,0.8,0.8c1.9,1.6,6.6,6,8.2,7.8c0.2,0.2,0.6,0.9,1.2,1.6
								c3.4,4.1,6.4,8.7,8.6,13.6c0.1,0.1-0.1,0.3,0,0.4c1.3,3.1,2.4,6.2,3.3,9.4c0.2,0.6,0.3,0.9,0.4,1.2c0.6,2.3,1.3,4.7,1.6,7
								c1.3,8.2,1.7,16.4,0.4,24.6c-1.4,9.3-6.9,21.1-12.3,28.8c0,0-0.1,0-0.4,0.4c-3.1,4.3-6.9,8.2-11.1,11.5
								c-1.5,1.2-3.3,2.2-4.9,3.3c-0.5,0.3-0.4,0.4-0.4,0.4c-5,3.1-8.7,4.2-13.6,6.6c-0.2,0.1-1.6,0-2.1,0.6c1.3,1.9,4.4,6,4.9,7.8
								c0,0.1-0.9,0.6-0.8,1c-0.2,0-0.2,0-0.4,0c-0.2,0-0.2,0-0.4,0c1.1-2.6-2.5-6.6-3.9-8.6c-0.7-0.3-6.9,1.4-12.5,1.6
								c-3.9,0.2-7.7,0-11.5-0.4c-4.1-0.5-7.6-1.6-11.5-2.9c-7.5-2.5-13-5.4-19.3-10.3c-0.7-0.5-0.8-0.4-0.8-0.4
								c-0.5-0.4-6.5-6.1-7.4-7c-0.4-0.4-0.8-1.2-1.2-1.6c-2.3-2.5-5.1-5.4-7-8.2c-0.3-0.4-0.6-0.9-0.8-1.2
								c-0.7-1.1-4.1-7.5-4.5-8.6c-0.2-0.4-0.3-1.2-0.4-1.6c-1.1-2.9-1.8-5.2-2.5-8.2c-0.2-0.7-0.8-2.3-0.8-2.5
								c-0.6-3.4-1.1-9.2-1.2-12.7c0-0.5,0-1.1,0-1.6c0-6.5,0.8-13,2.5-19.3c-1,7.7-1,7.7-2.1,15.4c3,2.6,0.1,11.1,3.3,7.4
								c-0.3-14.9,3.9-30,13.1-41.9c1.7-2.2,7.6-8.6,8.2-7.6c-13.6,12.2-21.3,30.3-20.5,48.7c1.4,31.6,28.7,59.5,60.8,59.4
								c36-0.2,65.8-37,54.6-78.5c-3.9-14.3-12.6-27-25.1-35.3c1.5-1.7,2.9-3.8,0.8-3.9c0.4-0.3,0.4-0.3,0.8-0.6
								C233.1,146.2,235.2,147.3,236.9,148.7z"/>
							<path class="st39" d="M207.4,136c0.9,0.1,0.9,0.4,1.2,0.4c3.3,0.5,6.7,1,9.9,2.1c0.1,0-0.1,0.2,1.6,0.8
								c4.9,1.8,6.8,3,11.1,5.8c-0.4,0.3-0.4,0.3-0.8,0.6c2.1,0.2,0.7,2.2-0.8,3.9c-22.2-14.8-50.2-11.9-69.8,5.8
								c-0.7-1-6.5,5.4-8.2,7.6c-9.3,11.9-13.5,27-13.1,41.9c-3.2,3.7-0.3-4.8-3.3-7.4c1-7.7,1-7.7,2.1-15.4
								c0.2-0.6,0.6-1.4,0.8-2.1c0.1-0.4,0.3-0.8,0.4-1.2c1.1-3.3,2.4-6.4,4.1-9.4c0-0.1,0.5-0.6,0.8-1.2
								c6.2-10.7,14.9-19.2,25.9-25.1c0.5-0.3,1.1-0.6,1.6-0.8c4-1.9,7.6-3.4,11.9-4.5c0.6-0.1,1.1-0.3,1.6-0.4
								C192.5,135.4,199,135,207.4,136z"/>
							<path class="st23" d="M229.5,149.6c12.5,8.3,21.2,21,25.1,35.3c-7.5-19.6-24.1-37-45.8-39.4c-5.3-0.6-24.7-0.2-28.3,2.9
								c-0.9,0.8,0.5,3.1-0.8,3.3c-0.9,0.2-1-1.9-1.6-2.1c-3.1-0.6-20.6,14.7-25.7,22.4c-6,9.1-8.7,24.2-8.2,34.9
								c1,23.8,18.1,46.7,41.3,53.2c4.3,1.2,13.2,2,14.4,2.5c0.3,0.1,0.2,0.5,0.2,0.8c-32,0.2-59.4-27.7-60.8-59.4
								c-0.8-18.4,6.9-36.4,20.5-48.7C179.4,137.7,207.3,134.8,229.5,149.6z"/>
							<g>
								
									<linearGradient id="SVGID_00000083083751523135056020000010074919930096095897_" gradientUnits="userSpaceOnUse" x1="159.1021" y1="170.1474" x2="240.7325" y2="235.7621">
									<stop  offset="0" style="stop-color:#F8EDAE"/>
									<stop  offset="1" style="stop-color:#E5B6A5"/>
								</linearGradient>
								<path style="fill:url(#SVGID_00000083083751523135056020000010074919930096095897_);" d="M254.6,184.9
									c11.1,41.5-18.6,78.2-54.6,78.5c0-0.3,0.1-0.7-0.2-0.8c-1.2-0.4-10.1-1.3-14.4-2.5c-23.2-6.5-40.3-29.4-41.3-53.2
									c-0.5-10.8,2.2-25.8,8.2-34.9c5-7.7,22.5-23,25.7-22.4c0.7,0.1,0.8,2.2,1.6,2.1c1.3-0.2-0.1-2.5,0.8-3.3
									c3.6-3.1,23.1-3.5,28.3-2.9C230.5,147.9,247.1,165.3,254.6,184.9z"/>
								<path class="st36" d="M173.5,155.3c3.2-0.6,3.6,4.1,0.4,4.1C171.3,159.4,171.2,155.8,173.5,155.3z"/>
							</g>
						</g>
						<g>
							<path class="st32" d="M249.7,257.6c4.2,3.3,8.3,6.7,11.5,11.1c1.8,2.5,3.2,4.1,4.1,7.2c2,7,1,20.5,3.3,15.8
								c-0.2,2.8-0.5,6.6-1.6,9c-0.1,0.1-0.1,1-0.6,1.6c-0.2,0.1-2.8-1-3.9-1.2c-12.4-2.4-22.2-5.4-31.6-14
								c4.2-2.9-3.1-6.9-7.4-11.5c-0.3-1.2-0.8-2.5-1.2-3.7c3.5,2.5,4.4,3.6,9,3.7c-0.1,1,12,19.6,4.5,6c-2.3-3-2.3-3-4.5-6
								c0.1-0.7,2.9-2.5,3.1-2.5c1.3,0.1,13.3,17.8,16.4,19.7c0.3-0.4,0.3-0.4,0.6-0.8c0.4,0.3,0.8,0.6,1.2,0.8c0.1,0,0.7,1.5,1.2,1
								c-0.1-1.2-1.2-1-1.2-1c-3.1-4.6-4.8-10.2-8-14.8c3.4,7,3.4,7,6.8,14c-5.9-4.9-11.3-13.8-16.8-19.5c0-1.2,0.2-2-0.4-3.1
								c3.9-0.2,3.9-0.2,7.8-0.4c6.1,6.6,12.2,13.1,15.6,21.6c-0.3-6.1-14-22.1-18.9-26.9c2.1-1.6,2.1-1.6,4.1-3.3
								c6.9,7.8,14.2,15.7,18.3,25.5c-0.3-5.6-12.9-21.7-16.6-25.5C245.8,258.9,247.3,257.4,249.7,257.6z"/>
							<path class="st31" d="M230.8,287.2c-2.2-2-4.1-4-6.2-6.2c-0.1-1.7-0.8-3.7-1.2-5.3C227.7,280.3,234.9,284.3,230.8,287.2z"/>
							<path class="st41" d="M264,216.9c0.9,0.4,1.3,0.8,2.1,1.2c0.4,0.6,0.4,0.6,0.8,1.2c-0.1,0-0.3,0-0.4,0
								c0.9,7.4-1.3,10.1-2.1,14.4c0,0.1,1.1,0.2,0.8,1.4c-0.4,1.5-5.7,5.4-6.6,7.2c-0.9,0.1-2.5-0.2-2.5,0.2c2.7,0.1,1.9,1,2.1,1
								c-2.3,1-2.3,1-4.5,2.1c-1.5-0.6-2.9-1.5-4.5-1.6c5.4-7.6,10.9-19.5,12.3-28.8C262.4,216.7,262.9,216.3,264,216.9z"/>
							<path class="st41" d="M232.4,259.6c2.3,1.7,4.1,3.7,6.2,5.8c-0.2,2.1-4.5,2.3-6.2,1.6c-0.1-0.1,0.2-0.7-1.4-2.1
								c-0.6,0.6,0.8,1.8,1.4,2.1c0.3,0.4,1,1.6,1.2,2.1c0.1,9.1-7.9,5.5-12.3,0.8c-1.1-1.1-2.3-2-2.5-3.7
								C223.7,263.8,227.4,262.7,232.4,259.6z"/>
							<path class="st41" d="M255.8,247.7c0,3.6-1.7,3.8-4.1,5.3c-0.2,0.2,0.6,1.7-4.9,2.3c1.2,0.5,2,1.6,2.9,2.3
								c-2.3-0.2-3.8,1.4-5.3,2.9c-1.3-1.3-2.8-2.8-4.5-3.7c-0.5-0.3-1.5-0.7-2.1-0.8c4.2-3.3,7.9-7.2,11.1-11.5
								C251.3,245.1,253.7,246.3,255.8,247.7z"/>
							<path class="st33" d="M269.8,220.2c0.9,1.2,1.1,3.1,1.2,4.5c-0.5,0.5-1.5,2.2-1.6,2.9c-2.3-0.4-4.3,4-4.1,4.3
								c0.3,0.4,6.4,0.9,2.9,7c-2.1,3.7-9.3,2.5-7.4,7c-3,2.9-0.6,4.1-3.5,6.4c-0.8,0.6-8,3.5-8,3.9c4.8,3.3,9.1,7.4,11.9,12.5
								c-3.2-4.4-7.3-7.8-11.5-11.1c-0.9-0.7-1.7-1.7-2.9-2.3c5.5-0.5,4.7-2.1,4.9-2.3c7.3-1.9,7.9-2.8,4.1-5.3
								c-2.1-1.4-4.5-2.6-7-3.3c0.3-0.4,0.4-0.4,0.4-0.4c1.6,0.1,3,1,4.5,1.6c2.1,0.9,8.1,3.4,6.2-1.8c-0.4-1.1-1.2,0-1.6-0.2
								c-0.1-0.1,0.7-0.9-2.1-1c0-0.4,1.5-0.1,2.5-0.2c12-1.5,10.9-11.9,5.7-8.6c0.7-4.3,3-6.9,2.1-14.4c0.7,17.6,7.3-0.5,0.4,0
								c-0.4-0.6-0.4-0.6-0.8-1.2C267,218.7,269.1,219.3,269.8,220.2z"/>
							<path class="st41" d="M239.8,256.8c1.1,1.1,1.9,2.6,2.9,3.7c-2.1,1.6-2.1,1.6-4.1,3.3c-1.7-1.7-3.9-3-5.7-4.5
								c1.6-1,3.4-2.1,4.9-3.3C238.3,256.1,239.3,256.5,239.8,256.8z"/>
							<path class="st33" d="M238.6,263.7c4.9,4.8,18.6,20.8,18.9,26.9c-3.4-8.4-9.5-15-15.6-21.6c-1.1-1.2-2.1-2.5-3.3-3.7
								c-2-2-3.8-4-6.2-5.8c0,0-0.1-0.1,0.4-0.4C234.7,260.8,236.8,262,238.6,263.7z"/>
							<path class="st33" d="M234.1,269.5c0.6,1.1,0.4,1.9,0.4,3.1c5.6,5.7,10.9,14.6,16.8,19.5c-0.3,0.4-0.3,0.4-0.6,0.8
								c-3.1-1.9-15.1-19.6-16.4-19.7c-0.2,0-3,1.8-3.1,2.5c-4.7-0.1-5.5-1.1-9-3.7c-0.3-0.8-0.7-1.3-0.8-2.1
								c4.4,4.6,12.5,8.3,12.3-0.8C233.7,269.1,233.8,268.9,234.1,269.5z"/>
							<path class="st42" d="M269.4,228.8c0-0.3-0.1-0.9,0-1.2c0.1-0.6,1.1-2.3,1.6-2.9c0-0.1,1.2-0.8,1.2-0.8
								C276.2,226.4,273.5,231.3,269.4,228.8z"/>
							<g>
								
									<linearGradient id="SVGID_00000046333809681126511190000013976495824296787341_" gradientUnits="userSpaceOnUse" x1="301.5587" y1="255.6137" x2="274.6083" y2="258.5093">
									<stop  offset="0" style="stop-color:#DBA4B3"/>
									<stop  offset="1" style="stop-color:#C0869F"/>
								</linearGradient>
								<path style="fill:url(#SVGID_00000046333809681126511190000013976495824296787341_);" d="M278.4,225.1
									c2.7,2.2,2.7,1.5,2.9,1.6c1.1,0.9,5.2,7,7.8,5.5c-1.2-0.7-1.7-2.1-2.5-3.1c5.2,3.7,14.1,15.2,17.2,20.5
									c1.2,2.1,5.4,10.9,5.3,12.7c-11.2,4-23.3,5.2-35.1,4.1c-17.1-1.6-10.3-6.4-6.8,8c1.2,4.9,1.5,12,1.2,17
									c-2.3,4.7-1.3-8.9-3.3-15.8c-0.9-3.1-2.3-4.7-4.1-7.2c-2.8-5.1-7.2-9.3-11.9-12.5c0-0.4,7.2-3.3,8-3.9
									c2.9-2.3,0.5-3.5,3.5-6.4c-1.9-4.5,5.3-3.3,7.4-7c3.5-6.1-2.6-6.6-2.9-7c-0.2-0.3,1.8-4.7,4.1-4.3c-0.1,0.3,0,0.9,0,1.2
									c0.3,2.5,6.8,1.7,4.9-3.7C276.4,225.1,276.4,225.1,278.4,225.1z"/>
								<g>
									<path class="st31" d="M286.6,229.2c0.8,0.9,1.3,2.4,2.5,3.1c-2.6,1.5-6.7-4.7-7.8-5.5c1.9-0.1,0.8-1.1,0.8-1.2
										C284,226.2,285.4,227.8,286.6,229.2z"/>
									<path class="st34" d="M261,249.8c13.2,5.9,13.2,5.9,26.5,11.7C278.3,258.4,269.4,254.5,261,249.8z"/>
									<path class="st34" d="M265.1,244c11.2,6.7,11.2,6.7,22.4,13.3C279.9,253.1,271.7,249.7,265.1,244z"/>
									<path class="st44" d="M260.5,253.1c6.3,3.9,12.8,7.5,19.9,9.7C274,262,265.4,257.5,260.5,253.1z"/>
									<path class="st44" d="M271.2,242c6,3.1,6,3.1,11.9,6.2c3.2,2.8,3.2,2.8,6.4,5.5C280.4,247.8,280.4,247.8,271.2,242z"/>
									<path class="st45" d="M276.1,232.9c3,2.1,8,4.5,10.7,6.6c7.6,6.1,10.1,12-0.4,0.4C281.3,236.4,281.3,236.4,276.1,232.9z"/>
									<path class="st34" d="M274.3,225.1c1.9,5.4-4.6,6.2-4.9,3.7c4.1,2.4,6.9-2.4,2.9-4.9C273.5,223.4,273.9,224,274.3,225.1z"
										/>
									<path class="st34" d="M255.6,254.7c1.9-0.6,10,5.9,0,0.4c-0.1-0.1-0.1-0.1-0.2-0.2C255.5,254.8,255.5,254.8,255.6,254.7z"
										/>
								</g>
							</g>
							<path class="st33" d="M244.3,260.5c3.8,3.8,16.3,19.9,16.6,25.5c-4.1-9.7-11.4-17.6-18.3-25.5c-0.9-1.1-1.8-2.6-2.9-3.7
								C241.5,257.7,243,259.1,244.3,260.5z"/>
							<path class="st46" d="M241.9,269.1c-3.9,0.2-3.9,0.2-7.8,0.4c-0.3-0.6-0.4-0.4-0.4-0.4c-0.2-0.5-1-1.7-1.2-2.1
								c1.7,0.7,6,0.4,6.2-1.6C239.7,266.6,240.7,267.9,241.9,269.1z"/>
							<path class="st44" d="M252.5,292.9c-0.4-0.3-0.9-0.5-1.2-0.8c-3.4-7-3.4-7-6.8-14C247.7,282.7,249.4,288.3,252.5,292.9z"/>
							<path class="st33" d="M231.2,275.7c2.3,3,2.3,3,4.5,6C243.2,295.2,231.1,276.6,231.2,275.7z"/>
							<path class="st44" d="M252.5,292.9c0,0.1,1.2-0.2,1.2,1C253.3,294.4,252.6,293,252.5,292.9z"/>
							<path class="st35" d="M258.7,242.4c0.8-1.8,6.2-5.7,6.6-7.2c0.3-1.2-0.8-1.4-0.8-1.4C269.6,230.5,270.7,240.9,258.7,242.4z"
								/>
							<path class="st47" d="M266.5,219.4c0.1,0,0.3,0,0.4,0C273.8,218.9,267.2,236.9,266.5,219.4z"/>
							<path class="st42" d="M253.8,245.7c2.3-1,2.3-1,4.5-2.1c0.4,0.2,1.3-0.8,1.6,0.2C261.9,249.1,255.9,246.5,253.8,245.7z"/>
							<path class="st33" d="M232.4,267c-0.6-0.3-2.1-1.5-1.4-2.1C232.6,266.3,232.3,266.9,232.4,267z"/>
							<path class="st47" d="M251.7,253.1c2.4-1.6,4.1-1.8,4.1-5.3C259.6,250.3,259,251.1,251.7,253.1z"/>
						</g>
					</g>
				</g>
			</g>
		</g>
	</g>
</g>
</svg>
