<?xml version="1.0" encoding="utf-8"?>
<!-- Generator: Adobe Illustrator 28.2.0, SVG Export Plug-In . SVG Version: 6.00 Build 0)  -->
<svg version="1.0" id="Layer_1" xmlns="http://www.w3.org/2000/svg" xmlns:xlink="http://www.w3.org/1999/xlink" x="0px" y="0px"
	 viewBox="0 0 300 300" style="enable-background:new 0 0 300 300;" xml:space="preserve">
<style type="text/css">
	.st0{display:none;}
	.st1{display:inline;fill:#B4BCA6;}
	.st2{display:inline;fill:#5F7865;}
	.st3{display:inline;fill:#DCCBA7;}
	.st4{fill:#C05347;}
	.st5{fill:#FBB672;}
	.st6{fill:#F38B5F;}
	.st7{fill:#752D18;}
	.st8{fill:#ED985D;}
	.st9{fill:#422D18;}
	.st10{fill:#1F2B1D;}
	.st11{fill:#436035;}
	.st12{fill:#243C22;}
	.st13{fill:#415035;}
	.st14{fill:#7A9453;}
	.st15{fill:#587642;}
	.st16{fill:#F9EFD1;}
	.st17{fill:#584433;}
	.st18{fill:#251F15;}
	.st19{fill:#EEE2AB;}
	.st20{fill:#B3AE77;}
	.st21{fill:#F6DEB9;}
	.st22{fill:#32261E;}
	.st23{fill:#CEA580;}
	.st24{fill:#80674D;}
	.st25{fill:#6E3B23;}
	.st26{fill:#3A2218;}
	.st27{fill:#DAA655;}
	.st28{fill:#845F25;}
</style>
<g>
	<g class="st0">
		<path class="st1" d="M126.5,34.5c1,5,1.8,10,2.8,15c-42.6,10.3-75.4,43.4-84.9,80.1c-8.6,33.3,2.4,61.2,27.5,86.7
			c2.9,2.9,6.2,5.5,9.2,8.3c1.4,1.3,2.9,2.5,4.3,3.7c3.4,3.1,13.3,12.4,15.4,13.9c0.5,0.3,7.7,4.2,8.2,4.4c0.2,0.1,1-0.1,1.3,0
			c2,0.8,3.9,1.5,6,2.2c7.9,2.6,16.2,4.3,24.1,6.6c2.3,0.1,14-4.4,24.5,0.5c6.2-2.1,12.5-3.8,18.7-5.9c3.6-1.3,7.8-2.8,10.9-4.4
			c0.1,0,0.1,0,0.3,0c11.3-3.8,24.1-15,32.5-22.8c11.9-11.3,23.7-25.2,29.7-39.7c26.8-65.3-35.1-144.1-118.4-134.4
			c-2.4-4.6-5-9.2-6.6-14.1c34.5,0,69,0,103.5,0.1c27.3,11.6,38.9,28.1,48.5,52.2c0,41.3,0,82.6-0.1,123.8
			c-3.5,8-6.5,16.3-11.8,23.6c-3.2,4.5-14.7,17.7-21.1,17.7c-6.3,4-6.3,4-12.7,7.9c-56.6,0-113.3,0-169.9-0.2
			c-4.5-2.5-9.1-4.9-13.1-7.9c-6.6-0.7-16.8-12.7-20.3-17.5c-5.7-8-9.2-16.8-12.7-25.6c0-40.5,0-81.1,0.1-121.6
			c8.7-22.8,22.6-41.8,48.3-52.5C89.2,34.5,107.8,34.5,126.5,34.5z"/>
		<path class="st2" d="M70.5,34.5C44.8,45.2,30.9,64.2,22.2,87c0-17.5,0-35,0-52.6C38.3,34.4,54.4,34.5,70.5,34.5z"/>
		<path class="st2" d="M235.3,34.6c16.2,0,32.4,0,48.5,0c0,17.4-0.1,34.8,0,52.1C274.1,62.7,262.6,46.2,235.3,34.6z"/>
		<path class="st2" d="M68.3,259.7c-15.4,0-30.8,0-46.2,0c0-17,0.1-34,0-51c3.5,8.8,7,17.7,12.7,25.6c3.5,4.8,13.7,16.8,20.3,17.5
			C59.1,254.9,63.8,257.2,68.3,259.7z"/>
		<path class="st2" d="M283.7,210.6c0,16.4,0,32.8,0,49.3c-15.2,0-30.3,0-45.5,0c6.3-4,6.3-4,12.7-7.9c6.3,0,17.9-13.2,21.1-17.7
			C277.1,226.9,280.2,218.7,283.7,210.6z"/>
		<path class="st3" d="M227.2,222.7c-1.6-0.3-9.8-0.4-10.3-0.2c-0.2,0.1-0.1,0.3-0.1,0.4c-6.3-4.1-7.8-0.4-17.1,0.2
			c-1.2,0.1-2.4,0.4-3.7,0.2c-0.3-0.3-0.3-0.3-0.6-0.7c0.1-2.8,0.1-7.3-3.6-8.6c-2.5-0.9-9.1-0.9-12.1-1.1c-0.2-0.2-0.2-0.2-0.4-0.4
			c-3.3-2.8-10.6-6.4-14.8-7.7c-0.4-0.5-0.4-0.5,0.1-0.9c1.6-1.2,9.5-4.1,17.5-12c19-18.6,21.8-44.4,2.1-63.6
			c-7.8-7.5-16.2-11-27.1-14.2c-0.5-0.1,0-0.8-0.8-0.7c-3.9,0-3.9,0-7.8,0c-0.5,0.2-0.9,2.3-1.2,2.9c-0.1,0.2,0,0.4,0.3,0.6
			c-0.8,1.6-21.2,7.6-31.2,21.3c-14.7,20.2-3.6,46,17.1,59.5c-10.5,3.5-15.3,11.1-18.7,19.9c-0.3,0.4-0.8,0.6-1.3,0.8
			c-0.8,0.4-16.9,4.6-18.4,4.8c-2.8,1-13.4,0-14.4,0.4c-0.4,0.1,0.5,0.4,0.4,0.9c-3-2.8-6.3-5.4-9.2-8.3
			c-25.1-25.5-36.1-53.4-27.5-86.7c9.5-36.7,42.3-69.8,84.9-80.1c1.7,9.2,3.4,18.4,4.8,27.6c2.2,4.5,6.2,8.1,9.7,11.8
			c-0.9,0.7-3.2,6.6-4.9,7.9c-12.6,5.5-21.2,11.8-29.4,21.6c-1.8,2.1-5.1,6.4-5.9,8.7c-9.4,8-13.5,9.9-21.9,16.3
			c-7.2,5.5-7.5,6,0.8,2c5.3-2.6,20.6-10.4,24.7-13c8.1-3.8,28.2-11,33.7-16.1c1.2-1.1,4.2-4.8,4.3-6.2c0.2-1.8-1.5-3.5-0.3-3.4
			c0.1,0.1,1.1,1,2.2,1.5c4.7,0.2,4.7,0.2,9.5,0.4c0.4-0.1,1-2.1,1.7-2.9c0,0,0.1,0,0.3-0.2c9.8-10.9,4.6,2.3,17,5.1
			c4.2,0.9,19.1,1.8,25.5,2.7c11,1.5,21.8,3.8,32.7,5.3c0.6,0.1,3.9,0.6,4,0.1c-8.6-4-18.1-6.5-26.9-10c-4.9-2-24-11.2-26.8-11.7
			c-5.5-1-12.1,1.9-13.5,2c-1.5,0.1-4.4-1.2-4.9-1.1c-0.2,0-1.5,1.2-1.9,1.3c0.4-5.3-8.1-12.4-14-12.6c4.2-16.6-1.9-21-9.2-34.3
			c-0.7-1.2-1.4-2.5-2-3.7c83.3-9.7,145.2,69.1,118.4,134.4C250.9,197.5,239.1,211.4,227.2,222.7z"/>
	</g>
	<g>
		<g>
			<path class="st4" d="M194.5,245.5c-3.1,1.6-7.2,3.1-10.9,4.4c-6.1,2.1-12.5,3.8-18.7,5.9c-10.5-4.9-22.2-0.3-24.5-0.5
				c-8-2.4-16.2-4.1-24.1-6.6c0.1-0.3,0.7-0.4,1-0.4c10.6-2.8,27.1-4.2,38.3-4.6C170,243.2,180.4,244.3,194.5,245.5z"/>
			<path class="st5" d="M194.7,245.5c-0.1,0-0.1,0-0.3,0c-14.1-1.2-24.5-2.3-38.8-1.8c3-1.5,0.8-1.4-0.5-2.4
				c2.3,0.5,11.3,1.1,5.1-0.2c3.8-0.4,7.7-1,11.5-1.3c3.7-0.3,22-0.8,23.1-1.1c1.1-0.3-1-1-1.7-1.3c5.1-0.9,13.5-0.1,17.5-2.6
				c-13.3-0.1-13.3-0.1-26.7-0.2c-4.2-0.9-8.7-1.2-13-1.1c0,0-0.1-0.4,0.1-0.4c1.1-0.3,2.8,0.4,4-0.3c0.3-0.6-2.2-1.4-1.5-3.4
				c15.1-0.3,30.2-0.3,45.3-0.2C212.4,236,203.6,241.1,194.7,245.5z"/>
			<path class="st5" d="M227.2,222.7c-8.4,7.9-21.1,19.1-32.5,22.8c8.9-4.4,17.6-9.5,24.2-16.5c-15.1-0.2-30.2-0.1-45.3,0.2
				c-0.8,0-5.9-0.1-6.1,0.1c0.3,2.7,0.7,6.4,1.8,5.2c0,0,0.1,0.5-0.8,0.9c-0.4-1-0.7-1.9-1-2.9c-0.8-3-1.1-6.2-1.8-9.2
				c0.9,0.1,0.7-0.2,0.8-0.2c1.2-0.2,8.1,0,10.7,0c2.9,0,17.1,0.2,18,0c0.2,0,0.1-0.3,0.1-0.4c0.3,0.3,0.3,0.3,0.6,0.7
				c1.3,0.2,2.5-0.1,3.7-0.2c5.9,0.9,12,0.3,18,0.5c0.1-0.2-0.6-0.5-0.9-0.7c0-0.2-0.1-0.4,0.1-0.4
				C217.3,222.3,225.6,222.4,227.2,222.7z"/>
			<g>
				<path class="st5" d="M138.3,228.8c-0.4,2.4-1.7,6.5-0.8,6.4c-0.7,0.8-1.3,1.5-2,2.2c-0.2,0.2,0.3,0.5,0.3,0.6
					c-0.7,0.7-16.4,1.5-21.3,4.7c-4.4,2.9,1.2,3.6,2.9,5.7c-0.3,0.1-0.9,0.1-1,0.4c-2.1-0.7-4-1.4-6-2.2c-0.2-0.1-1,0.1-1.3,0
					c-0.4-0.2-7.7-4.1-8.2-4.4c-2.2-1.5-12-10.8-15.4-13.9c25.9,0,25.9,0,51.7,0C137.7,228.5,137.7,228.5,138.3,228.8z"/>
				<path class="st5" d="M123.5,223c0.1,0,0.2-0.2,1.3-0.2c4.8,0,9.5,0,14.3,0c-0.3,2-0.4,3.9-0.8,5.9c-0.6-0.2-0.6-0.2-1.1-0.4
					c-25.9,0-25.9,0-51.7,0c-1.4-1.3-2.9-2.4-4.3-3.7c0.1-0.5-0.7-0.8-0.4-0.9c1.1-0.4,11.6,0.6,14.4-0.4
					C104.6,222.4,114,223,123.5,223z"/>
			</g>
			<path class="st6" d="M153.6,237.8c5.4,1.4,11.1,1.1,16.6,1.6c0.2,0,1.4,0.3,1.5,0.4c-3.8,0.3-7.7,0.9-11.5,1.3
				c-2.7-0.6-5.4-0.8-8-1.3c-0.5,1.3,2,1.3,2.9,1.5c1.3,1.1,3.5,0.9,0.5,2.4c-11.2,0.4-27.7,1.8-38.3,4.6c-1.7-2.1-7.4-2.8-2.9-5.7
				c5-3.2,20.6-4,21.3-4.7c0,0-0.5-0.3-0.3-0.6C144.5,237.6,144.5,237.6,153.6,237.8z"/>
			<path class="st7" d="M171,233.4c4.3-0.1,8.8,0.2,13,1.1c2,0.4,7.4,2.1,9.2,2.9c0.7,0.3,2.8,1,1.7,1.3c-1.1,0.3-19.4,0.8-23.1,1.1
				c-0.1-0.2-1.4-0.4-1.5-0.4c0-0.4-0.3-0.7-0.5-1.1c-0.2-0.4-0.3-0.7-0.5-1.1c-0.3-0.7-0.5-1.1-0.8-1.8c0.9-0.4,0.7-0.8,0.8-0.9
				C169.6,234.1,170.4,233.6,171,233.4z"/>
			<path class="st6" d="M193.2,237.4c-1.8-0.8-7.2-2.5-9.2-2.9c13.3,0.1,13.3,0.1,26.7,0.2C206.7,237.3,198.3,236.5,193.2,237.4z"/>
			<path class="st8" d="M173.5,229.2c-0.7,2,1.8,2.9,1.5,3.4c-1.2,0.7-2.8,0.1-4,0.3c-0.2,0.1-0.1,0.4-0.1,0.4
				c-0.6,0.2-1.4,0.7-1.8,1.1c-1.1,1.2-1.4-2.4-1.8-5.2C167.6,229.1,172.7,229.3,173.5,229.2z"/>
			<path class="st9" d="M160.2,241.1c6.2,1.3-2.8,0.7-5.1,0.2c-1-0.2-3.4-0.2-2.9-1.5C154.9,240.3,157.6,240.5,160.2,241.1z"/>
		</g>
		<g>
			<g>
				<path class="st10" d="M164.4,204.8c4.3,1.3,11.5,4.9,14.8,7.7c-6.5,2.4-10.3,3.9-13,9.9c-0.3-4.8-2.5-12.3-2.8-17.6
					C163.5,204.8,163.5,204.5,164.4,204.8z"/>
				<g>
					<path class="st11" d="M179.2,212.5c0.2,0.2,0.2,0.2,0.4,0.4c3,0.2,9.7,0.2,12.1,1.1c-7.3,4.5-7.3,4.5-14.6,9
						c-2.6,0-9.5-0.2-10.7,0c-0.4,0-0.2-0.3-0.3-0.7C168.9,216.5,172.6,214.9,179.2,212.5z"/>
					<path class="st12" d="M195.3,222.7c0,0.1,0.1,0.4-0.1,0.4c-0.9,0.2-15.1,0-18,0c7.3-4.5,7.3-4.5,14.6-9
						C195.3,215.4,195.3,219.8,195.3,222.7z"/>
				</g>
			</g>
			<path class="st11" d="M216.7,222.9c0.3,0.2,1,0.5,0.9,0.7c-6-0.2-12.1,0.4-18-0.5C208.9,222.5,210.5,218.8,216.7,222.9z"/>
			<g>
				<path class="st13" d="M142.9,196.9c-0.8,3.9-1.2,8-1.8,11.9c-5,5.1-10.2,10-16.4,14.1c-1,0-1.2,0.2-1.3,0.2
					c-1.8-2.1-7.7-2.7-10-4.6c0.5-0.2,0.9-0.4,1.3-0.8c3.4-8.8,8.1-16.4,18.7-19.9C135.3,197.1,144.5,194.6,142.9,196.9z"/>
				<path class="st12" d="M113.5,218.4c2.2,2,8.1,2.5,10,4.6c-9.4,0-18.9-0.6-28.4,0.2C96.6,223,112.7,218.8,113.5,218.4z"/>
				<path class="st10" d="M139.1,222.8c-4.8,0-9.5,0-14.3,0c6.2-4,11.4-9,16.4-14.1C140.4,213.4,139.8,218.1,139.1,222.8z"/>
			</g>
		</g>
		<g>
			<g>
				<g>
					<path class="st14" d="M129.5,34.5c1,4.5,2.8,8.8,4.3,13.2c2.5,7.3,5.2,14.5,7.6,21.8c2,6,3.6,12,5.3,18
						c-0.5,0.2-2.9,1.2-3.1,1.3c-3.5-3.7-7.5-7.3-9.7-11.8c-1.4-9.2-3.1-18.4-4.8-27.6c-0.9-5-1.8-10-2.8-15
						C127.5,34.5,128.5,34.5,129.5,34.5z"/>
					<path class="st11" d="M131.8,34.5c1.6,4.9,4.2,9.5,6.6,14.1c0.7,1.2,1.4,2.5,2,3.7c-1.3,0.2,0.4,2.2,0.5,2.5
						c0.5,1.6,1.4,13.9,1,14.7c-0.1,0.3-0.3-0.1-0.5-0.1c-2.4-7.3-5.2-14.5-7.6-21.8c0.3,0,1-1.3,1-1.4c0-0.6-3.8-9.7-3.8-11.8
						C131.3,34.5,131.6,34.5,131.8,34.5z"/>
					<path class="st15" d="M131.1,34.5c0,2.1,3.8,11.2,3.8,11.8c0,0.1-0.7,1.4-1,1.4c-1.5-4.4-3.3-8.7-4.3-13.2
						C130,34.5,130.5,34.5,131.1,34.5z"/>
					<path class="st12" d="M140.5,52.4c7.2,13.3,13.4,17.8,9.2,34.3c-0.1,0.1-0.1,0.1-0.3,0.2c-0.7,0.6-2.4,0.6-2.6,0.7
						c-1.8-6-3.4-12.1-5.3-18c0.2,0,0.4,0.4,0.5,0.1c0.4-0.8-0.5-13.1-1-14.7C140.9,54.5,139.2,52.6,140.5,52.4z"/>
				</g>
				<g>
					<path class="st12" d="M158.6,105.6c-0.4-0.7,2.2-2.4,3.3-4.1c-4-1.8-10.8-1.8-9.4-3.9c0.2,0.1,0.6-0.1,0.8,0
						c1.7,0.4,9.3,1.9,10.5,1.5c0.4-0.1,1.7-1.3,1.9-1.3c0.5,0,3.4,1.2,4.9,1.1c1.4-0.1,8-2.9,13.5-2c2.8,0.5,21.9,9.7,26.8,11.7
						c8.9,3.6,18.4,6,26.9,10c0,0.5-3.4,0-4-0.1c-10.9-1.5-21.7-3.8-32.7-5.3c-6.4-0.9-21.3-1.7-25.5-2.7
						C163.2,107.9,168.3,94.7,158.6,105.6z"/>
					<g>
						<path class="st15" d="M139.2,104.9c0.1,0.9,0.6,1.2,0.5,1.7c-0.1,0.2-3.4,2.9-4,3.4c-6.6,5.8-21.4,17.9-28.5,22.4
							c-4.1,2.6-19.4,10.4-24.7,13c-8.3,4.1-8,3.5-0.8-2c8.4-6.4,12.4-8.2,21.9-16.3c7.3-6.2,18.7-18.1,19.8-18.9
							c4.5-3.2,10.2-2.4,15.5-3.9C139,105.1,139.2,104.9,139.2,104.9z"/>
						<path class="st12" d="M145,106.7c-1.2-0.1,0.4,1.7,0.3,3.4c-0.1,1.4-3.2,5.1-4.3,6.2c-5.5,5.1-25.6,12.3-33.7,16.1
							c7.1-4.5,21.9-16.6,28.5-22.4c0.5-0.5,3.9-3.2,4-3.4c0.1-0.4-0.4-0.7-0.5-1.7c0.1-0.4-0.2-1.3,0.1-1.5
							c0.2-0.2,4.9,2.3,5.1,2.4C144.7,106,145,106.7,145,106.7z"/>
					</g>
				</g>
			</g>
			<path class="st16" d="M140.7,102.5c0.1,0.4,0.2,1.2,0,1.1c-1.5-0.6-1.9-1-1.8,0.7c-5.2,1.6-10.9,0.7-15.5,3.9
				c-1.1,0.8-12.5,12.7-19.8,18.9c0.8-2.3,4.1-6.5,5.9-8.7c8.2-9.9,16.8-16.1,29.4-21.6C139.7,96.8,140.1,100.1,140.7,102.5z"/>
			<path class="st17" d="M157,114.2c0,0.3,0,0.6,0,0.9c-0.1,2.1-1.3,0.6-1.8,1.2c-0.5,0.6,0.7,13.2,0.8,15.1c0.3,7.5,0.3,15,1,22.4
				c-0.4,0.2-0.9,0-1.8,0c-0.3,0-0.7,0-1,0c-0.6-7.7-0.1-15.3,0.3-23c-0.5-0.5-1.8-1.6-2-1.9c-0.2-0.3-0.5-1.7-1.3-2
				c-0.1-1.1-1.3-3-1.8-4.2c-0.1-0.9-0.4-1.7-0.5-2.6c-0.2-1.4-0.2-2.8-0.5-4.2c5.2-0.5,9.2,1.2,7.9-2.4
				C157.1,113.4,156.5,114,157,114.2z"/>
			<path class="st18" d="M148.5,108.9c6.2,0.3,8.4-1.6,8.3,3.9c-4.2,0.1-4.2,0.1-8.3,0.1C148.5,110.9,148.5,110.9,148.5,108.9z"/>
			<path class="st18" d="M156.3,113.5c1.3,3.6-2.7,1.9-7.9,2.4c-0.6,0.1-0.7,0-1,0.4c0.2-0.5,0.6-2.7,1.2-2.9
				C152.4,113.5,152.4,113.5,156.3,113.5z"/>
			<path class="st19" d="M147.3,177.3c-1.2,12.5-2.4,25-4.6,37.5c4.6,0.2,4.6,0.2,9.2,0.3c-0.2,0.1-0.7,0.2-0.8,0.4
				c-3.1,0.1-6.1-0.2-9.2,0.1c-1.5,9.1-1.5,9.1-3.1,18.1c-0.5,1.5-1.2,1.2-1.3,1.3c-0.9,0.1,0.3-4,0.8-6.4c0.4-2,0.5-4,0.8-5.9
				c0.7-4.7,1.3-9.4,2.1-14.1c0.6-3.9,1-8,1.8-11.9c0,0,0.5,0.1,0.5-0.1c0.2-1.1,0.6-1.8,1-2.9c1.1-5.4,1.7-14.3,2.3-16.5
				C146.8,177.2,147.1,177.3,147.3,177.3z"/>
			<path class="st20" d="M163.3,204.8c0.3,5.3,2.5,12.8,2.8,17.6c0,0.3-0.1,0.7,0.3,0.7c0,0,0.1,0.3-0.8,0.2
				c-0.6-2.6-1.2-5.1-1.7-7.7c-0.7-0.6-8.8,0-10.3,0c-0.7,0-1.4,0-2,0c-0.2,0-0.3,0-0.5,0c0.1-0.2,0.6-0.4,0.8-0.4
				c0,0-0.1-0.2,0.3-0.2c1.4-0.2,11.4,0.9,11.8-0.1c-0.8-3.5-1.1-7-1.5-10.4C162.9,204.3,163.3,204.8,163.3,204.8z"/>
			<g>
				<path class="st21" d="M153.2,97.7c-0.2-0.1-0.6,0.1-0.8,0c-1.1-0.3-2.1-1.1-3.3-1.3c-0.6-0.5-1.3-0.9-1.9-1.3
					c-1.7,2.8-5.7,4.3-6.5,7.5c-0.6-2.4-1-5.7-1.8-5.7c1.7-1.3,4-7.2,4.9-7.9c0.1-0.1,2.6-1.1,3.1-1.3c0.1-0.1,1.8-0.1,2.6-0.7
					C156.4,88.2,154.2,92.9,153.2,97.7z"/>
				<path class="st22" d="M152.5,97.7c-1.4,2.1,5.4,2.1,9.4,3.9c-1.1,1.7-3.8,3.3-3.3,4.1c-0.2,0.2-0.2,0.2-0.3,0.2
					c-0.1-0.6-0.7,0.4-0.9,0.4c-0.7,0-9.8-0.8-13-0.7c0.2-0.4,0.2-0.4,0.4-0.9c1.5-0.8,5.1-4.5,6.9-5.8c0-0.2-2.2-2.3-2.6-2.5
					C150.3,96.5,151.3,97.4,152.5,97.7z"/>
				<path class="st17" d="M163.7,99.2c-1.2,0.3-8.7-1.1-10.5-1.5c0.9-4.8,3.2-9.5-3.8-10.8c0.1-0.1,0.1-0.1,0.3-0.2
					C155.6,86.9,164.1,94,163.7,99.2z"/>
				<path class="st18" d="M140.7,103.6c0.6,0.2,2.2,1.3,2.9,1.8c0.4,0,0.8-0.5,1.2-0.7c-0.2,0.4-0.2,0.4-0.4,0.9
					c3.3-0.2,12.4,0.7,13,0.7c0.2,0,0.8-1,0.9-0.4c-0.7,0.8-1.2,2.7-1.7,2.9c-4.7-0.2-4.7-0.2-9.5-0.4c-1.1-0.5-2.1-1.5-2.2-1.5
					c0,0-0.3-0.7-0.6-0.9c-0.2-0.1-4.9-2.6-5.1-2.4c-0.3,0.2-0.1,1.2-0.1,1.5c0,0-0.2,0.2-0.3-0.7
					C138.8,102.6,139.2,103,140.7,103.6z"/>
				<path class="st21" d="M149.1,96.4c0.3,0.2,2.6,2.3,2.6,2.5c-1.8,1.3-5.4,5.1-6.9,5.8c-0.4,0.2-0.8,0.7-1.2,0.7
					c-0.7-0.4-2.4-1.5-2.9-1.8c0.2,0.1,0.1-0.7,0-1.1c0.8-3.2,4.8-4.7,6.5-7.5C147.9,95.5,148.5,95.9,149.1,96.4z"/>
			</g>
			<path class="st14" d="M153.2,166.5c-0.5,24.2-0.5,24.2-1.1,48.4c-0.4,0.1-0.2,0.2-0.3,0.2c-4.6-0.2-4.6-0.2-9.2-0.3
				c2.2-12.5,3.4-25,4.6-37.5c0.4-3.6,1-7.2,1-10.8C148.5,166.5,152.6,166.5,153.2,166.5z"/>
			<path class="st14" d="M152.7,153.8c0,3.6,0,7.2,0,10.8c-1.1,0-3.6-0.1-4.3,0c0.3-0.7,0.2-1.3,0.3-2c0.2-3,0.5-6,0.8-9
				C150.4,153.9,151.5,153.8,152.7,153.8z"/>
			<path class="st10" d="M152.6,164.5c1,0,2.2-0.1,3.1,0c1,0.1,2.5-0.2,2.4,1.8c-1.6-0.3-3.4,0.2-5,0.2c-0.5,0-4.6,0-4.9,0
				c-1.1-0.1-3.7-0.3-2.6-1.7c0.1-0.1,2.2-0.3,2.6-0.3C149.1,164.5,151.5,164.5,152.6,164.5z"/>
			<path class="st12" d="M157,153.8c0.3,3.9,0.4,9.3,2,12.5c0.3,1.7-1.1,0.3-1.3,0.5c1.2,12.5,3,25,4.6,37.5c0.4,3.5,0.8,7,1.5,10.4
				c-0.4,1-10.4-0.1-11.8,0.1c0.5-24.2,0.5-24.2,1.1-48.4c1.6,0,3.3-0.5,5-0.2c0.1-1.9-1.5-1.7-2.4-1.8c0.2-3.6-0.4-7.1-0.5-10.8
				C156.1,153.8,156.6,154,157,153.8z"/>
			<g>
				<path class="st16" d="M148.3,115.9c0.3,1.4,0.3,2.8,0.5,4.2c-1.2,0.5-0.1-0.9-0.9-1.8c-9.7,4.3-19.3,8.7-26.5,16.1
					c-5.5,5.7-11,15.9-1.7,21c4.6,2.5,17.2,4.1,25,9.5c1.1-1.2,2.7-0.6,2.8-0.7c0.9-0.5-0.2-1.8,0.9-1.8c-0.1,0.7,0.1,1.3-0.3,2
					c-0.4,0-2.5,0.2-2.6,0.3c-1.1,1.4,1.5,1.6,2.6,1.7c0,3.6-0.7,7.2-1,10.8c-0.2,0-0.5-0.1-0.5,0.1c-0.6,2.2-1.2,11.1-2.3,16.5
					c-0.4,1.1-0.8,1.7-1,2.9c0,0.2-0.5,0.1-0.5,0.1c1.6-2.3-7.6,0.3-9.5,0.9c-20.6-13.5-31.8-39.3-17.1-59.5
					c10-13.7,30.4-19.7,31.2-21.3c-0.2-0.1-0.3-0.3-0.3-0.6C147.7,115.9,147.8,116,148.3,115.9z"/>
				<path class="st16" d="M164.4,204.8c-0.9-0.3-0.9,0-1,0c-0.1,0-0.4-0.5-1-0.4c-1.6-12.5-3.4-25-4.6-37.5c0.2-0.3,1.6,1.1,1.3-0.5
					c0,0.1,1,0.1,0.3,1.4c2.9,2,8.6-1.7,10.9-3.8c2.1-0.5,9.9,2.7,14.8,0c2.4-1.3,3.7-5.1,4-5.4c2-2.7,5.2-5.2,5.6-8.6
					c1.2-8.9-10.9-21.8-19-26.7c-3.2-2-7.3-3.6-10.9-5.1c-2.5-1-5.1-2-7.7-3.1c0-0.3,0-0.6,0-0.9c10.9,3.2,19.3,6.7,27.1,14.2
					c19.7,19.2,16.9,44.9-2.1,63.6c-8.1,7.9-16,10.7-17.5,12C164,204.3,164,204.3,164.4,204.8z"/>
				<g>
					<path class="st21" d="M148.9,120.1c0.1,0.9,0.4,1.7,0.5,2.6c0.8,7.2-0.5,14.4-0.5,21.7c1.4,0.3,0.3,1.5,1,2.1
						c-0.2,2.3-0.3,4.7-0.5,7c-0.2,3-0.5,6-0.8,9c-1.1-0.1,0,1.2-0.9,1.8c-0.1,0.1-1.7-0.5-2.8,0.7c-7.8-5.4-20.5-7-25-9.5
						c-9.3-5.1-3.8-15.3,1.7-21c7.1-7.4,16.7-11.8,26.5-16.1C148.7,119.2,147.7,120.7,148.9,120.1z"/>
					<path class="st21" d="M159,166.3c-1.6-3.3-1.7-8.7-2-12.5c-0.7-7.5-0.7-15-1-22.4c4.1-3.7,7.9-8,8.7-13.2
						c3.6,1.5,7.6,3.1,10.9,5.1c8.1,4.9,20.2,17.9,19,26.7c-0.5,3.4-3.6,5.9-5.6,8.6c-0.2,0.3-1.6,4.1-4,5.4
						c-4.9,2.7-12.8-0.5-14.8,0c-2.2,2.2-8,5.9-10.9,3.8C160,166.4,159.1,166.4,159,166.3z"/>
				</g>
				<path class="st21" d="M164.7,118.1c-0.8,5.2-4.6,9.5-8.7,13.2c-0.1-1.9-1.3-14.5-0.8-15.1c0.5-0.6,1.7,0.9,1.8-1.2
					C159.6,116.1,162.2,117.1,164.7,118.1z"/>
			</g>
			<path class="st23" d="M152.4,128.9c-0.1,8.3,0.2,16.6,0.2,24.9c-1.1,0-2.2,0.1-3.3-0.2c0.2-2.3,0.3-4.7,0.5-7
				c0.3-3.7,1.5-18.1,1.3-19.6C151.9,127.2,152.2,128.6,152.4,128.9z"/>
			<path class="st24" d="M154.2,153.8c-0.5,0-1,0-1.5,0c0-8.3-0.4-16.6-0.2-24.9c0.2,0.3,1.5,1.4,2,1.9
				C154.1,138.4,153.6,146.1,154.2,153.8z"/>
			<path class="st12" d="M154.2,153.8c0.3,0,0.7,0,1,0c0.1,3.7,0.7,7.1,0.5,10.8c-0.8-0.1-2.1,0-3.1,0c0-3.6,0-7.2,0-10.8
				C153.2,153.8,153.7,153.8,154.2,153.8z"/>
			<path class="st21" d="M151.1,126.9c0.2,1.4-1,15.9-1.3,19.6c-0.7-0.6,0.4-1.8-1-2.1c0-7.3,1.3-14.4,0.5-21.7
				C149.8,123.9,151,125.8,151.1,126.9z"/>
			<g>
				<path class="st25" d="M150.5,233.8c0.4,0,2.9,0.1,3.1,0.2c0,0-0.1,0.2,0.3,0.2c-0.1,1.8-0.1,1.8-0.3,3.5
					c-9.1-0.2-9.1-0.2-18.1-0.5c0.7-0.7,1.4-1.4,2-2.2c0.1-0.1,0.8,0.2,1.3-1.3C142.7,234,146.7,233.6,150.5,233.8z"/>
				<path class="st9" d="M165.6,223.3c0.7,3.1,0.9,6.2,1.8,9.2c-1,0.1,0.4,1.2-0.4,1.5c-0.9,0.3-10.9-0.4-13.2,0.2
					c-0.3,0-0.2-0.2-0.3-0.2c0-9.2,0-9.2,0-18.5c1.6,0,9.6-0.6,10.3,0C164.4,218.2,165.1,220.7,165.6,223.3z"/>
				<path class="st26" d="M168.4,235.4c0.3,0.7,0.4,1.1,0.8,1.8c-3-0.9-11.3,0.4-10.7,1c3.3,0.3,10.6,1.4,11.2,0.1
					c0.2,0.4,0.5,0.7,0.5,1.1c-5.5-0.5-11.2-0.1-16.6-1.6c0.1-1.8,0.1-1.8,0.3-3.5c2.2-0.6,12.2,0.1,13.2-0.2
					c0.8-0.3-0.6-1.4,0.4-1.5C167.7,233.5,168.1,234.4,168.4,235.4z"/>
				<path class="st27" d="M151.1,215.6c0.2,0,0.3,0,0.5,0c-0.5,9.1-0.5,9.1-1,18.3c-3.9-0.2-7.9,0.1-11.8,0
					c1.5-9.1,1.5-9.1,3.1-18.1C144.9,215.4,148,215.7,151.1,215.6z"/>
				<path class="st28" d="M153.6,215.6c0,9.2,0,9.2,0,18.5c-0.2-0.1-2.6-0.2-3.1-0.2c0.5-9.1,0.5-9.1,1-18.3
					C152.3,215.6,152.9,215.6,153.6,215.6z"/>
				<path class="st22" d="M169.2,237.2c0.2,0.4,0.3,0.7,0.5,1.1c-0.7,1.2-8,0.2-11.2-0.1C157.9,237.5,166.2,236.2,169.2,237.2z"/>
			</g>
		</g>
	</g>
</g>
</svg>
