<?xml version="1.0" encoding="utf-8"?>
<!-- Generator: Adobe Illustrator 28.2.0, SVG Export Plug-In . SVG Version: 6.00 Build 0)  -->
<svg version="1.0" id="Layer_1" xmlns="http://www.w3.org/2000/svg" xmlns:xlink="http://www.w3.org/1999/xlink" x="0px" y="0px"
	 viewBox="0 0 400 400" style="enable-background:new 0 0 400 400;" xml:space="preserve">
<style type="text/css">
	.st0{fill:#E6E6E6;}
	.st1{fill:#F2F2F2;}
	.st2{fill:#0E0F0C;}
	.st3{fill:#271A1C;}
	.st4{fill:#E8EDCE;}
	.st5{fill:#CDD2BC;}
	.st6{fill:#F8E9D3;}
	.st7{fill:#BDCAA3;}
	.st8{fill:#49703F;}
	.st9{fill:#9AAA82;}
	.st10{fill:#8A933D;}
	.st11{fill:#658543;}
	.st12{fill:#0C220F;}
	.st13{fill:#111812;}
	.st14{fill:#203718;}
	.st15{fill:#F3FABF;}
	.st16{fill:#E4F2B7;}
	.st17{fill:#F9F0E8;}
	.st18{fill:url(#SVGID_1_);}
	.st19{fill:#31562A;}
	.st20{fill:url(#SVGID_00000100352987960174571100000008348189532907325371_);}
	.st21{fill:#8BAC67;}
	.st22{fill:#599152;}
</style>
<g>
	<path class="st0" d="M23.6,114.7c-1.7,2.6-3.4,5.4-4.8,8.1c-0.6,1.2-4.7,8.5-3.6,9.1c3.5-1.2,7.3-1,10.8-1.9c0.8-0.2,1.7-1.2,2.9-1
		c-1.1,3.2-2.3,6.4-3.4,9.6c-13.8,40.6-12.9,83.5,1.7,123.7c20.2,55.4,64.2,98.7,121.8,113.8c-2.2,5.1-3.2,5,7,7.7
		c12.9,3.4,35.4,5.2,48.7,4.9c0.3,3.1-1.2,6-3.4,8.1c-21.3,0.4-40.9-1.6-61.4-7.8c-33.2-9.9-67.9-33.9-90.7-59.8
		c-53-60.4-65.2-149.6-28-221.2C21.8,109.7,22.7,113.3,23.6,114.7z"/>
	<g>
		<path class="st1" d="M289.3,22.5c-2.2,1-5.6,9.3-7.1,9.6c-1.7,0.3-3.4-2.7-4.6-1c-2.8-1.3-5.5-2.2-8.3-3.4
			c-47.8-19.3-95-20-142.5,0.8c0-0.5,0-0.5,0-1c0-0.3,0.1-0.8,0-1c5.1-1.6,5.1-1.6,10.3-3.1c-1.9-5.9-1.9-5.9-3.9-11.8
			C188.5-5.7,237.4-4.1,289.3,22.5z"/>
		<path class="st1" d="M375.1,129.1c2.3,10,4.1,6.3,11.7,2.9c0.5,1.3,1,2.5,1.5,3.8c-4.2,2.5-4.2,2.5-8.3,5c1,3.4,1,3.4,1.9,6.7
			c1.2,1.6,8.1-1.5,9.8-2.6c0.4,1.3,0.6,3,1,4.3c-4.9,1.8-4.9,1.8-9.8,3.6c0.4,2.7,2.3,6.6,2.4,7c0.4,1.9,0.6,3.9,1,5.8
			c0.3,1.4,1.7,4.6,1.9,5.8c0.1,0.3,0.2,1.9,0.5,3.4c0.3,2,0.2,4.5,0.5,6.5c0.1,0.4,1,0.2,1,0.2c0.3,2.1-1.2,2-1,4.6
			c0,0.4,1,0.2,1,0.2c0.4,4.2,1,2.7,1,2.9c0.2,2.2-0.5,2.7-0.5,2.9c0.4,7.4-0.2,17.5-1,24.9c-0.2,2.2-0.6,4.5-1,6.7
			c-1.6-3.5,0-9.4-5.4-8.2c1.2-13.5,1-27.8-0.9-41.2c-2.1-15.4-7.2-30.7-13.1-45.1C372.2,129.1,372.2,129.1,375.1,129.1z"/>
		<path class="st1" d="M94.5,29.5c0.5,1.9,0.4,5,0.5,5.3c-2.1,2.5-5.9,2.2-8.8,3.8c-4.7-5,2.1,5,2.9,6.7c-2.8-1.5-4,2.1-6.8,2.4
			c-14.2-9.9-1.5-0.3,3.4,5C78,59,78,59,70.3,65.4c-5.2,0.4-22.1-12-8.1-1.4c2.8,3.5-2.8,5.3-5.9,5.7c-0.5,0.1-0.8-1-1.5-0.2
			c0.4,0.8,0.9,1.1,1.5,1.7c0.7,3.1-3.8,1.4-3.7,6.7c-3.8-3.6-3.8-3.6-7.6-7.2c4.9-5.7,9.7-11.4,15.4-16.3
			C75.2,43,78.1,39.4,94.5,29.5z"/>
		<path class="st1" d="M399.4,182.3c3.1,32.5-2.1,66.3-15.3,96.3c-4.2,1.4-3.2-0.4-3.4-0.5c2.3-4.8,4.4-5.2-0.5-9.1
			c1-0.7,1-0.7,2-1.4c1.4,0.8,2.7,1.9,2.9,1.7c6.3-16.5,8.6-33.5,9.8-51c0.3-4.1,1.9-23.6,1-25.6c-0.6-1.4-4.3-0.5-5.4-0.7
			c0-0.2,0.7-0.7,0.5-2.9c2.8,0.5,7.1,0.2,5.9-3.6c-0.5-1.4-8.2-2.5-6.8,0.7c0,0-0.9,0.2-1-0.2c-0.2-2.5,1.3-2.5,1-4.6
			c3.1-0.2,6.4,0.8,8.8-1.4C399.1,181.1,399.4,181.7,399.4,182.3z"/>
		<path class="st1" d="M344.9,80.6c0.8,1.6,4.7,5.7,6.1,8.2c5-2.6,5-2.6,10-5.3c0.5,0.8,0.9,1.6,1.5,2.4c-1,1.6-9,4.7-8.8,6.5
			c0,0.3,3.1,4.1,3.7,4.1c0.5,0,7.2-4.7,8.6-5.3c0.7,1.1,1.3,2.3,1.9,3.4c-7.9,5.9-10.3,4.6-5.1,10.5c12.7-7.4,0.1,0.3,1.2,4.1
			c2.7,9.1,7.4,2,12.7,0.3c0.1,0.1,0.3,1,1,2.4c-4.9,4.8-9.6,3.6-6.8,7.9c1.8,2.9,3.3,0,9.3-3.1c0.9,1.8,1.6,3.5,2.4,5.3
			c-4.2,2.8-4.2,2.8-8.3,5.5c0.3,0.4,0.9,1.2,1,1.7c-2.9,0-2.9,0-5.9,0c-0.5-1.3-0.9-2.6-1.5-3.8c-6.2-14.1-16.5-32.1-26.3-44.1
			C343.2,80.9,343.2,80.9,344.9,80.6z"/>
		<path class="st1" d="M292.7,24.5c-2.8,5.3-2.8,5.3-5.6,10.5c3.4,1.4,3.4,1.4,6.8,2.9c3.3-4.5,3.3-4.5,6.6-9.1
			c1.4,0.8,3,1.5,4.4,2.4c-5.8,9.3-9.2,8.2,0.2,12.9c3.1-4.3,3.1-4.3,6.1-8.6c1.3,0.8,2.6,1.5,3.9,2.4c-3.2,4.4-3.2,4.4-6.4,8.9
			c9.3,9,5.4,4.8,14.6-3.1c1,0.8,1.9,1.6,2.9,2.4c-3.7,4.7-3.7,4.7-7.3,9.3c8.6,8.8,6.6,8.3,17.1-0.7c1.2,1.1,2.3,2.2,3.4,3.4
			c-3.9,3.7-3.9,3.7-7.8,7.4c1,1,4.6,5.7,4.9,6c-0.9,0.3-2.2,0.4-2.9,0c-1.7-0.9-19.4-18.3-28-24.5c-8.7-6.3-18.3-11.4-28-15.9
			c1.3-1.7,2.9,1.3,4.6,1c1.5-0.3,4.9-8.5,7.1-9.6C290.5,23.1,291.6,23.9,292.7,24.5z"/>
		<path class="st1" d="M119,17c0,0.2,0,0.2,0,0.5c0,6.6,0,6.6,0,13.2c3.9-1.6,3.9-1.6,7.8-3.1c0,0.5,0,0.5,0,1
			c-16,7-26.4,14-40.1,24.4c-6.4,4.9-12.7,9.8-18.6,15.3c-11.4,10.8-23.7,27-31.8,40.5c-2.7,4.5-4.7,10-7.3,14.6
			c-2.5,0.3,4.8-8.7,5.4-13.4c0.1-1,0.6-1.3,0.5-1.7c-12.4-11.7-0.3-1.4,3.2-3.1c1.4-1.9,0.2-2.3,0.2-2.4
			c7.3-9.2,13.6-19.4,21.5-28.5c0.1-1.2-2.4-2-3.4-3.1c-0.6-0.6-1-0.9-1.5-1.7c0.6-0.7,1,0.3,1.5,0.2c5.5,5.7,3.5,2.8,9.3-2.6
			c0.4-1.6-1.5-1.7-3.4-3.1c-14-10.6,2.9,1.9,8.1,1.4C78,59,78,59,85.7,52.7c-4.9-5.3-17.6-14.9-3.4-5c0.9,0.7,3.5,3.3,4.1,3.4
			c0.5,0,4.1-2.6,4.2-3.1c0.1-0.5-0.8-1.3-1.5-2.6c-0.8-1.8-7.6-11.7-2.9-6.7c0.6,0.7,3.5,6.5,5.1,8.2c10.2-4.3,4.8-6.4,4.6-6.9
			c-0.3-1.5,0.5-1.8,0.5-1.9c0-0.2-0.8,0.5-1.5-3.1c-0.1-0.3,0.1-3.3-0.5-5.3c0,0-0.1-0.1,0.5-0.5c0.8,1.3,1.1,3.3,1.5,4.8
			c0.3,1.1,1.8,8.5,2.2,8.6c0.5,0.2,7.6-3.2,5.1-8.1c-3.4-18.9,0.9,2.4,2.2,2.9c1.1,0.4,6-2.3,6.1-2.6c0.6-1.5-2.9-10.7-3.4-13.2
			c0.1-0.1,0.4,0.1,0.5,0c5.8,21.7,9.1,11,8.8-4.3C118.2,16.9,118.7,17.1,119,17z"/>
		<path class="st1" d="M34.4,109.9c-0.6,4.8-7.9,13.7-5.4,13.4c-0.6,1-0.5,1.4-0.5,1.4c-1.6-0.8-7.9-6.6-8.3-7.2
			c-0.9-1.4-1.9-5-2.4-6.7c0.3-0.6,0.6-1.3,1-1.9C27.3,103.5,30.7,112.9,34.4,109.9z"/>
		<path class="st1" d="M376.6,109.4c-5.3,1.7-10,8.8-12.7-0.3c-1.1-3.8,11.5-11.5-1.2-4.1c-5.2-5.9-2.8-4.7,5.1-10.5
			C370.8,99.5,373.9,104.3,376.6,109.4z"/>
		<path class="st1" d="M126.8,26.6c-0.2-0.6-6.7-10.2-7.8-9.1c0-0.2,0-0.2,0-0.5c4.8-1.9,9.2-3.7,14.2-5.3c1.9,5.9,1.9,5.9,3.9,11.8
			C131.9,25.1,131.9,25.1,126.8,26.6z"/>
		<path class="st1" d="M103.8,34.3c-2.3-2.6-2,0.3-3.2,0.5c-2.1,0.3-2.6-3.5-4.1-1c-0.4-1.5-0.7-3.5-1.5-4.8
			c4.5-2.7,8.9-5.3,13.7-7.7c0.5,2.4,4,11.7,3.4,13.2c-0.1,0.3-5,3.1-6.1,2.6C104.7,36.6,100.4,15.4,103.8,34.3z"/>
		<path class="st1" d="M38.3,102.7c-0.1,0.1,1.2,0.5-0.2,2.4c-3.4,1.7-15.5-8.6-3.2,3.1c0.1,0.4-0.4,0.6-0.5,1.7
			c-3.7,3-7.1-6.4-15.6-1c3-5.5,6.3-10.5,9.8-15.8C28.1,98.7,34.4,100.5,38.3,102.7z"/>
		<path class="st1" d="M336.1,54.7c-10.5,9-8.5,9.5-17.1,0.7c3.7-4.7,3.7-4.7,7.3-9.3C329.8,48.8,333,51.7,336.1,54.7z"/>
		<path class="st1" d="M361,83.5c-5,2.6-5,2.6-10,5.3c-1.4-2.5-5.3-6.5-6.1-8.2c-0.2-0.5-0.5-0.8-1-1.2c4.4-3.5,4.4-3.5,8.8-6.9
			C355.6,76.1,358.4,79.8,361,83.5z"/>
		<path class="st1" d="M353.7,71.4c-4.6,2.7-4.6,2.7-9.2,5.5c0.4,0.3,0.8,0.5,1,1c-1.8,0.2-1.8,0.2-3.6,0.4
			c-2.4-2.2-4.4-4.1-7.2-6.1c-0.2-0.2-0.8-1-1-1.1c0-0.2,0-0.2,0-0.4c0.8,0.3,2.2,0.3,3.1,0c0.6,0.4,1.4,0.6,1.8,1.1
			c5-2.3,5-2.3,10-4.5C350.2,68.6,352.1,69.9,353.7,71.4z"/>
		<path class="st1" d="M347.8,67.2c-4.8,2.9-4.8,2.9-9.5,5.7c-0.4-0.6-1.2-1-1.7-1.4c-0.3-0.3-3.9-5-4.9-6c3.9-3.7,3.9-3.7,7.8-7.4
			C342.6,61.1,345.1,64,347.8,67.2z"/>
		<path class="st1" d="M323.5,43.7c-9.3,7.9-5.3,12.1-14.6,3.1c3.2-4.4,3.2-4.4,6.4-8.9C318,39.8,320.8,41.6,323.5,43.7z"/>
		<path class="st1" d="M386.8,132c-7.6,3.4-9.4,7.1-11.7-2.9c-0.1-0.5-0.6-1.3-1-1.7c4.2-2.8,4.2-2.8,8.3-5.5
			C384,125.5,385.4,128.3,386.8,132z"/>
		<path class="st1" d="M300.5,28.8c-3.3,4.5-3.3,4.5-6.6,9.1c-3.4-1.4-3.4-1.4-6.8-2.9c2.8-5.3,2.8-5.3,5.6-10.5
			C295.4,25.9,298,27.3,300.5,28.8z"/>
		<path class="st1" d="M109.2,21.3c3-1.4,5.7-3,8.8-4.3C118.3,32.3,115,43,109.2,21.3z"/>
		<path class="st1" d="M391.7,144.9c-1.6,1.1-8.6,4.3-9.8,2.6c-1-3.4-1-3.4-1.9-6.7c4.2-2.5,4.2-2.5,8.3-5
			C389.4,138.9,390.7,141.9,391.7,144.9z"/>
		<path class="st1" d="M395.1,157.4c-4.9,1.2-4.9,1.2-9.8,2.4c-0.1-0.4-2.1-4.3-2.4-7c4.9-1.8,4.9-1.8,9.8-3.6
			C393.4,152,394.4,154.7,395.1,157.4z"/>
		<path class="st1" d="M311.3,35.5c-3.1,4.3-3.1,4.3-6.1,8.6c-9.4-4.7-6-3.6-0.2-12.9C307.1,32.5,309.1,34.1,311.3,35.5z"/>
		<path class="st1" d="M37.3,80.2c2.1-2.7,4.2-5.1,6.4-7.7c1.2,3.2,10.1,10.2,3.2,11.5C44.7,84.4,39.5,81.6,37.3,80.2z"/>
		<path class="st1" d="M365.9,91.2c-1.3,0.5-8,5.3-8.6,5.3c-0.5,0-3.6-3.8-3.7-4.1c-0.2-1.7,7.8-4.9,8.8-6.5
			C363.6,87.7,364.7,89.4,365.9,91.2z"/>
		<g>
			<path class="st1" d="M396,162.2c0.5,2.4,1,4.8,1.5,7.2c-4.6,1-4.6,1-9.3,1.9c-0.2-1.1-1.6-4.3-1.9-5.8
				C385.5,162.8,392.1,163.4,396,162.2z"/>
			<path class="st1" d="M398.5,174.7c0.2,1.7,0.3,3.5,0.5,5.3c-2.4,2.3-5.7,1.2-8.8,1.4c0,0-0.9,0.2-1-0.2c-0.3-2-0.1-4.4-0.5-6.5
				C393.6,174.7,393.6,174.7,398.5,174.7z"/>
		</g>
		<path class="st1" d="M380,116.6c-6,3.1-7.5,6-9.3,3.1c-2.7-4.3,1.9-3.1,6.8-7.9C378.4,113.4,379.2,115,380,116.6z"/>
		<path class="st1" d="M396,162.2c-3.9,1.2-10.5,0.6-9.8,3.3c-0.4-1.9-0.5-3.9-1-5.8c4.9-1.2,4.9-1.2,9.8-2.4
			C395.4,159,395.7,160.6,396,162.2z"/>
		<path class="st1" d="M398.5,174.7c-4.9,0-4.9,0-9.8,0c-0.2-1.4-0.4-3.1-0.5-3.4c4.6-1,4.6-1,9.3-1.9
			C397.8,171.1,398.2,172.9,398.5,174.7z"/>
		<g>
			<path class="st1" d="M56.4,71.1c1,1.1,3.5,2,3.4,3.1c-7.9,9.1-14.2,19.3-21.5,28.5c-3.9-2.3-10.2-4-9.7-9.6
				c1.2-1.9,2.7-3.5,3.9-5.3c3.3-0.9,4.6,3.3,7.8,3.1c-3.2-2.8-3.2-2.8-6.3-5.5c0.2-0.3,0.6-1.6,3.4-5.3c2.1,1.4,7.4,4.3,9.5,3.8
				c6.9-1.3-1.9-8.3-3.2-11.5c0.5-0.6,1-1.3,1.5-1.9c3.8,3.6,3.8,3.6,7.6,7.2C52.6,72.5,57.1,74.2,56.4,71.1z"/>
			<path class="st1" d="M32.4,87.9c0.1-0.1,0.2-0.6,1.5-2.4c3.2,2.8,3.2,2.8,6.3,5.5C37,91.1,35.7,86.9,32.4,87.9z"/>
		</g>
		<path class="st2" d="M55.1,310.8c24.3,28.2,59.1,49.2,95.6,57.7c-0.1,0.4,0.6,0.5,0.5,1.2c-0.7,3.1-2.3,6.3-2.9,9.3
			c-0.2,0-0.2,0-0.5,0C89.2,363.9,44.4,320.6,23.9,265.2c3.5-1.5-0.1-1.4,2-2.4C32.6,280,43,296.8,55.1,310.8z"/>
		<path class="st3" d="M15.7,222.5c1.8,14.2,4.9,26.9,10.2,40.3c-2.1,0.9,1.6,0.9-2,2.4C9,225,8.1,182.2,22.1,141.5
			C14.3,169.7,11.9,193.4,15.7,222.5z"/>
		<path class="st1" d="M28.5,124.8c-0.3,0.5-0.6,0.9-1,1.4c-0.7,0.9-1.3,1.8-1.7,2.9c-1.1,0.6-5.3-1.4-6.6-1.9
			c-1.3-0.5-2.6-1.1-3.9-1.4c1.5-2.8,3.2-5.5,4.9-8.1C20.6,118.2,26.9,124,28.5,124.8z"/>
		<path class="st1" d="M19.4,127.1c-2.5,2.3,3.6,0,3.2,5.8c-3.3,0.9-6.9,0.7-10.2,1.9c-1-0.6,2.9-7.9,3.4-9.1
			C17,126.1,18.3,126.6,19.4,127.1z"/>
		<path class="st1" d="M25.5,132c-1.2-0.3-2.1,0.8-2.9,1c0.4-5.8-6.1-3.4-3.4-5.8c1.3,0.5,5.4,2.5,6.6,1.9c0.5-1.1,1-1.9,1.7-2.9
			C27.2,128.2,26.2,130.1,25.5,132z"/>
		<g>
			<path class="st1" d="M228.7,397.8c-9.6,1.4-18.2,1.7-27.8,1.9c2.2-2.1,3.7-5.1,3.4-8.1c6.5-0.2,13.1-1,19.5-1.9
				c-0.4,2,1.4,1.9,1.5,2.2C225.8,393.1,224.8,397.6,228.7,397.8z"/>
			<path class="st1" d="M231.7,397.4c-1,0.2-2,0.3-2.9,0.5c-3.9-0.2-3-4.8-3.4-6c-0.1-0.3-1.8-0.2-1.5-2.2
				c7.7-1.1,15.3-2.2,22.5-5.2c3.5-1.5,6.8-3.8,10-5.7c1.8,4.4,1.8,4.4,3.6,8.9c-0.4,0.6-0.4,0.6-0.7,1.2c-5.1,1.2-5.1,1.2-10.3,2.4
				c-0.4,0.1-0.8,3.7-3.4,1.4C243.8,395.4,233,394.3,231.7,397.4z"/>
		</g>
		<path class="st4" d="M269.3,27.8c0,0.7,0,0.7,0,1.4C207.5,2.6,140.1,13,87.7,53.9c-0.5-0.5-0.5-0.5-1-1
			c13.6-10.4,24.1-17.4,40.1-24.4C174.3,7.8,221.5,8.5,269.3,27.8z"/>
		<path class="st5" d="M277.6,31.2c9.7,4.5,19.3,9.6,28,15.9c8.6,6.2,26.4,23.6,28,24.5c0,0.2,0,0.2,0,0.5c-0.2-0.2-2.1-0.8-4.6-3.8
			c-0.4,0.4-0.7,0.8-1.2,1c-0.3-1-1.3-1.3-1.9-1.9c-16.1-15.9-35.7-29-56.6-38c0-0.7,0-0.7,0-1.4C272.1,28.9,274.8,29.9,277.6,31.2z
			"/>
		<path class="st1" d="M126.8,26.6c0.1,0.2,0,0.6,0,1c-3.9,1.6-3.9,1.6-7.8,3.1c0-6.6,0-6.6,0-13.2C120,16.5,126.5,26,126.8,26.6z"
			/>
		<g>
			<path class="st1" d="M395,218.3c-1.3,17.5-3.5,34.5-9.8,51c-0.2,0.2-1.5-0.9-2.9-1.7c-0.6-0.4-4.8-3.3-4.9-3.6
				c4.9-13.1,9.2-26.7,11.3-40.5c0.3-2.2,0.8-4.5,1-6.7C392.3,217.6,392.3,217.6,395,218.3z"/>
			<path class="st1" d="M395,218.3c-2.7-0.7-2.7-0.7-5.4-1.4c0.8-7.5,1.4-17.5,1-24.9c1.1,0.3,4.8-0.6,5.4,0.7
				C396.9,194.7,395.3,214.2,395,218.3z"/>
		</g>
		<path class="st1" d="M391.1,189c0-0.2-0.6,1.3-1-2.9c-1.4-3.2,6.4-2.1,6.8-0.7C398.2,189.2,393.9,189.5,391.1,189z"/>
		<path class="st1" d="M86.2,38.6c2.9-1.6,6.6-1.3,8.8-3.8c0.7,3.6,1.4,3,1.5,3.1c0,0.1-0.8,0.5-0.5,1.9c0.1,0.6,5.6,2.7-4.6,6.9
			C89.7,45,86.9,39.2,86.2,38.6z"/>
		<path class="st1" d="M56.4,69.7c3.1-0.4,8.7-2.3,5.9-5.7c1.9,1.4,3.8,1.5,3.4,3.1C59.9,72.5,61.9,75.4,56.4,69.7z"/>
		<path class="st1" d="M89.1,45.3c0.6,1.3,1.5,2.2,1.5,2.6c-0.1,0.5-3.7,3.1-4.2,3.1c-0.7,0-3.2-2.7-4.1-3.4
			C85.1,47.4,86.4,43.8,89.1,45.3z"/>
		<path class="st1" d="M380.3,269.1c4.9,3.9,2.8,4.3,0.5,9.1c-8.7-3.9-8.2-4.8-3.6-11.5C378.4,268.4,379.8,268.7,380.3,269.1z"/>
		<path class="st5" d="M341.5,81.1c9.8,12,20.1,30,26.3,44.1c-1.8,0-1.2-3.2-2.9-1.9c-6.6-14.5-15.4-27.9-24.8-40.8
			c-1.2-1.6-5.7-6.6-5.8-7.7c-0.2-0.8,0.4-0.9,0.5-1.4C337.3,75.9,339.2,78.3,341.5,81.1z"/>
		<path class="st1" d="M103.8,34.3c2.5,4.9-4.6,8.3-5.1,8.1c-0.4-0.2-1.9-7.5-2.2-8.6c1.6-2.5,2.1,1.3,4.1,1
			C101.8,34.5,101.5,31.6,103.8,34.3z"/>
		<path class="st6" d="M87.7,53.9c-4.3,3.4-8.6,7.4-12.7,11c-2.9,2.6-5.5,4.2-4.4,4.8c-1.3-0.7-1.3-1.5-2.4-1.4
			c5.8-5.5,12.2-10.5,18.6-15.3C87.2,53.4,87.2,53.4,87.7,53.9z"/>
		<path class="st7" d="M26.8,259.5c7.3,19,15.4,33.8,28.7,49.4c-0.2,1-0.2,1-0.5,1.9c-12.1-14-22.5-30.9-29.2-48
			c-5.3-13.4-8.4-26.1-10.2-40.3c0.5-1,0.5-1,1-1.9C18.6,236.3,21.3,245,26.8,259.5z"/>
		<g>
			<path class="st8" d="M364.8,123.3c3.6,7.9,9.3,22.7,11.7,30.9c2.4,8.2,3.9,19.2,4.4,20.1c0.4,0.7,0.9-0.1,1.5-0.2
				c1.9,13.4,2.1,27.7,0.9,41.2c-5.7,65.2-52.9,126-115.7,148.5c-2.3,0.8-18.1,5.8-19,5.7c-1.9-0.1-1-0.8-1.2-1
				c10-3.5,10-3.5,20-6.9c0.2-3.2-3.3-18.5-1.7-19.9c18.3-3.8,59.1-27.9,67.2-43.3c4.9-9.3,2.2-24.3,1-34.8c-0.5-4.3-0.4-8.5-1-12.7
				c-22.9-31.9-36.8-56.5-76.5-69.9c-3.6-14.9-3.6-14.9-7.3-29.7c31.8-20.8,65-40.8,90.9-68.9C349.5,95.4,358.2,108.8,364.8,123.3z"
				/>
			<path class="st9" d="M367.8,125.3c0.5,1.3,0.9,2.6,1.5,3.8c5.9,14.4,11,29.7,13.1,45.1c-0.5,0.2-1.1,0.9-1.5,0.2
				c-0.5-0.9-2-12-4.4-20.1c-2.4-8.2-8.1-23-11.7-30.9C366.6,122,366,125.3,367.8,125.3z"/>
			<path class="st10" d="M75.9,86.5c-0.7-0.1,0.2,2.3,0.5,2.6c1.9,2.8,17,22.5,20,25.9c44.3,51.8,72.9,38.1,74.1,42.3
				c-17.4,16.8-39.8,27.5-59.9,40.9c-14.4,9.6-29.3,19.2-43,29.7c-2,1.5-15.7,11.7-15.9,12.7c0,0.3,2.2,3.2,2.4,4.1
				c0.1,0.4,0.5,1.6,0.5,1.7c-1.2,3.5-22.3,8.9-26.6,11.2c-1,0.5-1.5,0.6-1.2,1.9c-5.5-14.4-8.3-23.2-10.2-38.8
				c-6.8-55.2,9.2-105.5,47.8-146.2C65.9,74.3,74.3,84.8,75.9,86.5z"/>
			<path class="st8" d="M324.6,265.7c-14.4,22.9-46.9,38.5-72.8,44.5c-7.5-33.1-12-67.2-15-101.2
				C265.8,228.3,295.4,246.7,324.6,265.7z"/>
			<path class="st11" d="M269.3,29.2c20.9,9,40.5,22,56.6,38c-50.4,13.2-83.3,22.2-113.1,67.4c-2.1,0.7-14.8-5-24.7,2.4
				c-2.2-2.1-17.6-12-22.4-15.4c-29.1-20.5-58.8-40.8-90.7-56.7c4.2-3.6,8.4-7.6,12.7-11C140.1,13,207.5,2.6,269.3,29.2z"/>
			<g>
				<path class="st9" d="M151.2,367.5c-0.3,1.3-0.5,0.9-0.5,1c-36.5-8.5-71.3-29.5-95.6-57.7c0.2-1,0.2-1,0.5-1.9
					C80.3,338,114.4,357.1,151.2,367.5z"/>
				<path class="st11" d="M55.2,244.7c-0.2,1.4,0.8,2.3,1.5,3.4c-0.8,0.4,1.3,4.7,2.4,7.2c3.3,7.3,9.1,18.6,14.1,24.7
					c17.9,21.5,61,38.1,88.8,41.6c-3.4,15.4-7.2,30.7-10.8,46c-36.8-10.5-70.8-29.5-95.6-58.6c-13.3-15.6-21.5-30.5-28.7-49.4
					c-0.2-1.3,0.2-1.4,1.2-1.9c4.3-2.4,25.4-7.7,26.6-11.2c0-0.1-0.4-1.3-0.5-1.7C54.5,244.6,55,244.7,55.2,244.7z"/>
			</g>
			<path class="st11" d="M179.2,195c0.4,0.4,2.3,1.7,2.4,2.2c-5.6,38.6-10.1,77.4-17.7,115.8c-34.3-4.4-72.5-19.1-94.6-46.4
				c-1.7-2.1-6.4-10.4-7.8-11.3c-0.8-1.6,0.6-1.8,2.2-2.4c6.4-2.3,28.5-6.2,42-11c27.5-9.6,52.6-27,70.4-49.8
				C176.9,193.2,178.3,194,179.2,195z"/>
		</g>
		<path class="st12" d="M61.5,255.2c1.4,0.9,6.1,9.2,7.8,11.3c22.1,27.3,60.3,42,94.6,46.4c-0.6,2.9-0.9,5.8-2,8.6
			c-27.8-3.5-70.9-20.1-88.8-41.6c-5.1-6.1-10.8-17.4-14.1-24.7C60.1,254.5,60.5,254.6,61.5,255.2z"/>
		<g>
			<path class="st13" d="M152.1,382.9c0.1,0,0.3,0.9,0.7,1c23.7,2.9,45.1,4,69.1,2c7.5-0.6,15.1-1.5,22.5-3.3c1,1,1,1,1.9,1.9
				c-7.2,3-14.7,4.2-22.5,5.2c-6.5,0.9-13,1.7-19.5,1.9c-13.6,0.4-36.5-1.4-49.5-4.9c-10.3-2.7-9.4-2.6-7.1-7.7c0.2,0,0.2,0,0.5,0
				c-0.1,0.7-1.1,4.6-0.7,4.8C152,383.7,151.9,382.8,152.1,382.9z"/>
			<path class="st14" d="M174.4,145.1c3.8-0.5,1.6,2.1,0.5,4.6c0.1,1.6,1.2,0.1,1.5,0.2c2.5,0.9,4.6,1.5,7.3,1.9
				c-0.1,0.4-0.4,0.4-0.5,1.4c-1.1-0.4-3,6.2-2.9,6.7c-1.6,0.3-12.6,7.6-12.7,8.4c-0.1,0.3,3.7,3.6,4.4,4.1c-0.1,0,0.3,0.9-1.7,0
				c-4.1-5.8-4.1-2.6-4.6-2.4c-3.1,1.5-51,33.3-58.4,38.3c-8.6,5.8-48.6,34.9-52,36.4c-0.2,0.1-0.6,0-1,0c-0.2-0.9-2.5-3.8-2.4-4.1
				c0.1-1,13.9-11.2,15.9-12.7c13.7-10.5,28.6-20.1,43-29.7c20.1-13.4,42.5-24.1,59.9-40.9c-1.2-4.2-29.9,9.5-74.1-42.3
				c-2.9-3.5-18.1-23.1-20-25.9c-0.2-0.4-1.1-2.8-0.5-2.6c12,12.8,24,26,38.3,36.5c22.2,16.4,35.1,15.6,58.1,26.9
				C172.9,149.8,174.2,145.9,174.4,145.1z"/>
			<path class="st14" d="M165.7,121.6c-1,2.8-0.4,5.1-3.4,6.7C135,112.7,95.4,83.6,70.6,69.7c-1.1-0.6,1.5-2.2,4.4-4.8
				C106.9,80.8,136.5,101.1,165.7,121.6z"/>
			<g>
				<path class="st15" d="M70.6,69.7c24.8,13.9,64.4,43,91.7,58.6c1.8,1.6,12.9,12.8,13.2,13.7c0.3,1.4-0.8,2.3-1,3.1
					c-0.2,0.8-1.5,4.7-2.2,4.8c-22.9-11.3-35.8-10.6-58.1-26.9c-14.3-10.5-26.2-23.7-38.3-36.5c-1.6-1.7-10-12.2-11.5-12
					c-38.6,40.7-54.6,91-47.8,146.2c-0.5,1-0.5,1-1,1.9c-3.8-29.1-1.3-52.8,6.5-81c1.1-3.2,2.3-6.4,3.4-9.6c0.7-1.9,1.6-3.8,2-5.8
					c0.4-0.5,0.6-0.9,1-1.4c0-0.1-0.1-0.4,0.5-1.4c2.7-4.6,4.7-10.1,7.3-14.6c8-13.5,20.4-29.7,31.8-40.5
					C69.2,68.2,69.2,69,70.6,69.7z"/>
				<path class="st16" d="M78.6,80.7c40.2,25.9,40.2,25.9,80.5,51.9c1.4,1.7,15.4,10.5,14.4,12.2c-29.3-11.9-56.7-27.8-80.2-48.8
					C92,95,76.9,81.5,78.6,80.7z"/>
			</g>
			<path class="st13" d="M188.1,137c1,0.9,2,2.5,2.4,3.8c-0.3,0.2-4.5,4.7-4.9,5.3c-7.4-1.3-7.6-5.4-9.3,3.8
				c-0.3-0.1-1.4,1.3-1.5-0.2c1.1-2.5,3.3-5-0.5-4.6c0.2-0.8,1.3-1.7,1-3.1c-0.2-0.9-11.4-12.1-13.2-13.7c3-1.6,2.4-4,3.4-6.7
				C170.5,125,185.9,134.9,188.1,137z"/>
			<path class="st14" d="M188.5,172c0,0.2,0,0.2,0,0.5c-5,46.5-9.7,93-18.8,139c-0.6,3-1.3,6.1-2,9.1c-4.3,21-9.2,41.9-15.7,62.3
				c-0.3,0-0.1,0.8-4.6,1c-0.3-0.2,0.6-4.1,0.7-4.8c0.6-3.1,2.2-6.3,2.9-9.3c0.2-0.7-0.6-0.8-0.5-1.2c0-0.1,0.2,0.4,0.5-1
				c3.6-15.3,7.4-30.6,10.8-46c1-2.8,1.4-5.7,2-8.6c7.6-38.3,12.1-77.2,17.7-115.8c-0.1-0.5-2-1.7-2.4-2.2c-5.6-5.6,2.4-20-2.9-24.9
				c1.3-0.8,4-2.8,5.4-3.8C182.5,168.7,186.2,171,188.5,172z"/>
			<g>
				<path class="st15" d="M210.8,320.6c-0.7,21.7-3.5,43.3-4.5,65c7.8,0.1,7.8,0.1,15.6,0.3c-23.9,2-45.4,0.9-69.1-2
					c-0.4,0-0.7-1-0.7-1c6.5-20.4,11.4-41.3,15.7-62.3c12.2,0.5,24.4-0.4,36.6-0.4C204.8,320.1,207.2,321,210.8,320.6z"/>
				<path class="st17" d="M228.4,320.7c0,0.2,1.3,1.1,1.9,4.1c4.3,19.4,7.2,39,14.1,57.8c-7.4,1.9-14.9,2.7-22.5,3.3
					c-7.8-0.1-7.8-0.1-15.6-0.3c1-21.7,3.8-43.3,4.5-65c0-0.2,0-0.3,0-0.5C219.6,320.4,219.6,320.4,228.4,320.7z"/>
			</g>
			<path class="st15" d="M225.9,311.1c-5.1,0.9-10.4,0.5-15.6,0.5c-1.8,0-3.6,0-5.4,0c-11.7,0-23.4,0-35.1-0.1
				c9-46,13.7-92.5,18.8-139c7,7.4,17.5,0.1,18.5,2.2C212.8,220.2,217.7,265.9,225.9,311.1z"/>
			<path class="st12" d="M333.9,263.8c1.2,10.4,3.9,25.4-1,34.8c-8.1,15.4-48.9,39.5-67.2,43.3c-1.6,1.4,1.9,16.7,1.7,19.9
				c-10,3.5-10,3.5-20,6.9c-0.1-0.1-0.8,0.2-1-0.2c-4.8-22.5-4.8-22.5-9.7-45.1c34.6-6.8,70.1-19.4,88.9-50.7
				c2.3-3.8,3.6-8.5,5.9-12.2C334.5,255.6,331.4,262.8,333.9,263.8z"/>
			
				<linearGradient id="SVGID_1_" gradientUnits="userSpaceOnUse" x1="206.7224" y1="89.4836" x2="163.4286" y2="102.0208" gradientTransform="matrix(2.5082 3.600974e-03 -2.758775e-03 1.9219 -178.3468 -68.1823)">
				<stop  offset="0" style="stop-color:#071E0C"/>
				<stop  offset="1" style="stop-color:#08110C"/>
			</linearGradient>
			<path class="st18" d="M334.2,74.9c0.2,1.1,4.7,6.1,5.8,7.7c-25.9,28.1-59.1,48.1-90.9,68.9c-3.1,2-6.3,4.1-9.3,6.2
				c-5.4-7.9-5.4-7.9-10.7-15.8c10.6-5.2,71.6-47.8,90.2-59.3C323.4,79.9,332,74.5,334.2,74.9z"/>
			<path class="st12" d="M224.6,200.3c4.4,2.4,8.1,5.9,12.2,8.6c3,33.9,7.5,68,15,101.2c-6,1.4-12.1,3.4-18.3,3.3
				c-7.6-38.3-12.1-77.5-17.2-116.3C215.9,195.5,222,198.9,224.6,200.3z"/>
			<path class="st14" d="M327.8,69.1c-2.7,0.7-46.2,17.9-51,20.1c-18.9,8.5-38.9,20.2-50.1,38c-0.8,1.3-6.4,11.3-6.4,12
				c0,1.4,3.4,2.7,3.9,4.1c-1.5,0-1.2-1.3-2.4-0.5c-0.2-0.4-2-2.4-2.2-2.4c-0.4,0-7.1,3.9-7.3,4.3c-0.3,0.6,1.8,4.3,2.7,4.8
				c-1.3,0.8-0.7,1.5-1.5,1.9c-1.9-10.4-13.5-16.5-22.9-10.6c-0.4-1.3-1.4-2.9-2.4-3.8c9.9-7.4,22.5-1.7,24.7-2.4
				c29.8-45.3,62.8-54.3,113.1-67.4C326.5,67.8,327.5,68.1,327.8,69.1z"/>
			<path class="st12" d="M256.4,181.2c39.7,13.3,53.7,37.9,76.5,69.9c0.6,4.2,0.5,8.5,1,12.7c-2.5-0.9,0.6-8.2-2.4-3.4
				c-1.5-0.5-1.5-0.5-2.9-1c0.2-1.1,0.2-1.1,0.5-2.2c-22.5-27.5-35.8-51.2-68.5-68.9c-2.7-1.5-24.4-11.8-25.9-12
				c-0.7-0.1-1.8,1.1-2.7,1c0.7-1.2,1.6-0.8,2.4-2.9c0,0.3-0.1,0.8,0.2,1c6.4,2.3,13.1,4.2,19.5,6.3
				C254.3,181.7,255.4,180.9,256.4,181.2z"/>
			<path class="st12" d="M233.9,194.6c7,8.2,77.3,54.2,92.7,67.7c-1.2,2.4-1.1,2-2,3.4c-29.2-19-58.8-37.3-87.8-56.7
				c-4.1-2.7-7.8-6.2-12.2-8.6C226.3,195.9,229,189.4,233.9,194.6z"/>
			<path class="st12" d="M249.1,151.4c3.6,14.9,3.6,14.9,7.3,29.7c-0.9-0.3-2.1,0.5-2.2,0.5c-6.5-2-13.1-4-19.5-6.3
				c-0.4-0.1-0.2-0.6-0.2-1c-0.2-6.6-0.2-6.6-0.5-13.2c0.1-0.3,5-3,5.9-3.6C242.8,155.5,246,153.5,249.1,151.4z"/>
			<path class="st19" d="M228.4,320.7c-8.8-0.3-8.8-0.3-17.6-0.5c0.1-2.8,0.3-5.9-0.5-8.6c5.2,0,10.5,0.4,15.6-0.5
				C226.8,314.2,227.7,317.4,228.4,320.7z"/>
			<path class="st15" d="M221.8,142.8c2.1,3.9-4.1,5.1-6.8,6.7c-0.9-0.5-3-4.2-2.7-4.8c0.2-0.4,6.9-4.3,7.3-4.3
				C219.8,140.4,221.5,142.3,221.8,142.8z"/>
			<g>
				<path class="st2" d="M229.1,141.8c5.4,7.9,5.4,7.9,10.7,15.8c-0.8,0.6-5.7,3.3-5.9,3.6c0.2,6.6,0.2,6.6,0.5,13.2
					c-0.8,2.1-1.8,1.7-2.4,2.9c-0.9,1.6-2.7,2.1-2.4,3.6c1.7,5.9,0.3,8.9,4.4,13.7c-5-5.2-7.7,1.3-9.3,5.7c-2.6-1.5-8.7-4.8-8.3-3.1
					c5,38.8,9.5,78,17.2,116.3c6.2,0,12.3-1.9,18.3-3.3c25.9-6,58.4-21.6,72.8-44.5c0.9-1.4,0.8-0.9,2-3.4c0.5-1,0.8-2.3,2-2.9
					c1.5,0.5,1.5,0.5,2.9,1c-2.3,3.7-3.6,8.4-5.9,12.2c-18.8,31.3-54.3,43.9-88.9,50.7c4.8,22.5,4.8,22.5,9.7,45.1
					c0.2,0.5,0.9,0.2,1,0.2c0.2,0.2-0.7,0.9,1.2,1c1,0,16.8-4.9,19-5.7c62.7-22.4,110-83.2,115.7-148.5c5.3-1.3,3.8,4.6,5.4,8.2
					c-2.1,13.8-6.4,27.4-11.3,40.5c0.1,0.3,4.3,3.2,4.9,3.6c-1,0.7-1,0.7-2,1.4c-0.4-0.3-1.9-0.7-3.2-2.4c-4.5,6.7-5,7.7,3.6,11.5
					c0.2,0.1-0.8,1.8,3.4,0.5c-26.4,59.9-86.7,107.8-152.5,118.7c1.3-3.1,12.1-2,13.9-4.8c2.6,2.3,3.1-1.3,3.4-1.4
					c5.1-1.2,5.1-1.2,10.3-2.4c0.4-0.6,0.4-0.6,0.7-1.2c-1.8-4.4-1.8-4.4-3.6-8.9c-3.2,2-6.5,4.3-10,5.7c-1-1-1-1-1.9-1.9
					c-6.8-18.8-9.7-38.4-14.1-57.8c-0.7-3-1.9-3.9-1.9-4.1c-0.7-3.2-1.5-6.4-2.4-9.6c-8.2-45.2-13.2-90.9-18.8-136.4
					c-1-2.1-11.6,5.2-18.5-2.2c0-0.2,0-0.2,0-0.5c10.1,4.3,19.5,2.6,24.9-7.2c1.4-2.6,6.2-7.8,0.5-9.1c0.1-1.9-0.2-2.7-0.5-4.3
					c0.8-0.4,0.2-1.2,1.5-1.9c2.7-1.6,8.9-2.8,6.8-6.7c1.3-0.8,1,0.4,2.4,0.5C226.7,143.3,226.6,143.1,229.1,141.8z"/>
			</g>
			<g>
				<path class="st15" d="M333.7,72c0.2,0.2,0.8,1.2,1,1.4c-0.1,0.5-0.6,0.6-0.5,1.4c-2.2-0.4-10.7,5.1-14.9,7.6
					c-18.6,11.6-79.6,54.2-90.2,59.3c-2.5,1.2-2.4,1.5-4.9,1.4c-0.5-1.4-3.9-2.7-3.9-4.1c0-0.7,5.5-10.6,6.4-12
					c11.2-17.8,31.2-29.5,50.1-38c4.8-2.2,48.4-19.4,51-20.1c0.6-0.2,0.8-0.6,1.2-1C331.6,71.2,333.4,71.8,333.7,72z"/>
				<path class="st16" d="M316.3,76.8c1.6,0,0.4,1,0,1.4c-3.9,4.3-76.9,49.4-88.9,58.8c-0.4-0.4-0.4-0.4-0.7-0.7
					C246.6,102,283.6,95,316.3,76.8z"/>
			</g>
			
				<linearGradient id="SVGID_00000169516732858960424880000000866034163557368968_" gradientUnits="userSpaceOnUse" x1="117.5413" y1="145.5414" x2="130.2254" y2="152.3297" gradientTransform="matrix(2.5082 3.600974e-03 -2.758775e-03 1.9219 -178.3468 -68.1823)">
				<stop  offset="0" style="stop-color:#081B0B"/>
				<stop  offset="1" style="stop-color:#080E0A"/>
			</linearGradient>
			<path style="fill:url(#SVGID_00000169516732858960424880000000866034163557368968_);" d="M171.9,172.4c0.7-0.1,3.4-1.8,4.4-2.4
				c5.3,4.9-2.7,19.4,2.9,24.9c-0.9-1-2.3-1.8-3.2-2.9c-17.8,22.8-42.8,40.2-70.4,49.8c-13.5,4.7-35.6,8.6-42,11
				c-1.6,0.6-3,0.8-2.2,2.4c-1-0.6-1.4-0.7-2.4,0c-1.1-2.5-3.3-6.8-2.4-7.2c0.4,0.6,1.2,2.8,1.7,2.9c23.3-12.9,61.5-24.8,81.6-39.7
				c6.9-5.1,38.5-33.6,25.7-41.2c0.5-0.2,0.6-3.4,4.6,2.4C172.2,173.4,171.9,172.4,171.9,172.4z"/>
			<path class="st15" d="M180.3,160c0,0.5,1.9,4.1,2.4,5.3c-0.7,0.6-0.9,0.9-1,1c-1.4,1-4,3-5.4,3.8c-1,0.6-3.7,2.3-4.4,2.4
				c-0.7-0.5-4.4-3.7-4.4-4.1C167.7,167.6,178.7,160.2,180.3,160z"/>
			<path class="st15" d="M185.7,146.1c-3,4.6-1.8,4.7-2,5.8c-2.7-0.4-4.8-1-7.3-1.9C178,140.7,178.2,144.8,185.7,146.1z"/>
			<g>
				<g>
					<path class="st21" d="M211.5,163.4c-0.3,1.5,0.1,2.4,2,1.4c-5.4,9.7-14.8,11.5-24.9,7.2c-2.4-1-6-3.2-6.8-5.8
						c0.1,0,0.2-0.4,1-1c0.8-0.6,1.6-1.4,2.4-1.9c1.4,2.3,7.6,7.3,6.3,3.6c-0.1-0.4-4.7-3.3-5.8-6.2c-2.8-7,3.3-18,11-18.9
						c12.5-1.5,23.2,17.4,5.3,26.9c-2.1-0.3-6.9-0.5-6.8,0.5c0-0.9-2.8-2-2.9-1.9C189.4,168.7,201.4,174.7,211.5,163.4z"/>
					<path class="st4" d="M213.5,151.4c0.3,1.6,0.6,2.5,0.5,4.3c-0.2,4.8-2.2,6.7-2.5,7.7c-10.1,11.3-22.1,5.4-19.3,3.8
						c0.2-0.1,2.9,1.1,2.9,1.9c0-0.9,4.7-0.8,6.8-0.5c17.9-9.5,7.2-28.4-5.3-26.9c-7.7,0.9-13.8,11.9-11,18.9
						c1.2,2.9,5.7,5.8,5.8,6.2c1.2,3.7-5-1.3-6.3-3.6c-1.8-3-2.1-6.7-1.9-10.1c0-1,0.4-1,0.5-1.4c0.1-1-1.1-1.1,2-5.8
						c0.4-0.5,4.6-5.1,4.9-5.3C199.9,134.9,211.5,141,213.5,151.4z"/>
				</g>
				<path class="st22" d="M213.4,164.8c-1.9,0.9-2.3,0-2-1.4c0.2-0.9,2.2-2.9,2.5-7.7C219.7,157,214.9,162.2,213.4,164.8z"/>
				<path class="st21" d="M183.2,153.3c-0.1,3.4,0.1,7,1.9,10.1c-0.9,0.6-1.6,1.3-2.4,1.9c-0.5-1.2-2.4-4.8-2.4-5.3
					C180.2,159.5,182.1,152.9,183.2,153.3z"/>
			</g>
			<path class="st21" d="M204.9,311.5c-0.3,4.3-0.3,4.3-0.5,8.6c-12.2,0-24.4,1-36.6,0.4c0.6-3,1.4-6.1,2-9.1
				C181.5,311.5,193.2,311.5,204.9,311.5z"/>
			<path class="st8" d="M210.3,311.5c0.8,2.8,0.6,5.8,0.5,8.6c0,0.2,0,0.3,0,0.5c-3.6,0.4-6-0.5-6.3-0.5c0.3-4.3,0.3-4.3,0.5-8.6
				C206.7,311.5,208.5,311.5,210.3,311.5z"/>
			<g>
				<path class="st15" d="M328.5,259.4c-1.1,0.6-1.5,1.9-2,2.9c-15.3-13.5-85.6-59.5-92.7-67.7c-4.1-4.8-2.6-7.8-4.4-13.7
					c-0.3-1.5,1.5-2,2.4-3.6c0.9,0.2,1.9-1,2.7-1c1.4,0.2,23.1,10.5,25.9,12c32.7,17.7,46,41.4,68.5,68.9
					C328.8,258.4,328.8,258.4,328.5,259.4z"/>
				<path class="st16" d="M233.7,180.7c34.8,15.5,56,35.9,79.2,65.1c-32.1-23.4-32.1-23.4-64.1-46.8
					C247.2,197.2,229.1,182.2,233.7,180.7z"/>
			</g>
			<g>
				<path class="st15" d="M165.6,170c12.8,7.6-18.7,36.1-25.7,41.2c-20.1,14.9-58.3,26.7-81.6,39.7c-0.5-0.1-1.4-2.3-1.7-2.9
					c-0.6-1.1-1.7-1.9-1.5-3.4c3.5-1.5,43.4-30.5,52-36.4C114.6,203.3,162.5,171.5,165.6,170z"/>
				<path class="st16" d="M163.9,176.3c1.3,0.6-7.8,10.4-8.6,11.3c-14,14.7-31.8,25.1-49.6,34.7c-11,6-23.2,12-34.4,16.5
					C101.1,216.6,133.5,197.8,163.9,176.3z"/>
			</g>
		</g>
	</g>
</g>
</svg>
