<?xml version="1.0" encoding="utf-8"?>
<!-- Generator: Adobe Illustrator 28.2.0, SVG Export Plug-In . SVG Version: 6.00 Build 0)  -->
<svg version="1.0" id="Layer_1" xmlns="http://www.w3.org/2000/svg" xmlns:xlink="http://www.w3.org/1999/xlink" x="0px" y="0px"
	 viewBox="0 0 288 560" style="enable-background:new 0 0 288 560;" xml:space="preserve">
<style type="text/css">
	.st0{display:none;}
	.st1{display:inline;fill:#A6B57D;}
	.st2{display:inline;fill:#FAF7F5;}
	.st3{display:inline;fill:#CCBD24;}
	.st4{display:inline;fill:#7B9A60;}
	.st5{display:inline;fill:#BFBF4C;}
	.st6{display:inline;fill:#B4AB27;}
	.st7{display:inline;fill:#8AAA74;}
	.st8{display:inline;fill:#98B060;}
	.st9{display:inline;fill:#D3D070;}
	.st10{display:inline;fill:#EFC135;}
	.st11{display:inline;fill:#C5BCD1;}
	.st12{display:inline;fill:#8B9ABE;}
	.st13{display:inline;fill:#9DADCE;}
	.st14{fill:#124554;}
	.st15{fill:#142940;}
	.st16{fill:#9DADCE;}
	.st17{fill:#FAFAFB;}
	.st18{fill:#1A3158;}
	.st19{fill:#C13747;}
	.st20{fill:#536A91;}
	.st21{fill:#CED4E4;}
	.st22{fill:#AD5B75;}
	.st23{fill:#59802D;}
	.st24{fill:#E0E8D3;}
	.st25{fill:#2A7A5D;}
	.st26{fill:#92C097;}
	.st27{fill:#519D78;}
	.st28{fill:#165D64;}
	.st29{fill:#1B6350;}
	.st30{fill:#1D403B;}
	.st31{fill:#455084;}
	.st32{fill:#067A99;}
	.st33{fill:#026881;}
	.st34{fill:#04576B;}
	.st35{fill:#F3B849;}
	.st36{fill:#95B857;}
	.st37{fill:#416425;}
	.st38{fill:#4F7A48;}
	.st39{fill:url(#SVGID_1_);}
	.st40{fill:#55A593;}
	.st41{fill:#F1E8E0;}
	.st42{fill:#D8C8C0;}
	.st43{fill:#0F3446;}
	.st44{fill:#0A8B99;}
	.st45{fill:#7FC2B8;}
	.st46{fill:#6D406D;}
	.st47{display:inline;fill:#C4BFCE;}
	.st48{display:inline;fill:#C8D7E6;}
	.st49{fill:#C8D7E6;}
	.st50{fill:#FCFCFB;}
	.st51{display:inline;fill:#BECECE;}
	.st52{display:inline;fill:#96AFB7;}
	.st53{display:inline;fill:#A8C4CB;}
	.st54{display:inline;fill:#748C99;}
	.st55{display:inline;fill:#D9DBDA;}
	.st56{display:inline;fill:#25354D;}
	.st57{display:inline;fill:#B2B4B9;}
	.st58{display:inline;fill:#959AA2;}
</style>
<g>
	<g id="Background_00000101062113193427496870000008068046800945494184_" class="st0">
		<path class="st1" d="M-16.3,382c-0.2-111.9,0.2-223.8,0-335.8c162.3,0,162.3,0,324.5,0c-0.2,111.8,0.2,223.6,0,335.4
			c-30.7,0.2-30.7,0.2-61.5,0.4c0.4-1.6,0.5-3.5,0.6-4.1c0.6-2.9,1.3-5.6,1.6-8.5c0.1-0.7,0.9-2.8-0.2-3.3
			c-1.4-0.6-5.5,5.8-5.2,15.9c-3,0-3,0-6,0c2.5-5.9,2.5-7.2,0-5.6c-1.7,1.1-4.4,3.7-5.4,5.6c-7,0-7,0-13.9,0c1.1-1.5,1.2-1,1.3-1.1
			c1.9,0.4,11.8,0.6,12.5,0.4c0.4-0.1,2.3-2.8,2.1-3.5c-0.2-0.6-4.3-2-5.1-2.4c-1.7-0.9-3.5-1.9-5.1-3c0.8-2.4,0.6-2.6,0.6-5.2
			c18.2-19.9,33.8-33,46.9-58.7c16.2-31.7,22.6-61.6,19-98.6c-2.9-29.5-13.9-57.3-28.8-81.2c-9-14.4-20.2-26.5-32.8-36.5
			c-27.9-22.2-54-30.7-87.8-29.7c-26,0.8-47.2,6-69.7,21.5c-25.6,17.6-45.4,45.1-57.8,76.5C-2.2,200.2-4.7,243.7,10.6,284
			c0.1,0.4-0.3,0.7-0.3,0.7c3.9,10.1,11.4,22.1,16.2,31.9c3.8,4.6,7.1,9.8,10.8,14.5c9.6,12,27.4,27.2,28.7,43.9
			c-0.7,0.6-10.2-3.6-11.2-5.2c0.3-1.8,0.9-3.5,0.6-5.4c-0.5,0.2-0.5,0.2-1,0.4c-4.3,8-4.3,8-8.6,15.9c-0.5,0.5-0.5,0.5-1.1,0.9
			c-0.3-0.3-0.5-0.4-0.5-0.9c0-1.1,5-18.9,5.4-21.9c-0.9-1.8-5.3,6.4-5.7,7.2c-0.3-2.6-0.3-2.6-0.6-5.2c0.1-0.1,0.6-0.9,0.6-1.1
			c0.6-3-1.5-14.7-4.4-15.2c-4-0.7-6.5,9.1-6.3,12.6c0,1.2-0.3,2.4,0.5,3c1.4,0,2.8,0,4.3,0c0.5,2.1,0.7,1.4,2.2,1.5
			c0.3,0.9,0.1,1.1,0,1.9c-0.5,3.3-1.2,2.5-1.3,2.8c-0.3,1.9,0.6,5.9-0.5,7.2c-3.5-19.2-3.8-8.7-3.6,4.5c-3.9-5.9-2.1,1.5-2.5,4.1
			c-0.2,1.2-1.4,4.1-2.1,5.2c-1.1,0,0-4.3-0.6-4.8c-0.3-0.3-7.9-0.3-8.2,0c-0.2,0.2,0,8-2.1,3.7c0.4-0.1,1.4,0.2,1.6-0.2
			c0.5-0.9-0.9-20.1-1.3-21.1c-2.4-7-0.8,15.5-0.6,17.2C1.2,382,1.2,382-16.3,382z"/>
		<path class="st2" d="M119.3,250.1c0.6,43.8,2.2,87.9,4.3,131.6c1.3,0.1,2.7-0.1,4,0c4.7,0.5,13.7-0.2,16.5,0.4
			c1.1,0.2,1.1,1,1.3,1.1c3.1,6.7,5.2,5.3,7.3-1.1c10.9,0,10.9,0,21.9,0c0.9,1.6,3.9,6.3,5.2,5.9c0.6-0.2,3.9-7.1,4.3-8.1
			c-0.4,5.6,0.2,8.9,3.8,3.3c1.2,7.8,1.8,2.1,6.3-1.1c8.7,0,8.7,0,17.4,0c0.2,1,0.2,1.6,0.3,2.6c0.5,4.5,0.7,5,6.3-2.6
			c7,0,7,0,13.9,0c-1.1,2.1-2.6,5,0.3,5.2c2.6,0.2,3.9-2.5,5.1-5.2c3,0,3,0,6,0c0.2,8.3,1.2,7.4,3.2,0c30.7-0.2,30.7-0.2,61.5-0.4
			c0,14.7,0,29.4,0,44.1c-162.3,0-162.3,0-324.5,0c0-14.6,0-29.1,0-43.7c17.6,0,17.6,0,35.2,0c0.1,1.1,0.2,3.9,0.3,4.1
			c2.1,4.3,1.8-3.5,2.1-3.7c0.3-0.3,7.9-0.3,8.2,0c0.6,0.5-0.4,4.8,0.6,4.8c0.7-1.1,1.8-4,2.1-5.2c1.1,0,2.1,0,3.2,0
			c5.6,0,2.8,0.3,5.5,5.2c6.5,0.4,5.5,0,9-5.2c1-0.1,3.3-0.6,4.1-1.1c3,13.6,6.9,1.3,9.7,0.4c4.2-1.5,5.9,7.1,8.6,6.3
			c0.8-0.2,3.1-5,4.9-5.6c10.3-0.3,10.3-0.3,20.6-0.6c1-9.3,1.7-18.6,2.5-28c3.9-43.9,5.2-81.2,7-124.9
			C112.2,235,115.8,242.5,119.3,250.1z"/>
		<path class="st3" d="M248.9,369.4c-1.8,1.4,0.2,2.1-1.6,2.4c1.4,2-0.2,1.6-0.3,2.2c1.5,0.5-0.4,0.9,0.3,3.9
			c-0.1,0.6-0.2,2.5-0.6,4.1c-2,7.4-3,8.3-3.2,0c-0.2-10.2,3.8-16.6,5.2-15.9C249.9,366.5,249,368.7,248.9,369.4z"/>
		<path class="st4" d="M219.4,380.9c0.2-0.4,0.4-1,1.3-2.6c2.8,0.3,6-0.9,8.2-3c0.8,0.4,4.8,1.8,5.1,2.4c0.2,0.7-1.7,3.4-2.1,3.5
			C231.3,381.5,221.4,381.2,219.4,380.9z"/>
		<path class="st5" d="M19.2,386.1c-0.1-0.2-0.2-2.9-0.3-4.1c-0.2-1.7-1.8-24.2,0.6-17.2c0.3,1,1.8,20.3,1.3,21.1
			C20.5,386.3,19.6,386,19.2,386.1z"/>
		<path class="st3" d="M232.4,387.2c-2.9-0.2-1.4-3.1-0.3-5.2c1-1.9,3.7-4.4,5.4-5.6C240.6,375.7,234.2,383.4,232.4,387.2z"/>
		<path class="st1" d="M223.9,372.4c1.6,1.1,3.4,2.1,5.1,3c-2.3,2-5.4,3.3-8.2,3C221.1,377.5,223.8,372.7,223.9,372.4z"/>
		<path class="st6" d="M237.5,382c-1.1,2.6-2.4,5.4-5.1,5.2c1.8-3.8,8.2-11.5,5.1-10.8C240,374.8,240,376.1,237.5,382z"/>
		<path class="st1" d="M34.7,377.9c0,0.3,0.4,3.1,0.6,4.1c-1.1,0-2.1,0-3.2,0C32.6,379.4,30.8,372,34.7,377.9z"/>
		<path class="st6" d="M247.3,377.9c-0.8-3,1.2-3.3-0.3-3.9c0.1-0.6,1.8-0.3,0.3-2.2c1.8-0.3-0.2-1,1.6-2.4
			C248.6,372.4,247.9,375,247.3,377.9z"/>
		<path class="st1" d="M142.1,266.7c-3.5,4.3-5,10.3-4.9,15.6c1.3,0.7,2.6,0.3,4,0.4c2.9,2,0,2.4,3.8,3c0.7,7.8,2.3,56.7,3.2,59.5
			c0.1,0.3,0.7,0.9,0.9,0.4c-0.1-8.2-0.5-16.5-0.9-24.6c2,3.8,3.1,1.9,3.5,2.8c0.3,0.7-0.3,5,1.7,0.2c1.5,1,1.4-0.7,1.6-0.7
			c5.3-1.5,1.2,4.4,5.2,8.3c2.2,2.1,6.8,0.7,9.8,7.6c-2.2-1.3-3.7-5.6-7.8-5.9c-4.3-0.3,6,3.9,7.8,8.3c3,7.3-1.2,21.3,4,19.8
			c1.8-0.5,1.4-4.5,0-4.8c-0.8-0.2-1.5,0.8-1.6,0.7c-1.4-0.5,1-10.4-2.4-18.2c3.3,1.9,1.6-2.1,1.7-2.2c1.4-1.2,5.5,6.5,5.6-5.7
			c0-2.4-1.9-12.9-0.9-14.3c2,20,4.2,39.9,4.8,60c-0.5,0.7-0.2,1.4-0.6,0.9c-1.8-13-14.3-19.3-11.7-13c0.4,1.1,4.8,7.7,6,10
			c-0.1,0.7-2,0.9-3.2,1.3c0,0,0.2-1-0.5-0.7c-1.3,2.8-7.4,1.4-14.6,4.1c-1.7,0.6-3.7,4.9-3-1.1c0.6-5.7,2.6-11.2,1.9-17
			c-0.4-2.7-5.6,4.6-6.5,4.1c-0.7-3.9-3.9-6-7-7c1.3,5.2,1.3,5.2,2.5,10.4c-5.7-4.3-8.4-10.4-5.6-0.2c1.3,4.6,3.6,9,5.1,13.5
			c-2.7-0.6-11.8,0.2-16.5-0.4c0-0.4,0-0.4,0-0.7c7.8,1.2,8.8-1,1.4-4.1c-1,0.6-0.5,0.5-0.8,1.1c-1.9,0.3-1.8,0.6-2.2-1.7
			c-0.6-3.5-0.8-47.8-0.6-54.5c0.5-17.6,2.4-38,3.8-55.8c4.4,2.4,4.4,2.4,8.7,4.8c0.5,0,0.5,0,0.9,0
			C139.7,269,140.5,267.8,142.1,266.7z"/>
		<path class="st3" d="M155.4,361.2c-1.6,2.3-4.4,8.7-5.1,11.3c-1.4,5.7-1.1,13.9-2.7,13.5c0.4-1.5-0.3-0.8-0.5-1.5
			c-0.4-4.3-0.4-4.3-0.8-8.5c-0.6,2.1,0.1,6.6,0.8,8.5c-0.4,0.2-0.6-0.7-1.9-1.5c-0.2-0.1-0.2-0.9-1.3-1.1
			c-1.4-4.6-3.8-8.9-5.1-13.5c-2.8-10.2-0.2-4.1,5.6,0.2c-1.3-5.2-1.3-5.2-2.5-10.4c3.1,1,6.2,3.1,7,7
			C149.8,365.9,155,358.6,155.4,361.2z"/>
		<path class="st3" d="M181.1,376.8c1.3-1.6,0.6-1.8,0.6-2.2c2.1-0.2,1.4-2.8,3-2.6c1.5,0.1,0.1,4.8-0.2,5.6
			c-0.1,0.5-0.5,1.9-0.6,2.2c-0.4,1-3.7,8-4.3,8.1c-1.3,0.4-4.3-4.4-5.2-5.9c-1-1.7-2.2-4-2.9-5.9c1.2-0.4,3.1-0.6,3.2-1.3
			c-1.2-2.3-5.6-8.9-6-10c-2.5-6.3,9.9,0,11.7,13C180.9,378.2,180.6,377.5,181.1,376.8z"/>
		<path class="st3" d="M153.5,378.3c-0.7,0.8-0.7,2.9-0.9,3.7c-2.1,6.4-4.1,7.8-7.3,1.1c1.3,0.8,1.5,1.7,1.9,1.5
			c0.2,0.6,0.9,0,0.5,1.5c1.6,0.3,1.2-7.8,2.7-13.5c0.7-2.6,3.4-9,5.1-11.3C156.2,367.1,154.1,372.6,153.5,378.3z"/>
		<path class="st7" d="M171.6,376.1c0.7,2,1.8,4.2,2.9,5.9c-10.9,0-10.9,0-21.9,0c0.3-0.9,0.2-2.9,0.9-3.7c-0.6,6,1.3,1.8,3,1.1
			c7.2-2.7,13.3-1.3,14.6-4.1C171.8,375.1,171.6,376.1,171.6,376.1z"/>
		<path class="st3" d="M196.9,376.1c0,0.2,0.1,0.6,0,0.7c-0.1,0.4-2.6,3.7-2.9,5.2c-4.6,3.2-5.2,9-6.3,1.1c0.3-0.4,1.1-2.9,1.9-4.1
			c2.4-3.5,4.9-6.3,5.1-6.7c2.4-1,1-2,0.3-3c-1.1-1.6-4.2-3.2-1.1-2.6C197.8,367.6,197.7,372.5,196.9,376.1z"/>
		<path class="st7" d="M206.8,377.5c0.3,5,3.8-0.8,4.8,4.5c-8.7,0-8.7,0-17.4,0c0.2-1.5,2.8-4.8,2.9-5.2
			C200.5,377.1,206.4,376,206.8,377.5z"/>
		<path class="st7" d="M189.6,379c-0.8,1.1-1.6,3.7-1.9,4.1c-3.6,5.6-4.2,2.3-3.8-3.3c0.1-0.4,0.5-1.7,0.6-2.2
			C186.4,378.4,189.8,377.8,189.6,379z"/>
		<path class="st8" d="M119.3,179.6c-2.2,3.1-2.1,3.6-1.7,7.8c-8.6,0.8-18.9-7.9-26.3-2.2c-1.6,1.2-8.7,10.3-11.7,13
			c-1.5,1.3-26.3,18.5-32.5,23c-0.3-1.1-1.5,0.8-2.1,0.7c-1.9-0.3-9.6-13-10.3-16.1c-2.4-10.7,2-23.5,9-30.6
			c4.7-4.8,13-8.5,15.5-10.4c8.6-6.2,20-16.2,28.5-20.8c11.1-6,23.3-8.8,35.5-8.9c-0.4,7.7,2,37.3,1.7,39.5
			C124.6,178.3,122.8,174.8,119.3,179.6z"/>
		<path class="st1" d="M147.5,313.4c-0.6-9.3-1.4-18.5-2.2-27.8c2.8,0.2,2.4-0.2,3.5-3c0.2,0,0.4,0,0.6,0c0.9,0,0.2-0.9,1.7-0.7
			c12.6,3.5,12.9,22.2,6.3,27.4C154,312.1,148.1,311,147.5,313.4z"/>
		<path class="st9" d="M181.7,346.4c-2.4,5-0.7,6.5-0.6,8.9c0.2,5.1,1,15.5,0.6,19.3c0,0.4,0.6,0.6-0.6,2.2c-0.5-20.1-2.8-40-4.8-60
			c-0.1-0.6,0.5-0.1,0.6,0.2c0.9,3,3,25.5,3.2,31.1C180.7,348.8,181,347.3,181.7,346.4z"/>
		<path class="st3" d="M181.1,355.3c-0.1-2.4-1.8-3.9,0.6-8.9c1.9-2.1,3.2-6.3,4.8-4.6C183.8,348.5,183.8,348.5,181.1,355.3z"/>
		<path class="st9" d="M170,339c3.4,7.8,1,17.6,2.4,18.2c0.1,0,0.8-0.9,1.6-0.7c1.4,0.3,1.8,4.3,0,4.8c-5.2,1.5-1-12.5-4-19.8
			c-1.8-4.4-12-8.6-7.8-8.3C166.3,333.4,167.8,337.7,170,339z"/>
		<path class="st7" d="M127.5,380.9c0-0.6,0.5-2.6,0.6-3c0.3-0.6-0.2-0.5,0.8-1.1C136.4,379.9,135.3,382.1,127.5,380.9z"/>
		<path class="st10" d="M151.8,350.1c0.2,0,1.1,3.3,1.1,3.5c0.3,4.9-3.5-1.1-3.5-1.5C149.4,352,151.6,350.1,151.8,350.1z"/>
		<path class="st3" d="M136.2,351.6c0.3,0.1,2.8,6,2.5,7C137.9,359.3,133.5,350.9,136.2,351.6z"/>
		<path class="st10" d="M165.4,359.8c1.9-0.3,1.7,2.9,0.9,3.3C164.7,364,163.2,360.1,165.4,359.8z"/>
		<path class="st10" d="M155.9,323.4c2-0.5,2.6,3.3,0.9,3.3C155.8,326.8,154.3,323.9,155.9,323.4z"/>
		<path class="st3" d="M147.2,384.6c-0.6-1.9-1.4-6.4-0.8-8.5C146.8,380.3,146.8,380.3,147.2,384.6z"/>
	</g>
</g>
<g>
	<g id="Background_00000091009099051599144750000012102232199388073623_" class="st0">
		<path class="st11" d="M195.3-406c0,249.7,0,249.7,0,499.4c-170,0-170,0-340,0c0-249.7,0-249.7,0-499.4
			C25.3-406,25.3-406,195.3-406z"/>
		<path class="st12" d="M-99.9-1.7c7.1,10.8,16.7,20.9,26.2,26.3c3.2,6.6,0.4,3.8-0.8,4.9c-0.9,0.8-1.2,2.4-1.3,2.4
			c-1.2,0.9-15.2,4.2,7,14.1c12.3,5.5,22.5,5.4,34.9,6.3c0.1,0,1.7,1.4,2,1.5c6,0.4,13.2-0.5,19.6-0.5c0.2,0,0.7,1,4.7,1
			c0.1,0,1.6-1,1.7-1c26.7,0,92.1,0.5,114.2-3.9c4.9-1,28.9-7.2,27.1-18.3c-0.9-5.1-9.8-1.2-9-7.6c8.4-5,16.5-13.7,22.9-22.9
			c4.8,1.6,9.7,5.5,10.6,13.4c3.5,30-34.7,41.3-49,45.1c-4.5,1.2-9.4,1.4-13.9,2.4c-1.9,0.4-1.9,1.4-2,1.5c-1.2,0.3-3.4-2-3.2,1
			c-16.9,1.3-38.5,1.7-55.6,1.9c-25.6,0.4-68.8,0.4-93.1-3.4c-0.5-3.9-8.5-4.2-11.5-5.4c-7.8-3.1-29.8-14-35-21.7
			c-0.6-0.9-3.5-8.5-3.7-9.8C-108.1,18.8-104.8,0.9-99.9-1.7z"/>
		<path class="st13" d="M-99.9-1.7c-5,2.6-8.3,20.5-7.3,27.6c0.2,1.3,3,8.8,3.7,9.8c5.2,7.7,27.3,18.6,35,21.7
			c3,1.2,10.9,1.5,11.5,5.4c-18.5-2.9-62-15.2-66.4-48C-126-4.8-113-3.8-104.2-9C-103.1-7.1-100.9-3.2-99.9-1.7z"/>
		<path class="st13" d="M91.7,64.2c-0.3-3,2-0.7,3.2-1c0.1,0,0.1-1,2-1.5c4.6-1,9.4-1.2,13.9-2.4c14.3-3.8,52.5-15.1,49-45.1
			c-0.9-7.9-5.9-11.8-10.6-13.4c1.4-2,4.9-7.4,6-9.3c12.6,4.2,24.5,7.5,16.6,31C161.2,53.8,112.8,62.6,91.7,64.2z"/>
		<path class="st12" d="M126.3,23.7c-0.8,6.3,8.1,2.5,9,7.6c1.9,11-22.2,17.3-27.1,18.3C86.1,54,20.6,53.4-6.1,53.5
			c-0.1,0-1.6,1-1.7,1c-4,0-4.4-1-4.7-1c-6.4,0-13.6,0.9-19.6,0.5c-0.3,0-1.9-1.5-2-1.5c-12.4-0.9-22.6-0.8-34.9-6.3
			c-22.2-10-8.2-13.2-7-14.2c0.1-0.1,0.5-1.6,1.3-2.4c1.2-1.1,4,1.7,0.8-4.9c16.5,9.4,33.4,5.2,50.8,5.4c0.1,0,0.3,0.5,2,0.5
			c43,0.4,86-0.3,129,0C114.3,29.2,120.5,27.2,126.3,23.7z"/>
	</g>
	<g>
		<path class="st14" d="M274.3,520.3c-1.1,1.9-4.6,7.3-6,9.3c-6.4,9.2-14.6,17.9-22.9,22.9c-5.8,3.5-11.9,5.5-18.1,6.8
			c-43-0.3-86,0.4-129,0c4.4-11.7,16.4-32.1,23.2-40c0.1-0.1,0.2,0.1,1.7-1.5c8.8-9.6,19.5-16.4,30.2-19.5c1.4-0.4,5.5-0.5,7.5-1
			c13.6-3.6,27.3-7.5,41-10.2c26.3-5.3,53.1-8.6,79.5-4.4c-17.3-7.2-34.9-12.7-52.8-15.6c-0.6-0.5,4.7-14.9,7-15.6
			c7.4-2.5,9,9.7,11,9.3c11.3-16.9,25.1-29.5,38.3-42.9c0.8-0.8,5-3.5,8-6.8C299.1,447.4,290.4,491.8,274.3,520.3z"/>
		<g>
			<path class="st14" d="M-1.9,419.9c19,12,36.5,28.5,51.6,49.3c8.3-8.9,9.6-22.9,19.4-29.3c-1.8,1.5,3.2,7.5,4.5,8.8
				c2.6,2.5,10.3,7,13.9,9.8c2,1.5,2.9,5,5.3,3.4c1.2-0.8,0.2-4-0.8-7.6c-3.5-12.2-10.8-15.9-19.3-16.3c0.3-0.1,0.8,0.2,1.3-0.5
				c3.2,0.7,5.9,0.6,9.1,2.4c2.1,1.2,5.2,5.1,5.8,5.4c2.5,5.2,4.5,10.9,5.5,17.1c-24.6,5.6-49.4,11.6-72.6,25.6
				c22.5,10,64.5,38.9,74.4,71c-17.4-0.2-34.3,4.1-50.8-5.4c-9.5-5.4-19.1-15.6-26.2-26.3c-1-1.5-3.3-5.5-4.3-7.3
				C-0.7,492.1-8.4,454.1-4.2,418.4C-3.5,418.9-2.7,419.4-1.9,419.9z"/>
			<path class="st15" d="M18,373.1c0.6,3.4,1.2,7.9,2.3,10.5c0,4.9,0.9,10.6,1.7,15.4c0.3,1.8,0.2,3.5,0.7,5.4
				c-0.3,4.5-2.9,1.6-5.1,1.5c-8.3-0.5-16.6-0.2-24.7,2.4c0.3-22.3,2.7-44.4,7-65.8c4.9-24.6,5.2-27.2,12.3,0.7
				C14.5,352.8,16.2,363,18,373.1z"/>
		</g>
		<path class="st15" d="M285.3,349.2c5.6,0.3,7.3,23,8,29.8c0.4,4.4,0.7,8.8,1,13.2c-6.6-1.9-12.9-5.9-19.6-6.8
			c0.5-2.9,0.6-5.9,1-8.8c0.4-3,2.7-20.5,3-21.5C279.1,353.7,283,349,285.3,349.2z"/>
		<path class="st15" d="M250.8,315c2.4,10.9,4.7,21.8,7,32.7c1.1,5.2,2.3,10.4,3.3,15.6c0.9,4.4,1.5,8.8,2.3,13.2
			c0.7,3.5,0.7,6.8,2.7,8.8c-7.1,0.7-26,6.1-33.9,8.8c0-0.6-0.2-0.4-0.3-0.5c0.7-2.1,0.7-4.6,1-6.8c0.5-4,1.1-8.1,1.7-12.2
			c0.3-2.3,0.6-4.6,1-6.8c0.8-5.5,1.7-11.1,2.7-16.6c0.9-5.3,2.5-12.6,4.3-17.3c0-2.6,0-2.6,0-5.1C247.1,308.7,245.5,316,250.8,315z
			"/>
		<g>
			<path class="st16" d="M290.6,343.8c-4.1-20.9-16.2-42.7-32.7-34.6c-2.2,1.1-5.8,5.6-7.1,5.9c-5.2,1-3.7-6.3-8.3,13.7
				c-2.6-74-53.5-116.7-95.3-68.8c-0.1-18.9-1.1-37.7-0.7-56.6c0-0.1,0.9-0.1,0.7-2.2c-0.4-1-0.9-0.7-1-0.7c0.9-2.6,0-5.9,0-7.3
				c-0.1-3.8,0.2-7.7,0-11.5c0-0.4-0.7-0.2-0.7-0.2c0-0.2,0.6-1.4,0.3-4.1c0-0.4-0.7-0.2-0.7-0.2c0-0.2,0.5-1.4,0.7-1.7
				c-0.2-0.4-0.2-0.4-0.5-0.7c-8.5,0-8.5,0-16.9,0c-0.9,1-0.2,1.2-0.2,2.4c0.1,1.4,0.8,3.3,1,4.4c0.4,2.4,0.5,4.9,1,7.3
				c0.4,2.1,0.8,4.3,1.3,6.3c0.3,1.3,0.6,2.8,0.7,4.1c0.5,0.4,0.5,0.4,1,0.7c1.3,36.8,1.3,36.8,2.7,73.7
				c-2.2,0.4-15.4,8.1-18.8,10.7c-2,0.1-14.3-16.5-30.9-3.9c-4.1-3.6-8.1-7.7-12.9-8.8c-11.5-28-24.8-28.3-37.3-1.2
				c11.3,0.5,11.3,0.5,22.6,1c-18.5,19.2-23.2,38.7-24.2,71.4c-5.1,2.3-9.7,9.6-12.3,16.1c-1.8,4.6-2.9,9.2-4,14.1
				c-1.8-10-3.5-20.2-6-30c-7-28-7.4-25.4-12.3-0.7c-1.4,1.3-1.1-1.7-1-5.1c1.1-32.6,13.1-81.7,26.6-107.8
				c25.2-48.9,77.5-85.2,119-84.1c26.4,0.6,59.9,16,82.3,36.6C267.5,219.3,286.8,274.2,290.6,343.8z"/>
			<path class="st17" d="M208.8,205.8c8.6-1.7,13.8,6.3,17.8,16.3c-14.9,0.1-14.9,0.1-29.7,0.2c-0.2-0.4-0.2-0.4-0.5-0.7
				C199.7,215.7,202.9,206.9,208.8,205.8z"/>
			<path class="st17" d="M243.6,264.8c4.4-1.1,9.6,1.5,11.1,8c-8.7,0.1-8.7,0.1-17.4,0.2C236.3,272.2,241,265.4,243.6,264.8z"/>
			<path class="st17" d="M77.3,203.3c4.2-0.8,7.2,2.1,9.5,7.1c-7.9,0.1-7.9,0.1-15.8,0.2C71.7,207.4,75.1,203.8,77.3,203.3z"/>
		</g>
		<g>
			<path class="st18" d="M146.5,203.3c-0.4,18.9,0.6,37.7,0.7,56.6c0,3.9,0,7.6,0.3,11.5c-0.2,0.5-1,1.1-1,1.7
				c-3.8-0.1-4.1,1.5-4.3,1.5c0,0,0.1-1-0.2-1c-1.9,0.1-4.7-0.3-6.1,0c-1.3-36.8-1.3-36.8-2.7-73.6
				C139.9,201.6,139.9,201.6,146.5,203.3z"/>
			<path class="st19" d="M145.5,181.4c0,0.1,0.6-0.2,0.7,0.2c0.2,3.8-0.1,7.7,0,11.5c-8-2.2-8-2.2-15.9-4.4c-0.5-2.4-0.6-4.9-1-7.3
				C137.4,181.4,137.4,181.4,145.5,181.4z"/>
			<path class="st20" d="M146.2,193.1c0,1.4,0.9,4.7,0,7.3c-1.4-1.3-11.6-3.6-14.6-5.4c-0.5-2.1-0.9-4.2-1.3-6.3
				C138.2,190.9,138.2,190.9,146.2,193.1z"/>
			<path class="st17" d="M145.2,177c0,0.1,0.6-0.2,0.7,0.2c0.3,2.7-0.3,3.9-0.3,4.1c-8.1,0-8.1,0-16.3,0c-0.2-1.1-0.9-3-1-4.4
				C136.7,177,136.7,177,145.2,177z"/>
			<path class="st21" d="M146.2,200.4c0.1,0.1,0.6-0.2,1,0.7c0.2,2.1-0.7,2.1-0.7,2.2c-6.6-1.7-6.6-1.7-13.3-3.4
				c-0.5-0.4-0.5-0.4-1-0.7c0-1.4-0.3-2.9-0.7-4.1C134.5,196.8,144.7,199.1,146.2,200.4z"/>
			<path class="st22" d="M145.2,177c-8.5,0-8.5,0-16.9,0c-0.1-1.2-0.7-1.5,0.2-2.4c8.5,0,8.5,0,16.9,0c0.2,0.4,0.2,0.4,0.5,0.7
				C145.6,175.6,145.1,176.8,145.2,177z"/>
		</g>
		<path class="st23" d="M154.5,420.4c1.2,5.4,0.5,12.7,2,17.6c-1,1.7-0.1,8.6,0.3,13.2c0.2,2.5,0.4,4.9,0.7,7.3
			c0.1,1.1-0.4,3.8,0.5,4.4c3.9,0.1,7.9-0.2,11.8,0c2.7,7.3,2.7,7.3,5.5,14.6c10.6,0,10.6,0,21.2,0c2.7,4.9,2.7,4.9,5.5,9.8
			c-13.7,2.8-27.4,6.6-41,10.2c-1.9,0.5-6.1,0.6-7.5,1c-0.7-26-3-52-4-78C151.1,420.4,152.8,420.4,154.5,420.4z"/>
		<path class="st14" d="M159.8,420.9c0,7.3,0,7.3,0,14.6c-1.1,0.9-2.1,2.1-3.3,2.4c-1.5-4.9-0.7-12.1-2-17.6
			C156.2,420.4,158.1,420.9,159.8,420.9z"/>
		<path class="st24" d="M161.1,420.4c0,4.1,0,4.1,0,8.3c0,2.9,0,2.9,0,5.9c-0.5,0.4-0.9,0.6-1.3,1c0-7.3,0-7.3,0-14.6
			C159.9,420.9,159.4,420.4,161.1,420.4z"/>
		<g>
			<path class="st17" d="M290.6,343.8c1.1,5.5,4.9,32.3,2.7,35.1c-0.7-6.7-2.4-29.5-8-29.8c-0.2-5.2,0.3-15.3-5.1-13.2
				c-2.4,0.9-4.2,13.9-4.8,17.1c-0.9,4.7-1.7,9.5-2.3,14.4c-1.2,0.8-1.3-0.2-1.3-0.2c-1.1-5-4.3-26.4-6.5-28.8
				c-0.6-0.6-3.8-1.8-4.3-1.5c-1.2,0.6-2,9.3-3.1,10.7c-2.3-10.9-4.5-21.8-7-32.7c1.4-0.3,5-4.8,7.1-5.9
				C274.4,301.1,286.5,322.9,290.6,343.8z"/>
			<g>
				<path class="st25" d="M275.7,376.5c-0.4,2.9-0.5,5.9-1,8.8c-3.4-0.5-5.3-0.3-8.6,0c-1.9-1.9-2-5.3-2.7-8.8
					C269.5,376.5,269.5,376.5,275.7,376.5z"/>
				<path class="st26" d="M271.7,367.2c-2.9-0.4-7.4-3.5-10.6-3.9c-1-5.2-2.2-10.4-3.3-15.6c1.2-1.5,2-10.1,3.1-10.7
					c0.6-0.3,3.8,0.8,4.3,1.5C267.4,340.8,270.5,362.2,271.7,367.2z"/>
				<path class="st27" d="M278.6,355c-0.3,1-2.6,18.5-3,21.5c-6.1,0-6.1,0-12.3,0c-0.9-4.3-1.5-8.8-2.3-13.2
					c3.2,0.4,7.8,3.5,10.6,3.9c0.1,0,0.1,1.1,1.3,0.2c0.6-4.9,1.4-9.6,2.3-14.4C277,354,277,354,278.6,355z"/>
				<path class="st26" d="M285.3,349.2c-2.3-0.1-6.2,4.5-6.6,5.9c-1.7-1-1.7-1-3.3-2c0.6-3.2,2.4-16.1,4.8-17.1
					C285.6,333.9,285.1,344,285.3,349.2z"/>
			</g>
		</g>
		<g>
			<path class="st28" d="M69.1,439.9c1.1-0.7,2.5-1.5,3.7-2c8.5,0.5,15.7,4.1,19.3,16.3c1,3.5,2,6.8,0.8,7.6
				c-2.4,1.6-3.3-1.9-5.3-3.4c-3.7-2.8-11.4-7.3-13.9-9.8C72.3,447.4,67.4,441.4,69.1,439.9z"/>
			<g>
				<path class="st14" d="M39.2,408.2c0.1,0.9-0.2,2.2,0.2,2.9c1.3,1,2.6,0.9,2.8,1c2.9,1.4,5.9,3,8.8,4.4c0,0,0.3-0.7,0.8-0.5
					c0.5,0.2,7.5,5.2,8.8,5.4c0.6,0.1,0.8-1,1-1c0.3,0,1.1,0.9,2,0.5c1.1-0.5,13.3-14.1,16.3-14.6c2.4-0.4,7.6,3.9,8.5,8
					c0.7,3.7-0.2,17.6-0.3,22.4c5.6,3.8,5.6,3.8,11.1,7.6c0.8-0.8-0.7-22.5,0.8-27.3c0.7,9.3-0.1,19-0.3,28.3
					c-0.9-0.5-2.7-1.1-3.3-1.5c-6.2-3.8-12.2-8.5-18.4-12.2c-8.8-5.1-31.5-17.2-39.8-20c-11.5-3.9-34.3-7.6-45.3-2.4
					c0-0.5,0-0.5,0-1c8.1-2.6,16.5-2.9,24.7-2.4c2.2,0.1,4.9,3,5.1-1.5c0.1,0.6-0.4,1.7,0.8,2.9C29.9,406.3,39.5,413.9,39.2,408.2z"
					/>
				<path class="st14" d="M91.7,386.7c3.7,7.5,7.6,21,8.3,30.2c-1.5,4.8-0.1,26.5-0.8,27.3c-5.6-3.8-5.6-3.8-11.1-7.6
					c0.2-4.8,1.1-18.7,0.3-22.4c-0.8-4.1-6-8.5-8.5-8c-2.9,0.5-15.1,14.1-16.3,14.6c-0.9,0.4-1.7-0.5-2-0.5c-0.2,0-0.4,1.1-1,1
					c-1.3-0.2-8.3-5.2-8.8-5.4c2.2-7.5,4.6-18.5,7.3-25.4c0.4-1,0.9-2,1.3-2.9c2.9-6.2,5-8.9,10-11.2
					C80.3,372,85.8,374.6,91.7,386.7z"/>
			</g>
		</g>
		<path class="st26" d="M110.3,391.1c0.6,2.6,5.2-0.7,5.3,0.2c-14.8,12.4-15.1,32.3-14.9,54.4c-1.1,0.2-0.9-0.5-1-0.5
			c0.2-9.3,1.1-19,0.3-28.3c-0.7-9.2-4.6-22.7-8.3-30.2c9.1-21.5,11.1-10,16.8,6.3C109,392.4,109.7,391.5,110.3,391.1z"/>
		<g>
			<path class="st27" d="M70.5,376.5c-5,2.3-7.1,5-10,11.2c-7.7-4.7-25.2-26.9-32-28.8c-1.2-0.3-4.9-0.2-6.5,0
				c2.6-6.5,7.2-13.8,12.3-16.1C51.4,334.9,65.7,353.2,70.5,376.5z"/>
			<g>
				<path class="st25" d="M60.5,387.7c-0.4,1-0.9,1.9-1.3,2.9c-5.3,0.6-10.3,3.9-15.4,5.9c1.2-5,1.2-5,2.5-10
					c-5.6-4.5-5.6-4.5-11.1-9c-2.4,3-2.4,3-4.8,6.1c2.4,1.1,2.4,1.1,4.8,2.2c0.2,0.4,0.2,0.4,0.5,0.7c-0.7,0.3-1.1,1.2-1.7,1.7
					c-3.8,3.6-8.4,6.3-12,10.7c-0.7-4.8-1.6-10.5-1.7-15.4c-1.1-2.5-1.7-7-2.3-10.5c1.1-5,2.2-9.6,4-14.1c1.6-0.2,5.3-0.3,6.5,0
					C35.3,360.8,52.8,383,60.5,387.7z"/>
				<path class="st29" d="M33.9,388.2c-0.6,2.6,3.9-0.3,5,5.9c0.6,3.6,0.1,10.4,0.3,14.1c0.3,5.7-9.4-1.9-15.8-1
					c-1.2-1.2-0.7-2.3-0.8-2.9c-0.4-1.9-0.4-3.6-0.7-5.4C25.6,394.5,30.1,391.7,33.9,388.2z"/>
				<path class="st29" d="M59.2,390.6c-2.7,6.9-5.1,17.8-7.3,25.4c-0.6-0.2-0.8,0.5-0.8,0.5c-2.9-1.4-5.9-3-8.8-4.4
					c-1.4-12.4,1-27.2-3.3-18c-1.1-6.1-5.6-3.3-5-5.9c0.6-0.5,1-1.4,1.7-1.7c-0.2-0.4-0.2-0.4-0.5-0.7c-2.4-1.1-2.4-1.1-4.8-2.2
					c2.4-3,2.4-3,4.8-6.1c5.6,4.5,5.6,4.5,11.1,9c-1.2,5-1.2,5-2.5,10C48.9,394.5,53.8,391.2,59.2,390.6z"/>
				<path class="st30" d="M42.2,412.1c-0.2-0.1-1.5,0-2.8-1c-0.3-0.7-0.1-2-0.2-2.9c-0.3-3.7,0.3-10.6-0.3-14.1
					C43.2,384.9,40.8,399.7,42.2,412.1z"/>
			</g>
		</g>
		<path class="st18" d="M131.9,297.5c0.2,1-0.4,3.9,0.5,4.4c2.2-1,2.2-1,4.3-2c1.5,1,1.1,1.8,1.2,2c1.1,2.5,0.3,2.8,0.3,2.9
			c-0.9-2-0.9-2-1.8-3.9c-25.9,9-25.9,9-51.8,18c-1.3-11.5-1.3-11.5-2.7-22.9c15.9-1.8,31.7-5.4,47.5-9.3
			C130,287,131.6,295.7,131.9,297.5z"/>
		<path class="st29" d="M139.2,301.9c2.2,5.4,3.7,8.7,8.6,7.3c1.6,5.8,0.4,11.6,5,10.7c-4.2,2-3.6-1.9-3.8-2c-0.8,0-0.7,1.2-1.2,1.5
			c0-0.9-1.5-6.2-2.2-5.4c-0.2,1.9-0.3,3.9-0.5,5.9c0,0.1-0.7,1.4-0.7,1.5c-0.4-2.7-4.1-1-7.8-1.5c-0.2,4.1-0.2,4.1-0.5,8.3
			c-0.1-0.1-0.2,0-0.3,0c-0.3-0.2-1.1,0.3-1.3-0.2c-0.2-0.5-0.1-12.1,0-12.7c0.5-2.9,3.7-4.1,3.6-10.5c0-0.1,0.8-0.4-0.3-2.9
			C138.5,301.9,138.5,301.9,139.2,301.9z"/>
		<g>
			<path class="st17" d="M135.9,273.6c1.4-0.3,4.3,0.1,6.1,0c0.3,0,0.1,1,0.2,1c0,4.7,0.9,11.9,0.7,16.1c-1.4,1.5-4.2,4.6-5.6,5.4
				c-0.6,0.3-3.6,0.4-5.3,1.5c-0.3-1.8-1.9-10.5-2.5-10.7c-15.7,3.9-31.6,7.5-47.5,9.3c1.3,11.5,1.3,11.5,2.7,22.9
				c25.9-9,25.9-9,51.8-18c0.9,2,0.9,2,1.8,3.9c0,6.4-3.2,7.6-3.6,10.5c-0.1,0.6-0.2,12.1,0,12.7c0.2,0.5,1,0.1,1.3,0.2
				c2.1,7.9,0.2,16.4,0.7,24.6c-0.9,6.9-2.4,46.5-3,48.8c-0.1,0.4-0.4,0.2-0.7,0.2c0.1-2.1,0.4-3.5,0.3-4.1
				c-6.8-12.6-13.3-13-22.9-6.6c-0.6,0.4-1.3,1.3-1.8,2c-5.7-16.3-7.7-27.9-16.8-6.3c-5.9-12.1-11.4-14.8-21.2-10.2
				c-4.8-23.2-19-41.5-36.2-33.6c1.1-32.8,5.7-52.3,24.2-71.5c-11.3-0.5-11.3-0.5-22.6-1c12.5-27.1,25.8-26.8,37.3,1.2
				c4.8,1.1,8.9,5.1,12.9,8.8c16.6-12.6,28.9,4,30.9,3.9C120.5,281.7,133.7,274,135.9,273.6z"/>
			<path class="st26" d="M109.5,340.4c10.3-1.4,15.4,20.3,14.3,21.5c-13.5-0.4-13.5-0.4-27.1-0.7
				C98.9,353.6,103.3,341.2,109.5,340.4z"/>
			<path class="st31" d="M59.3,297.5c1.1-0.3,3.3,0.2,4.7,0c0.6,3.6,3.3,29.5,2.7,30.7c-0.2,0.3-5.2,2.6-5.5,2.2
				c-1.2-10.4-2-20.9-3.3-31.2C57.5,298,58.6,297.7,59.3,297.5z"/>
			<path class="st19" d="M70,296.5c1,0,2-0.4,2.5,0.7c1.3,12.7,1.3,12.7,2.7,25.4c-2.7,1.6-2.7,1.6-5.5,3.2c-1-0.5-2.5-25-3.2-28.5
				C67.4,297.3,69.8,296.5,70,296.5z"/>
			<path class="st31" d="M79.6,296c1.2,0.4,1.7,19.5,2.2,22.7c-2.6,1.6-2.6,1.6-5.2,3.2c-1.2-12.6-1.2-12.6-2.5-25.1
				C76.9,296.4,76.9,296.4,79.6,296z"/>
		</g>
		<path class="st32" d="M142.9,293.6c-6.5,4.9,3.2,19.6,9.6,6.1c0.1-0.8-0.1-1.1-0.3-1.7c0.6-2,0.7,0.1,1.7,0
			c1.5-0.2,2.1-1.7,3.3-2.4c-0.1,1.2-0.3,5.6-0.3,5.9c-2.3,1.2-7,7.3-9,7.8c-5,1.4-6.4-1.9-8.6-7.3c-0.8-1.9-1.6-3.8-2-5.9
			c1.4-0.7,4.2-3.9,5.6-5.4C142.8,292.4,141.5,292.2,142.9,293.6z"/>
		<path class="st33" d="M146.5,273.1c-0.1,5.3,0.1,10.6,0,15.9c3.6,4.5,3.6,4.5,7.3,9c-0.9,0.1-1.1-2-1.7,0
			c-0.2-0.7-5.1-7.5-9.3-4.4c-1.4-1.4-0.1-1.2,0-2.9c0.2-4.2-0.7-11.4-0.7-16.1C142.4,274.5,142.7,273,146.5,273.1z"/>
		<path class="st34" d="M137.2,296c0.4,2.1,1.2,4,2,5.9c-0.7,0-0.7,0-1.3,0c-0.1-0.1,0.3-1-1.2-2c-2.2,1-2.2,1-4.3,2
			c-0.9-0.5-0.3-3.4-0.5-4.4C133.6,296.4,136.6,296.3,137.2,296z"/>
		<path class="st18" d="M156.8,301.4c0-0.3,0.3-4.7,0.3-5.9c0.1-2.1-0.3-4.3,0.5-6.3c13.8-0.1,27.6-2.9,41.3-4.1
			c-0.3,8-0.9,16.2-1.8,24.1c-13.1,0.1-26.2-1.4-39.2,1.5C157.7,310.4,156.8,302.4,156.8,301.4z"/>
		<path class="st26" d="M182.7,390.1c0,0.9,0,1.2,0.3,2c-5.3,2.9-7.9,12.3-11.6,18c-0.3-1.7-0.7-3.2-1-4.9
			c-0.4-2.2-0.6-7.5-2.2-10.2c-4.3,0.5-17.2-0.7-19.3,0c-0.3,0.1-0.6,1-0.5,1.5c-0.1-1.5,0-1.9,0-2c9.4,0,9.4,0,18.8,0
			c1-1.1,0.2-1.3,0.2-2C173.5,379.3,174.9,377.1,182.7,390.1z"/>
		<g>
			<path class="st35" d="M274.7,385.2c6.7,1,13,4.9,19.6,6.8c1,2.2,8.2,4.6,7.6,7.6c-0.2,0.8-7.9,10.3-9,11.5c-3,3.3-7.2,6-8,6.8
				c-0.8-4,1.1-10.8,2.3-14.9c-11.8-3.9-29.5-11.1-41.3-9c-4.9,0.9-45.2,22.4-52.1,26.8c-13,8.4-25,19.3-37,30.2
				c-0.4-4.6-1.3-11.5-0.3-13.2c1.3-0.3,2.3-1.5,3.3-2.4c0.4-0.4,0.9-0.6,1.3-1c20.1-17.1,48.3-32.9,71.1-40.5
				c7.9-2.6,26.7-8.1,33.9-8.8C269.3,384.9,271.3,384.8,274.7,385.2z"/>
			<path class="st36" d="M285,417.9c-13.2,13.4-27,26-38.4,42.9c-1.9,0.5-3.6-11.7-11-9.3c-2.3,0.8-7.5,15.1-7,15.6
				c17.9,2.9,35.5,8.4,52.8,15.6c-26.5-4.2-53.2-0.9-79.5,4.4c-2.7-4.9-2.7-4.9-5.5-9.8c-10.6,0-10.6,0-21.2,0
				c-2.7-7.3-2.7-7.3-5.5-14.6c18.8,0.8,37.5,3,56.3,3.9c-0.2-0.7-0.2-0.7-0.3-1.5c-22.7-2.8-45.4-5.9-68.2-6.8
				c-0.3-2.5-0.5-4.9-0.7-7.3c12-11,24.1-21.9,37-30.2c6.9-4.5,47.2-26,52.1-26.8c11.8-2.1,29.6,5.1,41.3,9
				C286.1,407.1,284.2,413.9,285,417.9z"/>
			<path class="st35" d="M169.7,462.8c-3.9-0.2-7.9,0.1-11.8,0c-0.9-0.6-0.4-3.3-0.5-4.4c22.8,0.9,45.5,4.1,68.2,6.8
				c0.2,0.7,0.2,0.7,0.3,1.5C207.3,465.8,188.5,463.6,169.7,462.8z"/>
		</g>
		<g>
			<path class="st37" d="M128.6,456.5c-1.7,20.5-3.6,41-5.3,61.4c-1.4,1.5-1.6,1.4-1.7,1.5c-12.1-0.4-12.1-0.4-24.2-0.7
				c10.1-20.4,18.7-42.5,29.9-61.7C127.3,456.9,127.1,456.2,128.6,456.5z"/>
			<g>
				<path class="st35" d="M96.4,443.8c-1.6,2-5.4,2.3-7.3,1.5c-0.6-0.3-3.7-4.2-5.8-5.4c-3.2-1.9-6-1.7-9.1-2.4
					c-4.8-1.1-9.7-1.4-14.4-2.4c-20.5-12.5-38.9-27-61.6-15.1c-0.8-0.5-1.5-1-2.3-1.5c-2.6-1.6-5.3-2.7-7.6-5.1
					c-0.1-0.7,4.4-4,4.7-4.1c11-5.2,33.8-1.4,45.3,2.4c8.3,2.8,31,14.9,39.8,20C84.2,435.2,90.2,440,96.4,443.8z"/>
				<path class="st36" d="M74.1,437.4c-0.6,0.7-1,0.4-1.3,0.5c-1.2,0.5-2.5,1.2-3.7,2c-9.9,6.3-11.2,20.4-19.4,29.3
					c-15.2-20.7-32.7-37.2-51.6-49.3c22.7-11.9,41,2.7,61.6,15.1C64.5,436.1,69.3,436.4,74.1,437.4z"/>
			</g>
			<g>
				<path class="st36" d="M99.7,445.2c0.1,0-0.1,0.7,1,0.5c0.1,5.2-0.2,10.4,0.2,15.6c8.8-1,17.7-2.2,26.4-4.4
					c-11.2,19.2-19.8,41.3-29.9,61.7c12.1,0.4,12.1,0.4,24.2,0.7c-6.8,7.9-18.8,28.3-23.2,40c-1.7,0-1.9-0.5-2-0.5
					c-9.9-32.1-51.9-61-74.4-71c23.2-14,47.9-20,72.6-25.6c-1-6.2-3-11.9-5.5-17.1c1.9,0.9,5.7,0.6,7.3-1.5
					C97,444.2,98.7,444.7,99.7,445.2z"/>
				<path class="st38" d="M99.5,448.6c2,10.3-1.1,11.7-1.5,5.6C97.9,452,98.4,450.2,99.5,448.6z"/>
			</g>
		</g>
		
			<linearGradient id="SVGID_1_" gradientUnits="userSpaceOnUse" x1="195.7901" y1="157.8217" x2="159.9321" y2="141.8519" gradientTransform="matrix(1 0 0 -1 0 560)">
			<stop  offset="0" style="stop-color:#122D43"/>
			<stop  offset="1" style="stop-color:#0E4247"/>
		</linearGradient>
		<path class="st39" d="M192.3,390.6c1.2,0.1,2.2-0.4,3.3,0.7c2.3,7.9,2.3,7.9,4.6,15.9c-8.3,5-16.6,9.5-24.7,15.1
			c-5.4,3.8-12.9,10.9-13.6,10.7c-1.1-0.2,0.1-3.8-0.8-4.4c0-4.1,0-4.1,0-8.3c3.9,0,7.9,0,11.8,0c0.8-0.9-1.2-8.3-1.5-9.8
			c0-0.1,0-0.3,0-0.5c3.7-5.7,6.3-15.2,11.6-18C186.2,390.4,188.9,390.2,192.3,390.6z"/>
		<g>
			<path class="st15" d="M152.8,319.9c1-0.7,1.4,2.6,2,5.1c2.1,9.6,6.4,38.9,9.6,54.9c-8.3,0.2-8.3,0.2-16.6,0.5
				c-0.2-4.1-0.4-8.1-0.7-12.2c-0.5-9.1-2.8-43.6-2.7-46.8c0-0.1,0.6-1.4,0.7-1.5c1,0.1,1.7,0.1,2.7-0.5c0.5-0.3,0.3-1.5,1.2-1.5
				C149.2,318,148.6,321.9,152.8,319.9z"/>
			<path class="st40" d="M167.4,392.6c0.1,0.6,0.8,0.9-0.2,2c-9.4,0-9.4,0-18.8,0c-0.3-4.8-0.4-9.4-0.7-14.1
				c8.3-0.2,8.3-0.2,16.6-0.5C165.1,383.3,167.1,388.6,167.4,392.6z"/>
			<g>
				<path class="st41" d="M147.2,368.2c0.2,4.1,0.5,8.1,0.7,12.2c0.2,4.7,0.4,9.4,0.7,14.1c0,0.1-0.1,0.5,0,2
					c0.2,2.9-0.1,5.9,0.5,8.8c10.7,0,10.7,0,21.4,0c0.3,1.6,0.7,3.2,1,4.9c0,0.1,0,0.3,0,0.5c-11,0-11,0-22.1,0
					c-0.5,3.3,0,6.5,0.2,9.8c1,26,3.3,52,4,78c-10.7,3.1-21.4,9.9-30.2,19.5c1.7-20.5,3.6-41,5.3-61.5c1.1-13,4.1-45.8,4.3-54.6
					c0.2,0,0.6,0.1,0.7-0.2c0.6-2.3,2.1-41.9,3-48.8c-0.5-8.2,1.5-16.8-0.7-24.6c0.1,0,0.2-0.1,0.3,0c0.2,0.1,0.9-0.4,1.3,0.7
					C138.3,330.8,139.8,367.4,147.2,368.2z"/>
				<path class="st42" d="M144.5,321.4c-0.2,3.2,2.2,37.7,2.7,46.8c-7.4-0.8-8.9-37.4-9.6-39.3c-0.4-1.1-1.1-0.6-1.3-0.7
					c0.2-4.1,0.2-4.1,0.5-8.3C140.4,320.3,144.1,318.7,144.5,321.4z"/>
			</g>
			<path class="st19" d="M171.4,410.6c0.2,1.5,2.3,8.9,1.5,9.8c-3.9,0-7.9,0-11.8,0c-1.7,0-1.3,0.5-1.3,0.5c-1.7,0-3.6-0.5-5.3-0.5
				c-1.7,0-3.3,0-5,0c-0.1-3.2-0.6-6.5-0.2-9.8C160.4,410.6,160.4,410.6,171.4,410.6z"/>
			<path class="st19" d="M170.4,405.2c-10.7,0-10.7,0-21.4,0c-0.6-2.9-0.3-5.9-0.5-8.8c-0.1-0.5,0.2-1.4,0.5-1.5
				c2.1-0.7,14.9,0.5,19.3,0C169.9,397.8,170,403.1,170.4,405.2z"/>
		</g>
		<g>
			<path class="st30" d="M231.8,393.5c0.1,0.1,0.4-0.1,0.3,0.5c-22.7,7.6-50.9,23.3-71.1,40.5c0-2.9,0-2.9,0-5.9
				c0.9,0.6-0.3,4.2,0.8,4.4c0.8,0.1,8.2-7,13.6-10.7c8.1-5.6,16.4-10.2,24.7-15.1c2.4-1.4,4.7-3.3,7.3-4.1
				c0.5-1.5-0.8-18.2,0.7-22.7c1.2,10.7,1.2,10.7,2.5,21.5c5.5-2.7,11.3-5.9,16.9-7.8C228.7,393.7,230.9,393,231.8,393.5z"/>
			<path class="st25" d="M234.5,374.5c-0.6,4-1.1,8.1-1.7,12.2c-8.4-7-19.1-7.8-26.1-18c-0.4,0.1-0.4,0.1-0.8,0.2
				c-0.3,0.3-3.6,7.8-4.3,9c-0.6,0.9-1.3,1.4-1.5,2.9c-8.4-1.2-8.4-1.2-16.8-2.4c0.9-12.5,1.9-19.4,7.6-29.3
				c10.2-3.5,17.8,10.4,24.7,19C222.2,368.1,228.7,370.2,234.5,374.5z"/>
			<path class="st27" d="M235.5,367.7c-0.4,2.3-0.7,4.6-1,6.8c-5.8-4.3-12.3-6.5-18.8-6.3c-6.9-8.7-14.6-22.5-24.7-19
				c5.7-9.9,12.7-14.8,21.6-15.6c-0.2,0.7-0.2,0.7-0.5,1.5c6,0.7,12.4,7.2,16.1,13.9C231.3,354.6,232.6,361.8,235.5,367.7z"/>
			<path class="st26" d="M238.1,351.1c-1,5.5-1.8,11.1-2.7,16.6c-2.8-5.9-4.2-13.1-7.3-18.8c-3.7-6.7-10.1-13.2-16.1-13.9
				c0.2-0.7,0.2-0.7,0.5-1.5C224,332.5,232.1,336.4,238.1,351.1z"/>
			<path class="st25" d="M202.6,379.4c0.1,0.4,0.6,1.9,0.5,2c-2.7-0.5-8.8,5.9-10.8,9.3c-3.4-0.5-6.2-0.2-9.3,1.5
				c-0.3-0.7-0.3-1.1-0.3-2c0-3,0.4-8.4,0.7-11.7c8.4,1.2,8.4,1.2,16.8,2.4c0.2-1.5,0.9-2,1.5-2.9
				C201.9,378,202.5,379.1,202.6,379.4z"/>
			<path class="st29" d="M232.8,386.7c-0.3,2.3-0.3,4.7-1,6.8c-0.9-0.5-3.1,0.1-4.1,0.5c-5.7,1.9-11.4,5.1-16.9,7.8
				c-1.2-10.7-1.2-10.7-2.5-21.5c-1.6-1.5-4.2-3.8-5.6-1c-0.1-0.3-0.7-1.4-1-1.5c0.7-1.2,4-8.8,4.3-9c0.4-0.1,0.4-0.1,0.8-0.2
				C213.7,378.9,224.4,379.7,232.8,386.7z"/>
			<path class="st29" d="M208.3,380.4c-1.5,4.5-0.1,21.2-0.7,22.7c-2.6,0.9-4.9,2.7-7.3,4.1c-2.3-7.9-2.3-7.9-4.6-15.9
				c-1.1-1.2-2.2-0.6-3.3-0.7c2-3.4,8.1-9.7,10.8-9.3c0.1,0-0.4-1.5-0.5-2C204,376.6,206.7,378.8,208.3,380.4z"/>
		</g>
		<g>
			<path class="st43" d="M132.9,401.8c-0.2,8.9-3.2,41.6-4.3,54.6c-1.5-0.2-1.3,0.5-1.3,0.5c-8.7,2.2-17.6,3.4-26.4,4.4
				c-0.3-5.2-0.1-10.4-0.2-15.6c-0.2-22.1,0.2-42,14.9-54.4c-0.1-1-4.7,2.3-5.3-0.2c9.6-6.4,16.1-6,22.9,6.6
				C133.3,398.3,132.9,399.7,132.9,401.8z"/>
			<path class="st43" d="M117.1,418.4c0.4,0,0.6,0.3,0.8,0.7c-0.2,19.3-0.2,19.3-0.3,38.5c-0.3,0-1.8,0.8-1.8,0.7
				c-1.1-1,1-33.7,0.2-38.3C116.3,419.8,117,418.4,117.1,418.4z"/>
		</g>
		<path class="st44" d="M147.8,319.4c-1,0.5-1.6,0.6-2.7,0.5c0.2-1.9,0.2-4,0.5-5.9C146.4,313.2,147.8,318.5,147.8,319.4z"/>
		<path class="st45" d="M152.1,298c0.2,0.6,0.4,1,0.3,1.7c-6.4,13.5-16.2-1.2-9.6-6.1C147,290.5,151.9,297.3,152.1,298z"/>
		<g>
			<path class="st17" d="M242.5,328.7c0,2.6,0,2.6,0,5.1c-1.8,4.7-3.4,12-4.3,17.3c-6.1-14.7-14.2-18.6-25.6-17.6
				c-8.9,0.8-15.9,5.7-21.6,15.6c-5.7,9.9-6.8,16.8-7.6,29.3c-0.2,3.3-0.7,8.7-0.7,11.7c-7.8-13.1-9.2-10.8-15.3,2.4
				c-0.4-3.9-2.3-9.2-3-12.7c-3.2-16-7.5-45.2-9.6-54.9c-0.6-2.6-1-5.8-2-5.1c-4.6,0.9-3.4-4.9-5-10.7c1.9-0.5,6.6-6.6,9-7.8
				c0,1,0.9,9,1.2,9.3c13-2.8,26.1-1.4,39.2-1.5c0.9-8,1.5-16.1,1.8-24.1c-13.7,1.3-27.5,4.1-41.3,4.1c-0.8,2-0.4,4.2-0.5,6.3
				c-1.3,0.8-1.8,2.2-3.3,2.4c-3.6-4.5-3.6-4.5-7.3-9c0.1-5.3-0.1-10.6,0-15.9c0-0.6,0.8-1.2,1-1.7c-0.3-3.8-0.3-7.6-0.3-11.5
				C188.9,212,239.9,254.6,242.5,328.7z"/>
			<path class="st19" d="M206.6,298.9c-0.2-2.6-0.5-5.2-0.7-7.8c-0.2-2.7-0.2-2.7-0.3-5.4c0-1.2,0-1.2,0-2.4c1-0.3,5.5-1.9,6-1.2
				c0.8,9.2,1.3,18.4,1.8,27.6c-1.2-0.3-5.2,0.5-5.8-0.2C207.2,309,206.8,300.5,206.6,298.9z"/>
			<path class="st46" d="M218.7,278.4c0.3,0,0.6-0.2,0.8,0.2c0.8,15.4,0.8,15.4,1.7,30.7c-2.7,0.1-2.7,0.1-5.5,0.2
				c-0.9-14.3-0.9-14.3-1.8-28.5C214,280.7,218.5,278.4,218.7,278.4z"/>
			<path class="st20" d="M205.6,283.3c0,1.2,0,1.2,0,2.4c-0.2,1.9,0.2,3.6,0.3,5.4c0.2,2.6,0.4,5.2,0.7,7.8
				c-1.2,10.8,3.3,11.7-6.6,10.5c0-12.2,0-12.2,0-24.4C200.3,284,204,283.7,205.6,283.3z"/>
			<path class="st22" d="M205.9,291.1c-0.1-1.8-0.6-3.5-0.3-5.4C205.8,288.4,205.8,288.4,205.9,291.1z"/>
		</g>
	</g>
</g>
<g>
	<g id="Background_00000136397582742350076740000013902961575175560350_" class="st0">
		<path class="st47" d="M538.9,51.3c0,256,0,256,0,512c-256,0-256,0-512,0c0-256,0-256,0-512C282.9,51.3,282.9,51.3,538.9,51.3z"/>
		<path class="st48" d="M246.9,364.8c-7.8,1.6-15.5,4.1-23.5,5c0-2.8-1.7-12.5,0.2-14.5c8.6-2.7,16.8-6.3,24.8-10.5
			C248.1,347,248.3,357.8,246.9,364.8z"/>
		<path class="st48" d="M215.4,355.8c1.4,5.1,0.1,10.4,0,15.5c-11.2-3.2-11.2-3.2-22.5-6.5c0.4-6.8,0.4-6.8,0.8-13.5
			C200.8,353,208,355.4,215.4,355.8z"/>
	</g>
	<g>
		<g>
			<g>
				<path class="st49" d="M124.9,353.8"/>
			</g>
			<g>
				<g>
					<path class="st50" d="M124.9,353.8c-2.1-2-4.6-3.5-6.5-5.8"/>
				</g>
			</g>
		</g>
	</g>
</g>
<g>
	<g class="st0">
		<path class="st51" d="M250.8,545c0,256,0,256,0,512c-256,0-256,0-512,0c0-256,0-256,0-512C-5.2,545-5.2,545,250.8,545z"/>
		<path class="st52" d="M211.8,885c-3.7-2.3-8.8-0.3-10.8-4.5c-0.9-0.3-4.5,1.7-7.5-1.5c-2.9,0-5.6,0.5-8-1.5
			c-19.1,1.6-14.1-6.8-14.8-8.2c-0.2-0.5-1.1-0.2-1.5-0.2c0.5-45.7,0.8-91.8,0-137.5c5.5,7.1,11.8,14.3,16,22.2
			C200.2,781.6,211.1,852.8,211.8,885z"/>
		<path class="st53" d="M-179.2,759.5c-0.3,41.6-1,85.6,0,127c-0.4,4.2-0.4,4.2-0.8,8.5c-3.9-5.7-10.1,2.2-19,1
			c-4.5,2.8-4.5,2.8-9,5.5c-9.3-0.6-6.8,6.1-13.2-1.5c-0.6-31.2,6.2-72.1,18.5-101c3.2-7.4,17-32.7,21.5-38.8
			C-180.5,759.3-180.1,758.8-179.2,759.5z"/>
		<path class="st54" d="M133.8,961c-5.4,8.9-0.2,3,3.2,10.5c4.8,0.3,4.5,1.9,6.5,3c7.4,3.9,12.9,4.2,20.2,7.5
			c-16.6,7.4-43.8,9-61.5,5.5c-10.2-2-25.5-12.1-50.2-15c-13.8-1.6-76.2-1.6-95.5-1.5c-37.9,0.2-52.3-1.6-89.8,15.5
			c-1.8,0-2.4,0.5-3,0.5c-2.2-0.6-2.2-0.6-4.5-1.2c1.8,0.7,6-6.1,7.5-8.5c1.9-3.2-1.3-6.3,12.5-9.5c0.1-2.9-8.1,3.9-11-3.8
			c2.1,0.4,3.9,0.8,6,1c17.9,1.8,88.5,0,115,0c1.7,0,3.3,0,5,0c25.5,0,106.3,1.4,123,0C122.4,964.6,129,962.9,133.8,961z"/>
		<path class="st52" d="M211.8,885c0.5,25.6-0.7,47.8-15.5,69.5c-4.1-0.2,3.2-2.4-1.2-5c-2.4,4.8-14.1-4.1-21-5.5
			c-4.4-4.5-10.2-5.4-9-7.5c-0.8-0.3-4.1,1.9-4.8,2.5c9-16.9,8.5-27.6,9-45.5c0.2-8.2-0.1-16.3,0-24.5c0.4,0,1.3-0.2,1.5,0.2
			c0.7,1.5-4.3,9.9,14.8,8.2c2.4,2,5.1,1.5,8,1.5c3,3.2,6.6,1.2,7.5,1.5C203,884.7,208.1,882.7,211.8,885z"/>
		<path class="st53" d="M102.3,987.5c-1.7,0.9-12.1,3.2-12.2,0.5c-19.2,0.1-37.9-5.5-57-7.5c-49.8-3.9-100.7-3.1-149.8,6.2
			c0.4,0.4,0.4,0.4,0.8,0.8c-5.8,0-11.5-1-17.2-1c37.4-17.1,51.8-15.3,89.8-15.5c19.3-0.1,81.7-0.1,95.5,1.5
			C76.8,975.4,92,985.5,102.3,987.5z"/>
		<path class="st52" d="M-179.2,893c0.5,13.7,0.3,23.4,5.5,36.5c-2.6-0.8,0-3.5-4.2-2c-7.2,6.5-18.4,12.4-25.5,18
			c-1.8,1.4-2.8,4.5-5.8,4.5c-9.3-15.9-11.6-31.8-12-50c6.5,7.6,4,0.9,13.2,1.5c4.5-2.8,4.5-2.8,9-5.5c8.9,1.2,15.1-6.7,19-1
			c0.4-4.2,0.4-4.2,0.8-8.5C-179.2,888.7-179.3,890.8-179.2,893z"/>
		<path class="st54" d="M196.3,954.5c-8.4,12.3-18.8,21.4-32.5,27.5c-7.3-3.3-12.9-3.6-20.2-7.5c-2-1.1-1.7-2.7-6.5-3
			c-3.5-7.5-8.7-1.6-3.2-10.5c17.2-6.9,23.7-19.5,26.5-22c0.7-0.6,3.9-2.8,4.8-2.5c-1.2,2.1,4.6,3,9,7.5c6.9,1.4,18.6,10.3,21,5.5
			C199.4,952.1,192.2,954.3,196.3,954.5z"/>
		<path class="st54" d="M-131.7,964c2.9,7.6,11.1,0.8,11,3.8c-13.8,3.2-10.6,6.3-12.5,9.5c-1.5,2.4-5.7,9.2-7.5,8.5
			c2.2,0.6,2.2,0.6,4.5,1.2c-20.9-0.5-34.2-1.3-52-14c2.5-1.3,2.1-2.1,2.8-2.5c0.1-0.1,1.7,0.1,2.5-0.5c1.1-0.8,0.4-1.7,1.5-2.5
			c7.4-5.8,14.5-11.1,21.2-17.5C-152.7,957-141.7,962.1-131.7,964z"/>
		<path class="st52" d="M-173.7,929.5c2.7,6.7,8.2,15.5,13.5,20.5c-6.7,6.4-13.9,11.7-21.2,17.5c-1.1,0.8-0.4,1.7-1.5,2.5
			c-0.8,0.6-2.4,0.4-2.5,0.5c-0.6,0.4-0.2,1.2-2.8,2.5c-8.1-5.8-16-14.5-21-23c3,0,4-3.1,5.8-4.5c7.1-5.6,18.3-11.5,25.5-18
			C-173.8,926-176.3,928.7-173.7,929.5z"/>
		<path class="st51" d="M-179.2,759.5c-0.8-0.7-1.3-0.2-2,0.8c-4.5,6-18.3,31.3-21.5,38.8c1.4-20.2,3.9-46.8,11.5-65.2
			c2.4-5.9,9-16.7,12-23.8C-180,724.5-179.1,744.1-179.2,759.5z"/>
	</g>
</g>
<g>
	<g class="st0">
		<path class="st55" d="M-1027,967.2c0-254.5,0-254.5,0-508.9c256,0,256,0,511.9,0c0,254.7,0,254.7,0,509.4
			c-34.4-0.5-34.4-0.5-68.7-1c-3.5,1-7.4,0.3-11,0.5c-0.4,0-0.1,1-0.5,1c-1.2,0.1-2.6-1.6-7.5-1c-0.5,0.1-0.8,1.5-1,1.5
			c-3.4,0.4-8.8-1-9.2,1.5c-102.6,0.1-205.3,0.1-307.9,0C-956,965.8-991.7,968.3-1027,967.2z"/>
		<path class="st55" d="M-515.1,967.7c0,1.2,0,1.2,0,2.5c-32.7,0-65.3,0-98,0c0.4-2.5,5.8-1.1,9.2-1.5c0.2,0,0.5-1.4,1-1.5
			c4.9-0.6,6.3,1.1,7.5,1c0.4,0,0.1-1,0.5-1c3.6-0.2,7.5,0.5,11-0.5C-549.5,967.2-549.5,967.2-515.1,967.7z"/>
		<path class="st55" d="M-921,970.2c-35.3,0-70.7,0-106,0c0-1.5,0-1.5,0-3C-991.7,968.3-956,965.8-921,970.2z"/>
		<path class="st55" d="M-961.5,919.2c5.6,0,11.4-0.7,17-1c6.2,9.4,15.9,9.6,24.8,14.5c14.5,2,14.5,2,29,4c76.6,4.3,153.3,2,230,1.5
			c0.6-0.7,3.5-1.5,4-1.5c23-1.7,46.3-3.6,68.5-10c9.2-4.2,9.2-4.2,18.5-8.5c12.3-14.1,22-30.8,25.2-49.2c-2.7-4.8-0.1-8.6,0-12.5
			c0.2-8.5,0.5-18.4-2-26.5c3.1-12.8-4.1-25-2-38c-3.4-10.9-2.6-24.5-4-35.5c-0.1-1.1-1.3-3.7-1.5-5c-1-7.7-1.6-15.4-2.5-23
			c-5.4-14.3-7.3-29.8-11.5-44.5c-1-3.5-2.9-7.1-4-10.5c-0.9-2.9-0.1-7.1-2.5-5.8c-0.1-6.2,0.7-12.2-1.5-10.5c0.1-2.3-0.1-4.7,0-7
			c0.5,4.9,2.9,2.6,5,4.8c6.6,6.7,18.7,33.3,20,44c0.4,0.5,2.5,1.8,2.5,2c3.1,8.7,1.7,17.5,6.5,25.5c-1.1,9.5,2.1,19,3,28.5
			c1.2,3.8,6.8,5.3,5,16.5c4.1,11.9,2.7,24.9,3.5,37.5c8.5,9.6-5.2,12.1,1.8,12.2c3.7,3.9-1.1,2.4-1.8,3.8
			c-0.8,1.7,2.6,13.8,2.5,21.5c0,2-1.5,4.7-1.5,5c-0.7,9.2,5.2,7.1,0.5,13c1.4,2-0.7,11.2-1.5,14c-3.9,13.5-25.3,46-37.2,53.7
			c-26.8,17.3-81.2,17.6-113,20.5c-33.7-0.3-67.3,0.3-101,0c-4.9,0-10.1-0.9-15-1c-37.9-0.5-95.6,1.6-131.5-9.5
			c-1.2-0.4-3.6-3.2-6.5-2C-942.8,933.8-961.2,930.9-961.5,919.2z"/>
		<path class="st56" d="M-884,908.7c2.8,2.3,5.8,2.7,9,3.8c0.2,0.3-1.4,2.2-2.8,1.8c-1.5-0.5,2-3.5-3.2,1c-21.2,0.8-42.3,1.9-63.5,3
			c-5.6,0.3-11.4,1-17,1c-1.5,0-3.1-0.3-3.8,0.5c-1-0.7-0.6-1.3-0.8-2C-938.8,914-911.4,911.6-884,908.7z"/>
		<path class="st57" d="M-944.5,918.2c21.2-1.1,42.3-2.2,63.5-3c9.5-0.4,19-0.7,28.5-1c21.2-0.7,42.5-1.5,63.7-2.5
			c28.6-0.4,57.2,1.2,85.7,2c19.7,0.6,39.3,1.2,59,2c22.8,0.9,45.5,2.4,68.2,3.5c1-0.7,0.7-1.4,0.8-1.5c0.4-0.6,0.3-0.7,0.5-1
			c1.7-3.3,1.3-7.5,1-11.2c2.8-1,6.8-14.8,7.5-18.5c5.8-29.3-3.8-96.9-5-130.5c-2.2-4.1-1.5-11.6-4-13.2c0.2-25.2,0.7-50.3,0.5-75.5
			c2.4-1.4,1.6,2.8,2.5,5.8c1.1,3.4,3,7,4,10.5c4.2,14.7,6,30.2,11.5,44.5c0.9,7.6,1.5,15.3,2.5,23c0.2,1.3,1.4,3.9,1.5,5
			c1.4,11,0.6,24.6,4,35.5c-2.1,13,5.1,25.2,2,38c2.5,8.1,2.2,18,2,26.5c-0.1,3.9-2.7,7.7,0,12.5c-3.3,18.5-13,35.2-25.2,49.2
			c-9.2,4.2-9.2,4.2-18.5,8.5c-22.2,6.4-45.5,8.3-68.5,10c-0.5,0-3.4,0.8-4,1.5c-76.6,0.5-153.4,2.8-230-1.5c-14.5-2-14.5-2-29-4
			C-928.6,927.9-938.3,927.7-944.5,918.2z"/>
		<path class="st58" d="M-574.6,916.7c-0.3,0-1-0.6-1-0.8c-0.3-5.2,0.1-37.3,0-49.7c0-7.5,0-15,0-22.5c0-13.2,0-26.3,0-39.5
			c0-20.3,0.4-40.7,0.5-61c2.5,1.7,1.8,9.2,4,13.2c1.2,33.5,10.8,101.1,5,130.5c-0.7,3.7-4.7,17.5-7.5,18.5
			C-573.2,909.2-572.9,913.4-574.6,916.7z"/>
		<path class="st56" d="M-758,896.8c0,0.3,0.7,1,0.8,1c29.4,0.8,58.6,6.9,87.7,10.5c-1.8,1.8-6,0.2-6.2,5.5
			c16.2,0.5,16.2,0.5,32.5,1c-0.4,0.5-0.4,0.5-0.8,1c-19.7-0.8-39.3-1.4-59-2c0-0.4,0.2-1.3-0.2-1.5c-1.3-0.6-24.9-2.3-28.5-2.5
			c-38.3-2.3-76.7,0.4-115,3c-1.5,0.1-5.9,0.3-5.8,1.5c-9.5,0.3-19,0.6-28.5,1c5.3-4.5,1.8-1.5,3.2-1c1.3,0.4,3-1.4,2.8-1.8
			c-3.2-1.1-6.2-1.5-9-3.8c5.2-0.5,10.3-1,15.5-1.5c18.8-1.9,37.6-4.2,56.5-6c1.6,0.3,2.2-0.5,2.5-0.5c0.5,0,1,0,1.5,0
			c1.5-0.2,3-0.4,4.5-0.5c3.3-0.3,8.2,0.3,11,0c0.7-0.1,1.3,0.1,2,0c9.1-0.8,18.1-2,27.2-2C-762.5,897.4-759.3,896.9-758,896.8z"/>
		<path class="st56" d="M-703.1,913.7c-28.6-0.8-57.1-2.4-85.7-2c-21.2,1-42.5,1.8-63.7,2.5c-0.1-1.2,4.3-1.4,5.8-1.5
			c38.3-2.6,76.6-5.3,115-3c3.6,0.2,27.2,1.9,28.5,2.5C-702.9,912.5-703.1,913.3-703.1,913.7z"/>
		<path class="st56" d="M-575.1,917.7c0,0.1,0.2,0.8-0.8,1.5c-22.7-1.1-45.5-2.6-68.2-3.5c0.4-0.5,0.4-0.5,0.8-1
			c-16.2-0.5-16.2-0.5-32.5-1c0.2-5.3,4.5-3.7,6.2-5.5C-638.1,912.1-606.8,916.5-575.1,917.7z"/>
	</g>
</g>
</svg>
